<svg width="200" height="200" viewBox="0 0 200 200" fill="none" xmlns="http://www.w3.org/2000/svg">
<g clip-path="url(#clip0_69_6015)">
<path d="M113.124 122.341C112.778 123.095 113.177 124.375 113.315 125.945C113.618 129.387 116.037 128.538 116.037 128.538L116.067 127.808C116.067 127.808 115.146 127.649 115.17 127.075C115.17 127.075 115.958 127.379 116.59 127.068C117.222 126.756 117.198 125.576 117.198 125.576C117.198 125.576 116.536 126.618 115.891 126.378C115.246 126.139 115.193 125.401 115.193 125.401C115.193 125.401 115.773 126.159 116.27 126.019C116.767 125.878 116.867 125.363 116.867 125.363C116.867 125.363 115.919 125.711 115.677 124.978C115.434 124.244 114.894 123.219 114.457 122.509C114.02 121.8 113.308 121.939 113.124 122.341Z" fill="#4C1E48"/>
<path d="M114.168 130.969L114.619 130.699C114.619 130.699 116.723 131.591 117.775 132.618C118.827 133.645 118.658 133.321 118.658 133.321C118.658 133.321 117.963 132.834 117.568 131.402C117.174 129.969 117.099 129.05 117.099 129.05C117.099 129.05 116.873 128.726 116.272 128.726C115.671 128.726 115.802 128.186 116.009 127.888C116.216 127.591 116.61 127.158 116.798 127.158C116.986 127.158 117.277 127.604 117.474 127.888C117.672 128.172 119.508 132.492 119.865 133.681C120.222 134.871 119.754 135.522 119.171 135.522C118.589 135.522 115.126 134.105 115.126 134.105L114.168 130.969Z" fill="#FD5E5A"/>
<path d="M115.504 173.441C115.504 174.636 106.119 175.605 94.5419 175.605C82.965 175.605 73.5801 174.636 73.5801 173.441C73.5801 172.246 82.965 171.277 94.5419 171.277C106.119 171.277 115.504 172.246 115.504 173.441Z" fill="#5CA9FF"/>
<path d="M108.725 141.852C108.725 141.852 108.715 141.916 108.696 142.036C108.447 143.637 106.656 155.201 106.656 157.36C106.656 157.36 105.446 171.747 106.145 173.178C106.145 173.178 107.838 174.067 108.026 174.647H104.828C104.828 174.647 105.016 173.565 105.016 173.294C105.016 173.023 103.833 166.371 103.833 162.581C103.833 158.791 104.586 157.747 104.586 157.476C104.586 157.206 104.21 146.957 104.21 145.217C104.21 143.476 104.219 140.73 104.219 140.73C104.219 140.73 103.716 136.713 104.925 136.713C106.135 136.713 108.161 137.984 108.161 137.984L108.725 141.852Z" fill="#42210B"/>
<path d="M85.402 125.985C85.402 125.985 88.3262 126.038 88.869 126.261C89.4119 126.484 95.3122 131.618 96.4869 133.095C97.6617 134.572 103.299 140.222 104.214 142.588C104.214 142.588 107.073 143.082 108.417 142.186C109.141 141.704 108.359 140.41 108.392 139.274C108.458 136.966 103.432 134.014 101.695 133.045C99.9588 132.076 97.7598 131.114 97.7598 131.114C97.7598 131.114 97.0282 129.728 95.9422 128.438C94.8562 127.148 90.4249 125.391 89.1841 124.882C87.9434 124.373 85.9328 123.73 85.5341 124.049C85.1355 124.368 85.402 125.985 85.402 125.985Z" fill="#4F3554"/>
<path d="M114.652 130.617C114.652 130.617 113.785 130.617 112.777 130.617C111.769 130.617 111.265 130.617 111.265 130.617C111.265 130.617 110.298 136.592 109.39 137.434C108.483 138.275 107.802 137.052 107.802 137.052C107.802 137.052 108.161 143.061 108.846 143.467C109.532 143.873 113.316 138.238 114.148 137.042C114.98 135.845 115.358 135.142 115.358 134.069C115.358 132.996 114.652 130.617 114.652 130.617Z" fill="#29C1C1"/>
<path d="M113.57 133.383C113.57 133.383 113.422 133.294 113.301 133.351C113.18 133.408 113.019 134.107 113.106 134.69C113.194 135.273 113.826 134 113.57 133.383Z" fill="#FD5E5A"/>
<path d="M111.447 131.469L111.265 130.617C111.265 130.617 109.915 130.788 109.35 132.491C108.786 134.195 108.608 140.455 109.443 141.17C110.278 141.885 112.74 139.235 113.201 137.918C113.661 136.601 113.846 135.825 113.846 135.825C113.846 135.825 114.471 134.998 114.692 134.73C114.914 134.462 114.859 134.322 114.692 134.122C114.526 133.921 114.45 133.805 114.45 133.659C114.45 133.513 114.299 133.611 114.209 133.343C114.118 133.075 113.896 133.136 113.584 133.209C113.271 133.282 113.553 134.134 113.271 134.304C112.989 134.474 113.191 134.852 113.039 135.326C112.888 135.801 110.506 138.883 110.351 139.07C110.087 139.389 111.663 132.146 111.447 131.469Z" fill="#FF8888"/>
<path d="M113.265 126.568C113.265 126.568 114.253 130.632 113.996 131.835C113.852 132.512 113.411 132.037 113.092 132.114C112.851 132.172 112.632 131.903 112.612 131.544C112.559 130.61 112.429 128.831 112.174 128.112C111.822 127.114 113.265 126.568 113.265 126.568Z" fill="#FC7575"/>
<path d="M113.265 126.568C113.265 126.568 113.351 126.874 113.464 127.334C113.379 128.036 113.21 128.825 112.93 129.685C112.796 130.094 112.67 130.411 112.552 130.654C112.481 129.738 112.361 128.64 112.174 128.111C111.822 127.114 113.265 126.568 113.265 126.568Z" fill="#FD5E5A"/>
<path d="M113.332 124.254C113.194 123.927 112.813 123.536 112.377 123.353C111.435 122.958 110.591 124.228 110.761 125.747C110.776 125.885 110.8 126.018 110.836 126.14C111.064 126.914 110.739 127.526 110.739 127.526C110.739 127.526 110.798 127.706 110.941 127.704C111.083 127.703 111.087 127.804 111.069 127.946C111.05 128.088 111.009 128.13 111.062 128.213C111.115 128.295 111.253 128.276 111.253 128.276C111.253 128.276 111.198 128.507 111.254 128.596C111.311 128.684 111.363 128.654 111.363 128.654C111.363 128.654 111.498 128.688 111.498 128.824C111.499 128.96 111.581 129.081 111.645 129.166C111.736 129.285 112.259 129.807 112.997 128.078C113.736 126.348 113.646 124.996 113.332 124.254Z" fill="#FC7575"/>
<path d="M110.831 125.956C110.831 125.956 111.222 125.699 111.603 126.205C111.603 126.205 111.183 125.913 110.899 126.064L110.831 125.956Z" fill="#422549"/>
<path d="M111.07 126.425C111.07 126.425 110.987 126.6 111.018 126.698C111.049 126.795 111.102 126.801 111.102 126.801L111.07 126.425Z" fill="#18287D"/>
<path d="M111.375 126.696C111.375 126.696 111.152 126.483 110.981 126.401C110.81 126.319 110.773 126.214 110.773 126.214C110.773 126.214 110.947 126.348 111.107 126.408C111.267 126.468 111.375 126.696 111.375 126.696Z" fill="#0F1D5B"/>
<path d="M111.524 127.958C111.459 128.102 111.362 128.214 111.253 128.276C111.368 128.231 111.475 128.137 111.558 127.988C111.565 127.976 111.564 127.957 111.556 127.947C111.547 127.936 111.535 127.938 111.528 127.951C111.527 127.951 111.527 127.952 111.527 127.953L111.524 127.958Z" fill="#0F1D5B"/>
<path d="M112.106 122.528C113.132 122.221 113.546 123.438 113.986 124.558C114.427 125.678 113.462 127.135 113.374 126.979C113.374 126.979 112.745 125.665 112.366 125.8C111.986 125.935 110.746 125.137 110.746 125.137C110.751 125.103 110.764 124.685 110.774 124.447C110.782 124.265 110.713 124.156 110.782 123.973C111.018 123.348 111.496 122.711 112.106 122.528Z" fill="#5C2C55"/>
<path d="M112.635 124.89C112.951 125.157 113.562 125.942 113.809 126.262C113.878 126.351 113.841 126.504 113.788 126.614C113.585 127.027 113.415 127.052 113.374 126.979C113.374 126.979 112.759 125.884 112.394 125.688C112.027 125.491 111.024 125.285 110.74 125.26C110.631 125.251 110.695 123.941 110.782 123.972C111.188 124.119 112.054 124.397 112.635 124.89Z" fill="#2ADCDF"/>
<path d="M112.366 125.8C112.366 125.8 112.11 125.457 112.474 125.141C112.837 124.824 113.032 125.775 112.868 126.142C112.703 126.51 112.366 125.8 112.366 125.8Z" fill="#FC7575"/>
<path d="M112.502 125.804C112.502 125.804 112.296 125.388 112.478 125.344C112.661 125.301 112.884 125.749 112.775 125.908C112.667 126.066 112.502 125.804 112.502 125.804Z" fill="#FD5E5A"/>
<path d="M113.996 130.617C113.996 130.617 115.002 133.077 114.539 133.214C114.077 133.352 112.265 133.745 112.265 133.214C112.265 132.684 112.265 130.617 112.265 130.617H113.996Z" fill="#FC7575"/>
<path d="M77.6509 116.749C77.5937 116.714 77.2473 116.505 77.1327 116.505C77.0181 116.505 76.7543 117.02 76.8231 117.119C76.8919 117.218 77.6509 116.749 77.6509 116.749Z" fill="#ED5454"/>
<path d="M76.9567 116.897C76.9567 116.897 76.2956 117.465 76.2956 117.911C76.2956 118.356 76.4293 119.066 76.6262 118.983C76.8231 118.901 76.6855 117.812 76.6855 117.812L77.0524 117.828L76.9567 116.897Z" fill="#FC7575"/>
<path d="M77.2702 116.897C77.2702 116.897 76.7798 116.646 76.674 116.798C76.5682 116.95 76.3816 117.638 76.4676 117.762C76.5536 117.886 77.2702 116.897 77.2702 116.897Z" fill="#FC7575"/>
<path d="M74.78 143.71L75.4969 145.376C75.4969 145.376 76.9582 156.048 76.9582 157.119C76.9582 158.19 77.4821 171.242 77.4821 171.242L77.3442 172.194L77.3718 172.71C77.3718 172.71 78.3368 172.472 79.1364 172.71C79.936 172.948 80.1841 172.71 80.1841 172.71C80.1841 172.71 78.9434 171.877 78.4195 171.639C77.8957 171.401 78.2265 171.52 78.2265 171.52L78.6125 155.612L78.0059 138.87L74.78 143.71Z" fill="#6E1D6B"/>
<path d="M72.85 137.284C72.85 137.226 72.8383 137.083 72.818 136.877C74.6219 136.821 76.4234 136.797 78.2757 137.075C78.1864 139.592 78.1157 140.937 78.1157 140.937C78.1157 140.937 75.8415 144.881 75.4968 145.377C75.1522 145.872 73.0649 156.426 73.0649 156.426C73.0649 156.426 69.9273 169.814 70.1479 170.845C70.3685 171.877 70.8924 173.702 70.8924 173.702H69.2202V170.818L70.8097 153.866C70.8097 153.866 72.85 137.998 72.85 137.284Z" fill="#93278F"/>
<path d="M72.818 136.877C72.8383 137.083 72.85 137.226 72.85 137.283C72.85 137.411 72.7847 138.023 72.6776 138.943C73.6338 138.359 75.996 137.075 78.2757 137.075C76.4234 136.797 74.6219 136.821 72.818 136.877Z" fill="#7C1C7C"/>
<path d="M76.3964 119.522C76.3964 119.522 74.9116 121.344 76.2366 125.394C77.5616 129.444 82.1468 130.138 82.6465 129.301C83.1463 128.465 82.7306 119.276 82.1368 117.348C81.543 115.42 80.7153 116.571 80.7153 117.348C80.7153 118.125 80.9804 118.718 81.3183 119.284C81.6562 119.849 81.8238 127.188 80.9346 126.484C80.0453 125.78 77.8317 118.872 76.3964 119.522Z" fill="#ED5454"/>
<path d="M81.5932 116.356C81.5361 116.321 81.1896 116.112 81.075 116.112C80.9604 116.112 80.6966 116.627 80.7654 116.726C80.8342 116.825 81.5932 116.356 81.5932 116.356Z" fill="#ED5454"/>
<path d="M80.8991 116.504C80.8991 116.504 80.238 117.072 80.238 117.518C80.238 117.963 80.3716 118.673 80.5685 118.59C80.7654 118.508 80.6278 117.419 80.6278 117.419L80.9947 117.435L80.8991 116.504Z" fill="#ED5454"/>
<path d="M81.2126 116.504C81.2126 116.504 80.7221 116.253 80.6163 116.405C80.5105 116.557 80.324 117.246 80.41 117.369C80.496 117.493 81.2126 116.504 81.2126 116.504Z" fill="#ED5454"/>
<path d="M73.2051 110.744C73.181 109.928 72.2682 109.463 71.8448 110.525L71.9767 110.669C72.3376 109.844 73.0293 110.057 73.2051 110.744Z" fill="#5C2C55"/>
<path d="M72.31 137.608C72.0957 135.434 71.3571 125.001 71.1653 123.511C71.1492 123.387 71.1405 123.319 71.1405 123.319C71.1405 123.319 71.5541 119.987 71.6368 119.868C71.7195 119.749 73.622 119.312 74.9454 119.312C76.2689 119.312 77.5096 119.551 77.5096 119.551C77.5096 119.551 78.0886 122.169 78.0886 124.906C78.0886 126.456 78.4326 132.649 78.2757 137.075C76.4234 136.798 74.114 137.552 72.31 137.608Z" fill="#C5C6FC"/>
<path d="M78.2678 130.908C78.2389 129.737 78.2017 128.625 78.1686 127.668C77.9557 128.292 77.7218 128.626 77.482 128.45C76.4546 127.696 75.5315 127.424 71.5711 120.166C71.4274 121.008 71.1405 123.319 71.1405 123.319C71.1623 123.523 71.1839 123.501 71.3469 125.455C72.6353 129.107 76.6447 130.933 78.2678 130.908Z" fill="#A3A7E2"/>
<path d="M73.3256 119.459L73.7598 115.117L75.0419 116.173L75.7243 119.387C75.7243 119.387 75.7733 123.21 73.3256 119.459Z" fill="#FC7575"/>
<path d="M73.7598 115.117L75.0419 116.173L75.5315 118.479C74.922 118.462 74.1044 117.905 73.6622 116.711C73.6457 116.667 73.6297 116.621 73.6141 116.574L73.7598 115.117Z" fill="#FD5E5A"/>
<path d="M75.1108 110.347C75.1108 110.347 76.1861 111.002 76.1861 112.291C76.1861 113.58 76.6135 116.793 76.1861 117.408C75.7588 118.023 74.3091 117.674 73.6622 116.093C73.0154 114.512 73.1222 111.234 73.3255 110.942C73.5289 110.649 74.7111 109.772 75.1108 110.347Z" fill="#FC7575"/>
<path d="M74.3251 110.823V110.942C74.3251 110.942 74.587 112.529 75.5934 112.787C76.5998 113.044 76.7238 112.291 76.7238 112.291C76.7238 112.291 77.7715 112.925 77.8542 111.418C77.9369 109.91 77.0409 109.573 77.0409 109.573C77.0409 109.573 77.3442 110.605 76.9582 110.486C76.5721 110.367 76.9262 109.494 76.5148 109.295C76.1034 109.097 75.7244 109.414 75.7244 109.414C75.7244 109.414 75.0833 109.335 74.6284 108.978C74.1734 108.621 73.2675 108.919 73.169 109.474C73.0706 110.029 73.043 110.406 73.043 110.406C73.0509 110.298 72.7665 110.434 72.7533 110.445C71.8601 111.147 72.5211 113.143 72.9599 114.459C73.0893 114.846 73.2279 115.23 73.3858 115.595C73.4614 115.77 73.547 115.971 73.6622 116.093C73.6622 116.093 73.167 114.234 73.3255 113.62C73.4841 113.005 73.6771 113.659 73.7598 113.024C73.8425 112.39 73.4979 112.31 73.4979 111.795C73.4979 111.279 74.3251 110.823 74.3251 110.823Z" fill="#5C2C55"/>
<path d="M73.7254 113.669C73.7254 113.669 73.3394 112.717 73.105 113.054C72.8706 113.392 73.2911 115.306 73.5255 115.117C73.7598 114.929 73.7254 113.669 73.7254 113.669Z" fill="#FC7575"/>
<path d="M76.1965 115.719C76.1965 115.719 75.767 116.139 75.1755 115.964C75.1755 115.964 75.5027 116.504 75.7491 116.505C75.9956 116.506 76.1965 115.719 76.1965 115.719Z" fill="white"/>
<path d="M73.5818 113.768C73.5818 113.768 73.2923 113.203 73.2165 113.51C73.1406 113.818 73.4646 115.028 73.5818 114.859C73.699 114.691 73.5818 113.768 73.5818 113.768Z" fill="#FD5E5A"/>
<path d="M75.847 114.288C75.9662 114.632 75.9769 114.746 76.0095 115.064C75.9761 115.07 75.9306 115.088 75.686 115.117C75.7726 115.074 75.8594 115.032 75.9472 114.998C75.9148 114.765 75.6326 113.784 75.5315 113.679C75.6508 113.752 75.7917 114.121 75.847 114.288Z" fill="#2846A6"/>
<path d="M74.7726 113.738C74.7726 113.914 74.8422 114.056 74.9282 114.056C75.0141 114.056 75.0838 113.913 75.0838 113.738C75.0838 113.562 75.0141 113.419 74.9282 113.419C74.8422 113.419 74.7726 113.562 74.7726 113.738Z" fill="#2846A6"/>
<path d="M75.8852 113.738C75.8852 113.914 75.9549 114.056 76.0409 114.056C76.1268 114.056 76.1965 113.913 76.1965 113.738C76.1965 113.562 76.1268 113.419 76.0409 113.419C75.9549 113.419 75.8852 113.562 75.8852 113.738Z" fill="#2846A6"/>
<path d="M75.0155 112.796C75.0155 112.796 74.6098 112.683 74.4021 112.982C74.1943 113.281 74.2711 113.471 74.3262 113.471C74.3813 113.471 74.3962 112.953 74.6019 112.982C75.1755 113.064 75.1838 112.818 75.0155 112.796Z" fill="#2846A6"/>
<path d="M71.6368 119.868C71.6368 119.868 69.9091 121.69 71.4509 125.74C72.9928 129.79 78.3283 130.485 78.9098 129.648C79.4914 128.811 79.0077 119.623 78.3167 117.694C78.0362 116.912 77.6104 116.701 77.4233 116.637C77.0138 116.498 76.6626 117.233 76.6626 117.694C76.6626 118.472 76.9711 119.064 77.3643 119.63C77.7575 120.196 77.9525 127.534 76.9177 126.83C75.8829 126.127 73.3071 119.218 71.6368 119.868Z" fill="#FC7575"/>
<path d="M79.8563 129.96H77.948C77.6096 129.96 77.3352 129.566 77.3352 129.079V119.361C77.3352 118.874 77.6096 118.479 77.948 118.479H79.8563C80.1948 118.479 80.4691 118.874 80.4691 119.361V129.079C80.4692 129.566 80.1948 129.96 79.8563 129.96Z" fill="#00CCCC"/>
<path d="M79.9889 121.108H78.6304C78.2065 121.108 77.8596 120.609 77.8596 119.999C77.8596 119.389 78.2065 118.89 78.6304 118.89H79.9889C80.4128 118.89 80.7597 119.389 80.7597 119.999C80.7597 120.609 80.4128 121.108 79.9889 121.108Z" fill="#0EE0DA"/>
<path d="M80.0936 123.747H78.7351C78.3112 123.747 77.9644 123.248 77.9644 122.638C77.9644 122.028 78.3112 121.529 78.7351 121.529H80.0936C80.5175 121.529 80.8644 122.028 80.8644 122.638C80.8644 123.248 80.5175 123.747 80.0936 123.747Z" fill="#0EE0DA"/>
<path d="M80.1079 126.387H78.8278C78.4117 126.387 78.0714 125.897 78.0714 125.298V125.257C78.0714 124.659 78.4118 124.169 78.8278 124.169H80.1079C80.5239 124.169 80.8644 124.659 80.8644 125.257V125.298C80.8644 125.897 80.5239 126.387 80.1079 126.387Z" fill="#0EE0DA"/>
<path d="M80.1289 129.026H78.9596C78.5551 129.026 78.2242 128.55 78.2242 127.968V127.867C78.2242 127.285 78.5551 126.808 78.9596 126.808H80.1289C80.5334 126.808 80.8643 127.285 80.8643 127.867V127.968C80.8644 128.55 80.5334 129.026 80.1289 129.026Z" fill="#0EE0DA"/>
<path d="M81.9521 120.825L81.4782 121.155L81.353 119.999L81.9521 120.166V120.825Z" fill="#1B1464"/>
<path d="M81.9521 125.538L81.3712 125.648L81.4591 124.452L81.9521 124.609V125.538Z" fill="#1B1464"/>
<path d="M83.6019 129.96H82.412C82.0736 129.96 81.7992 129.566 81.7992 129.079V119.361C81.7992 118.874 82.0736 118.479 82.412 118.479H83.6019C83.9403 118.479 84.2147 118.874 84.2147 119.361V129.079C84.2147 129.566 83.9403 129.96 83.6019 129.96Z" fill="#00CCCC"/>
<path d="M83.7904 121.108H82.9443C82.5764 121.108 82.2755 120.675 82.2755 120.145V119.852C82.2755 119.323 82.5764 118.89 82.9443 118.89H83.7904C84.1583 118.89 84.4593 119.323 84.4593 119.852V120.145C84.4593 120.675 84.1583 121.108 83.7904 121.108Z" fill="#0EE0DA"/>
<path d="M83.9203 126.438H83.0743C82.7064 126.438 82.4054 126.004 82.4054 125.475V125.182C82.4054 124.653 82.7064 124.219 83.0743 124.219H83.9203C84.2882 124.219 84.5892 124.653 84.5892 125.182V125.475C84.5892 126.004 84.2882 126.438 83.9203 126.438Z" fill="#0EE0DA"/>
<path d="M83.9203 128.835H83.0743C82.7064 128.835 82.4054 128.402 82.4054 127.873V127.58C82.4054 127.05 82.7064 126.617 83.0743 126.617H83.9203C84.2882 126.617 84.5892 127.05 84.5892 127.58V127.873C84.5892 128.402 84.2882 128.835 83.9203 128.835Z" fill="#0EE0DA"/>
<path d="M83.9256 123.747H83.0689C82.6998 123.747 82.3977 123.313 82.3977 122.782V122.495C82.3977 121.964 82.6998 121.529 83.0689 121.529H83.9256C84.2948 121.529 84.5968 121.964 84.5968 122.495V122.782C84.5969 123.313 84.2948 123.747 83.9256 123.747Z" fill="#0EE0DA"/>
<path d="M91.4326 122.019C89.4936 119.851 85.7967 121.382 85.3686 121.57C85.346 121.58 85.3222 121.562 85.3149 121.53C85.3074 121.497 85.3201 121.461 85.3433 121.451C85.7815 121.259 89.5139 119.717 91.4857 121.92C91.5048 121.941 91.5079 121.982 91.4928 122.009C91.478 122.036 91.4513 122.04 91.4326 122.019Z" fill="#411AC0"/>
<path d="M73.5252 131.379C71.7702 130.519 69.4899 126.616 69.214 126.135C69.1986 126.109 69.2017 126.069 69.2205 126.048C69.239 126.026 69.2658 126.029 69.2809 126.056C69.5533 126.531 71.8202 130.413 73.5532 131.261C73.5756 131.272 73.5876 131.307 73.5803 131.339C73.5729 131.372 73.5481 131.391 73.5252 131.379Z" fill="#411AC0"/>
<path d="M121.777 136.091C121.756 136.077 121.746 136.04 121.756 136.009C123.17 131.514 121.075 128.394 120.794 128.005C120.778 127.982 120.777 127.944 120.792 127.919C120.808 127.892 120.837 127.891 120.855 127.915C121.149 128.325 123.271 131.497 121.835 136.06C121.825 136.092 121.799 136.106 121.777 136.091Z" fill="#411AC0"/>
<path d="M119.989 131.34C119.965 131.34 119.946 131.313 119.946 131.278C119.927 127.401 118.1 124.246 117.851 123.835C117.836 123.809 117.837 123.771 117.855 123.748L117.855 123.748C117.873 123.724 117.9 123.726 117.916 123.753C118.172 124.176 120.013 127.361 120.033 131.277C120.033 131.312 120.013 131.34 119.989 131.34Z" fill="#411AC0"/>
<path d="M43.3057 100.612C55.5357 100.612 65.4502 99.5887 65.4502 98.3262C65.4502 97.0637 55.5357 96.0403 43.3057 96.0403C31.0756 96.0403 21.1611 97.0637 21.1611 98.3262C21.1611 99.5887 31.0756 100.612 43.3057 100.612Z" fill="#5CA9FF"/>
<path d="M34.683 58.3404L35.6352 56.1838C35.7962 55.8193 36.0348 55.5396 36.3154 55.3866L39.3464 53.7329V55.2896C39.3464 55.2896 37.1348 56.4898 36.8516 56.8974C36.5683 57.305 35.5361 59.7322 35.5361 59.7322L34.683 58.3404Z" fill="#E55151"/>
<path d="M38.2407 39.2956C35.8825 37.1677 30.3939 33.3292 30.3388 33.2906C30.2225 33.2096 30.088 33.2977 30.0382 33.4879C29.9885 33.6781 30.0426 33.8982 30.1589 33.9794C30.2138 34.0178 35.6812 37.8413 38.0194 39.9513C38.5554 40.4349 38.8883 41.3543 38.8883 42.3509V56.3944C39.0467 56.4881 39.1895 56.6585 39.3464 56.9269V42.3508C39.3464 41.0816 38.9227 39.9109 38.2407 39.2956Z" fill="#241145"/>
<path d="M39.7851 60.5488H38.9078C38.5676 60.5488 38.2918 60.152 38.2918 59.6625V50.4707C38.2918 49.9813 38.5676 49.5845 38.9078 49.5845H39.7851C40.1253 49.5845 40.401 49.9813 40.401 50.4707V59.6626C40.401 60.152 40.1252 60.5488 39.7851 60.5488Z" fill="#63142C"/>
<path d="M36.1856 74.4255C36.1856 74.4255 43.9046 72.5983 45.4358 74.7074C46.0769 75.5905 43.4367 91.9177 44.0658 92.6859C44.6948 93.4542 46.691 94.1799 46.691 94.1799H42.3017L42.9202 91.6314C42.9202 91.6314 42.8746 81.8766 42.8746 79.7675C42.8746 77.6583 43.2734 76.9037 43.2734 76.9037L36.1856 78.625V74.4255Z" fill="#42210B"/>
<path d="M37.2545 75.3736C37.3003 75.3076 37.5314 73.5949 37.5314 73.5949L34.5862 71.3718C34.3594 72.3505 33.9235 74.771 33.7414 76.1534C34.1039 75.5402 36.4643 75.2828 37.2545 75.3736Z" fill="#42210B"/>
<path d="M35.8566 57.5609C35.8566 57.5609 34.767 55.8706 34.0428 57.8852C33.3186 59.8998 35.3552 69.8588 33.8668 72.3797L37.6292 73.7626C37.6292 73.7626 37.8588 68.0132 38.3899 64.3312C38.9209 60.6494 37.0021 59.2091 35.8566 57.5609Z" fill="#29C1C1"/>
<path d="M38.3898 64.3314C38.8021 61.4733 37.7381 59.966 36.7055 58.6636C37.1528 59.7325 37.7505 61.4983 37.5314 62.8944C37.1934 65.0475 38.3492 68.7605 37.3285 69.4965C36.3078 70.2325 34.9094 69.679 35.3552 70.3204C35.801 70.9617 36.7497 70.7042 36.515 71.0418C36.2804 71.3794 34.5859 71.0234 35.3552 71.5946C36.1245 72.1659 36.753 71.9395 36.753 72.4734C36.753 73.0074 33.8668 72.3798 33.8668 72.3798L37.6292 73.7626C37.6292 73.7628 37.8587 68.0134 38.3898 64.3314Z" fill="#25A5A2"/>
<path d="M27.2955 28.7173H26.523V87.6279H27.2955V28.7173Z" fill="#432C47"/>
<path d="M32.51 29.5508H28.4543V39.2071H32.51V29.5508Z" fill="#432C47"/>
<path d="M29.251 49.3499H25.1229V55.2895H29.251V49.3499Z" fill="#5C4A60"/>
<path d="M29.251 55.8105H25.1229V61.7502H29.251V55.8105Z" fill="#5C4A60"/>
<path d="M29.251 68.072H25.1229V74.0117H29.251V68.072Z" fill="#5C4A60"/>
<path d="M28.9734 76.541H24.8452V97.5851H28.9734V76.541Z" fill="#5C4A60"/>
<path d="M28.9733 76.541V97.5851H24.8452C24.8452 97.5851 27.7816 97.4564 28.215 96.8329C28.6483 96.2095 28.9733 76.541 28.9733 76.541Z" fill="#443747"/>
<path d="M30.4339 97.2148H23.4813V98.3264H30.4339V97.2148Z" fill="#432C47"/>
<path d="M39.438 97.2148H36.6512V98.3264H39.438V97.2148Z" fill="#432C47"/>
<path d="M38.7867 83.3208H37.8958V98.3263H38.7867V83.3208Z" fill="#432C47"/>
<path d="M27.7461 28.2658L27.3793 29.1689L29.2382 30.7321L29.6051 29.829L27.7461 28.2658Z" fill="#432C47"/>
<path d="M33.6097 48.3685C34.1054 49.0029 33.9409 50.4657 34.0972 52.1219C34.4401 55.7536 31.8105 55.8357 31.8105 55.8357L31.6409 55.1021C31.6409 55.1021 32.5514 54.5789 32.4181 54.0025C32.4181 54.0025 31.6714 54.6219 30.9674 54.5515C30.2635 54.4811 30.0637 53.2672 30.0637 53.2672C30.0637 53.2672 30.9372 54.0712 31.5504 53.5739C32.1635 53.0767 32.0777 52.3029 32.0777 52.3029C32.0777 52.3029 31.6294 53.3033 31.0953 53.3553C30.5612 53.4073 30.3621 52.9205 30.3621 52.9205C30.3621 52.9205 31.3955 52.9041 31.5037 52.0602C31.612 51.2163 31.9698 49.9577 32.2813 49.0625C32.5929 48.1673 33.3457 48.0307 33.6097 48.3685Z" fill="#4C1E48"/>
<path d="M34.0097 52.5327C34.0097 52.5327 34.4926 56.3961 34.3356 57.526C34.2338 58.2591 35.1527 58.3779 35.4936 58.3313C35.7499 58.2962 35.9227 57.9361 35.8753 57.5609C35.7524 56.5871 35.5486 54.7207 35.6719 53.8863C35.8428 52.7303 34.0097 52.5327 34.0097 52.5327Z" fill="#FC7575"/>
<path d="M35.7677 56.6298C35.6798 55.79 35.5799 54.6835 35.6763 53.8519C35.8047 52.7404 34.0548 52.5376 34.0106 52.5327C34.0104 52.5334 34.0102 52.5341 34.01 52.5348C34.0155 52.5786 34.8964 55.2713 35.1991 55.7882C35.413 56.1536 35.6017 56.4275 35.7677 56.6298Z" fill="#FD5E5A"/>
<path d="M33.7598 50.4032C33.8393 50.0146 34.1533 49.4663 34.5637 49.1089C35.4507 48.3366 36.5524 49.3021 36.667 50.9187C36.6774 51.0659 36.6779 51.2115 36.6645 51.3493C36.5941 52.0714 36.883 52.5363 36.9884 52.6793C37.0127 52.7123 37.0203 52.7642 37.0056 52.8073C36.9835 52.8715 36.9392 52.9557 36.8539 52.9875C36.7083 53.0417 36.6629 53.146 36.7086 53.2841C36.7543 53.4223 36.8646 53.449 36.8264 53.5537C36.7883 53.6584 36.6432 53.693 36.6432 53.693C36.6432 53.693 36.7438 53.9077 36.7029 54.0199C36.662 54.1321 36.6028 54.1218 36.6028 54.1218C36.6028 54.1218 36.4716 54.2095 36.497 54.3487C36.5224 54.4879 36.4614 54.6438 36.4118 54.7554C36.342 54.912 35.9069 55.65 34.8258 54.1744C33.7446 52.6989 33.5801 51.2831 33.7598 50.4032Z" fill="#FC7575"/>
<path d="M36.635 51.1596C36.635 51.1596 36.1873 51.0512 35.8945 51.7162C35.8945 51.7162 36.2671 51.2542 36.5856 51.2964L36.635 51.1596Z" fill="#422549"/>
<path d="M36.5015 51.7427C36.5015 51.7427 36.5159 51.9656 36.4522 52.0327C36.3885 52.0997 36.3378 52.0657 36.3378 52.0657L36.5015 51.7427Z" fill="#18287D"/>
<path d="M36.1231 51.7662C36.1231 51.7662 36.4054 51.7352 36.5925 51.7858C36.7795 51.8366 36.8516 51.7674 36.8516 51.7674C36.8516 51.7674 36.6432 51.7624 36.4737 51.6996C36.3043 51.6368 36.1231 51.7662 36.1231 51.7662Z" fill="#0F1D5B"/>
<path d="M34.6839 48.1608C33.5789 48.2492 33.1966 49.5913 33.1495 50.9697C33.1031 52.3274 34.1729 53.3944 34.2326 53.2008C34.2326 53.2008 34.6264 51.6128 35.039 51.6019C35.4516 51.591 36.5665 50.2906 36.5665 50.2906C36.5555 50.2574 36.463 49.8359 36.4071 49.5966C36.3644 49.4142 36.4142 49.2761 36.3088 49.116C35.95 48.5711 35.342 48.1082 34.6839 48.1608Z" fill="#5C2C55"/>
<path d="M34.5915 50.7788C34.3201 51.1753 33.8449 52.2164 33.6529 52.639C33.5993 52.7572 33.6664 52.8993 33.7416 52.9898C34.0263 53.3322 34.2047 53.2911 34.2326 53.2007C34.2326 53.2007 34.6529 51.8424 34.9893 51.4983C35.3264 51.1534 36.3113 50.5498 36.5957 50.4137C36.705 50.3613 36.3918 49.0497 36.3088 49.116C35.9224 49.4248 35.0917 50.0482 34.5915 50.7788Z" fill="#2ADCDF"/>
<path d="M35.039 51.6019C35.039 51.6019 35.2348 51.1513 34.8038 50.9711C34.3728 50.7909 34.3536 51.8375 34.5915 52.1479C34.8294 52.4584 35.039 51.6019 35.039 51.6019Z" fill="#FC7575"/>
<path d="M34.9004 51.6597C34.9004 51.6597 35.0319 51.1535 34.8376 51.181C34.6432 51.2085 34.5006 51.7531 34.6412 51.8723C34.7819 51.9915 34.9004 51.6597 34.9004 51.6597Z" fill="#FD5E5A"/>
<path d="M26.9093 30.4539C27.5759 30.4539 28.1163 29.6764 28.1163 28.7172C28.1163 27.758 27.5759 26.9805 26.9093 26.9805C26.2426 26.9805 25.7022 27.758 25.7022 28.7172C25.7022 29.6764 26.2426 30.4539 26.9093 30.4539Z" fill="url(#paint0_linear_69_6015)"/>
<path d="M27.3799 29.3948C27.6399 29.0206 27.6399 28.4139 27.3799 28.0397C27.1198 27.6655 26.6981 27.6655 26.4381 28.0397C26.178 28.4139 26.178 29.0206 26.4381 29.3948C26.6981 29.769 27.1198 29.769 27.3799 29.3948Z" fill="#432C47"/>
<path d="M47.7714 96.0098C47.7714 95.2934 47.7209 81.1088 47.4176 79.6044C47.3172 79.1067 46.6017 78.7648 46.3189 78.5781C43.9669 77.0258 38.5601 74.7499 37.0167 74.2408C36.5847 74.0983 35.9886 73.7636 35.5361 73.8802C34.6525 74.1079 33.9266 74.8572 33.7415 76.1533C33.5604 77.4208 33.4 79.6077 34.0715 80.5594C35.4311 82.4863 44.2837 80.6789 45.2441 81.252C46.2045 81.8252 45.1946 82.0076 45.1946 86.091C45.1946 90.1745 46.9627 95.7232 46.9627 96.6546C46.9627 97.5859 46.9627 97.9459 46.9627 98.2306C46.9627 98.5369 50.9054 98.2306 50.9054 98.2306C50.9054 98.2306 47.7714 96.7262 47.7714 96.0098Z" fill="#4F3554"/>
<path d="M47.4176 79.6044C47.2869 79.1069 46.6119 78.8041 46.0829 78.4998C44.2837 77.4148 40.4616 75.7405 38.5912 74.942C36.0893 73.8857 35.8523 73.8183 35.5361 73.8803C36.6008 73.5692 45.7508 77.6143 47.176 79.1603C47.2803 79.2754 47.3795 79.4205 47.4176 79.6044Z" fill="#725D76"/>
<path d="M30.4036 35.0806H29.6311V80.5603H30.4036V35.0806Z" fill="#432C47"/>
<path d="M30.4339 71.3718H29.6503V98.3262H30.4339V71.3718Z" fill="#432C47"/>
<path d="M30.4339 71.3719C30.4339 71.3719 31.303 71.0941 31.5444 72.2056C31.7858 73.3171 31.8461 79.8415 32.2686 80.4493C32.6911 81.0572 37.2861 80.6749 37.8674 80.9384C38.4487 81.202 38.4004 82.7997 38.4004 82.7997L30.2488 82.9387L30.4339 71.3719Z" fill="#821B36"/>
<path d="M38.7867 82.626H30.0637V84.2494H38.7867V82.626Z" fill="#432C47"/>
<path d="M27.3789 79.0206C27.3789 79.3938 27.1686 79.6963 26.9093 79.6963C26.6499 79.6963 26.4397 79.3938 26.4397 79.0206C26.4397 78.6474 26.65 78.345 26.9093 78.345C27.1686 78.345 27.3789 78.6474 27.3789 79.0206Z" fill="#37283A"/>
<path d="M27.5163 72.7592C27.5163 73.1324 27.306 73.4348 27.0467 73.4348C26.7874 73.4348 26.5771 73.1323 26.5771 72.7592C26.5771 72.386 26.7874 72.0835 27.0467 72.0835C27.3061 72.0835 27.5163 72.386 27.5163 72.7592Z" fill="#37283A"/>
<path d="M27.5163 69.4965C27.5163 69.8697 27.306 70.1721 27.0467 70.1721C26.7874 70.1721 26.5771 69.8696 26.5771 69.4965C26.5771 69.1233 26.7874 68.8208 27.0467 68.8208C27.3061 68.8208 27.5163 69.1233 27.5163 69.4965Z" fill="#37283A"/>
<path d="M27.3667 82.6083C27.4266 82.2452 27.2706 81.8811 27.0182 81.795C26.7659 81.7088 26.5128 81.9333 26.4529 82.2964C26.3931 82.6595 26.5491 83.0237 26.8014 83.1098C27.0538 83.1959 27.3069 82.9714 27.3667 82.6083Z" fill="#37283A"/>
<path d="M27.2407 86.3528C27.4241 86.0889 27.4241 85.6611 27.2407 85.3972C27.0574 85.1334 26.76 85.1334 26.5766 85.3972C26.3933 85.6611 26.3933 86.0889 26.5766 86.3528C26.76 86.6166 27.0574 86.6166 27.2407 86.3528Z" fill="#37283A"/>
<path d="M27.3789 89.3026C27.3789 89.6758 27.1686 89.9783 26.9093 89.9783C26.6499 89.9783 26.4397 89.6758 26.4397 89.3026C26.4397 88.9295 26.65 88.627 26.9093 88.627C27.1686 88.627 27.3789 88.9295 27.3789 89.3026Z" fill="#37283A"/>
<path d="M27.2407 93.2075C27.4241 92.9436 27.4241 92.5158 27.2407 92.252C27.0573 91.9881 26.76 91.9881 26.5766 92.252C26.3932 92.5158 26.3932 92.9436 26.5766 93.2075C26.76 93.4714 27.0573 93.4714 27.2407 93.2075Z" fill="#37283A"/>
<path d="M27.3643 96.3192C27.4239 95.9561 27.2676 95.5922 27.0152 95.5064C26.7628 95.4207 26.5099 95.6455 26.4503 96.0087C26.3907 96.3719 26.547 96.7358 26.7994 96.8215C27.0518 96.9073 27.3047 96.6824 27.3643 96.3192Z" fill="#37283A"/>
<path d="M25.1229 70.8147H28.7876L25.1229 71.341V70.8147Z" fill="#37283A"/>
<path d="M29.251 57.7095C29.1082 57.7095 26.0849 57.7095 26.0849 57.7095L29.251 58.1726V57.7095Z" fill="#37283A"/>
<path d="M25.1229 59.7966H28.6501L25.1229 60.203V59.7966Z" fill="#37283A"/>
<path d="M29.251 51.3223H26.0849L29.251 51.8324V51.3223Z" fill="#37283A"/>
<path d="M25.1229 53.2495L29.009 53.4083L25.1229 53.7328V53.2495Z" fill="#37283A"/>
<path d="M36.4203 52.9858C36.6333 53.3705 36.6023 53.9549 36.2161 54.2711C36.3386 54.0572 36.5206 53.8314 36.4805 53.3338C36.4697 53.2178 36.4509 53.1006 36.4203 52.9858Z" fill="#FD5E5A"/>
<path d="M34.4794 58.0348C34.4794 58.0348 36.1169 58.7524 37.0131 60.4008C37.2935 60.9166 37.4574 59.657 37.2 59.2866C36.9426 58.9162 35.5117 57.1492 35.5117 57.1492L34.4794 58.0348Z" fill="#FC7575"/>
<path d="M34.6796 58.5739C34.5356 58.5504 34.3896 58.5908 34.2624 58.6907C33.7 59.1328 32.0006 60.5578 32.1958 61.4917C32.4293 62.6087 34.4101 61.9566 35.1261 61.4917C35.8055 61.0506 36.0774 58.8024 34.6796 58.5739Z" fill="#FD5E5A"/>
<path d="M41.465 66.234H40.3885C39.813 66.234 39.3464 65.5626 39.3464 64.7345V55.7707C39.3464 54.9426 39.813 54.2712 40.3885 54.2712H41.465C42.0406 54.2712 42.5072 54.9426 42.5072 55.7707V64.7345C42.5072 65.5626 42.0406 66.234 41.465 66.234Z" fill="#961741"/>
<path d="M41.4651 54.271H40.3885C40.0797 54.271 39.8024 54.4643 39.6115 54.7713C40.0003 54.4443 40.2891 54.6147 41.2131 54.5673C41.7886 54.5673 42.2552 55.2386 42.2552 56.0667V65.0306C42.2552 65.4144 42.155 65.7645 41.9901 66.0297C42.2994 65.7696 42.5071 65.2869 42.5071 64.7343V55.7705C42.5072 54.9423 42.0406 54.271 41.4651 54.271Z" fill="#B22B5F"/>
<path d="M41.007 58.7639C41.007 58.7639 41.2484 58.7263 41.2742 58.7859C41.2999 58.8453 41.0406 59.3677 41.0313 59.3811C41.022 59.3945 41.007 58.7639 41.007 58.7639Z" fill="#FD5E5A"/>
<path d="M40.9268 64.3279C40.8256 64.3279 40.7435 64.2098 40.7435 64.0642V37.5522C40.7435 35.3477 39.4971 33.5541 37.9649 33.5541H30.3388C30.2376 33.5541 30.1555 33.4361 30.1555 33.2905C30.1555 33.1449 30.2376 33.0269 30.3388 33.0269H37.9649C39.6991 33.0269 41.11 35.057 41.11 37.5522V64.0642C41.11 64.2098 41.028 64.3279 40.9268 64.3279Z" fill="#2B1854"/>
<path d="M31.1472 33.4222C31.1472 33.9507 30.8494 34.3791 30.4822 34.3791C30.1149 34.3791 29.8171 33.9507 29.8171 33.4222C29.8171 32.8937 30.1149 32.4653 30.4822 32.4653C30.8494 32.4653 31.1472 32.8937 31.1472 33.4222Z" fill="#5C4A60"/>
<path d="M41.2742 58.7859L40.984 59.066L40.7435 59.1663V58.687C40.3531 58.9168 40.3342 59.337 39.8503 59.5389C39.1096 59.4597 34.5846 59.0436 32.8363 60.4966C30.9295 62.0814 33.6685 62.7167 35.8682 62.0365C38.0679 61.3564 39.8428 60.7805 39.8503 60.7891C39.8503 60.7891 40.9898 60.8703 41.11 60.6973C41.2213 60.5371 41.2046 60.2567 41.2046 59.7321C41.2046 59.4779 41.3887 58.9506 41.2742 58.7859Z" fill="#FC7575"/>
<path d="M56.8321 47.4961C57.5893 46.4068 57.2761 43.4889 57.2761 43.4889C57.2761 43.4889 57.0835 43.2354 56.6686 43.1668C56.3546 43.1149 55.9106 43.1767 55.3409 43.4889C54.0185 44.2139 51.3222 49.0111 50.9327 49.5715C50.5432 50.132 54.4535 57.7966 54.4535 57.7966L54.6109 58.0742C54.4655 58.0461 54.2949 58.0353 54.2654 58.1299C54.2294 58.2457 54.5874 58.3721 54.8189 58.4408L54.8942 58.5735L54.6692 58.617C54.6692 58.617 54.2126 58.4698 54.2126 58.685C54.2126 58.9002 55.1471 59.0191 55.1471 59.0191L55.3934 56.3858L54.5538 56.2312C54.5538 56.2312 52.8671 51.2888 53.0807 50.4924C53.2942 49.6957 56.075 48.5855 56.8321 47.4961Z" fill="#FD5E5A"/>
<path d="M58.5229 61.5797L58.0783 70.0875C58.0783 70.0875 56.5368 81.3445 56.5368 82.4744C56.5368 83.6043 55.9842 97.3722 55.9842 97.3722L56.1297 98.3765L56.1006 98.9205C56.1006 98.9205 55.0826 98.6695 54.2392 98.9205C53.3957 99.1717 53.134 98.9205 53.134 98.9205L55.199 97.6651L54.7918 80.8842L55.5153 60.9155L58.5229 61.5797Z" fill="#6E1D6B"/>
<path d="M60.8704 61.5506C60.8704 61.49 60.8827 61.339 60.9042 61.1218C59.0012 61.0624 59.0548 60.7449 57.1009 61.0378C57.1951 63.6932 57.1173 66.8511 57.1173 66.8511C57.1173 66.8511 57.8344 69.4363 58.0783 70.0875C58.3681 70.8611 61.074 80.5494 61.074 80.5494C61.074 80.5494 63.9533 95.8657 63.7207 96.9537C63.488 98.0418 62.9354 99.9667 62.9354 99.9667L64.535 99.5064V98.502L63.0226 79.0429C63.0226 79.0429 60.8704 62.3038 60.8704 61.5506Z" fill="#93278F"/>
<path d="M60.4958 33.5546C60.5212 32.6938 61.4841 32.2034 61.9307 33.3244L61.7916 33.476C61.4109 32.606 60.6813 32.8301 60.4958 33.5546Z" fill="#5C2C55"/>
<path d="M61.2972 61.9583C60.4958 56.397 62.8879 44.0471 62.7766 43.9705C61.9307 43.3882 61.1004 42.6243 59.3772 42.6243C58.018 42.6243 56.6686 43.1669 56.6686 43.1669C56.6686 43.1669 54.2654 46.2724 54.2654 49.1599C54.2654 50.7943 54.7371 57.014 54.9026 61.6826C56.8565 61.3896 59.3943 61.8988 61.2972 61.9583Z" fill="#C5C6FC"/>
<path d="M60.5338 42.757L59.9106 38.1682L58.5582 39.2824C58.5582 39.2824 58.126 41.8885 57.8384 42.672C57.3403 44.0285 57.5424 48.1353 60.5338 42.757Z" fill="#FC7575"/>
<path d="M58.1233 41.5822C58.756 41.5207 60.0102 40.2455 60.0435 39.1465L59.9106 38.1682L58.5582 39.2824C58.5582 39.2824 58.3481 40.5495 58.1233 41.5822Z" fill="#FD5E5A"/>
<path d="M58.4855 33.1361C58.4855 33.1361 57.3512 33.8269 57.3512 35.1868C57.3512 36.5466 56.9004 39.9364 57.3512 40.585C57.802 41.2336 59.3313 40.8654 60.0136 39.1977C60.6959 37.53 60.5832 34.0725 60.3687 33.7638C60.1542 33.4552 58.9072 32.5293 58.4855 33.1361Z" fill="#FC7575"/>
<path d="M59.3144 33.6382V33.7638C59.3144 33.7638 59.038 35.4376 57.9765 35.7097C56.9149 35.9817 56.784 35.1868 56.784 35.1868C56.784 35.1868 55.6788 35.8562 55.5916 34.266C55.5043 32.6758 56.4496 32.3201 56.4496 32.3201C56.4496 32.3201 56.1296 33.4081 56.5368 33.2826C56.944 33.1571 56.5705 32.2364 57.0044 32.0272C57.4384 31.8179 57.8382 32.1527 57.8382 32.1527C57.8382 32.1527 58.5145 32.069 58.9944 31.6924C59.4743 31.3158 60.4298 31.6296 60.5337 32.2155C60.6376 32.8008 60.6667 33.1982 60.6667 33.1989C60.6583 33.0844 60.9583 33.2287 60.9722 33.2396C61.9145 33.9802 61.2172 36.0864 60.7543 37.4738C60.6179 37.8827 60.4717 38.2871 60.3051 38.6725C60.2253 38.857 60.1373 39.0129 60.0409 39.1286C60.0409 39.1286 60.5358 37.2372 60.3686 36.5886C60.2014 35.9399 59.9978 36.6304 59.9105 35.9608C59.8233 35.2912 60.1868 35.2076 60.1868 34.6636C60.1869 34.1194 59.3144 33.6382 59.3144 33.6382Z" fill="#5C2C55"/>
<path d="M59.947 36.6409C59.947 36.6409 60.3541 35.6365 60.6014 35.9923C60.8486 36.3479 60.4051 38.3671 60.1578 38.1683C59.9106 37.9695 59.947 36.6409 59.947 36.6409Z" fill="#FC7575"/>
<path d="M57.3403 38.8032C57.3403 38.8032 57.7934 39.2459 58.4174 39.0614C58.4174 39.0614 58.0722 39.6309 57.8122 39.6322C57.5523 39.6336 57.3403 38.8032 57.3403 38.8032Z" fill="white"/>
<path d="M60.0984 36.7453C60.0984 36.7453 60.4038 36.149 60.4838 36.4733C60.5638 36.7976 60.222 38.0739 60.0984 37.8961C59.9748 37.7183 60.0984 36.7453 60.0984 36.7453Z" fill="#FD5E5A"/>
<path d="M57.7089 37.2935C57.5832 37.6567 57.572 37.7766 57.5376 38.1117C57.5728 38.1183 57.6207 38.1375 57.8788 38.1681C57.7874 38.1226 57.6958 38.0785 57.6032 38.042C57.6374 37.7962 57.9351 36.7619 58.0417 36.6511C57.9159 36.7279 57.7673 37.1173 57.7089 37.2935Z" fill="#2846A6"/>
<path d="M58.8423 36.7128C58.8423 36.8984 58.7688 37.0488 58.6782 37.0488C58.5875 37.0488 58.514 36.8984 58.514 36.7128C58.514 36.5272 58.5875 36.3767 58.6782 36.3767C58.7688 36.3767 58.8423 36.5272 58.8423 36.7128Z" fill="#2846A6"/>
<path d="M57.6686 36.7128C57.6686 36.8984 57.5951 37.0488 57.5044 37.0488C57.4138 37.0488 57.3403 36.8984 57.3403 36.7128C57.3403 36.5272 57.4138 36.3767 57.5044 36.3767C57.5951 36.3767 57.6686 36.5272 57.6686 36.7128Z" fill="#2846A6"/>
<path d="M58.586 35.7202C58.586 35.7202 59.014 35.6007 59.2332 35.916C59.4524 36.2314 59.3713 36.4317 59.3132 36.4317C59.255 36.4317 59.2394 35.885 59.0223 35.916C58.4173 36.0028 58.4085 35.7424 58.586 35.7202Z" fill="#2846A6"/>
<path d="M61.2736 61.0843C61.2736 61.0843 62.0608 61.2218 62.0608 60.95C62.0608 60.6782 61.3681 60.8594 61.2893 60.5422L61.2421 61.5274C61.2421 61.5274 62.0611 61.652 62.1555 61.5163C62.2498 61.3806 61.2736 61.0843 61.2736 61.0843Z" fill="#FD5E5A"/>
<path d="M61.2133 43.3893C60.3494 43.3347 59.1514 44.9531 60.0435 47.5397C60.6989 49.4397 65.4772 52.0532 65.4772 52.0532C65.4772 52.0532 60.609 59.7209 60.3687 60.0665C60.3687 60.0665 60.1637 60.5536 60.3133 60.7687C60.4628 60.9839 60.4392 61.471 60.5022 61.471C60.5652 61.471 60.5101 61.5277 60.6282 61.6975C60.7462 61.8674 62.1555 62.1505 62.1555 61.9581C62.1555 61.8851 62.0244 61.8055 61.8614 61.7349C61.5008 61.5786 61.2635 61.0829 61.2894 60.5423C61.2107 60.2251 66.8154 54.6299 67.2562 53.6785C67.6971 52.7271 67.8545 52.0533 67.8545 52.0533C67.8545 52.0533 64.8789 43.6207 61.2133 43.3893Z" fill="#FC7575"/>
<path d="M32.451 65.6364C31.2609 62.4625 31.45 59.3686 31.4883 58.8903C31.4911 58.8553 31.5135 58.8309 31.5378 58.8361C31.5609 58.8411 31.5772 58.8712 31.5745 58.9046C31.5373 59.3662 31.3476 62.4312 32.5275 65.5776C32.5388 65.6077 32.5313 65.6453 32.5104 65.6617L32.5103 65.6618C32.4892 65.6784 32.4624 65.667 32.451 65.6364Z" fill="#411AC0"/>
<path d="M43.0814 66.8495C43.0647 66.8255 43.0647 66.7873 43.0809 66.7627C44.8316 64.1095 43.3203 54.1657 43.184 53.2976C43.1787 53.2642 43.1933 53.2315 43.2165 53.2237L43.2166 53.2236C43.24 53.2157 43.2634 53.2364 43.2687 53.2701C43.4224 54.2324 44.9457 64.1203 43.1435 66.8491C43.1268 66.8744 43.0985 66.8743 43.0814 66.8495Z" fill="#411AC0"/>
<path d="M118.684 99.2088C118.684 100.191 110.968 100.988 101.449 100.988C91.9309 100.988 84.2147 100.191 84.2147 99.2088C84.2147 98.2263 91.9309 97.4297 101.449 97.4297C110.968 97.4298 118.684 98.2263 118.684 99.2088Z" fill="#5CA9FF"/>
<path d="M109.074 74.7031C109.074 74.7031 109.742 75.234 112.111 75.8465C115.038 76.6031 118.492 78.2253 118.892 79.7124C119.201 80.8606 116.628 97.8295 116.628 97.8295L119.239 99.6951H115.27C115.27 99.6951 115.359 90.1055 115.705 85.4383C115.802 84.1296 116.204 82.9241 116.837 82.0536C116.837 82.0536 110.519 80.4814 109.24 78.95C108.115 77.6032 109.074 74.7031 109.074 74.7031Z" fill="#42210B"/>
<path d="M109.816 71.8085C109.214 73.6013 108.565 75.2297 108.217 75.559C109.378 77.7446 109.979 81.2517 110.014 81.8151C111.45 81.4019 111.703 80.9537 112.089 78.7021C112.217 77.9515 112.46 75.4182 112.634 74.7289C111.817 73.8977 109.837 71.7447 109.816 71.8085Z" fill="#4F3554"/>
<path d="M109.037 48.8301C109.602 49.5533 109.414 51.2206 109.593 53.1083C109.983 57.2478 106.986 57.3415 106.986 57.3415L106.793 56.5053C106.793 56.5053 107.831 55.909 107.679 55.252C107.679 55.252 106.828 55.958 106.025 55.8777C105.223 55.7975 104.995 54.4139 104.995 54.4139C104.995 54.4139 105.991 55.3303 106.69 54.7635C107.388 54.1967 107.291 53.3149 107.291 53.3149C107.291 53.3149 106.78 54.4551 106.171 54.5143C105.562 54.5736 105.335 54.0188 105.335 54.0188C105.335 54.0188 106.513 54.0001 106.636 53.0382C106.76 52.0763 107.168 50.6418 107.523 49.6213C107.878 48.6009 108.736 48.4451 109.037 48.8301Z" fill="#4C1E48"/>
<path d="M109.786 53.811C109.786 53.811 109.411 58.1338 109.969 59.4188C110.283 60.1416 110.796 60.239 111.184 60.1858C111.476 60.1458 111.673 59.7354 111.619 59.3078C111.479 58.1978 111.247 56.0704 111.387 55.1193C111.582 53.8016 109.786 53.811 109.786 53.811Z" fill="#FC7575"/>
<path d="M109.786 53.8108C109.786 53.8108 109.752 54.2049 109.719 54.7903C109.97 55.5695 110.336 56.4119 110.848 57.2871C111.092 57.7037 111.307 58.0159 111.496 58.2463C111.382 57.1484 111.284 55.8171 111.387 55.1191C111.582 53.8015 109.786 53.8108 109.786 53.8108Z" fill="#FD5E5A"/>
<path d="M109.208 51.1492C109.298 50.7062 109.656 50.0813 110.124 49.6739C111.135 48.7936 112.391 49.894 112.521 51.7368C112.533 51.9046 112.534 52.0704 112.519 52.2276C112.421 53.2297 112.93 53.7972 112.93 53.7972C112.93 53.7972 112.9 54.033 112.735 54.0948C112.569 54.1565 112.586 54.2754 112.638 54.4329C112.69 54.5904 112.747 54.6208 112.703 54.7402C112.66 54.8595 112.494 54.8989 112.494 54.8989C112.494 54.8989 112.609 55.1436 112.562 55.2716C112.516 55.3994 112.448 55.3876 112.448 55.3876C112.448 55.3876 112.299 55.4875 112.328 55.6462C112.357 55.8049 112.287 55.9826 112.231 56.1098C112.151 56.2884 111.655 57.1294 110.423 55.4476C109.191 53.7658 109.003 52.152 109.208 51.1492Z" fill="#FC7575"/>
<path d="M112.485 52.0114C112.485 52.0114 111.975 51.8878 111.641 52.6457C111.641 52.6457 112.066 52.1192 112.429 52.1673L112.485 52.0114Z" fill="#422549"/>
<path d="M112.333 52.6758C112.333 52.6758 112.349 52.9299 112.277 53.0063C112.204 53.0826 112.146 53.044 112.146 53.044L112.333 52.6758Z" fill="#18287D"/>
<path d="M111.902 52.7028C111.902 52.7028 112.223 52.6674 112.437 52.7252C112.65 52.783 112.732 52.7041 112.732 52.7041C112.732 52.7041 112.494 52.6984 112.301 52.6268C112.108 52.5552 111.902 52.7028 111.902 52.7028Z" fill="#0F1D5B"/>
<path d="M112.111 54.65C112.218 54.7883 112.354 54.8755 112.494 54.8988C112.352 54.8977 112.207 54.8363 112.078 54.7005C112.067 54.6891 112.064 54.6669 112.071 54.6509C112.079 54.6351 112.094 54.6315 112.105 54.6429C112.106 54.6436 112.106 54.6443 112.107 54.6451L112.111 54.65Z" fill="#0F1D5B"/>
<path d="M110.261 48.5933C109.002 48.6939 108.783 50.2951 108.512 51.7949C108.242 53.2945 109.679 54.5586 109.747 54.3379C109.747 54.3379 110.196 52.5279 110.666 52.5154C111.136 52.5029 112.407 51.0207 112.407 51.0207C112.395 50.983 112.289 50.5025 112.225 50.2298C112.177 50.0218 112.234 49.8645 112.113 49.682C111.704 49.0609 111.011 48.5333 110.261 48.5933Z" fill="#5C2C55"/>
<path d="M110.156 51.5772C109.846 52.0292 109.305 53.2158 109.086 53.6976C109.025 53.8322 109.101 53.9942 109.187 54.0974C109.512 54.4877 109.715 54.4408 109.747 54.3379C109.747 54.3379 110.226 52.7896 110.609 52.3975C110.994 52.0044 112.116 51.3164 112.44 51.1612C112.565 51.1015 112.208 49.6065 112.113 49.682C111.673 50.034 110.726 50.7445 110.156 51.5772Z" fill="#2ADCDF"/>
<path d="M110.666 52.5154C110.666 52.5154 110.889 52.0019 110.398 51.7966C109.907 51.5912 109.885 52.784 110.156 53.1379C110.427 53.4918 110.666 52.5154 110.666 52.5154Z" fill="#FC7575"/>
<path d="M110.508 52.5813C110.508 52.5813 110.658 52.0043 110.436 52.0357C110.215 52.0671 110.052 52.6877 110.213 52.8236C110.373 52.9595 110.508 52.5813 110.508 52.5813Z" fill="#FD5E5A"/>
<path d="M106.255 75.0144C106.209 75.042 106.302 74.9835 106.255 75.0144V75.0144Z" fill="#544059"/>
<path d="M112.152 77.205C111.987 74.6751 111.146 72.7129 109.541 72.7129C108.425 72.7129 106.773 75.4356 107.808 78.7286L106.638 87.7579C106.269 86.6686 99.5089 86.3827 99.2844 86.0597C99.2844 86.0597 98.805 85.2196 98.5036 84.786L96.2299 87.3994L99.1712 87.1991C99.1712 87.1991 106.969 93.8626 108.448 90.2268C109.411 87.8575 112.374 80.6077 112.152 77.205Z" fill="#544059"/>
<path d="M111.755 58.5759C111.186 57.7881 109.972 57.1978 109.091 59.219C108.443 60.7042 109.597 64.825 109.628 69.1812C109.637 70.4756 109.628 71.0594 109.026 72.4993C109.3 72.921 109.846 73.1483 110.171 73.419C111 74.1206 111.943 74.8268 112.76 75.5229C113.959 70.807 113.861 66.289 113.861 65.4742C113.861 63.3899 111.755 58.5759 111.755 58.5759Z" fill="#29C1C1"/>
<path d="M96.4238 87.7578H95.4569V98.3166H96.4238V87.7578Z" fill="#432C47"/>
<path d="M97.3565 88.6968H94.5318V89.9096H97.3565V88.6968Z" fill="#5C4A60"/>
<path d="M101.581 98.3164H90.3076V99.4403H101.581V98.3164Z" fill="#432C47"/>
<path d="M101.472 99.6475H100.052V97.9141H101.472C101.688 97.9141 101.863 98.1661 101.863 98.4771V99.0845C101.863 99.3955 101.688 99.6475 101.472 99.6475Z" fill="#241145"/>
<path d="M90.5818 99.6475H92.002V97.9141H90.5818C90.3657 97.9141 90.1905 98.1661 90.1905 98.4771V99.0845C90.1905 99.3955 90.3657 99.6475 90.5818 99.6475Z" fill="#241145"/>
<path d="M99.6039 88.9948H92.2768C91.953 88.9948 91.6905 88.617 91.6905 88.1511V88.0426C91.6905 87.5767 91.953 87.199 92.2768 87.199H99.6039C99.9278 87.199 100.19 87.5767 100.19 88.0426V88.1511C100.19 88.617 99.9278 88.9948 99.6039 88.9948Z" fill="#821B36"/>
<path d="M108.384 79.6543C108.291 79.6543 108.217 80.6216 108.217 81.8148C108.217 83.0081 108.291 83.9754 108.384 83.9754H109.451V79.6544L108.384 79.6543Z" fill="#C0B4FE"/>
<path d="M109.618 81.8148C109.618 83.008 109.543 83.9754 109.451 83.9754C109.359 83.9754 109.284 83.008 109.284 81.8148C109.284 80.6216 109.359 79.6543 109.451 79.6543C109.543 79.6543 109.618 80.6216 109.618 81.8148Z" fill="#381A3F"/>
<path d="M109.451 81.3987V81.3996C109.394 81.4136 109.35 81.5941 109.35 81.8147C109.35 82.0354 109.395 82.2159 109.451 82.2299V82.2309H113.189V81.3987H109.451Z" fill="#381A3F"/>
<path d="M112.833 79.6543C112.741 79.6543 112.666 80.6216 112.666 81.8148C112.666 83.0081 112.74 83.9754 112.833 83.9754H113.9V79.6544L112.833 79.6543Z" fill="#C0B4FE"/>
<path d="M114.067 81.8148C114.067 83.008 113.993 83.9754 113.9 83.9754C113.808 83.9754 113.734 83.008 113.734 81.8148C113.734 80.6216 113.808 79.6543 113.9 79.6543C113.993 79.6543 114.067 80.6216 114.067 81.8148Z" fill="#381A3F"/>
<path d="M110.014 58.159C110.014 58.159 111.615 57.3082 111.901 60.2188C112.029 61.5274 111.546 67.7103 111.546 69.0783C111.546 70.4463 111.591 79.4464 111.901 79.8644C112.21 80.2824 112.33 82.4293 112.045 82.814C111.76 83.1988 111.537 82.8283 111.253 82.8283C111.014 82.8283 110.675 82.9166 110.535 82.9166C110.395 82.9166 110.175 80.6624 110.428 79.8358C110.682 79.0094 109.816 73.4235 109.921 70.6306C110.027 67.8376 108.847 58.5638 110.014 58.159Z" fill="#FF8888"/>
<path d="M110.014 58.1589C110.441 57.925 110.96 57.9493 111.336 58.357C111.71 58.7602 111.887 59.4403 111.97 60.1053C112.123 61.4146 111.779 66.2 111.669 67.9156C111.578 69.3874 111.614 70.1102 111.563 71.8071C111.374 67.3854 111.567 67.6616 111.797 62.0642C111.847 60.836 111.936 59.2739 111.272 58.4717C111.109 58.2674 110.9 58.139 110.68 58.0952C110.461 58.0529 110.232 58.0736 110.014 58.1589Z" fill="#FFA0A0"/>
<path d="M105.365 85.7745C105.343 85.7625 105.332 85.728 105.34 85.6961C105.423 85.3502 105.849 83.4555 105.849 80.7946C105.849 78.0416 106.728 74.7389 106.859 74.2606C106.868 74.2283 106.893 74.2127 106.916 74.2259L106.916 74.226C106.938 74.2389 106.948 74.2748 106.94 74.3066C106.81 74.7785 105.936 78.0629 105.936 80.7946C105.936 83.4708 105.507 85.3808 105.422 85.737C105.413 85.7702 105.388 85.7869 105.365 85.7745Z" fill="#411AC0"/>
<path d="M107.311 93.3722C107.311 93.3379 107.331 93.3103 107.355 93.3101C108.719 93.3007 109.646 92.8449 110.111 91.9552C110.533 91.1468 110.429 90.2189 110.393 89.9836C110.388 89.9515 110.401 89.9197 110.423 89.9106L110.424 89.9105C110.448 89.9005 110.472 89.9211 110.478 89.9561C110.518 90.2114 110.628 91.1718 110.18 92.0301C109.698 92.9527 108.748 93.4251 107.355 93.4349C107.331 93.4351 107.311 93.4069 107.311 93.3722Z" fill="#411AC0"/>
<path d="M108.164 63.2586C107.8 61.1558 108.11 58.4982 108.166 58.0598C108.17 58.0255 108.193 58.0032 108.217 58.01C108.24 58.0168 108.256 58.0488 108.251 58.0822C108.197 58.5116 107.888 61.1489 108.248 63.2288C108.254 63.2619 108.24 63.2952 108.217 63.3038C108.194 63.3126 108.17 63.2924 108.164 63.2586Z" fill="#411AC0"/>
<path d="M163.87 160.033C162.777 161.077 162.326 162.434 162.433 164.779C162.668 169.922 166.967 169.276 166.967 169.276C166.967 169.276 165.988 167.953 166.033 167.095C166.033 167.095 166.914 167.543 167.637 167.073C168.361 166.602 168.371 164.838 168.371 164.838C168.371 164.838 167.59 166.401 166.869 166.048C166.148 165.695 166.111 164.592 166.111 164.592C166.111 164.592 166.742 165.72 167.309 165.507C167.875 165.294 168.003 164.523 168.003 164.523C168.003 164.523 166.922 165.05 166.671 163.955C166.42 162.86 165.866 162.502 165.395 161.445C164.923 160.388 164.264 159.656 163.87 160.033Z" fill="#4C1E48"/>
<path d="M172.769 144.347C172.769 144.347 172.443 144.076 172.083 144.677C171.866 145.037 171.639 145.934 171.459 146.771C170.977 149.003 171.686 154.024 171.218 154.697C170.75 155.371 167.514 154.909 167.02 154.197C166.525 153.485 166.632 153.216 166.632 152.504C166.632 151.792 166.324 150.388 165.83 150.157C165.335 149.926 165.83 150.657 165.83 151.119C165.83 151.581 165.281 151.215 165.068 151.523C164.854 151.831 164.145 154.043 164.439 154.467C164.733 154.89 166.351 154.794 166.779 155.409C167.207 156.025 171.713 158.738 173.425 157.468C175.136 156.198 172.769 144.347 172.769 144.347Z" fill="#FD5E5A"/>
<path d="M165.462 151.312C165.462 151.312 165.475 151.956 165.803 152.427C166.13 152.899 166.017 153.178 165.803 153.178C165.589 153.178 165.462 153.033 165.462 153.033C165.462 153.033 165.796 153.408 165.796 153.755C165.796 154.101 165.703 154.313 165.321 154.043C165.321 154.043 165.689 154.419 165.515 154.669C165.342 154.919 164.719 155.082 164.369 154.467C164.018 153.851 164.205 153.649 164.245 153.264C164.285 152.879 164.068 152.798 164.312 152.447C164.556 152.095 164.533 152.235 164.653 151.783C164.773 151.331 165.241 150.734 165.462 151.312Z" fill="#FC7575"/>
<path d="M156.327 174.524C170.653 174.524 182.266 173.778 182.266 172.858C182.266 171.937 170.653 171.191 156.327 171.191C142.002 171.191 130.389 171.937 130.389 172.858C130.389 173.778 142.002 174.524 156.327 174.524Z" fill="#5CA9FF"/>
<path d="M158.832 165.612C158.889 164.813 159.401 164.244 159.955 164.343C160.672 164.47 161.817 164.701 164.261 165.953C165.026 166.346 165.031 166.593 164.966 166.939C164.966 166.939 163.543 172.104 163.146 172.604C162.63 173.253 162.652 173.255 162.176 173.209C161.7 173.163 160.959 172.747 160.591 172.712C160.223 172.676 159.775 173.211 159.623 172.962C159.472 172.713 160.457 172.324 160.457 172.324C160.457 172.324 161.769 172.109 162.072 172.138C162.374 172.167 163.367 167.621 163.367 167.621C163.034 167.073 161.224 166.88 159.125 166.88C158.731 166.88 158.804 166.01 158.832 165.612Z" fill="#E85252"/>
<path d="M161.698 172.732C161.698 172.732 160.733 172.725 160.646 172.85C160.56 172.974 160.018 173.084 160.18 173.318C160.343 173.551 160.924 173.025 160.924 173.025L161.802 173.124L161.698 172.732Z" fill="#E85252"/>
<path d="M159.638 172.44C159.638 172.44 160.05 172.138 160.213 172.138C160.375 172.138 161.589 172.44 161.589 172.44L160.761 172.616L160.245 172.397C160.245 172.397 159.826 172.711 159.638 172.44Z" fill="#E85252"/>
<path d="M155.488 172.513L155.733 172.322C155.733 172.322 156.287 172.213 156.355 172.114C156.424 172.016 156.507 171.771 156.587 171.886C156.666 172 156.542 172.379 156.449 172.513C156.356 172.646 155.488 172.513 155.488 172.513Z" fill="#FD5E5A"/>
<path d="M155.849 172.473C155.849 172.473 156.825 172.224 157.009 172.224C157.194 172.224 157.822 172.529 157.822 172.754C157.822 172.979 157.102 172.419 157.102 172.513C157.102 172.606 156.045 172.754 156.045 172.754L155.849 172.473Z" fill="#FD5E5A"/>
<path d="M130.287 171.472L130.463 172.993L132.276 172.807L131.647 172.603C131.359 172.51 131.172 172.184 131.187 171.8L131.238 170.483L140.92 169.263L146.421 168.159L149.012 167.265L146.285 162.791L140.913 166.725C140.913 166.725 139.011 166.461 137.115 167.359C135.22 168.257 130.925 170.068 130.925 170.068L130.146 169.955L130.287 171.472Z" fill="#42210B"/>
<path d="M150.189 163.476C149.601 163.068 147.445 161.298 146.83 161.298C145.59 161.298 138.194 166.042 138.194 166.042C138.186 166.04 135.588 164.667 133.937 165.229C132.681 165.657 129.303 167.363 127.637 167.985L126.537 167.943L126.948 173.144C126.948 173.144 127.856 173.233 127.941 173.233C128.438 173.233 127.605 172.918 127.605 172.918C127.605 172.918 127.303 171.137 128.274 169.668C129.245 168.199 141.254 168.161 143.443 168.161C144.795 168.161 147.678 168.272 149.551 167.835C149.496 165.529 149.158 165.27 150.189 163.476Z" fill="#5E4963"/>
<path d="M149.945 162.44C150.887 163.857 151.55 163.701 152.337 163.701C153.32 163.701 154.615 163.144 156.388 162.824C157.863 162.557 160.512 162.939 161.205 164.381C161.349 164.682 161.205 166.562 160.417 167.265C158.89 168.629 157.234 168.655 156.277 168.655C155.321 168.655 153.024 168.125 151.734 168.125C151.24 168.125 150.201 167.804 149.03 168.075C148.975 165.769 148.907 164.235 149.945 162.44Z" fill="#29C1C1"/>
<path d="M157.193 164.57C156.482 164.751 155.815 164.841 153.306 165.792C148.915 167.456 153.862 171.75 154.346 172.447C154.831 173.144 154.809 173.144 155.286 173.144C155.763 173.144 156.522 172.801 156.89 172.801C157.259 172.801 157.682 173.378 157.844 173.144C158.007 172.91 157.042 172.426 157.042 172.426C157.042 172.426 156.072 172.333 155.768 172.333C155.465 172.333 152.912 168.542 153.269 168.028C153.627 167.513 157.466 168.665 158.257 167.527C158.535 167.127 158.882 164.139 157.193 164.57Z" fill="#FC7575"/>
<path d="M155.362 172.754C155.362 172.754 155.233 173.103 155.622 173.103C156.012 173.103 156.435 173.103 156.435 173.103L156.814 173.233C156.814 173.233 156.934 173.237 156.814 173.066C156.695 172.894 156.229 172.754 156.229 172.754L155.362 172.754Z" fill="#FC7575"/>
<path d="M160.067 163.834C161.325 164.373 162.346 163.22 162.346 163.22L162.141 165.731C162.141 165.731 160.959 165.882 160.349 166.759C159.739 167.637 158.882 168.233 158.882 167.63C158.882 167.027 159.168 163.449 160.067 163.834Z" fill="#FC7575"/>
<path d="M161.635 165.857C161.928 165.758 162.141 165.731 162.141 165.731L162.346 163.22C162.346 163.22 162.139 163.453 161.798 163.661C161.708 164.166 161.65 164.742 161.636 165.393C161.632 165.559 161.632 165.714 161.635 165.857Z" fill="#FD5E5A"/>
<path d="M163.067 160.851C163.332 160.647 163.857 160.582 164.353 160.764C165.426 161.159 165.738 163.089 164.968 164.424C164.897 164.546 164.821 164.655 164.738 164.743C164.208 165.307 164.278 166.169 164.278 166.169C164.278 166.169 164.149 166.295 164.012 166.176C163.874 166.057 163.83 166.151 163.791 166.305C163.752 166.458 163.775 166.533 163.691 166.57C163.607 166.606 163.48 166.473 163.48 166.473C163.48 166.473 163.442 166.744 163.352 166.783C163.262 166.822 163.223 166.749 163.223 166.749C163.223 166.749 163.079 166.671 163.024 166.803C162.969 166.935 162.841 166.985 162.745 167.014C162.61 167.054 161.893 167.129 161.866 164.84C161.839 162.551 162.466 161.312 163.067 160.851Z" fill="#FC7575"/>
<path d="M164.816 164.569C164.816 164.569 164.539 163.997 163.968 164.173C163.968 164.173 164.491 164.237 164.707 164.617L164.816 164.569Z" fill="#422549"/>
<path d="M164.407 164.859C164.407 164.859 164.3 165.041 164.217 165.021C164.134 165.002 164.114 164.921 164.114 164.921L164.407 164.859Z" fill="#18287D"/>
<path d="M164.112 164.461C164.112 164.461 164.34 164.748 164.453 164.991C164.566 165.234 164.656 165.261 164.656 165.261C164.656 165.261 164.503 165.029 164.41 164.796C164.316 164.563 164.112 164.461 164.112 164.461Z" fill="#0F1D5B"/>
<path d="M164.945 160.187C164.072 159.042 163.184 159.882 162.31 160.605C161.436 161.329 161.791 163.541 161.938 163.461C161.938 163.461 163.074 162.706 163.388 163.15C163.703 163.594 165.225 163.844 165.225 163.844C165.234 163.807 165.389 163.391 165.473 163.151C165.538 162.967 165.649 162.919 165.655 162.683C165.675 161.882 165.465 160.869 164.945 160.187Z" fill="#5C2C55"/>
<path d="M163.49 162.044C163.077 162.043 162.17 162.3 161.802 162.406C161.7 162.435 161.675 162.615 161.683 162.765C161.714 163.333 161.87 163.498 161.938 163.461C161.938 163.461 162.972 162.907 163.406 163.018C163.841 163.13 164.897 163.758 165.182 163.968C165.291 164.049 165.752 162.725 165.655 162.683C165.202 162.49 164.25 162.046 163.49 162.044Z" fill="#2ADCDF"/>
<path d="M163.388 163.15C163.388 163.15 163.773 163.028 163.546 162.42C163.32 161.813 162.751 162.574 162.764 163.068C162.778 163.561 163.388 163.15 163.388 163.15Z" fill="#FC7575"/>
<path d="M163.254 163.041C163.254 163.041 163.62 162.807 163.46 162.614C163.301 162.422 162.905 162.672 162.948 162.916C162.99 163.159 163.254 163.041 163.254 163.041Z" fill="#FD5E5A"/>
<path d="M179.2 154.601C179.2 154.601 170.878 155.812 170.727 159.048C170.678 160.111 173.67 171.591 173.67 171.591C173.67 171.591 171.483 172.849 171.656 172.851C172.261 172.858 174.469 172.854 174.469 172.854C174.469 172.854 174.385 171.645 174.401 171.303C174.417 170.96 173.325 160.366 173.325 160.366L181.211 159.923L181.633 154.617L179.2 154.601Z" fill="#6E1D6B"/>
<path d="M179.732 157.854L181.299 151.075L184.431 155.639L181.412 168.517L189.617 168.051L189.467 171.256L188.207 171.135L188.665 170.632L188.891 169.175C186.639 170.181 178.84 172.896 178.44 172.857C175.957 172.618 179.732 157.854 179.732 157.854Z" fill="#93278F"/>
<path d="M170.141 134.57C169.756 133.971 170.168 132.713 170.99 133.028L170.968 133.264C170.308 133.052 169.926 133.907 170.141 134.57Z" fill="#5C2C55"/>
<path d="M184.268 153.713C183.168 152.684 181.798 150.828 180.45 148.604C177.96 144.497 176.599 139.267 176.528 139.303C175.692 139.734 174.782 140.028 173.634 141.695C172.728 143.01 172.083 144.677 172.083 144.677C172.083 144.677 171.933 149.071 173.282 150.995C174.046 152.084 177.266 155.772 179.558 158.723C180.723 156.637 182.972 155.514 184.268 153.713Z" fill="#C5C6FC"/>
<path d="M174.467 140.665L171.907 138.21L171.527 140.261C171.527 140.261 172.457 142.415 172.631 143.216C172.933 144.601 174.987 147.142 174.467 140.665Z" fill="#FC7575"/>
<path d="M172.312 142.214C172.704 141.561 172.944 139.498 172.453 138.733L171.907 138.21L171.527 140.261C171.527 140.261 171.979 141.308 172.312 142.214Z" fill="#FD5E5A"/>
<path d="M168.606 136.236C168.606 136.236 168.173 137.793 168.809 138.699C169.444 139.605 170.728 142.3 171.331 142.296C171.934 142.292 172.781 140.568 172.457 138.796C172.132 137.025 170.441 134.83 170.154 134.832C169.867 134.834 168.604 135.423 168.606 136.236Z" fill="#FC7575"/>
<path d="M169.393 135.768L169.452 135.852C169.452 135.852 170.05 137.234 169.47 138.443C168.889 139.651 168.431 139.248 168.431 139.248C168.431 139.248 168.007 140.763 167.206 139.788C166.405 138.813 166.868 137.661 166.868 137.661C166.868 137.661 167.163 138.696 167.376 138.218C167.589 137.741 166.91 137.489 167.101 136.929C167.292 136.37 167.715 136.206 167.715 136.206C167.715 136.206 168.127 135.496 168.271 134.781C168.414 134.066 169.198 133.351 169.541 133.641C169.883 133.93 170.088 134.167 170.089 134.167C170.03 134.099 170.297 133.905 170.311 133.899C171.285 133.481 171.805 135.559 172.145 136.931C172.245 137.335 172.337 137.746 172.406 138.164C172.439 138.364 172.472 138.548 172.443 138.724C172.443 138.724 171.889 136.985 171.474 136.714C171.06 136.444 171.247 137.101 170.876 136.739C170.505 136.377 170.708 135.97 170.454 135.607C170.199 135.245 169.393 135.768 169.393 135.768Z" fill="#5C2C55"/>
<path d="M171.218 137.157C171.218 137.157 171.02 136.094 171.351 136.092C171.681 136.09 172.329 137.864 172.072 137.971C171.814 138.078 171.218 137.157 171.218 137.157Z" fill="#FC7575"/>
<path d="M170.491 141.12C170.491 141.12 171 140.976 171.33 140.25C171.33 140.25 171.366 140.963 171.193 141.215C171.021 141.468 170.491 141.12 170.491 141.12Z" fill="white"/>
<path d="M171.367 137.08C171.367 137.08 171.292 136.387 171.497 136.526C171.702 136.665 172.071 137.846 171.905 137.847C171.74 137.848 171.367 137.08 171.367 137.08Z" fill="#FD5E5A"/>
<path d="M170.031 139.757C170.117 140.12 170.166 140.211 170.3 140.468C170.326 140.438 170.367 140.405 170.553 140.175C170.471 140.233 170.39 140.293 170.311 140.358C170.219 140.161 169.934 139.184 169.953 139.007C169.905 139.18 169.988 139.583 170.031 139.757Z" fill="#2846A6"/>
<path d="M170.515 138.274C170.602 138.397 170.623 138.569 170.563 138.656C170.502 138.744 170.383 138.715 170.296 138.591C170.21 138.468 170.188 138.296 170.249 138.209C170.309 138.121 170.429 138.15 170.515 138.274Z" fill="#2846A6"/>
<path d="M169.733 139.409C169.82 139.533 169.841 139.704 169.781 139.792C169.72 139.88 169.601 139.85 169.514 139.727C169.428 139.603 169.406 139.432 169.467 139.344C169.527 139.256 169.646 139.286 169.733 139.409Z" fill="#2846A6"/>
<path d="M169.881 137.86C169.881 137.86 170.11 137.366 170.403 137.365C170.697 137.363 170.736 137.574 170.698 137.631C170.659 137.687 170.393 137.338 170.263 137.568C169.9 138.212 169.773 138.047 169.881 137.86Z" fill="#2846A6"/>
<path d="M179.621 141.069C179.621 141.069 177.557 138.05 176.117 139.477C174.676 140.904 175.987 143.511 176.893 144.264C177.799 145.018 180.677 145.521 181.053 146.648C181.429 147.776 178.17 151.838 177.643 151.92C177.117 152.001 176.295 151.526 175.831 151.598C175.368 151.67 175.631 152.366 175.631 152.366C175.631 152.366 175.546 152.503 175.447 152.891C175.349 153.279 175.509 153.564 175.509 153.564C175.509 153.564 175.43 154.196 175.721 154.534C176.013 154.872 177.229 153.845 178.085 153.42C178.941 152.996 182.869 149.047 183.494 146.542C183.494 146.542 180.319 141.417 179.621 141.069Z" fill="#FC7575"/>
<path d="M176.413 139.248C175.7 139.784 175.36 140.712 175.639 141.841C176.302 144.426 177.773 144.563 179.1 145.171C179.682 145.433 180.765 145.882 181.053 146.648C180.668 145.872 179.604 145.619 177.977 144.976C177.055 144.594 176.665 144.43 176.041 143.349C175.001 141.474 175.341 139.832 176.413 139.248Z" fill="#FDACAC"/>
<path d="M151.442 170.501C150.475 169.59 150.404 167.931 150.4 167.581C150.4 167.546 150.42 167.517 150.445 167.519C150.468 167.52 150.486 167.546 150.487 167.58C150.49 167.907 150.556 169.517 151.489 170.396C151.509 170.415 151.515 170.452 151.503 170.481C151.49 170.511 151.462 170.52 151.442 170.501Z" fill="#411AC0"/>
<path d="M151.904 172.409C150.455 171.481 149.902 169.459 149.809 169.08C149.801 169.046 149.814 169.01 149.838 169C149.86 168.99 149.883 169.007 149.891 169.039C149.979 169.399 150.519 171.386 151.939 172.295C151.961 172.309 151.971 172.345 151.961 172.376C151.952 172.408 151.926 172.423 151.904 172.409Z" fill="#411AC0"/>
<path d="M169.206 167.874C169.186 167.857 169.18 167.819 169.192 167.79C169.965 165.837 168.572 163.034 168.363 162.633C168.349 162.606 168.352 162.568 168.37 162.547L168.371 162.546C168.39 162.525 168.418 162.53 168.432 162.558C168.648 162.973 170.066 165.833 169.267 167.852C169.255 167.882 169.227 167.892 169.206 167.874Z" fill="#411AC0"/>
<path d="M154.083 87.8931C165.441 89.2912 175.191 81.2887 175.862 70.0191C176.029 67.1984 175.612 64.4403 174.714 61.8684C177.717 60.9029 179.922 58.2263 180.124 54.8288C180.4 50.1864 176.831 45.9562 172.152 45.3803C168.671 44.9518 165.557 46.6667 164.077 49.4846C161.767 48.2515 159.214 47.4153 156.509 47.0823C145.151 45.6842 135.4 53.6867 134.73 64.9563C134.06 76.2259 142.725 86.4951 154.083 87.8931Z" fill="#FFF6DC"/>
<path d="M172.776 62.0247C172.776 62.0247 167.777 60.7841 167.52 61.1537C167.263 61.5233 168.136 64.8084 169.163 66.2861C170.19 67.7639 172.175 69.1896 172.175 69.1896L173.212 67.7657C173.212 67.7657 169.27 63.1927 169.699 63.1927C170.127 63.1927 173.051 62.9383 173.051 62.9383L172.776 62.0247Z" fill="#E55151"/>
<path d="M179.962 100.992C179.962 102.256 170.031 103.282 157.78 103.282C145.53 103.282 135.599 102.256 135.599 100.992C135.599 99.7273 145.53 98.7021 157.78 98.7021C170.031 98.7021 179.962 99.7273 179.962 100.992Z" fill="#5CA9FF"/>
<path d="M142.179 71.547L142.995 74.2122C142.995 74.2122 144.458 84.894 144.458 85.9662C144.458 87.0384 144.982 100.103 144.982 100.103L144.844 101.056L144.872 101.572C144.872 101.572 145.838 101.334 146.638 101.572C147.439 101.81 147.687 101.572 147.687 101.572L145.728 100.381L146.114 84.4572L145.659 62.5569L142.6 63.0523L142.179 71.547Z" fill="#6E1D6B"/>
<path d="M140.126 63.4389C140.126 63.3773 140.113 63.2235 140.091 63.0023C142.029 62.9417 142.446 62.9167 144.436 63.2151C144.34 65.9194 144.405 67.6997 144.405 67.6997L140.637 82.8873C140.637 82.8873 136.986 98.3877 137.223 99.4959C137.46 100.604 138.023 102.565 138.023 102.565L136.393 102.096V101.073L137.934 81.2543C137.934 81.2543 140.126 64.2061 140.126 63.4389Z" fill="#93278F"/>
<path d="M174.824 58.4389C174.245 59.1808 174.437 60.8917 174.254 62.8286C173.853 67.076 176.928 67.1721 176.928 67.1721L177.127 66.3141C177.127 66.3141 176.062 65.7022 176.218 65.028C176.218 65.028 177.091 65.7524 177.915 65.6701C178.738 65.5878 178.971 64.1681 178.971 64.1681C178.971 64.1681 177.95 65.1084 177.233 64.5268C176.516 63.9453 176.616 63.0404 176.616 63.0404C176.616 63.0404 177.14 64.2104 177.765 64.2712C178.39 64.332 178.622 63.7628 178.622 63.7628C178.622 63.7628 177.414 63.7435 177.287 62.7566C177.161 61.7696 176.742 60.2977 176.378 59.2506C176.014 58.2037 175.133 58.0438 174.824 58.4389Z" fill="#4C1E48"/>
<path d="M174.056 63.5496C174.056 63.5496 174.44 67.985 173.868 69.3036C173.546 70.0452 173.02 70.1452 172.621 70.0906C172.321 70.0496 172.119 69.6284 172.175 69.1896C172.318 68.0507 172.557 65.8678 172.413 64.892C172.213 63.54 174.056 63.5496 174.056 63.5496Z" fill="#FC7575"/>
<path d="M174.056 63.5496C174.056 63.5496 174.091 63.9539 174.124 64.5546C173.867 65.3541 173.491 66.2184 172.966 67.1165C172.715 67.5439 172.495 67.8642 172.301 68.1008C172.418 66.9742 172.518 65.6082 172.413 64.892C172.213 63.54 174.056 63.5496 174.056 63.5496Z" fill="#FD5E5A"/>
<path d="M174.649 60.8182C174.556 60.3638 174.189 59.7225 173.709 59.3045C172.671 58.4013 171.383 59.5304 171.249 61.4211C171.237 61.5933 171.236 61.7634 171.252 61.9247C171.352 62.9529 170.829 63.5352 170.829 63.5352C170.829 63.5352 170.86 63.7772 171.03 63.8405C171.2 63.9039 171.183 64.026 171.13 64.1876C171.076 64.3492 171.018 64.3803 171.062 64.5029C171.107 64.6253 171.277 64.6658 171.277 64.6658C171.277 64.6658 171.159 64.9169 171.207 65.0481C171.255 65.1793 171.324 65.1672 171.324 65.1672C171.324 65.1672 171.477 65.2698 171.448 65.4325C171.418 65.5954 171.489 65.7778 171.547 65.9083C171.629 66.0914 172.138 66.9545 173.402 65.2288C174.667 63.5031 174.859 61.8472 174.649 60.8182Z" fill="#FC7575"/>
<path d="M171.286 61.703C171.286 61.703 171.81 61.5762 172.152 62.3538C172.152 62.3538 171.716 61.8136 171.344 61.863L171.286 61.703Z" fill="#422549"/>
<path d="M171.442 62.3848C171.442 62.3848 171.425 62.6455 171.5 62.7239C171.574 62.8022 171.634 62.7626 171.634 62.7626L171.442 62.3848Z" fill="#18287D"/>
<path d="M171.885 62.4125C171.885 62.4125 171.555 62.3762 171.336 62.4355C171.117 62.4947 171.033 62.4139 171.033 62.4139C171.033 62.4139 171.277 62.4079 171.475 62.3345C171.673 62.2611 171.885 62.4125 171.885 62.4125Z" fill="#0F1D5B"/>
<path d="M171.671 64.4105C171.561 64.5525 171.421 64.642 171.277 64.6659C171.423 64.6648 171.572 64.6018 171.704 64.4625C171.716 64.4507 171.718 64.4279 171.711 64.4116C171.703 64.3953 171.687 64.3916 171.676 64.4034C171.676 64.4041 171.675 64.4049 171.674 64.4057L171.671 64.4105Z" fill="#0F1D5B"/>
<path d="M173.568 58.1959C174.86 58.2993 175.085 59.9422 175.363 61.481C175.64 63.0197 174.166 64.3167 174.096 64.0903C174.096 64.0903 173.635 62.2331 173.153 62.2203C172.67 62.2075 171.366 60.6867 171.366 60.6867C171.379 60.648 171.487 60.155 171.553 59.8752C171.603 59.6618 171.544 59.5003 171.668 59.3131C172.087 58.6757 172.798 58.1344 173.568 58.1959Z" fill="#5C2C55"/>
<path d="M173.676 61.2578C173.994 61.7215 174.549 62.9391 174.774 63.4335C174.837 63.5716 174.758 63.7378 174.67 63.8437C174.337 64.2441 174.128 64.1961 174.096 64.0904C174.096 64.0904 173.604 62.5017 173.211 62.0994C172.817 61.6961 171.665 60.9901 171.332 60.8309C171.204 60.7697 171.571 59.2356 171.668 59.3131C172.12 59.6743 173.091 60.4034 173.676 61.2578Z" fill="#2ADCDF"/>
<path d="M173.153 62.2203C173.153 62.2203 172.924 61.6934 173.428 61.4827C173.932 61.272 173.954 62.4959 173.676 62.859C173.398 63.222 173.153 62.2203 173.153 62.2203Z" fill="#FC7575"/>
<path d="M173.315 62.2879C173.315 62.2879 173.161 61.6959 173.388 61.7281C173.616 61.7603 173.782 62.3971 173.618 62.5365C173.453 62.6759 173.315 62.2879 173.315 62.2879Z" fill="#FD5E5A"/>
<path d="M153.424 65.3054C153.424 65.3054 153.165 64.0199 154.106 63.7154C155.046 63.411 162.033 71.9778 162.865 72.793C163.698 73.6083 165.136 78.1946 162.898 79.3448C162.037 79.7873 159.557 79.285 157.562 74.79C156.828 73.1368 153.424 65.3054 153.424 65.3054Z" fill="#42210B"/>
<path d="M153.718 64.5627L153.424 65.3054L153.071 81.9774C153.071 81.9774 151.772 82.6465 152.021 83.0042C152.269 83.3618 153.26 82.7709 153.573 82.7709C153.885 82.7709 154.075 81.5975 154.075 81.5975L154.756 81.0907L154.302 79.8772L155.877 67.5093L153.718 64.5627Z" fill="#42210B"/>
<path d="M140.507 34.9258C140.481 34.0492 139.501 33.5497 139.046 34.6914L139.188 34.8458C139.575 33.9598 140.318 34.188 140.507 34.9258Z" fill="#5C2C55"/>
<path d="M139.786 64.0767C139.556 61.7409 138.522 50.2429 138.316 48.6428C138.299 48.5086 137.828 46.3061 137.917 46.1783C138.006 46.0504 139.557 43.6748 142.377 44.1318C143.79 44.3607 145.132 44.3875 145.132 44.3875C145.132 44.3875 146.214 47.3719 146.214 50.3127C146.214 51.9773 146.123 58.4603 145.955 63.2151C144.405 64.9863 141.744 64.6355 139.786 64.0767Z" fill="#C5C6FC"/>
<path d="M140.637 44.2892L141.103 39.6248L142.481 40.7595L143.214 44.2117C143.214 44.2117 143.266 48.3194 140.637 44.2892Z" fill="#FC7575"/>
<path d="M141.103 39.6248L142.481 40.7595L143.007 43.2362C142.352 43.2186 141.474 42.6197 140.998 41.3375C140.981 41.2896 140.963 41.2403 140.947 41.1898L141.103 39.6248Z" fill="#FD5E5A"/>
<path d="M142.555 34.4997C142.555 34.4997 143.71 35.2033 143.71 36.5883C143.71 37.9733 144.169 41.4255 143.71 42.0861C143.251 42.7467 141.693 42.3717 140.998 40.6733C140.304 38.9748 140.418 35.4533 140.637 35.139C140.855 34.8247 142.125 33.8817 142.555 34.4997Z" fill="#FC7575"/>
<path d="M141.711 35.011V35.1389C141.711 35.1389 141.992 36.8437 143.073 37.1207C144.154 37.3978 144.288 36.5881 144.288 36.5881C144.288 36.5881 145.413 37.2699 145.502 35.6503C145.591 34.0307 144.628 33.6684 144.628 33.6684C144.628 33.6684 144.954 34.7766 144.539 34.6487C144.125 34.5208 144.505 33.5832 144.063 33.3701C143.621 33.157 143.214 33.498 143.214 33.498C143.214 33.498 142.525 33.4127 142.036 33.0292C141.548 32.6456 140.574 32.9652 140.469 33.5619C140.363 34.158 140.333 34.5628 140.333 34.5634C140.342 34.4468 140.036 34.5938 140.022 34.6049C139.062 35.3591 139.772 37.5042 140.244 38.9172C140.383 39.3338 140.532 39.7456 140.701 40.1381C140.783 40.3259 140.878 40.5237 140.998 40.6731C140.998 40.6731 140.466 38.6763 140.637 38.0157C140.807 37.3551 141.014 38.0583 141.103 37.3764C141.192 36.6945 140.822 36.6092 140.822 36.0552C140.822 35.5012 141.711 35.011 141.711 35.011Z" fill="#5C2C55"/>
<path d="M141.066 38.0691C141.066 38.0691 140.652 37.0462 140.4 37.4085C140.148 37.7708 140.6 39.8272 140.851 39.6247C141.103 39.4223 141.066 38.0691 141.066 38.0691Z" fill="#FC7575"/>
<path d="M143.721 40.2715C143.721 40.2715 143.26 40.7224 142.624 40.5344C142.624 40.5344 142.976 41.1144 143.24 41.1158C143.505 41.1172 143.721 40.2715 143.721 40.2715Z" fill="white"/>
<path d="M140.912 38.1757C140.912 38.1757 140.601 37.5684 140.52 37.8987C140.438 38.229 140.786 39.5289 140.912 39.3478C141.038 39.1667 140.912 38.1757 140.912 38.1757Z" fill="#FD5E5A"/>
<path d="M143.346 38.734C143.474 39.1038 143.485 39.226 143.52 39.5674C143.484 39.574 143.435 39.5936 143.173 39.6248C143.266 39.5784 143.359 39.5336 143.453 39.4964C143.419 39.246 143.115 38.1926 143.007 38.0798C143.135 38.158 143.286 38.5545 143.346 38.734Z" fill="#2846A6"/>
<path d="M142.191 38.1426C142.191 38.3316 142.266 38.4848 142.358 38.4848C142.451 38.4848 142.526 38.3316 142.526 38.1426C142.526 37.9535 142.451 37.8003 142.358 37.8003C142.266 37.8003 142.191 37.9536 142.191 38.1426Z" fill="#2846A6"/>
<path d="M143.387 38.1426C143.387 38.3316 143.462 38.4848 143.554 38.4848C143.646 38.4848 143.721 38.3316 143.721 38.1426C143.721 37.9535 143.646 37.8003 143.554 37.8003C143.462 37.8003 143.387 37.9536 143.387 38.1426Z" fill="#2846A6"/>
<path d="M142.452 37.1315C142.452 37.1315 142.016 37.0097 141.793 37.3309C141.57 37.6521 141.653 37.8561 141.712 37.8561C141.771 37.8561 141.787 37.2993 142.008 37.3309C142.624 37.4192 142.633 37.1541 142.452 37.1315Z" fill="#2846A6"/>
<path d="M153.425 79.3447H152.717V101.537H153.425V79.3447Z" fill="#432C47"/>
<path d="M173.762 92.3672H153.071V93.3861H173.762V92.3672Z" fill="#432C47"/>
<path d="M175.792 102.091H172.531V91.2407H175.792V102.091ZM173.3 100.984H175.023V92.3477H173.3V100.984Z" fill="#432C47"/>
<path d="M155.469 101.569H150.769V102.462H155.469V101.569Z" fill="#432C47"/>
<path d="M175.181 101.459H170.481V102.352H175.181V101.459Z" fill="#432C47"/>
<path d="M160.172 77.6196H152.625V78.7698H160.172V77.6196Z" fill="#432C47"/>
<path d="M158.776 76.5846L178.073 93.2885C178.518 93.6739 178.662 94.5056 178.394 95.1462C178.126 95.7867 177.548 95.9936 177.103 95.6083C177.09 95.5974 177.075 95.5835 177.063 95.572L158.37 77.5041C158.196 77.3363 158.15 76.9976 158.267 76.7477C158.38 76.5058 158.605 76.4365 158.776 76.5846Z" fill="#F271CA"/>
<path d="M161.018 74.4735C160.313 75.4884 160.237 78.6538 161.601 79.1274C161.601 79.1274 165.215 77.6204 165.217 77.6197C164.633 75.8147 164.557 74.4678 164.093 72.5967C163.125 73.5061 161.501 73.7792 161.018 74.4735Z" fill="#4F3554"/>
<path d="M163.92 75.3872C163.724 74.1558 158.573 68.8576 155.752 66.2866C152.93 63.7155 151.082 62.6315 150.847 64.0907C150.393 66.9143 152.836 77.0444 153.424 79.8862C154.012 82.7278 153.965 83.7814 153.824 83.9844C153.683 84.1874 152.797 85.1978 152.797 85.1978L154.412 85.2445C154.952 84.8724 154.897 83.7458 155.211 82.694C155.538 81.5975 155.538 81.5975 155.538 81.5975L154.882 80.698C154.882 80.698 154.34 73.6183 153.933 72.1298C153.526 70.6412 152.576 67.0646 153.122 67.849C154.929 70.4503 157.586 75.3326 157.586 75.3326C157.586 75.3326 158.528 77.6006 159.492 78.3449C160.456 79.0892 164.82 81.0249 163.92 75.3872Z" fill="#4F3554"/>
<path d="M162.703 73.4639C160.68 71.1563 156.143 66.6511 153.944 64.8678C153.019 64.1277 151.12 62.633 150.848 64.0907C151.254 61.1472 158.266 68.4651 159.946 70.2617C160.894 71.2755 161.827 72.3229 162.703 73.4639Z" fill="#958698"/>
<path d="M154.372 79.4614C154.372 80.7132 153.667 81.728 152.797 81.728C151.927 81.728 151.221 80.7132 151.221 79.4614C151.221 78.2096 151.927 77.1948 152.797 77.1948C153.667 77.1948 154.372 78.2096 154.372 79.4614Z" fill="url(#paint1_linear_69_6015)"/>
<path d="M154.302 72.3823C155.172 72.3823 155.877 71.3675 155.877 70.1157C155.877 68.8639 155.172 67.8491 154.302 67.8491C153.432 67.8491 152.726 68.8639 152.726 70.1157C152.726 71.3675 153.432 72.3823 154.302 72.3823Z" fill="url(#paint2_linear_69_6015)"/>
<path d="M155.077 70.1157C155.077 70.7323 154.73 71.2321 154.302 71.2321C153.873 71.2321 153.526 70.7323 153.526 70.1157C153.526 69.4991 153.873 68.9993 154.302 68.9993C154.73 68.9993 155.077 69.4991 155.077 70.1157Z" fill="#432C47"/>
<path d="M153.573 79.4614C153.573 80.078 153.225 80.5778 152.797 80.5778C152.368 80.5778 152.021 80.0779 152.021 79.4614C152.021 78.8448 152.368 78.345 152.797 78.345C153.225 78.345 153.573 78.8448 153.573 79.4614Z" fill="#432C47"/>
<path d="M142.989 54.2318C142.989 54.2318 141.82 54.0602 141.423 54.2318C141.025 54.4034 140.268 55.6686 140.268 55.6686L140.092 56.7141H142.08L142.386 55.6578L142.989 54.2318Z" fill="#FC7575"/>
<path d="M147.856 54.2922L147.37 53.1768C147.37 53.1768 146.063 52.791 145.846 52.9239C145.63 53.0568 144.977 53.7915 144.977 53.7915C144.977 53.7915 141.227 57.0484 140.268 55.6686C139.309 54.2888 141.708 47.3972 140.108 45.0959C140.108 45.0959 139.549 43.8298 137.917 46.1783C136.285 48.5268 135.906 60.1467 139.292 60.5138C141.613 60.7656 143.692 57.8348 144.77 55.9668C144.771 55.9659 145.58 55.29 145.903 54.8249C146.226 54.3594 147.856 54.2922 147.856 54.2922Z" fill="#FD5E5A"/>
<path d="M145.132 44.3875C145.132 44.3875 146.806 45.637 147.813 51.1392C148.821 56.6415 147.691 60.074 145.705 58.6946C144.089 57.572 142.179 55.4635 142.179 55.4635L142.989 54.2317C142.989 54.2317 144.507 55.0942 145.648 54.7334C145.951 54.6374 146.105 53.921 146.151 52.9048C146.28 50.1006 145.452 45.3149 145.132 44.3875Z" fill="#FC7575"/>
<path d="M169.056 69.8447C167.451 72.1542 166.134 71.7084 164.788 71.7084C164.363 71.7084 163.933 71.8369 163.458 71.5882C163.52 73.7255 164.053 77.1697 164.696 79.1572C164.838 79.1092 169.037 76.3688 170.972 74.4637C172.94 72.5268 174.012 70.5373 174.012 68.8238C174.012 67.1103 170.661 67.5353 169.056 69.8447Z" fill="#29C1C1"/>
<path d="M176.005 63.8834C176.044 63.8483 176.039 63.7634 175.995 63.7424C175.637 63.5722 174.36 62.993 174.157 63.2846C173.921 63.6244 175.02 64.1448 175.123 64.1448C175.225 64.1448 175.363 63.9364 175.519 63.9364C175.652 63.9364 175.831 64.0377 176.005 63.8834Z" fill="#FD5E5A"/>
<path d="M174.592 63.396C174.592 63.396 176.196 64.1058 176.469 64.3965C176.628 64.5651 176.58 64.6931 176.371 64.6069C176.145 64.5139 175.23 63.9035 175.23 63.9035L174.592 63.396Z" fill="#FD5E5A"/>
<path d="M164.724 67.1131C164.724 67.1131 163.933 64.6659 173.975 63.2038C174.887 63.0709 175.918 64.1853 176.252 64.666C176.586 65.1467 176.508 65.3724 176.206 64.9379C175.903 64.5033 175.321 64.4063 175.321 64.4063C175.321 64.5313 176.381 65.1616 176.381 65.4844C176.381 65.8072 175.114 64.666 175.114 64.666C175.114 64.666 176.121 65.6316 175.931 65.6316C175.741 65.6316 175.005 64.8572 174.796 64.7891C172.301 63.9743 168.366 66.1695 168.78 66.7655C169.194 67.3614 172.766 68.6595 172.974 70.0931C173.182 71.5267 172.891 72.7721 171.277 72.3251C169.662 71.8781 165.624 68.4079 164.724 67.1131Z" fill="#FF8888"/>
<path d="M170.829 78.3444C170.819 78.3111 170.83 78.2729 170.853 78.2585C173.939 76.3334 175.205 70.4445 175.341 69.7727C175.348 69.7382 175.373 69.7181 175.397 69.7274C175.422 69.737 175.436 69.774 175.429 69.8096C175.29 70.4984 174.011 76.432 170.89 78.3796C170.867 78.3942 170.839 78.3783 170.829 78.3444Z" fill="#411AC0"/>
<path d="M174.218 76.5066C174.2 76.481 174.2 76.4397 174.218 76.4139C176.183 73.5433 176.51 69.0816 176.545 68.4927C176.548 68.4569 176.569 68.4301 176.594 68.4323C176.62 68.4346 176.639 68.4669 176.637 68.5039C176.601 69.1075 176.269 73.6057 174.283 76.5063C174.265 76.5326 174.236 76.5327 174.218 76.5066Z" fill="#411AC0"/>
<path d="M176.615 57.5617C174.706 54.8293 173.334 54.1669 173.082 54.0632C173.059 54.0536 173.045 54.0195 173.051 53.9854C173.056 53.9482 173.082 53.9256 173.108 53.9362C173.375 54.0476 174.765 54.7275 176.68 57.4679C176.698 57.4937 176.698 57.5361 176.68 57.5619L176.68 57.562C176.662 57.5877 176.633 57.5874 176.615 57.5617Z" fill="#411AC0"/>
<path d="M169.707 44.0736C170.771 44.0736 171.634 43.0777 171.634 41.8492C171.634 40.6207 170.771 39.6248 169.707 39.6248C168.643 39.6248 167.781 40.6207 167.781 41.8492C167.781 43.0777 168.643 44.0736 169.707 44.0736Z" fill="#FFF6DC"/>
<path d="M166.363 40.2158C166.363 41.1179 165.855 41.8491 165.228 41.8491C164.601 41.8491 164.093 41.1179 164.093 40.2158C164.093 39.3138 164.601 38.5825 165.228 38.5825C165.855 38.5825 166.363 39.3137 166.363 40.2158Z" fill="#FFF6DC"/>
<path d="M38.3735 118.826C28.8674 118.826 21.1612 126.472 21.1612 135.905C21.1612 138.265 21.644 140.514 22.5169 142.559C20.0701 143.669 18.3699 146.118 18.3699 148.962C18.3699 152.847 21.5444 155.997 25.4603 155.997C28.3737 155.997 30.8766 154.253 31.9673 151.761C33.9475 152.549 36.1094 152.983 38.3735 152.983C47.8797 152.983 55.5859 145.337 55.5859 135.904C55.5859 126.472 47.8796 118.826 38.3735 118.826Z" fill="#FFF6DC"/>
<path d="M35.4771 118.757C35.4771 120.901 33.2172 122.638 30.4295 122.638C27.6418 122.638 25.3819 120.901 25.3819 118.757C25.3819 116.613 27.6418 114.875 30.4295 114.875C33.2172 114.875 35.4771 116.613 35.4771 118.757Z" fill="#FFF6DC"/>
<path d="M26.0073 111.342C26.0073 112.133 25.4419 112.776 24.7443 112.776C24.0468 112.776 23.4813 112.133 23.4813 111.342C23.4813 110.55 24.0468 109.907 24.7443 109.907C25.4419 109.907 26.0073 110.55 26.0073 111.342Z" fill="#FFF6DC"/>
<path d="M29.1075 137.226C29.1075 137.226 33.2107 144.664 35.2489 146.483C35.2489 146.483 33.7057 151.917 33.5716 156.586L34.004 157.319L37.0188 146.402C37.0188 146.402 34.4711 139.207 33.9347 137.792C33.3984 136.378 29.1075 137.226 29.1075 137.226Z" fill="#42210B"/>
<path d="M33.1881 155.254C31.035 152.088 29.7511 140.945 29.6976 140.472L30.4017 140.299C30.4145 140.412 31.7007 151.582 33.6928 154.512L33.1881 155.254Z" fill="#241145"/>
<path d="M41.5866 157.517L41.1315 156.831C44.1583 152.269 44.0159 132.28 44.014 132.079L44.6577 132.066C44.6652 132.905 44.8035 152.668 41.5866 157.517Z" fill="#241145"/>
<path d="M45.9886 127.999L44.014 132.079L44.6577 132.066L47.4638 128.802L45.9886 127.999Z" fill="#241145"/>
<path d="M32.2275 158.568C32.2275 158.568 31.6844 154.801 32.2275 154.145C32.2546 154.113 32.2822 154.082 32.3101 154.053C32.7414 153.611 33.3795 153.623 33.8338 154.03L37.5667 157.379L32.2275 158.568Z" fill="#821B36"/>
<path d="M38.9163 158.168C38.9163 158.168 40.6602 156.305 41.2129 156.305C41.7655 156.305 42.3444 159.163 42.5023 160.743C42.6601 162.323 42.5023 163.961 42.5023 163.961L38.9163 158.168Z" fill="#821B36"/>
<path d="M39.3774 122.579C39.0629 121.869 38.2473 121.237 37.773 121.703C37.0607 122.404 37.1561 123.147 37.4719 124.151C37.9546 125.687 38.9284 131.697 41.2448 131.273C43.5612 130.849 46.1285 126.635 46.1285 126.635C46.1285 126.635 47.5638 125.695 47.614 125.422C47.6643 125.149 47.6543 125.195 47.7045 124.831C47.7548 124.467 48.0163 122.724 47.9057 122.406C47.795 122.087 47.3726 122.072 47.3726 122.072V122.845C47.3726 122.845 47.0944 123.826 46.9469 123.826C46.7994 123.826 47.1229 122.883 47.2218 122.734C47.3207 122.585 47.0559 122.095 46.8396 122.421C46.6234 122.747 45.4182 125.71 44.9321 126.241C44.4461 126.771 42.0636 129.041 41.4574 128.257C40.9824 127.642 40.3726 124.824 39.3774 122.579Z" fill="#FD5E5A"/>
<path d="M37.3722 174.014C43.1561 174.014 47.8448 173.744 47.8448 173.412C47.8448 173.08 43.1561 172.81 37.3722 172.81C31.5884 172.81 26.8997 173.08 26.8997 173.412C26.8997 173.744 31.5884 174.014 37.3722 174.014Z" fill="#5CA9FF"/>
<path d="M36.8614 156.587C33.37 154.3 28.6165 159.004 28.9802 164.853C29.1634 167.8 30.4054 171.59 32.5091 172.21C34.3595 172.756 44.4565 172.21 44.4565 172.21C44.4565 172.21 45.784 171.846 45.784 169.057C45.784 166.268 43.0523 161.772 39.7097 158.871C38.3823 157.719 37.6487 157.102 36.8614 156.587Z" fill="url(#paint3_linear_69_6015)"/>
<path d="M44.4565 172.21C44.4565 172.21 45.784 171.846 45.784 169.057C45.784 169.056 45.784 169.055 45.784 169.054C44.1 170.434 42.0491 171.286 39.5622 171.171C28.7514 170.671 29.5529 160.813 29.5529 160.813L29.7545 160.299C29.1836 161.638 28.8773 163.2 28.9802 164.853C29.1634 167.8 30.4055 171.59 32.5091 172.21C34.3595 172.756 44.4565 172.21 44.4565 172.21Z" fill="#838BC5"/>
<path d="M45.784 169.057C45.6361 165.997 42.5426 162.02 40.8857 160.269C40.0849 159.405 37.8052 157.321 36.8614 156.586C38.0215 157.204 39.9801 158.794 41.0637 159.879C42.7954 161.639 45.175 164.87 45.6935 167.872C45.7617 168.259 45.7999 168.661 45.784 169.057Z" fill="#CFCFF9"/>
<path d="M28.1645 138.56L29.6976 141.41H30.5782L31.0206 138.56H28.1645Z" fill="#0F1D5B"/>
<path d="M26.7163 136.802L31.4987 137.772V138.56H27.6014L26.7163 136.802Z" fill="#2A417F"/>
<path d="M38.7577 164.218C38.7577 166.473 37.545 168.301 36.0491 168.301C34.5531 168.301 33.3404 166.473 33.3404 164.218C33.3404 161.963 34.5531 160.136 36.0491 160.136C37.545 160.136 38.7577 161.963 38.7577 164.218Z" fill="#0F1D5B"/>
<path d="M38.4053 164.218C38.4053 166.179 37.3504 167.769 36.049 167.769C34.7477 167.769 33.6928 166.179 33.6928 164.218C33.6928 162.257 34.7477 160.667 36.049 160.667C37.3504 160.667 38.4053 162.257 38.4053 164.218Z" fill="#653870"/>
<path d="M37.3871 155.725C37.3314 157.67 37.0481 162.996 36.0801 164.265L36.018 164.171C36.8635 162.83 36.7888 157.639 36.7293 155.783L37.3871 155.725Z" fill="#241145"/>
<path d="M37.9858 156.173L35.7347 156.433C35.57 156.453 35.4261 156.267 35.4134 156.018L35.4034 155.821C35.3907 155.572 35.514 155.356 35.6788 155.337L37.9298 155.076C38.0946 155.057 38.2385 155.243 38.2511 155.491L38.2612 155.688C38.2738 155.937 38.1505 156.154 37.9858 156.173Z" fill="#653870"/>
<path d="M37.3871 152.585C37.0241 152.553 36.8512 152.506 36.4883 152.585C36.392 152.94 35.9173 154.758 36.1564 155.254L39.5623 155.031C39.5465 154.009 37.3871 154.239 37.3871 152.585Z" fill="#311F35"/>
<path d="M38.6668 120.663C38.6668 120.663 40.5719 119.598 41.0348 118.371L41.8927 119.986C41.8927 119.986 41.0505 122.209 39.8447 122.714C38.6391 123.219 38.6668 120.663 38.6668 120.663Z" fill="#FC7575"/>
<path d="M41.4986 120.609C41.5168 120.653 41.5347 120.695 41.5526 120.736C41.7705 120.309 41.8927 119.987 41.8927 119.987L41.0348 118.371C40.9943 118.479 41.2159 119.93 41.4986 120.609Z" fill="#FD5E5A"/>
<path d="M40.3448 113.379C40.8509 114.058 40.6829 115.622 40.8426 117.393C41.1925 121.276 38.5084 121.364 38.5084 121.364L38.3352 120.58C38.3352 120.58 39.2646 120.02 39.1285 119.404C39.1285 119.404 38.3663 120.066 37.6478 119.991C36.9292 119.916 36.7252 118.618 36.7252 118.618C36.7252 118.618 37.617 119.477 38.2428 118.946C38.8687 118.414 38.7811 117.587 38.7811 117.587C38.7811 117.587 38.3235 118.656 37.7783 118.712C37.2331 118.767 37.0298 118.247 37.0298 118.247C37.0298 118.247 38.0847 118.229 38.1952 117.327C38.3056 116.425 38.6709 115.079 38.9889 114.122C39.3069 113.164 40.0753 113.018 40.3448 113.379Z" fill="#4C1E48"/>
<path d="M40.4981 115.555C40.5791 115.139 40.8997 114.553 41.3187 114.171C42.2241 113.345 43.3487 114.377 43.4656 116.106C43.4763 116.264 43.4768 116.419 43.4631 116.567C43.3756 117.507 43.8317 118.039 43.8317 118.039C43.8317 118.039 43.805 118.26 43.6564 118.318C43.5078 118.376 43.5231 118.488 43.5697 118.635C43.6164 118.783 43.6673 118.812 43.6284 118.924C43.5894 119.036 43.4413 119.073 43.4413 119.073C43.4413 119.073 43.544 119.302 43.5023 119.422C43.4605 119.542 43.4002 119.531 43.4002 119.531C43.4002 119.531 43.2661 119.625 43.2921 119.774C43.3181 119.923 43.2558 120.089 43.2051 120.209C43.1339 120.376 42.6898 121.165 41.5862 119.587C40.4825 118.01 40.3146 116.496 40.4981 115.555Z" fill="#FC7575"/>
<path d="M43.433 116.364C43.433 116.364 42.976 116.248 42.6771 116.959C42.6771 116.959 43.0576 116.465 43.3826 116.51L43.433 116.364Z" fill="#422549"/>
<path d="M43.2967 116.987C43.2967 116.987 43.3115 117.225 43.2464 117.297C43.1814 117.369 43.1297 117.332 43.1297 117.332L43.2967 116.987Z" fill="#18287D"/>
<path d="M42.9105 117.012C42.9105 117.012 43.1987 116.979 43.3896 117.033C43.5806 117.087 43.6541 117.014 43.6541 117.014C43.6541 117.014 43.4414 117.008 43.2684 116.941C43.0954 116.874 42.9105 117.012 42.9105 117.012Z" fill="#0F1D5B"/>
<path d="M43.0976 118.839C43.1935 118.969 43.3158 119.051 43.4414 119.073C43.3135 119.072 43.1838 119.014 43.068 118.887C43.0582 118.876 43.0558 118.855 43.0625 118.84C43.0693 118.825 43.0827 118.822 43.0925 118.833C43.0931 118.833 43.0937 118.834 43.0943 118.835L43.0976 118.839Z" fill="#0F1D5B"/>
<path d="M41.4414 113.157C40.3134 113.252 40.1173 114.754 39.8751 116.161C39.6328 117.568 40.9197 118.753 40.9807 118.546C40.9807 118.546 41.3827 116.848 41.8039 116.837C42.2251 116.825 43.3632 115.435 43.3632 115.435C43.3519 115.399 43.2575 114.948 43.2004 114.693C43.1568 114.497 43.2077 114.35 43.1001 114.179C42.7338 113.596 42.1132 113.101 41.4414 113.157Z" fill="#5C2C55"/>
<path d="M41.3471 115.957C41.07 116.381 40.5849 117.494 40.3889 117.946C40.3342 118.072 40.4028 118.224 40.4796 118.321C40.7701 118.687 40.9523 118.643 40.9808 118.546C40.9808 118.546 41.4098 117.094 41.7531 116.726C42.0973 116.357 43.1026 115.712 43.3929 115.566C43.5046 115.51 43.1848 114.108 43.1001 114.179C42.7056 114.509 41.8576 115.175 41.3471 115.957Z" fill="#2DE8E8"/>
<path d="M41.8039 116.837C41.8039 116.837 42.0037 116.355 41.5638 116.162C41.1238 115.97 41.1042 117.089 41.3471 117.421C41.5899 117.753 41.8039 116.837 41.8039 116.837Z" fill="#FC7575"/>
<path d="M41.6624 116.898C41.6624 116.898 41.7966 116.357 41.5983 116.387C41.3999 116.416 41.2543 116.998 41.3979 117.126C41.5415 117.253 41.6624 116.898 41.6624 116.898Z" fill="#FD5E5A"/>
<path d="M47.3772 128.933L45.4859 127.965L47.0177 125.113V121.119C47.0177 120.918 47.1257 120.755 47.259 120.755C47.3924 120.755 47.5004 120.918 47.5004 121.119V125.37L46.2967 127.611L47.2482 128.098L48.3854 126.384V121.482C48.3854 121.281 48.4935 121.119 48.6268 121.119C48.7601 121.119 48.8681 121.281 48.8681 121.482V126.686L47.3772 128.933Z" fill="#241145"/>
<path d="M47.5545 122.105C47.5545 122.105 46.4209 124.345 46.6802 124.502C46.9396 124.658 47.8595 123.35 47.9234 122.957C47.9873 122.563 48.0033 121.851 47.5545 122.105Z" fill="#FC7575"/>
<path d="M47.9234 122.957C47.9234 122.957 46.5213 124.397 46.7217 124.844C46.9222 125.29 47.8273 124.228 47.9567 124.033C48.0861 123.838 47.9234 122.957 47.9234 122.957Z" fill="#FC7575"/>
<path d="M46.9297 122.331C46.9297 122.331 47.6034 123.517 47.4374 123.892C47.2714 124.267 46.5754 122.956 46.5754 122.956C46.5754 122.956 46.6398 122.331 46.9297 122.331Z" fill="#FD5E5A"/>
<path d="M48.0599 124.642C48.0599 124.642 47.23 125.299 46.7528 125.299C46.2756 125.299 47.8311 123.876 47.8939 123.955C47.9567 124.033 48.257 124.345 48.0599 124.642Z" fill="#FC7575"/>
<path d="M44.6604 173.172H31.7368L32.1035 172.047H44.6604V173.172Z" fill="#0F1D5B"/>
<path d="M36.7025 164.044C36.7025 164.554 36.4282 164.967 36.0898 164.967C35.7514 164.967 35.4771 164.554 35.4771 164.044C35.4771 163.534 35.7514 163.12 36.0898 163.12C36.4282 163.12 36.7025 163.534 36.7025 164.044Z" fill="#241145"/>
<path d="M32.0328 131.928C32.3706 130.489 32.434 130.462 32.5508 130.347C31.908 129.394 31.2859 128.394 30.5809 127.457C30.4567 127.223 30.3441 126.954 30.217 126.715C29.2508 128.044 27.7175 130.95 27.3053 132.128C26.5993 133.757 27.0895 135.858 27.5439 136.832C27.7941 135.131 28.4189 133.538 29.4191 132.835C30.2466 132.211 31.1886 132.364 32.1025 132.29C32.0603 132.27 32.0209 132.25 31.9861 132.234C31.9861 132.234 32.0022 132.111 32.0328 131.928Z" fill="#432C47"/>
<path d="M39.114 120.459C38.2022 119.731 30.127 126.423 29.7506 126.941C29.8776 127.179 30.2804 127.598 30.4046 127.832C31.1096 128.769 31.908 129.394 32.5508 130.347C33.1462 129.765 35.8204 128.111 36.3709 128.111C36.9609 128.111 38.2616 128.455 38.8918 127.505C39.522 126.555 40.1069 124.294 40.1069 124.294C40.1069 124.294 40.0258 121.187 39.114 120.459Z" fill="#29C1C1"/>
<path d="M38.8918 127.505C38.9954 127.349 39.1033 127.134 39.2113 126.883L37.4391 124.237C37.4391 124.237 37.0435 124.678 37.0435 126.419C37.0435 127.083 37.0903 127.68 37.1482 128.165C37.7547 128.196 38.472 128.138 38.8918 127.505Z" fill="#1D9995"/>
<path d="M39.6161 123.145C39.3016 122.435 38.6016 121.864 38.1274 122.331C37.415 123.031 37.0608 124.287 37.3765 125.292C37.8592 126.828 40.3668 134.255 42.6832 133.831C44.9996 133.406 47.5669 129.02 47.5669 129.02C47.5669 129.02 48.1714 127.999 48.4228 127.999C48.6742 127.999 49.0926 127.247 49.143 126.883C49.1932 126.52 49.3116 125.498 49.201 125.179C49.0904 124.861 48.8681 124.844 48.8681 124.844L48.8111 125.403C48.8111 125.403 48.5427 126.122 48.3952 126.122C48.2477 126.122 48.5614 125.441 48.6603 125.292C48.7591 125.143 48.4943 124.911 48.2781 125.237C48.0619 125.562 47.663 127.322 47.177 127.853C46.6909 128.383 43.5021 131.599 42.8959 130.815C42.4208 130.199 40.6113 125.39 39.6161 123.145Z" fill="#FC7575"/>
<path d="M48.3854 124.989V126.05L48.7306 125.216L48.6581 124.908L48.3854 124.989Z" fill="#241145"/>
<path d="M40.0986 138.984C39.9159 136.821 33.521 132.993 31.9861 132.234C31.1282 131.838 29.8266 131.567 28.9212 131.774C28.2267 131.932 27.6835 132.49 27.3338 133.438C26.9664 134.433 27.0895 135.839 27.4972 136.76C28.0337 137.972 29.0041 138.296 29.8833 138.636C31.1013 139.107 32.3553 139.367 33.6042 139.566C35.15 139.812 36.935 139.959 37.9532 139.985C37.9532 139.985 37.5241 140.884 37.0146 142.703C36.505 144.522 36.4988 152.546 36.4883 152.585C36.4883 152.585 37.0286 152.675 37.3916 152.707C37.6122 150.435 40.2734 141.054 40.0986 138.984Z" fill="#4F3554"/>
<path d="M41.4609 141.912C41.4367 141.912 41.4174 141.884 41.4172 141.849C41.3916 137.131 38.4899 134.266 38.1394 133.937C38.1201 133.919 38.1141 133.883 38.1254 133.854L38.1268 133.85C38.1392 133.818 38.1677 133.807 38.1891 133.827C38.5649 134.181 41.4792 137.08 41.5053 141.848C41.5055 141.883 41.4854 141.912 41.4609 141.912Z" fill="#411AC0"/>
<path d="M42.6755 144.79C42.6529 144.78 42.6402 144.746 42.6467 144.713C43.5135 140.255 41.0408 136.611 40.7406 136.19C40.724 136.167 40.723 136.13 40.7378 136.104L40.7391 136.102C40.7556 136.074 40.7852 136.071 40.8036 136.097C41.1273 136.553 43.6074 140.236 42.7319 144.747C42.7251 144.781 42.6994 144.801 42.6755 144.79Z" fill="#411AC0"/>
<path d="M26.6589 130.726C26.6352 130.718 26.6201 130.684 26.6251 130.65C27.4037 125.309 30.557 122.999 30.9614 122.723C30.9845 122.708 31.0117 122.724 31.021 122.758L31.0222 122.762C31.0307 122.793 31.0214 122.828 31.0004 122.843C30.6219 123.1 27.4842 125.38 26.7114 130.677C26.7064 130.711 26.6828 130.733 26.6589 130.726Z" fill="#411AC0"/>
<path d="M21.3072 161.734C22.1545 161.734 22.8414 160.746 22.8414 159.526C22.8414 158.307 22.1545 157.319 21.3072 157.319C20.4599 157.319 19.7729 158.307 19.7729 159.526C19.7729 160.746 20.4599 161.734 21.3072 161.734Z" fill="#FFF6DC"/>
</g>
<defs>
<linearGradient id="paint0_linear_69_6015" x1="25.7022" y1="28.7172" x2="28.1163" y2="28.7172" gradientUnits="userSpaceOnUse">
<stop stop-color="#A9A5DE"/>
<stop offset="1" stop-color="#BDB9F2"/>
</linearGradient>
<linearGradient id="paint1_linear_69_6015" x1="151.221" y1="79.4614" x2="154.372" y2="79.4614" gradientUnits="userSpaceOnUse">
<stop stop-color="#A9A5DE"/>
<stop offset="1" stop-color="#BDB9F2"/>
</linearGradient>
<linearGradient id="paint2_linear_69_6015" x1="152.726" y1="70.1157" x2="155.877" y2="70.1157" gradientUnits="userSpaceOnUse">
<stop stop-color="#A9A5DE"/>
<stop offset="1" stop-color="#BDB9F2"/>
</linearGradient>
<linearGradient id="paint3_linear_69_6015" x1="31.451" y1="169.384" x2="43.7182" y2="165.291" gradientUnits="userSpaceOnUse">
<stop stop-color="#A9A5DE"/>
<stop offset="1" stop-color="#BDB9F2"/>
</linearGradient>
<clipPath id="clip0_69_6015">
<rect width="200" height="200" fill="white"/>
</clipPath>
</defs>
</svg>
