<svg width="200" height="200" viewBox="0 0 200 200" fill="none" xmlns="http://www.w3.org/2000/svg">
<path d="M100 173.2C140.427 173.2 173.2 140.427 173.2 100C173.2 59.5728 140.427 26.8 100 26.8C59.5727 26.8 26.8 59.5728 26.8 100C26.8 140.427 59.5727 173.2 100 173.2Z" fill="#000F83" fill-opacity="0.5"/>
<path d="M93.6606 33.8538H89.9162V143.565H93.6606V33.8538Z" fill="#000F83"/>
<path d="M92.7246 39.8433H53.0337V42.8388H92.7246V39.8433Z" fill="#000F83"/>
<path d="M92.7251 53.323H53.0341V56.3185H92.7251V53.323Z" fill="#000F83"/>
<path d="M92.9124 66.803H53.2214V69.7985H92.9124V66.803Z" fill="#000F83"/>
<path d="M92.9129 80.283H53.2219V83.2785H92.9129V80.283Z" fill="#000F83"/>
<path d="M92.7253 93.3875H53.0344V96.383H92.7253V93.3875Z" fill="#000F83"/>
<path d="M92.7258 106.867H53.0349V109.863H92.7258V106.867Z" fill="#000F83"/>
<path d="M92.5381 120.159H52.8471V123.154H92.5381V120.159Z" fill="#000F83"/>
<path d="M92.5385 133.639H52.8476V136.634H92.5385V133.639Z" fill="#000F83"/>
<path d="M55.0931 33.8521H51.3487V143.564H55.0931V33.8521Z" fill="#000F83"/>
<path d="M59.7714 39.531H57.2751V45.4596H59.7714V39.531Z" fill="#000F83"/>
<path d="M87.2358 39.4688H84.7395V45.3974H87.2358V39.4688Z" fill="#000F83"/>
<path d="M102.366 49.0481L102.444 48.6112C102.739 47.8261 102.107 46.8922 101.321 46.5985L97.1397 45.0314C96.5723 44.8193 95.9715 44.7107 95.3658 44.7107H48.7351C48.4826 44.7107 48.2321 44.7562 47.9957 44.8452L43.501 46.5361C42.7143 46.8299 40.599 48.2311 40.8955 49.0169L41.4884 50.1402L44.591 49.4585L48.4771 47.9913C48.6484 47.9267 48.8298 47.8936 49.0129 47.8936H95.6188C95.8018 47.8936 95.9834 47.9267 96.1546 47.9913L100.245 49.5005C101.029 49.7968 102.072 49.8334 102.366 49.0481Z" fill="#000F83"/>
<path d="M101.291 46.6052L100.187 49.5625L103.346 50.7422L104.45 47.7849L101.291 46.6052Z" fill="#84524D"/>
<path d="M40.1804 47.7798L41.2846 50.7371L44.679 49.4696L43.5747 46.5123L40.1804 47.7798Z" fill="#84524D"/>
<path d="M41.1727 143.531C54.5103 161.545 75.8939 173.164 100 173.164C124.106 173.164 145.49 161.545 158.827 143.531H41.1727Z" fill="#000F83"/>
<path d="M119.813 146.988C132.847 146.988 143.412 136.422 143.412 123.389C143.412 110.355 132.847 99.7898 119.813 99.7898C106.78 99.7898 96.2144 110.355 96.2144 123.389C96.2144 136.422 106.78 146.988 119.813 146.988Z" fill="#EFBC73"/>
<path d="M136.821 154.407H113.818C113.818 154.407 117.01 144.236 129.853 143.792H136.289L136.821 154.407Z" fill="#8B865C"/>
<path d="M152.172 154.407H166.663C166.663 154.407 166.005 147.963 159.437 142.655H155.012C155.012 142.655 151.823 150.666 152.172 154.407Z" fill="#8B865C"/>
<path d="M160.202 134.414L160.617 143.995L154.44 144.184L152.605 133.725L160.202 134.414Z" fill="#E2A18D"/>
<path d="M138.71 134.883C138.652 135.184 136.289 143.792 136.289 143.792H129.853L130.442 133.725L138.71 134.883Z" fill="#E2A18D"/>
<path d="M158.795 95.9024C158.795 95.9024 161.331 120.351 161.629 136.166H151.691L146.369 104.19H145.035C145.035 104.19 143.199 121.135 139.156 136.206H129.447L133.076 93.9048L158.795 95.9024Z" fill="#84524D"/>
<path d="M128.694 53.903C131.244 52.9559 132.543 50.1211 131.596 47.5714C130.649 45.0217 127.814 43.7226 125.264 44.6697C122.715 45.6167 121.416 48.4515 122.363 51.0012C123.31 53.5509 126.144 54.8501 128.694 53.903Z" fill="#D87355"/>
<path d="M125.097 44.7059C125.103 44.7067 124.897 44.7494 126.407 44.9122C128.054 45.0898 128.144 47.2561 127.92 48.4511C127.493 50.7259 124.894 52.2563 124.823 53.6153C124.606 57.7798 125.049 62.2571 125.049 62.2571C125.074 63.069 125.197 64.3482 125.098 65.5782C125.049 66.1939 128.396 64.8394 128.567 65.2338C130.148 68.8756 129.863 76.0312 126.796 76.5503C125.482 76.7727 118.199 77.6344 116.07 75.3202C115.36 74.5489 115.591 73.1112 115.332 71.7777C114.855 67.7826 118.704 51.231 120.106 48.8832C120.648 47.9766 120.897 46.1481 121.166 45.0445C122.333 44.145 123.217 44.3692 125.097 44.7059Z" fill="#E2A18D"/>
<path d="M127.054 50.0387C127.224 50.7846 128.072 50.7615 128.251 50.0319C128.475 48.1471 128.572 46.3383 127.319 45.3452L126.237 45.7396C126.773 47.1962 127.075 48.6319 127.054 50.0387Z" fill="#E2A18D"/>
<path d="M127.642 50.7652C127.64 50.7652 127.638 50.7652 127.636 50.7652C127.272 50.7622 126.977 50.4925 126.882 50.0779C126.879 50.0641 126.877 50.0501 126.878 50.036C126.879 49.9205 126.882 49.8013 126.884 49.6795C126.903 48.7384 126.924 47.6716 126.682 46.7853C126.656 46.6911 126.712 46.594 126.806 46.5683C126.9 46.5441 126.997 46.598 127.023 46.6921C127.278 47.6277 127.256 48.7214 127.237 49.6865C127.235 49.7998 127.233 49.9109 127.231 50.0189C127.292 50.2603 127.447 50.4103 127.639 50.4119C127.64 50.4119 127.641 50.4119 127.642 50.4119C127.842 50.4119 128.012 50.2509 128.077 49.9997L128.085 49.9268C128.267 48.404 128.492 46.5086 127.209 45.483C126.816 45.1493 126.277 44.9961 125.569 45.0072C125.474 45.0093 125.391 44.9311 125.39 44.8337C125.388 44.7361 125.466 44.6557 125.563 44.654C126.365 44.6385 126.976 44.8221 127.433 45.2104C128.866 46.3553 128.618 48.4438 128.436 49.9685L128.426 50.0527C128.425 50.0597 128.424 50.0669 128.422 50.0739C128.321 50.4881 128.007 50.7652 127.642 50.7652Z" fill="#363E44"/>
<path d="M126.249 51.4036C126.247 51.4036 126.245 51.4036 126.243 51.4034C125.879 51.4005 125.584 51.1308 125.489 50.7164C125.486 50.7026 125.484 50.6886 125.485 50.6745C125.496 49.8981 125.443 48.7295 125.127 47.5713C125.102 47.4771 125.157 47.38 125.251 47.3543C125.346 47.3297 125.442 47.384 125.468 47.4782C125.792 48.6652 125.848 49.8582 125.838 50.6574C125.899 50.8989 126.054 51.0489 126.246 51.0505C126.247 51.0505 126.248 51.0505 126.249 51.0505C126.449 51.0505 126.619 50.8892 126.684 50.6382C126.7 50.5074 126.736 50.313 126.773 50.1075C126.82 49.8555 126.867 49.5951 126.882 49.4382C126.891 49.3411 126.979 49.267 127.074 49.279C127.172 49.2882 127.243 49.3742 127.234 49.4714C127.217 49.6437 127.168 49.9118 127.121 50.1712C127.083 50.3773 127.047 50.5718 127.033 50.6914C127.032 50.6984 127.031 50.7055 127.03 50.7126C126.928 51.1265 126.614 51.4036 126.249 51.4036Z" fill="#363E44"/>
<path d="M121.659 52.7015C124.379 52.7015 126.584 50.4965 126.584 47.7765C126.584 45.0565 124.379 42.8516 121.659 42.8516C118.939 42.8516 116.734 45.0565 116.734 47.7765C116.734 50.4965 118.939 52.7015 121.659 52.7015Z" fill="#D87355"/>
<path d="M121.741 47.0209C121.783 46.1202 121.086 45.3564 120.185 45.315C119.285 45.2737 118.521 45.9703 118.48 46.871C118.438 47.7718 119.135 48.5355 120.036 48.5769C120.936 48.6183 121.7 47.9217 121.741 47.0209Z" fill="#363E44"/>
<path d="M121.31 52.4903C121.231 52.4903 121.151 52.4884 121.071 52.4848C119.709 52.4222 118.454 51.8332 117.536 50.8264C116.617 49.8196 116.146 48.5154 116.209 47.1542C116.271 45.793 116.86 44.5377 117.867 43.6193C118.874 42.7012 120.177 42.2279 121.539 42.2925C122.9 42.355 124.156 42.9438 125.074 43.9506C125.992 44.9574 126.464 46.2616 126.401 47.6228C126.338 48.984 125.75 50.2393 124.743 51.1576C123.795 52.0219 122.584 52.4901 121.31 52.4903ZM121.3 42.6401C120.114 42.6401 118.987 43.076 118.105 43.8805C117.168 44.735 116.62 45.9036 116.562 47.1705C116.503 48.4375 116.942 49.6512 117.797 50.5884C118.651 51.5256 119.82 52.0737 121.087 52.132C122.352 52.1896 123.568 51.7513 124.505 50.8966C125.442 50.0419 125.99 48.8735 126.048 47.6066C126.107 46.3396 125.668 45.1258 124.813 44.1886C123.958 43.2517 122.79 42.7034 121.523 42.6453C121.448 42.6418 121.374 42.6401 121.3 42.6401Z" fill="#363E44"/>
<path d="M121.449 49.0229C121.337 49.0229 121.222 49.007 121.109 48.9739L119.164 48.2987L119.089 48.2829L119.039 48.1929C118.997 48.1054 118.911 47.9238 120.231 45.3741L120.312 45.2173L122.176 46.1823C122.613 46.4088 122.87 46.8837 122.817 47.3644C122.778 47.7188 122.65 48.1087 122.465 48.4343C122.254 48.8063 121.864 49.0229 121.449 49.0229ZM119.39 48.0032L121.217 48.6377C121.58 48.7439 121.97 48.5898 122.158 48.2598C122.32 47.9746 122.432 47.6342 122.466 47.3258C122.504 46.9891 122.321 46.6556 122.013 46.4959L120.464 45.6934C119.976 46.644 119.491 47.6664 119.39 48.0032Z" fill="#363E44"/>
<path d="M124.926 67.1323C124.914 67.1323 124.902 67.1311 124.89 67.1285C124.794 67.1085 124.733 67.0149 124.753 66.9195C124.981 65.8359 124.721 59.0288 124.406 56.2991C124.395 56.2022 124.465 56.1145 124.562 56.1035C124.66 56.0921 124.746 56.162 124.757 56.2587C125.054 58.8304 125.353 65.7828 125.099 66.9921C125.082 67.0753 125.008 67.1323 124.926 67.1323Z" fill="#363E44"/>
<path d="M154.998 62.5268C154.998 62.5268 143.837 60.2894 134.899 62.5855L130.561 100.872L160.963 100.574L154.998 62.5268Z" fill="#8B865C"/>
<path d="M134.899 62.5854L125.812 64.9387L124.336 77.3375L135.258 75.8615L134.899 62.5854Z" fill="#8B865C"/>
<path d="M169.15 83.591C169.151 83.5911 169.151 83.5914 169.15 83.5915C164.275 89.1066 162.6 90.945 161.516 92.1412C161.402 92.2665 159.725 94.1906 159.397 94.3982C158.183 95.1672 156.953 94.9712 155.308 95.1974C153.441 95.4541 152.535 96.6556 152.178 96.3332C151.929 96.109 152.143 95.5595 152.953 94.6891C152.953 94.689 152.953 94.6889 152.953 94.6889C152.262 95.2795 151.29 96.0397 150.964 95.6569C150.612 95.1948 151.65 94.1678 152.307 93.577C151.511 94.292 150.874 94.434 150.746 94.1754C150.544 93.7684 151.032 93.0702 152.121 92.1661C151.195 92.5803 150.908 92.5427 150.851 92.2865C150.746 91.8186 151.655 91.0922 152.557 90.5732C153.573 89.989 154.563 89.8882 155.189 89.8394C155.189 89.8394 155.189 89.8394 155.189 89.8394C158.204 85.6225 161.542 80.8906 164.477 77.8431C165.071 77.226 167.409 81.4728 169.15 83.591Z" fill="#E2A18D"/>
<path d="M153.005 94.8792C152.951 94.8792 152.897 94.854 152.862 94.8064C152.805 94.7276 152.822 94.6171 152.901 94.5598C153.181 94.3563 153.486 94.1912 153.808 94.0695C154.029 93.9858 154.26 93.922 154.495 93.8801C154.592 93.8634 154.683 93.927 154.7 94.0229C154.717 94.1188 154.653 94.2106 154.557 94.2278C154.344 94.2659 154.134 94.3239 153.933 94.3999C153.641 94.5104 153.363 94.6603 153.109 94.8453C153.078 94.8682 153.041 94.8792 153.005 94.8792Z" fill="#363E44"/>
<path d="M152.26 93.8637C152.206 93.8637 152.152 93.8385 152.117 93.7909C152.06 93.7121 152.077 93.6015 152.156 93.5442C152.436 93.3406 152.741 93.1757 153.063 93.0539C153.285 92.9699 153.516 92.9062 153.75 92.8646C153.848 92.8475 153.938 92.9114 153.955 93.0074C153.972 93.1034 153.908 93.1952 153.812 93.2122C153.6 93.25 153.389 93.3079 153.188 93.3843C152.896 93.4949 152.619 93.6447 152.364 93.8298C152.332 93.8526 152.296 93.8637 152.26 93.8637Z" fill="#363E44"/>
<path d="M152.148 92.3352C152.094 92.3352 152.04 92.31 152.005 92.2624C151.948 92.1836 151.965 92.0731 152.044 92.0158C152.324 91.8123 152.629 91.6474 152.951 91.5256C153.173 91.4418 153.404 91.378 153.638 91.3361C153.734 91.3196 153.826 91.383 153.843 91.4789C153.86 91.5748 153.796 91.6665 153.7 91.6838C153.488 91.7219 153.278 91.7799 153.076 91.8561C152.784 91.9667 152.506 92.1165 152.252 92.3014C152.221 92.3242 152.184 92.3352 152.148 92.3352Z" fill="#363E44"/>
<path d="M162.385 78.7806L168.093 84.6847C169.905 82.9052 171.292 81.1538 172.688 78.8809C172.881 78.5665 172.884 78.1678 172.686 77.8567C171.093 75.3602 168.771 72.537 164.976 69.4158L162.385 78.7806Z" fill="#E2A18D"/>
<path d="M154.998 62.5266C157.595 62.5303 166.551 69.4159 169.208 72.5648L161.877 80.0927C159.434 78.0683 157.399 77.6654 154.25 76.1565L154.998 62.5266Z" fill="#8B865C"/>
<path d="M142.882 62.8662C144.01 64.5747 146.502 64.8667 147.359 62.2946L147.824 54.849L143.128 54.4443L142.882 62.8662Z" fill="#E2A18D"/>
<path d="M145.291 50.5808C145.093 50.5376 143.185 50.1528 141.87 51.3328C140.891 52.2109 140.639 53.4565 140.532 55.6096C140.406 58.1451 140.685 59.6783 141.351 60.2603C142.402 61.1797 146.037 59.8297 147.586 57.7856C148.703 56.31 148.838 54.2557 148.04 52.5714C147.243 50.8917 145.418 50.6084 145.291 50.5808Z" fill="#E2A18D"/>
<path d="M142.839 60.7764C142.752 60.7764 142.676 60.7117 142.664 60.6227C142.651 60.526 142.72 60.4373 142.816 60.4247C144.24 60.2385 146.361 59.1897 147.446 57.7571C147.504 57.6793 147.615 57.6638 147.693 57.7229C147.771 57.7817 147.786 57.8925 147.727 57.9702C146.543 59.5334 144.337 60.5819 142.862 60.7748C142.854 60.7758 142.847 60.7764 142.839 60.7764Z" fill="#363E44"/>
<path d="M144.618 54.9928C144.618 54.9928 144.301 55.7037 143.647 56.2069C143.51 56.3126 142.919 55.0002 143.099 54.9613C143.89 54.7912 144.618 54.9928 144.618 54.9928Z" fill="white"/>
<path d="M141.128 56.6381C141.128 56.6381 141.592 55.5972 142.556 55.1429C142.735 55.0585 142.918 55.0005 143.098 54.9617C143.474 55.2435 143.696 55.7073 143.65 56.2046C143.512 56.3111 143.359 56.4087 143.19 56.4881C142.227 56.9424 141.128 56.6381 141.128 56.6381Z" fill="#363E44"/>
<path d="M142.494 49.5541C143.401 48.9127 144.686 48.7421 145.915 48.9464L144.476 49.3469L146.764 49.1505C147.726 49.4569 148.583 49.9985 149.096 50.7258C150.453 52.6507 150.287 54.4104 148.004 58.2772C147.899 57.0384 147.943 55.2097 147.13 54.7951C146.656 54.5537 146.149 54.2318 145.865 54.217C145.821 54.2148 145.79 54.1763 145.801 54.1341C146.119 52.8235 146.789 51.0243 144.831 50.8165C142.741 50.5949 141.438 52.8671 141.309 52.9747C141.301 52.7214 140.882 50.6951 142.494 49.5541Z" fill="white"/>
<path d="M148.017 56.1292C148.486 55.3815 148.354 54.4541 147.722 54.0577C147.09 53.6613 146.198 53.946 145.729 54.6936C145.26 55.4413 145.392 56.3687 146.024 56.7651C146.656 57.1615 147.548 56.8768 148.017 56.1292Z" fill="#E2A18D"/>
<path d="M147.362 56.0878C147.32 56.0878 147.278 56.073 147.245 56.0428C147.172 55.9776 147.166 55.866 147.231 55.7934C147.261 55.76 147.288 55.7241 147.311 55.6865C147.498 55.3893 147.455 55.0263 147.217 54.8768C147.162 54.8425 147.101 54.8216 147.034 54.815C146.937 54.8055 146.866 54.7191 146.875 54.6221C146.885 54.5252 146.969 54.4536 147.068 54.4636C147.19 54.4755 147.304 54.5139 147.405 54.5777C147.808 54.8307 147.9 55.4123 147.61 55.8737C147.577 55.9281 147.537 55.9805 147.494 56.0289C147.459 56.0681 147.411 56.0878 147.362 56.0878Z" fill="#363E44"/>
<path d="M145.92 53.8494C145.719 53.8206 145.744 56.1487 144.969 56.9893C143.867 58.1849 142.12 58.099 140.551 57.8929C140.164 58.5981 138.593 61.5668 139.56 62.5765C140.557 63.6178 144.173 62.4895 145.696 60.0258C147.041 57.85 146.242 53.8952 145.92 53.8494Z" fill="white"/>
<path d="M141.847 59.1261C141.703 59.1261 141.557 59.0822 141.431 58.9941C141.352 58.9381 141.332 58.8279 141.388 58.7481C141.444 58.6685 141.554 58.6489 141.634 58.7051C141.764 58.7962 141.934 58.7963 142.047 58.7053C142.187 58.5934 142.162 58.3904 142.162 58.3883C142.149 58.2924 142.216 58.2031 142.311 58.1894C142.407 58.1753 142.496 58.2405 142.511 58.336C142.513 58.3524 142.569 58.739 142.268 58.9808C142.147 59.0776 141.998 59.1261 141.847 59.1261Z" fill="#363E44"/>
<path d="M140.699 55.8347C140.066 56.4795 139.542 56.8604 139.689 57.2712C139.881 57.8079 140.723 57.8882 140.775 57.8844L140.699 55.8347Z" fill="#E2A18D"/>
<path d="M141.284 51.8296C141.276 51.8296 141.269 51.829 141.261 51.828C141.164 51.8152 141.096 51.7264 141.109 51.6297C141.245 50.607 141.751 49.7463 142.534 49.2063C143.406 48.6053 144.565 48.4344 145.797 48.7248C145.892 48.7472 145.951 48.8424 145.929 48.9373C145.906 49.0321 145.81 49.0897 145.716 49.0687C144.582 48.801 143.524 48.9535 142.735 49.4971C142.035 49.9798 141.582 50.7537 141.459 51.6763C141.447 51.7651 141.371 51.8296 141.284 51.8296Z" fill="#363E44"/>
<path d="M149.182 56.2264C149.157 56.2264 149.132 56.2212 149.109 56.2105C149.02 56.17 148.981 56.0652 149.021 55.9765C149.946 53.9498 150.09 52.5468 149.462 51.6873C149.404 51.6085 149.421 51.498 149.5 51.4405C149.579 51.3826 149.689 51.4 149.746 51.4786C150.458 52.4506 150.325 53.9698 149.343 56.1231C149.313 56.188 149.249 56.2264 149.182 56.2264Z" fill="#D3BBA3"/>
<path d="M130.678 172.824C135.695 172.824 139.762 168.751 139.762 163.727C139.762 158.702 135.695 154.629 130.678 154.629C125.661 154.629 121.594 158.702 121.594 163.727C121.594 168.751 125.661 172.824 130.678 172.824Z" fill="#D87355"/>
<path d="M131.563 168.289H47.7983V172.906H131.563V168.289Z" fill="#D87355"/>
<path d="M47.9129 173.156C47.8154 173.156 47.7364 173.077 47.7364 172.979C47.7364 172.882 47.8154 172.803 47.9129 172.803H130.885C136 172.515 139.935 168.108 139.647 162.978C139.522 160.747 138.536 158.698 136.871 157.208C135.206 155.719 133.063 154.969 130.832 155.093C126.7 155.325 123.527 158.879 123.759 163.015C123.859 164.814 124.654 166.466 125.996 167.666C127.338 168.866 129.067 169.474 130.863 169.371C134.192 169.184 136.748 166.321 136.561 162.989C136.48 161.541 135.841 160.212 134.76 159.245C133.68 158.279 132.29 157.792 130.842 157.873C128.164 158.023 126.108 160.326 126.258 163.007C126.323 164.17 126.838 165.239 127.706 166.016C128.574 166.793 129.691 167.185 130.855 167.119C133.006 166.998 134.657 165.149 134.537 162.996C134.484 162.063 134.072 161.205 133.375 160.582C132.678 159.959 131.782 159.646 130.848 159.697C129.125 159.794 127.801 161.276 127.898 163.001C127.94 163.748 128.27 164.435 128.828 164.934C129.385 165.432 130.102 165.684 130.85 165.642C132.228 165.565 133.285 164.38 133.208 163.001C133.175 162.404 132.911 161.857 132.466 161.459C132.021 161.061 131.449 160.861 130.852 160.893C129.755 160.955 128.912 161.899 128.974 162.997C129.001 163.471 129.21 163.907 129.564 164.223C129.917 164.54 130.372 164.699 130.847 164.673C131.717 164.624 132.386 163.875 132.337 163.004C132.316 162.629 132.15 162.284 131.87 162.034C131.59 161.783 131.229 161.658 130.855 161.678C130.168 161.717 129.641 162.307 129.68 162.995C129.696 163.29 129.827 163.56 130.047 163.757C130.267 163.954 130.55 164.053 130.845 164.037C131.382 164.007 131.795 163.544 131.765 163.006C131.738 162.532 131.337 162.169 130.857 162.193C130.44 162.217 130.12 162.576 130.143 162.993C130.148 163.091 130.074 163.174 129.977 163.179C129.879 163.187 129.796 163.11 129.79 163.013C129.756 162.401 130.226 161.875 130.837 161.841C131.507 161.802 132.08 162.317 132.118 162.986C132.159 163.719 131.596 164.348 130.864 164.389C130.478 164.413 130.102 164.28 129.811 164.021C129.521 163.761 129.349 163.404 129.327 163.014C129.278 162.133 129.954 161.375 130.835 161.326C131.306 161.301 131.755 161.457 132.106 161.771C132.456 162.084 132.663 162.515 132.689 162.984C132.749 164.05 131.931 164.965 130.867 165.025C130.302 165.058 129.753 164.866 129.328 164.487C128.904 164.107 128.653 163.585 128.621 163.017C128.549 161.724 129.541 160.613 130.833 160.541C131.523 160.499 132.187 160.735 132.702 161.195C133.217 161.656 133.522 162.29 133.561 162.981C133.649 164.555 132.442 165.906 130.87 165.995C130.03 166.042 129.22 165.759 128.592 165.197C127.964 164.635 127.593 163.862 127.546 163.021C127.438 161.101 128.911 159.452 130.829 159.344C131.853 159.287 132.844 159.632 133.611 160.319C134.378 161.005 134.832 161.949 134.889 162.977C135.021 165.324 133.22 167.34 130.875 167.472C129.62 167.545 128.409 167.119 127.47 166.279C126.532 165.44 125.976 164.284 125.906 163.026C125.744 160.152 127.95 157.681 130.822 157.52C132.36 157.434 133.845 157.953 134.996 158.982C136.146 160.011 136.828 161.427 136.914 162.97C137.112 166.496 134.406 169.526 130.883 169.723C128.992 169.831 127.173 169.192 125.761 167.929C124.348 166.666 123.512 164.928 123.406 163.035C123.163 158.704 126.486 154.983 130.813 154.74C133.133 154.607 135.371 155.393 137.107 156.945C138.842 158.497 139.869 160.633 140 162.959C140.298 168.282 136.214 172.857 130.895 173.155L47.9129 173.156Z" fill="#000F83"/>
<path d="M65.1763 96.4717C56.6679 96.4846 51.5935 118.968 54.9192 120.88C56.8485 121.989 59.7384 121.937 64.6046 115.607C65.748 110.363 68.0419 99.0637 65.1763 96.4717Z" fill="#84524D"/>
<path d="M54.1094 114.924C50.7105 117.066 42.9494 122.245 42.1617 122.73C40.6893 123.639 33.205 128.046 34.048 129.516C34.3685 130.075 35.3965 129.768 35.8707 129.261C35.5853 129.726 34.7529 130.809 35.2652 131.318C35.9295 131.979 37.1861 130.81 37.2321 130.801C36.8944 131.244 35.9221 132.297 36.4457 132.885C37.0532 133.568 38.069 132.718 38.5896 132.335C38.5873 132.446 37.0337 133.45 37.492 134.161C37.8367 134.695 39.5369 133.823 40.2497 133.46C41.5585 132.654 46.9025 129.967 49.4313 128.529C55.7541 124.934 57.0338 124.145 60.8951 121.413C61.9669 120.654 56.2548 115.192 54.1094 114.924Z" fill="#84524D"/>
<path d="M48.3224 136.424L43.536 133.972L42.4522 134.674L35.3097 123.62L36.3936 122.918L36.1222 117.543L31.3358 115.091L26.8208 118.014L27.0922 123.389L31.8786 125.841L32.9624 125.139L40.1049 136.193L39.021 136.895L39.2924 142.27L44.0788 144.722L48.5938 141.799L48.3224 136.424Z" fill="#D87355"/>
<path d="M35.1088 127.637C34.1243 128.206 33.5503 129.056 33.8267 129.535C34.1031 130.014 35.1252 129.942 36.1098 129.373C37.0943 128.804 37.6683 127.954 37.3919 127.475C37.1155 126.996 36.0933 127.069 35.1088 127.637Z" fill="#84524D"/>
<path d="M37.244 131.145C38.2284 130.576 38.7836 129.694 38.4842 129.177C38.1847 128.659 37.1439 128.7 36.1596 129.27C35.1752 129.839 34.62 130.72 34.9194 131.238C35.2189 131.756 36.2596 131.714 37.244 131.145Z" fill="#84524D"/>
<path d="M38.3995 132.744C39.3273 132.207 39.8555 131.385 39.5793 130.908C39.3032 130.43 38.3273 130.478 37.3995 131.014C36.4718 131.551 35.9436 132.373 36.2197 132.85C36.4959 133.328 37.4718 133.28 38.3995 132.744Z" fill="#84524D"/>
<path d="M38.3781 132.708C37.6799 133.111 37.2929 133.748 37.5136 134.131C37.7343 134.514 38.4793 134.497 39.1775 134.093C39.8756 133.69 40.2627 133.052 40.0419 132.67C39.8212 132.287 39.0763 132.304 38.3781 132.708Z" fill="#84524D"/>
<path d="M38.7097 126.092C38.5215 126.152 37.0457 126.644 36.5911 128.061C36.2438 129.144 36.537 130.627 37.2319 130.801C37.8041 130.944 38.6675 130.206 39.1974 128.97C39.3699 129.215 39.8339 129.805 40.6771 130.148C41.5403 130.5 42.3013 130.391 42.5939 130.334L38.7097 126.092Z" fill="#84524D"/>
<path d="M37.3776 130.995C37.3131 130.995 37.2502 130.987 37.189 130.972C36.9482 130.912 36.737 130.729 36.5779 130.443C36.2339 129.824 36.1687 128.8 36.4229 128.007C36.8913 126.547 38.3658 126.016 38.6566 125.924C38.7495 125.895 38.8489 125.946 38.8781 126.039C38.9074 126.132 38.8558 126.231 38.7628 126.261C38.5011 126.343 37.1746 126.82 36.7592 128.115C36.5358 128.812 36.5906 129.739 36.8866 130.271C36.9636 130.409 37.0934 130.584 37.275 130.63C37.7177 130.74 38.5161 130.111 39.035 128.901C39.0602 128.842 39.1154 128.801 39.179 128.795C39.2419 128.787 39.3048 128.816 39.3417 128.869C39.5428 129.154 39.9924 129.679 40.7438 129.985C41.5099 130.297 42.2103 130.229 42.5599 130.16C42.655 130.142 42.7484 130.204 42.7672 130.3C42.786 130.395 42.7235 130.488 42.6278 130.507C42.2398 130.583 41.4616 130.659 40.6104 130.312C39.9701 130.051 39.5262 129.655 39.2354 129.309C38.7326 130.323 37.9894 130.995 37.3776 130.995Z" fill="#363E44"/>
<path d="M45.401 120.093L43.4914 121.321L48.7925 129.562L50.7021 128.333L45.401 120.093Z" fill="#363E44"/>
<path d="M48.2328 126.588C47.8563 126.83 47.3547 126.721 47.1128 126.344L45.7226 124.179C45.481 123.803 45.5899 123.302 45.9659 123.06C46.3424 122.818 46.844 122.927 47.0859 123.304L48.4762 125.469C48.7178 125.845 48.6088 126.346 48.2328 126.588Z" fill="#8B865C"/>
<path d="M116.894 123.862L113.368 127.925L113.789 129.147L101.355 133.437L100.934 132.216L95.6557 131.191L92.1297 135.254L93.8821 140.342L99.1608 141.367L102.687 137.304L102.266 136.082L114.7 131.792L115.121 133.013L120.399 134.038L123.925 129.975L122.173 124.887L116.894 123.862Z" fill="#D87355"/>
<path d="M84.1805 96.4846C93.1225 99.8085 105.806 116.747 101.732 120.88C98.3619 124.298 85.0392 110.594 81.3639 107.113C81.3639 104.268 81.8614 99.0251 84.1805 96.4846Z" fill="#84524D"/>
<path d="M92.9952 117.641C95.0912 121.07 100.165 128.904 100.64 129.699C101.528 131.184 105.835 138.732 107.314 137.907C107.876 137.594 107.583 136.561 107.083 136.08C107.544 136.371 108.615 137.218 109.13 136.712C109.798 136.056 108.647 134.783 108.639 134.737C109.077 135.081 110.116 136.067 110.711 135.551C111.4 134.952 110.564 133.924 110.189 133.398C110.3 133.402 111.282 134.97 111.999 134.52C112.537 134.182 111.688 132.469 111.334 131.751C110.546 130.431 107.93 125.048 106.526 122.498C103.017 116.124 102.244 114.833 99.5648 110.933C98.8211 109.85 93.2906 115.497 92.9952 117.641Z" fill="#84524D"/>
<path d="M107.038 136.308C106.999 136.308 106.96 136.295 106.927 136.268C106.64 136.035 106.367 135.779 106.115 135.509C105.662 135.023 105.268 134.48 104.945 133.894C104.898 133.808 104.929 133.701 105.015 133.654C105.1 133.607 105.208 133.638 105.255 133.723C105.564 134.284 105.94 134.803 106.373 135.268C106.614 135.527 106.876 135.771 107.15 135.994C107.226 136.055 107.237 136.167 107.176 136.242C107.141 136.285 107.09 136.308 107.038 136.308Z" fill="#363E44"/>
<path d="M108.618 134.966C108.573 134.966 108.527 134.949 108.493 134.914C108.438 134.859 108.383 134.801 108.329 134.743C107.876 134.257 107.483 133.714 107.159 133.128C107.112 133.042 107.143 132.935 107.229 132.888C107.314 132.841 107.421 132.872 107.469 132.957C107.778 133.518 108.154 134.037 108.587 134.502C108.639 134.558 108.692 134.613 108.744 134.665C108.813 134.735 108.812 134.847 108.743 134.915C108.708 134.949 108.663 134.966 108.618 134.966Z" fill="#363E44"/>
<path d="M110.151 133.548C110.099 133.548 110.047 133.525 110.012 133.481C109.745 133.139 109.502 132.772 109.291 132.39C109.244 132.304 109.275 132.197 109.36 132.15C109.446 132.103 109.553 132.134 109.6 132.219C109.802 132.585 110.034 132.936 110.29 133.263C110.35 133.339 110.337 133.451 110.26 133.511C110.228 133.536 110.19 133.548 110.151 133.548Z" fill="#363E44"/>
<path d="M84.1805 96.4846L65.1762 96.4717L60.5095 109.628L59.1833 129.071H85.885L86.8606 112.292L84.1805 96.4846Z" fill="#354094"/>
<path d="M62.2454 116.112C64.7061 116.112 66.701 114.115 66.701 111.652C66.701 109.189 64.7061 107.192 62.2454 107.192C59.7846 107.192 57.7898 109.189 57.7898 111.652C57.7898 114.115 59.7846 116.112 62.2454 116.112Z" fill="#354094"/>
<path d="M77.729 116.288C77.1039 116.288 76.4972 116.166 75.9259 115.924C75.8361 115.886 75.7941 115.782 75.8321 115.692C75.8701 115.603 75.9739 115.561 76.0635 115.599C76.591 115.822 77.1514 115.935 77.729 115.935C80.0885 115.935 82.008 114.014 82.008 111.652C82.008 111.554 82.087 111.475 82.1846 111.475C82.2822 111.475 82.3612 111.554 82.3612 111.652C82.3612 114.208 80.2832 116.288 77.729 116.288Z" fill="#363E44"/>
<path d="M73.4459 107.347C69.9263 107.347 67.2222 104.228 67.7187 100.74L68.3264 96.4717H79.231V101.557C79.2309 104.755 76.6409 107.347 73.4459 107.347Z" fill="#84524D"/>
<path d="M104.1 149.723L106.065 159.724L84.9978 165.204L82.2763 151.35L104.1 149.723Z" fill="#84524D"/>
<path d="M111.677 147.611L115.698 169.626H113.771C110.803 169.181 110.038 167.631 108.161 165.286L105.142 159.964L103.15 149.823L111.677 147.611Z" fill="#EFBC73"/>
<path d="M114.401 169.802C114.317 169.802 114.243 169.743 114.227 169.657L110.256 147.967C110.238 147.871 110.302 147.779 110.398 147.761C110.494 147.743 110.586 147.808 110.603 147.903L114.574 169.594C114.592 169.69 114.529 169.782 114.432 169.799C114.422 169.802 114.411 169.802 114.401 169.802Z" fill="#363E44"/>
<path d="M105.142 160.141C105.078 160.141 105.017 160.106 104.985 160.046C104.94 159.96 104.974 159.853 105.06 159.808L107.636 158.462C107.722 158.416 107.829 158.45 107.874 158.537C107.919 158.623 107.886 158.73 107.8 158.775L105.224 160.121C105.198 160.134 105.17 160.141 105.142 160.141Z" fill="#363E44"/>
<path d="M105.916 161.691C105.853 161.691 105.791 161.656 105.76 161.596C105.714 161.509 105.748 161.403 105.834 161.357L108.41 160.012C108.496 159.967 108.603 160 108.649 160.087C108.694 160.173 108.66 160.28 108.574 160.325L105.998 161.671C105.972 161.684 105.944 161.691 105.916 161.691Z" fill="#363E44"/>
<path d="M106.69 163.085C106.627 163.085 106.565 163.051 106.534 162.99C106.489 162.904 106.522 162.797 106.609 162.752L109.184 161.406C109.27 161.361 109.378 161.395 109.423 161.481C109.468 161.568 109.434 161.674 109.348 161.72L106.772 163.065C106.746 163.079 106.718 163.085 106.69 163.085Z" fill="#363E44"/>
<path d="M82.7564 141L84.9978 165.204L82.2921 165.737C76.0456 166.966 70.0216 163.075 68.8372 157.045L59.9117 129.906L67.7398 130.157C75.1385 128.701 82.1253 133.746 82.7564 141Z" fill="#8B865C"/>
<path d="M88.2134 150.908L82.2763 151.35L84.9978 165.204L90.729 163.714L88.2134 150.908Z" fill="#8B865C"/>
<path d="M79.9732 155.705C79.9323 155.705 79.8913 155.691 79.8579 155.662C79.7841 155.598 79.7759 155.487 79.8395 155.413L83.6734 150.97C83.7372 150.896 83.8486 150.888 83.9225 150.951C83.9963 151.015 84.0045 151.127 83.9409 151.2L80.107 155.644C80.0721 155.684 80.0228 155.705 79.9732 155.705Z" fill="#363E44"/>
<path d="M57.8827 165.117H47.6994L46.3918 143.369H60.4979L57.8827 165.117Z" fill="#84524D"/>
<path d="M58.491 172.966H36.1054C37.1145 170.136 39.1528 167.792 41.8133 166.401L47.6422 164.164H57.9679L58.491 172.966Z" fill="#EFBC73"/>
<path d="M58.421 171.967H36.5978C36.5002 171.967 36.4212 171.888 36.4212 171.79C36.4212 171.692 36.5002 171.613 36.5978 171.613H58.4211C58.5186 171.613 58.5978 171.692 58.5978 171.79C58.5977 171.888 58.5186 171.967 58.421 171.967Z" fill="#363E44"/>
<path d="M49.2695 166.14C49.2213 166.14 49.1733 166.121 49.1385 166.082L47.5112 164.282C47.4457 164.21 47.4514 164.098 47.5237 164.033C47.596 163.967 47.7077 163.973 47.7731 164.045L49.4004 165.845C49.4658 165.918 49.4601 166.029 49.3878 166.095C49.3541 166.125 49.3117 166.14 49.2695 166.14Z" fill="#363E44"/>
<path d="M47.7212 166.76C47.673 166.76 47.6249 166.741 47.5901 166.702L45.9628 164.902C45.8973 164.83 45.903 164.718 45.9753 164.652C46.0475 164.587 46.1593 164.593 46.2247 164.665L47.852 166.465C47.9174 166.538 47.9117 166.649 47.8394 166.715C47.8057 166.745 47.7633 166.76 47.7212 166.76Z" fill="#363E44"/>
<path d="M46.1727 167.38C46.1246 167.38 46.0765 167.361 46.0417 167.322L44.4145 165.522C44.349 165.45 44.3547 165.338 44.427 165.273C44.4993 165.207 44.611 165.213 44.6764 165.285L46.3036 167.085C46.369 167.158 46.3634 167.269 46.291 167.335C46.2574 167.365 46.215 167.38 46.1727 167.38Z" fill="#363E44"/>
<path d="M71.4453 145.837L46.3918 143.369V140.609C46.3918 134.237 51.5526 129.071 57.9187 129.071H85.4711V133.181C85.4711 140.728 78.9454 146.617 71.4453 145.837Z" fill="#8B865C"/>
<path d="M72.7813 146.083C72.3323 146.083 71.8806 146.06 71.427 146.013L64.9229 145.372C64.8258 145.362 64.7549 145.276 64.7645 145.179C64.7741 145.082 64.8604 145.013 64.9575 145.021L71.4626 145.661C75.7794 146.11 79.9573 144.333 82.6379 140.907C82.6981 140.83 82.8089 140.817 82.8858 140.877C82.9626 140.937 82.9762 141.048 82.9161 141.125C80.4418 144.287 76.7267 146.083 72.7813 146.083Z" fill="#363E44"/>
<path d="M59.7866 149.285L60.4979 143.369H46.3918L46.7476 149.285H59.7866Z" fill="#8B865C"/>
<path d="M60.2734 145.414C60.2675 145.414 60.2614 145.413 60.2553 145.413C60.1582 145.403 60.0877 145.316 60.0977 145.219L60.7298 139.05C60.7397 138.953 60.825 138.885 60.9234 138.892C61.0205 138.902 61.091 138.989 61.081 139.086L60.449 145.255C60.4396 145.346 60.363 145.414 60.2734 145.414Z" fill="#363E44"/>
<path d="M73.9825 80.5585C73.745 80.5041 71.4635 80.0181 69.8716 81.4173C68.687 82.4583 68.369 83.9497 68.2136 86.5317C68.0305 89.5723 68.3454 91.4155 69.1358 92.1222C70.3846 93.2388 76.158 91.9376 78.0399 89.5046C79.3983 87.7485 78.1874 85.0129 77.2517 82.9819C76.3186 80.9564 74.1341 80.5932 73.9825 80.5585Z" fill="#84524D"/>
<path d="M73.6242 99.413H74.6385C76.1274 99.413 77.3345 98.206 77.3345 96.717V88.9167C77.3345 87.4277 76.1274 86.2207 74.6385 86.2207H73.6242C72.1352 86.2207 70.9282 87.4277 70.9282 88.9167V96.717C70.9282 98.206 72.1352 99.413 73.6242 99.413Z" fill="#84524D"/>
<path d="M80.3658 83.9276C82.7083 83.9276 84.6072 82.0269 84.6072 79.6822C84.6072 77.3375 82.7083 75.4368 80.3658 75.4368C78.0233 75.4368 76.1243 77.3375 76.1243 79.6822C76.1243 82.0269 78.0233 83.9276 80.3658 83.9276Z" fill="white"/>
<path d="M81.2299 84.2213C78.5657 84.2213 76.3983 82.7078 76.3983 80.8475C76.3983 78.9872 78.5657 77.4736 81.2299 77.4736C83.8942 77.4736 86.0616 78.9872 86.0616 80.8475C86.0616 82.7079 83.8942 84.2213 81.2299 84.2213ZM81.2299 77.8269C78.7605 77.8269 76.7515 79.182 76.7515 80.8476C76.7515 82.5132 78.7605 83.8682 81.2299 83.8682C83.6994 83.8682 85.7084 82.5132 85.7084 80.8476C85.7084 79.182 83.6994 77.8269 81.2299 77.8269Z" fill="#363E44"/>
<path d="M81.969 85.2301C81.9587 85.2301 81.9483 85.2301 81.9379 85.2301C80.8362 85.2225 79.6516 84.8157 78.6022 84.0843C77.4934 83.3115 76.7031 82.0041 76.4881 80.587C76.3241 79.5062 76.5174 78.5166 77.0186 77.8723C78.189 76.3679 80.3779 76.5078 82.874 78.2474C85.1269 79.8175 85.5358 82.5806 84.4936 84.0788C83.9767 84.8219 83.0808 85.2301 81.969 85.2301ZM79.2215 77.1918C78.425 77.1918 77.7641 77.4893 77.2975 78.0893C76.8555 78.6573 76.6878 79.5485 76.8372 80.5341C77.0379 81.8572 77.7732 83.0761 78.8041 83.7945C79.7955 84.4854 80.9094 84.8698 81.9403 84.8769C82.9517 84.8793 83.7503 84.5287 84.2036 83.8769C85.1485 82.5186 84.6943 79.9465 82.672 78.5371C81.3894 77.6433 80.2026 77.1918 79.2215 77.1918Z" fill="#363E44"/>
<path d="M70.7198 92.7093C70.6316 92.7093 70.5555 92.6434 70.5447 92.5538C70.5331 92.457 70.6022 92.369 70.699 92.3574C71.5775 92.2518 76.0342 91.6299 77.4887 89.7494C77.5486 89.6727 77.6594 89.6584 77.7365 89.7179C77.8137 89.7776 77.8278 89.8885 77.7682 89.9658C76.2275 91.9575 71.6442 92.5995 70.741 92.7082C70.7338 92.709 70.7268 92.7093 70.7198 92.7093Z" fill="#363E44"/>
<path d="M69.0903 82.4757C69.0685 82.4483 69.0629 82.4105 69.0752 82.3776C70.1735 79.4577 74.7831 78.7723 77.2418 80.4702C79.8857 82.2961 80.1664 86.0405 79.2997 88.1598C78.7845 89.4197 77.4703 91.1981 76.4671 90.7533C75.2533 90.215 76.2766 88.0128 74.5559 85.5577C73.2402 83.6804 70.2543 83.9411 69.0903 82.4757Z" fill="white"/>
<path d="M76.4939 88.1086C77.0638 87.2163 76.9147 86.1026 76.1608 85.6211C75.4069 85.1396 74.3337 85.4726 73.7638 86.3649C73.1939 87.2571 73.3431 88.3708 74.097 88.8523C74.8509 89.3339 75.924 89.0009 76.4939 88.1086Z" fill="#84524D"/>
<path d="M75.6964 88.0137C75.6538 88.0137 75.611 87.9983 75.5771 87.9673C75.5052 87.9014 75.5004 87.7897 75.5662 87.7178C75.6034 87.6772 75.6377 87.6327 75.6678 87.5857C75.9055 87.2155 75.8547 86.7574 75.5548 86.5646C75.4846 86.5195 75.4059 86.4919 75.3206 86.4828C75.2236 86.4725 75.1534 86.3854 75.1638 86.2885C75.1742 86.1915 75.2618 86.1224 75.3582 86.1317C75.4987 86.1467 75.6292 86.1924 75.7459 86.2676C76.2094 86.5655 76.3078 87.2423 75.9652 87.7765C75.9241 87.8405 75.8775 87.901 75.8267 87.9565C75.7918 87.9944 75.7442 88.0137 75.6964 88.0137Z" fill="#363E44"/>
<path d="M73.4589 86.0301C73.4589 86.0301 72.6689 85.6775 71.753 85.7455C71.5581 85.76 72.0414 87.2934 72.2198 87.1913C73.0042 86.7424 73.4589 86.0301 73.4589 86.0301Z" fill="white"/>
<mask id="mask0_69_6530" style="mask-type:luminance" maskUnits="userSpaceOnUse" x="69" y="85" width="5" height="3">
<path d="M73.4589 86.0301C73.4589 86.0301 72.2969 85.5115 71.1578 85.8536C70.0187 86.1956 69.3337 87.2687 69.3337 87.2687C69.3337 87.2687 70.4957 87.7873 71.6348 87.4452C72.7739 87.1032 73.4589 86.0301 73.4589 86.0301Z" fill="white"/>
</mask>
<g mask="url(#mask0_69_6530)">
<path d="M70.6958 88.4442C71.5548 88.4442 72.2511 87.7473 72.2511 86.8875C72.2511 86.0278 71.5548 85.3308 70.6958 85.3308C69.8369 85.3308 69.1405 86.0278 69.1405 86.8875C69.1405 87.7473 69.8369 88.4442 70.6958 88.4442Z" fill="#363E44"/>
</g>
<path d="M70.071 90.015C69.909 90.015 69.7445 89.9647 69.6042 89.864C69.5249 89.8071 69.5069 89.6967 69.5638 89.6174C69.621 89.5384 69.7311 89.5202 69.8103 89.577C69.9662 89.6893 70.1723 89.691 70.3116 89.5817C70.484 89.4463 70.4558 89.2002 70.4555 89.1976C70.4436 89.1014 70.5116 89.0127 70.6078 89.0002C70.7037 88.986 70.7923 89.0543 70.8056 89.1506C70.8081 89.1686 70.8629 89.5981 70.5298 89.8595C70.3977 89.9632 70.2354 90.015 70.071 90.015Z" fill="#363E44"/>
<path d="M68.4734 88.763C68.4388 88.763 68.4038 88.7528 68.3733 88.7318C68.0453 88.5056 67.897 88.2872 67.9202 88.0642C67.9361 87.9114 68.0252 87.8208 68.1114 87.7334C68.1677 87.6761 68.2258 87.6172 68.2813 87.5275C68.3634 87.3944 68.4112 87.2377 68.4233 87.062C68.4299 86.9648 68.5138 86.8937 68.6115 86.8979C68.7088 86.9046 68.7823 86.9889 68.7756 87.0862C68.7597 87.3199 68.6944 87.5308 68.5817 87.7131C68.5054 87.8365 68.4265 87.9168 68.363 87.9812C68.3002 88.0451 68.2742 88.0737 68.2714 88.1006C68.2653 88.1601 68.3414 88.2808 68.5738 88.441C68.6541 88.4964 68.6743 88.6064 68.619 88.6866C68.5847 88.7363 68.5295 88.763 68.4734 88.763Z" fill="#363E44"/>
<path d="M69.0753 82.554C69.0601 82.554 69.0445 82.5521 69.029 82.5478C68.9349 82.5222 68.8793 82.4253 68.9048 82.3311C69.1665 81.3658 70.0161 80.4801 71.2355 79.9012C72.7584 79.1784 74.5147 79.0902 75.8189 79.6715C75.908 79.7111 75.9481 79.8154 75.9084 79.9046C75.8687 79.9938 75.7642 80.0338 75.6751 79.994C74.4625 79.4537 72.8194 79.5402 71.387 80.2202C70.2609 80.755 69.4805 81.558 69.2458 82.4236C69.2243 82.5022 69.1531 82.554 69.0753 82.554Z" fill="#363E44"/>
<path d="M77.3934 90.8275C77.3355 90.8275 77.2786 90.7991 77.245 90.7467C77.192 90.6647 77.2156 90.5555 77.2974 90.5027C79.1528 89.3046 79.4866 87.1227 79.5686 85.1464C79.5725 85.0488 79.6526 84.9684 79.7523 84.9772C79.8498 84.9812 79.9254 85.0635 79.9214 85.1609C79.8358 87.2276 79.4799 89.5138 77.4891 90.7993C77.4595 90.8184 77.4262 90.8275 77.3934 90.8275Z" fill="#363E44"/>
</svg>
