<svg width="200" height="200" viewBox="0 0 200 200" fill="none" xmlns="http://www.w3.org/2000/svg">
<g clip-path="url(#clip0_69_6401)">
<path d="M134.926 66.7365H170.066C170.567 66.7365 170.822 66.1273 170.464 65.7765C169.271 64.6089 166.816 62.9405 163.304 64.1897C158.192 66.0089 153.462 66.2513 149.218 62.6133C144.974 58.9753 144.857 54.2457 138.488 56.6709C132.119 59.0965 134.926 66.7365 134.926 66.7365Z" fill="white"/>
<path d="M138.544 52.6783C138.544 48.1391 134.864 44.4595 130.325 44.4595H76.9365C72.3973 44.4595 68.7177 48.1391 68.7177 52.6783V56.0067H138.544L138.544 52.6783Z" fill="#464280"/>
<path d="M138.544 56.0068H68.7172V160.067H138.544V56.0068Z" fill="#000F83"/>
<path d="M68.7172 160.067V170.324C68.7172 174.863 72.3968 178.542 76.936 178.542H130.325C134.864 178.542 138.544 174.863 138.544 170.324V160.067H68.7172Z" fill="#464280"/>
<path d="M107.511 80.2569L115.052 69.3589C115.052 69.3589 103.057 65.3161 98.3216 64.3637C93.5856 63.4113 88.516 61.7193 88.9048 59.3433C89.2932 56.9669 95.0772 54.2385 104.889 56.9505C114.7 59.6629 124.086 62.6769 124.798 66.0885C125.51 69.5001 115.479 79.0989 110.96 82.3141C110.96 82.3141 100.249 89.8185 99.3168 89.8753C98.3844 89.9321 97.94 89.9233 97.94 89.9233C97.94 89.9233 96.6848 90.1917 96.4296 89.9437C96.1744 89.6953 95.5876 90.1029 95.6712 89.7021C95.7548 89.3009 100.783 83.8669 101.033 83.4221C101.283 82.9769 100.379 82.9005 100.143 82.9629C99.9068 83.0253 97.8092 83.4533 97.8648 83.1861C97.9204 82.9189 103.204 80.4485 103.767 80.4261C104.329 80.4037 105.89 80.8125 106.421 80.6721C106.952 80.5313 107.511 80.2569 107.511 80.2569Z" fill="#FFA8A7"/>
<path d="M99.532 23.3764C99.532 23.3764 101.944 12.8824 110.3 14.95C118.657 17.0176 117.364 26.7004 117.278 34.3072C117.192 41.9144 122.706 48.4616 122.878 56.6456C123.05 64.8296 117.795 70.6016 112.971 71.3768C108.146 72.152 103.919 71.3768 103.919 71.3768C103.919 71.3768 99.088 49.0644 99.0944 43.9816C99.1012 38.8992 99.7904 23.016 99.532 23.3764Z" fill="#282359"/>
<path d="M75.388 128.872L81.3544 125.398C81.3544 125.398 79.8441 117.694 79.0133 114.296C78.7925 113.393 78.454 112.227 78.082 111.002L71.4344 123.572C73.704 126.621 75.388 128.872 75.388 128.872Z" fill="#272547"/>
<path d="M107 76.0897C106.908 75.9845 106.859 75.9297 106.859 75.9297L93.8156 79.3285C93.8156 79.3285 72.5176 85.6725 63.1528 88.7689C53.7876 91.8653 57.7904 104.704 59.7544 107.65C61.0292 109.562 67.2352 117.933 71.4344 123.572L78.082 111.002C77.0548 107.619 75.7704 103.778 75.9924 103.722C76.2944 103.647 94.8736 98.6625 94.8736 98.6625C94.8736 98.6625 92.3056 120.716 92.3812 124.19C92.4384 126.814 97.4932 145.896 99.9636 155.078L109.672 143.913C109.72 141.654 109.752 139.63 109.752 138.237C109.752 132.573 107.48 124.38 106.86 123.475C106.239 122.569 113.458 107.173 115.812 97.8373C118.011 89.1177 108.293 77.5765 107 76.0897Z" fill="#3C3587"/>
<path d="M101.293 159.988H109.223C109.223 159.988 109.523 150.841 109.671 143.913L99.9633 155.077C100.763 158.051 101.293 159.988 101.293 159.988Z" fill="#272547"/>
<path d="M101.575 31.3672C101.575 31.3672 99.9012 21.5216 94.1416 23.6876C88.382 25.8536 86.7576 29.5948 86.7576 36.0436C86.7576 42.4924 88.1828 43.1468 90.91 44.048C93.062 44.7588 96.1108 43.3296 96.1108 43.3296C96.1108 43.3296 96.2092 46.7756 95.4708 48.3508C94.7324 49.926 94.1664 50.6644 94.1664 50.6644C94.1664 50.6644 94.8308 51.3044 96.7508 50.6644C98.6708 50.0244 101.181 47.4152 101.181 47.4152L101.23 38.5544C101.23 38.5544 103.692 39.1452 104.529 36.1424C105.365 33.1396 104.184 31.4656 101.575 31.3672Z" fill="#FFA8A7"/>
<path d="M101.181 47.4155C101.181 47.4155 101.624 48.6659 103.669 50.9491C105.714 53.2323 107.554 55.5495 106.6 60.9343C105.646 66.3191 104.692 68.5683 105.578 71.6355C106.464 74.7027 106.859 75.9295 106.859 75.9295L94.1269 79.5419C94.1269 79.5419 86.0837 64.4103 87.3109 60.1843C88.5377 55.9583 94.1669 50.6643 94.1669 50.6643C94.1669 50.6643 95.5585 51.1867 97.8761 49.8919C100.193 48.5967 101.181 47.4155 101.181 47.4155Z" fill="#7C50CC"/>
<path d="M87.5944 59.3691C87.5944 59.3691 88.8836 62.1779 92.3784 60.5935C95.8732 59.0091 103.101 50.2915 103.101 50.2915L103.919 51.2303C103.919 51.2303 96.3856 62.2711 93.45 64.4615C90.5144 66.6515 88.15 65.9471 88.15 65.9471C88.15 65.9471 86.2292 61.9167 87.5944 59.3691Z" fill="white"/>
<path d="M92.7401 52.1097C92.7401 52.1097 93.7004 53.0273 96.2448 52.3513C98.7896 51.6753 101.678 48.3589 101.678 48.3589L101.181 47.4153C101.181 47.4153 98.0688 49.8565 96.2448 50.2913C94.4208 50.7261 94.166 50.6645 94.166 50.6645L92.7401 52.1097Z" fill="#57388F"/>
<path d="M79.3068 65.2453L87.9164 75.3205C87.9164 75.3205 94.89 64.7569 97.0208 60.4217C99.1516 56.0865 102.083 51.6173 104.281 52.6001C106.479 53.5829 107.639 59.8721 102.51 68.6649C97.3808 77.4577 92.0684 85.7621 88.588 85.5789C85.1076 85.3957 78.3908 73.2445 76.4368 68.0545C76.4368 68.0545 71.9184 55.7813 72.1016 54.8653C72.2848 53.9493 72.4068 53.5221 72.4068 53.5221C72.4068 53.5221 72.468 52.2397 72.7732 52.0565C73.0784 51.8733 72.8344 51.2017 73.2008 51.3849C73.5672 51.5681 77.536 57.8181 77.9024 58.1737C78.2688 58.5293 78.574 57.6745 78.574 57.4301C78.574 57.1857 78.696 55.0489 78.9404 55.1709C79.1848 55.2929 80.2228 61.0329 80.1004 61.5825C79.9784 62.1321 79.1844 63.5365 79.1844 64.0861C79.1848 64.6349 79.3068 65.2453 79.3068 65.2453Z" fill="#FFA8A7"/>
<path d="M83.8041 128.487C83.2653 128.087 82.7765 127.652 82.4793 127.221C81.4725 125.761 81.3021 125.131 81.3021 125.131L75.3881 128.872C75.3881 128.872 77.0065 131.776 77.8989 135.245C80.5781 133.761 82.9409 131.409 83.8041 128.487Z" fill="#FFA8A7"/>
<path d="M83.8041 128.487C82.9413 131.409 80.5781 133.761 77.8989 135.245C78.0121 135.684 78.1153 136.132 78.2001 136.585C78.9553 140.612 78.6029 144.64 79.0057 147.862C79.1585 149.082 79.5785 150.02 80.0413 150.716C82.2809 143.848 85.4989 137.176 86.3457 130.03C85.8181 129.761 84.7357 129.178 83.8041 128.487Z" fill="#FF7D81"/>
<path d="M87.4129 132.407C87.3121 131.198 86.6685 130.191 86.6685 130.191C86.6685 130.191 86.5457 130.133 86.3457 130.03C85.4989 137.176 82.2809 143.848 80.0413 150.716C80.8001 151.855 81.6737 152.342 81.6737 152.342C81.6737 152.342 84.3417 149.473 84.7949 145.647C85.2481 141.821 85.4493 140.109 86.4057 138.699C87.3625 137.29 87.5133 133.615 87.4129 132.407Z" fill="white"/>
<path d="M78.3909 137.764C78.3909 137.764 79.3761 137.527 80.5665 136.722C81.7569 135.918 81.8853 136.304 81.7245 136.722C81.5637 137.141 78.4941 138.6 78.4941 138.6L78.3909 137.764Z" fill="white"/>
<path d="M78.6296 140.172C78.6296 140.172 80.2768 139.779 81.0812 139.425C81.8856 139.071 82.2304 139.039 82.1224 139.425C82.0144 139.811 78.63 141.001 78.63 141.001L78.6296 140.172Z" fill="white"/>
<path d="M83.1909 127.992C83.1909 127.992 83.1873 129.033 82.8969 130.031C82.6065 131.028 82.1201 131.706 82.1201 131.706C82.1201 131.706 83.3949 131.346 84.0173 130.558C84.6397 129.77 84.6725 129.078 84.6725 129.078" fill="white"/>
<path d="M90.9816 87.8369C90.9816 87.8369 91.1728 90.0041 93.2764 92.6813C95.38 95.3585 95.512 95.6773 95.512 95.6773L94.8736 98.6625" stroke="#282359" stroke-miterlimit="10"/>
<path d="M89.9784 32.2207C89.9784 32.2207 89.6836 35.5187 89.2544 36.5107C88.8252 37.5027 88.718 37.6903 88.718 37.6903L89.9784 37.1623" stroke="#282359" stroke-width="0.5" stroke-miterlimit="10" stroke-linecap="round" stroke-linejoin="round"/>
<path d="M92.5524 33.2129C92.8339 33.2129 93.062 32.9127 93.062 32.5425C93.062 32.1722 92.8339 31.8721 92.5524 31.8721C92.271 31.8721 92.0428 32.1722 92.0428 32.5425C92.0428 32.9127 92.271 33.2129 92.5524 33.2129Z" fill="#282359"/>
<path d="M88.718 33.0788C88.9995 33.0788 89.2276 32.7787 89.2276 32.4084C89.2276 32.0382 88.9995 31.738 88.718 31.738C88.4366 31.738 88.2084 32.0382 88.2084 32.4084C88.2084 32.7787 88.4366 33.0788 88.718 33.0788Z" fill="#282359"/>
<path d="M92.5524 37.9856C92.5524 37.9856 88.316 39.1384 88.2088 39.2996C88.1016 39.4604 88.182 41.7128 90.2736 41.6056C92.3652 41.4984 92.7668 39.0312 92.5524 37.9856Z" fill="#282359"/>
<path d="M94.4381 34.6291C94.4381 34.6291 93.3965 33.9047 92.4005 34.6291C91.4041 35.3535 91.9477 36.1007 93.2381 36.1007C94.5289 36.1007 95.1853 35.4671 94.4381 34.6291Z" fill="#FFA8A7" fill-opacity="0.65098"/>
<path d="M89.1173 34.9555C89.1173 34.9555 88.7549 34.3575 88.0077 34.5839C87.2605 34.8103 87.2153 35.4895 88.0077 35.7611C88.8005 36.0331 89.2765 35.1371 89.1173 34.9555Z" fill="#FFA8A7" fill-opacity="0.65098"/>
<path d="M94.6304 30.1949C94.6304 30.1949 93.1804 29.3881 92.5524 29.5777C91.9244 29.7677 92.0428 30.0525 92.0428 30.0525C92.0428 30.0525 93.6332 29.9257 94.6304 30.1949Z" fill="#282359"/>
<path d="M89.6144 29.7201C89.6144 29.7201 89.2188 29.6885 88.8232 29.7201C88.4276 29.7517 87.8104 30.4481 87.8104 30.4481C87.8104 30.4481 89.266 29.7517 89.6144 29.7201Z" fill="#282359"/>
<path d="M103.056 33.6952C103.056 33.6952 102.136 32.9112 101.38 33.56C100.623 34.2088 101.028 36.3716 101.028 36.3716C101.028 36.3716 103.191 34.6684 103.056 33.6952Z" fill="#FFA8A7" fill-opacity="0.65098"/>
<path d="M88.7125 39.3109C88.7125 39.3109 88.8361 40.0997 89.9785 39.9681C91.1209 39.8365 91.7645 39.1465 91.8861 39.0481C92.0077 38.9497 92.0429 38.2593 92.0429 38.2593L88.7125 39.3109Z" fill="white"/>
<path d="M90.5725 25.6143C90.5469 25.6687 91.6305 26.6831 94.7529 26.5811C97.8753 26.4787 97.5685 28.4531 98.4549 30.4479C99.3409 32.4427 100.329 32.0855 101.113 31.8723C101.897 31.6591 102.129 31.4159 102.129 31.4159C102.129 31.4159 102.679 26.6151 100.499 23.7183C98.3185 20.8211 91.7897 23.0455 90.5725 25.6143Z" fill="#282359"/>
<path d="M99.0569 30.8256C99.0569 30.8256 99.0117 33.6508 97.7889 35.2044C96.5661 36.758 94.7729 39.8372 97.2093 42.2824C99.6457 44.7276 102.19 42.2824 102.19 42.2824C102.19 42.2824 98.3325 41.7392 98.4681 38.7504C98.6041 35.7616 99.6001 33.9464 99.5097 32.4088C99.4193 30.8712 99.2833 30.6448 99.2833 30.6448L99.0569 30.8256Z" fill="#282359"/>
<path d="M91.5133 24.4385C91.5133 24.4385 89.4129 24.6121 88.7125 25.7733C88.0121 26.9345 87.6929 29.5489 87.6929 29.5489C87.6929 29.5489 90.7177 26.0057 91.5133 25.7733C92.3089 25.5409 91.5133 24.4385 91.5133 24.4385Z" fill="#282359"/>
<path d="M118.232 40.3352C118.232 40.3352 123.029 48.1284 124.596 54.9176C126.163 61.7068 123.865 64.6316 123.865 64.6316C123.865 64.6316 124.929 58.9912 122.882 54.5C120.836 50.0088 118.232 40.3352 118.232 40.3352Z" fill="#282359"/>
<path d="M96.1104 43.3297L97.8172 42.7937L95.9988 46.7249L96.1104 43.3297Z" fill="#FFA8A7" fill-opacity="0.65098"/>
<path d="M105.308 173.834C108.238 173.834 110.614 171.459 110.614 168.528C110.614 165.598 108.238 163.222 105.308 163.222C102.378 163.222 100.002 165.598 100.002 168.528C100.002 171.459 102.378 173.834 105.308 173.834Z" fill="#272547"/>
<path opacity="0.19" d="M138.689 70.0208H129.021C127.734 70.0208 126.691 71.064 126.691 72.3512V77.5263C126.691 78.8131 127.734 79.8564 129.021 79.8564H138.689V70.0208Z" fill="#464180"/>
<path opacity="0.19" d="M149.028 83.0615H130.579C128.843 83.0615 127.435 84.4687 127.435 86.2051V93.7935L130.866 89.3487H149.028C150.764 89.3487 152.172 87.9415 152.172 86.2051C152.172 84.4687 150.764 83.0615 149.028 83.0615Z" fill="#464180"/>
<path opacity="0.19" d="M57.5768 171.858H38.89C38.1848 171.858 37.6136 171.286 37.6136 170.581C37.6136 169.876 38.1852 169.305 38.89 169.305H57.5764C58.2816 169.305 58.8532 169.876 58.8532 170.581C58.8532 171.286 58.2817 171.858 57.5768 171.858Z" fill="#464180"/>
<path opacity="0.19" d="M57.0092 178.542H17.52C16.7324 178.542 16.0936 177.904 16.0936 177.116C16.0936 176.329 16.7324 175.69 17.52 175.69H57.0088C57.7964 175.69 58.4352 176.329 58.4352 177.116C58.4356 177.904 57.7968 178.542 57.0092 178.542Z" fill="#464180"/>
<path opacity="0.19" d="M163.708 174.627H142.566C141.56 174.627 140.744 173.811 140.744 172.805C140.744 171.798 141.56 170.982 142.566 170.982H163.708C164.714 170.982 165.53 171.798 165.53 172.805C165.53 173.811 164.714 174.627 163.708 174.627Z" fill="#464180"/>
<path opacity="0.19" d="M189.628 172.352H168.487C167.48 172.352 166.664 171.536 166.664 170.53C166.664 169.523 167.48 168.707 168.487 168.707H189.628C190.635 168.707 191.451 169.523 191.451 170.53C191.451 171.536 190.635 172.352 189.628 172.352Z" fill="#464180"/>
<path opacity="0.19" d="M135.251 180.365H72.0097C71.0033 180.365 70.1873 179.549 70.1873 178.543C70.1873 177.536 71.0033 176.72 72.0097 176.72H135.251C136.258 176.72 137.074 177.536 137.074 178.543C137.074 179.549 136.258 180.365 135.251 180.365Z" fill="#464180"/>
<path d="M55.4017 125.688V118.942C55.4017 118.232 55.1197 117.551 54.6181 117.05C54.1161 116.548 53.4357 116.266 52.7261 116.266H48.0469L48.0565 117.216H48.0369L48.0469 116.266H43.3673C42.6577 116.266 41.9769 116.548 41.4753 117.05C40.9733 117.552 40.6917 118.232 40.6917 118.942V125.688C40.6917 126.303 40.9041 126.896 41.2873 127.37H54.8061C55.1893 126.896 55.4017 126.303 55.4017 125.688Z" fill="#7C50CC"/>
<path d="M55.0716 136.697C54.854 136.479 54.6612 136.242 54.4896 135.992H41.6032C41.4316 136.242 41.2388 136.479 41.0212 136.697L40.2988 137.419C39.3692 138.349 38.8472 139.609 38.8472 140.924V169.05C38.8472 169.531 39.0384 169.992 39.3784 170.332C39.7188 170.672 40.18 170.864 40.6612 170.864H45.5832H47.4836H48.6088H51.51H55.4312C55.9124 170.864 56.3736 170.672 56.714 170.332C57.054 169.992 57.2452 169.531 57.2452 169.05V140.924C57.2452 139.609 56.7232 138.349 55.7936 137.419L55.0716 136.697Z" fill="#7C50CC"/>
<path d="M53.62 133.217V129.711C53.62 129.001 53.902 128.321 54.4036 127.819L54.618 127.605C54.6848 127.538 54.7472 127.467 54.806 127.395H41.2872C41.346 127.467 41.4084 127.538 41.4752 127.605L41.6896 127.819C42.1916 128.321 42.4732 129.001 42.4732 129.711V133.217C42.4732 134.224 42.1644 135.198 41.6036 136.017H54.49C53.9284 135.198 53.62 134.224 53.62 133.217Z" fill="#FFA3A9"/>
<path d="M50.6741 116.266H45.4193V114.15C45.4193 113.699 45.7849 113.333 46.2361 113.333H49.8577C50.3089 113.333 50.6745 113.699 50.6745 114.15L50.6741 116.266Z" fill="#E36F73"/>
<path d="M48.4736 111.38H47.6196V113.333H48.4736V111.38Z" fill="#E36F73"/>
<path d="M49.8396 111.38H46.2536C45.9008 111.38 45.6144 111.094 45.6144 110.741C45.6144 110.388 45.9004 110.102 46.2536 110.102H49.8396C50.1924 110.102 50.4788 110.388 50.4788 110.741C50.4784 111.094 50.1924 111.38 49.8396 111.38Z" fill="#E36F73"/>
<path d="M47.3408 110.286C44.4796 110.386 41.822 112.913 42.1844 115.893C42.3452 117.214 43.1416 118.424 44.386 118.948C45.5884 119.456 46.9616 119.303 47.9548 118.439C49.0652 117.473 49.4988 115.961 48.8848 114.6C48.7528 114.308 48.3216 114.562 48.4532 114.853C48.9248 115.897 48.6104 117.073 47.826 117.874C47.0132 118.704 45.8764 118.94 44.7816 118.567C43.6292 118.175 42.8584 117.106 42.6896 115.92C42.504 114.616 43.0204 113.274 43.9176 112.332C44.8104 111.395 46.0468 110.83 47.3408 110.786C47.6616 110.774 47.6632 110.274 47.3408 110.286Z" fill="#E36F73"/>
<mask id="mask0_69_6401" style="mask-type:luminance" maskUnits="userSpaceOnUse" x="146" y="91" width="11" height="63">
<path d="M154.208 152.682C154.208 152.682 157.225 142.09 155.549 134.18C153.873 126.269 155.012 123.186 155.549 115.208C156.085 107.23 157.024 108.169 155.549 101.465C154.074 94.7612 151.996 88.1248 148.443 94.3592C144.89 100.594 146.834 116.683 148.443 122.783C150.052 128.884 146.432 135.118 148.644 142.693C150.856 150.268 152.063 153.352 152.063 153.352L154.208 152.682Z" fill="white"/>
</mask>
<g mask="url(#mask0_69_6401)">
<path d="M154.208 152.682C154.208 152.682 157.225 142.09 155.549 134.18C153.873 126.269 155.012 123.186 155.549 115.208C156.085 107.23 157.024 108.169 155.549 101.465C154.074 94.7612 151.996 88.1248 148.443 94.3592C144.89 100.594 146.834 116.683 148.443 122.783C150.052 128.884 146.432 135.118 148.644 142.693C150.856 150.268 152.063 153.352 152.063 153.352L154.208 152.682Z" fill="#4D9E9D"/>
</g>
<mask id="mask1_69_6401" style="mask-type:luminance" maskUnits="userSpaceOnUse" x="146" y="91" width="11" height="63">
<path d="M154.208 152.682C154.208 152.682 157.225 142.09 155.549 134.18C153.873 126.269 155.012 123.186 155.549 115.208C156.085 107.23 157.024 108.169 155.549 101.465C154.074 94.7612 151.996 88.1248 148.443 94.3592C144.89 100.594 146.834 116.683 148.443 122.783C150.052 128.884 146.432 135.118 148.644 142.693C150.856 150.268 152.063 153.352 152.063 153.352L154.208 152.682Z" fill="white"/>
</mask>
<g mask="url(#mask1_69_6401)">
<path d="M150.537 91.9976C150.537 91.9976 153.724 103.318 151.9 114.046C150.076 124.774 151.203 130.996 152.464 136.897C153.724 142.797 153.188 152.343 153.188 152.343" stroke="#397575" stroke-miterlimit="10"/>
</g>
<mask id="mask2_69_6401" style="mask-type:luminance" maskUnits="userSpaceOnUse" x="146" y="91" width="11" height="63">
<path d="M154.208 152.682C154.208 152.682 157.225 142.09 155.549 134.18C153.873 126.269 155.012 123.186 155.549 115.208C156.085 107.23 157.024 108.169 155.549 101.465C154.074 94.7612 151.996 88.1248 148.443 94.3592C144.89 100.594 146.834 116.683 148.443 122.783C150.052 128.884 146.432 135.118 148.644 142.693C150.856 150.268 152.063 153.352 152.063 153.352L154.208 152.682Z" fill="white"/>
</mask>
<g mask="url(#mask2_69_6401)">
<path d="M147.909 136.925C147.909 136.925 146.986 138.325 150.119 141.426C153.251 144.527 153.301 145.692 153.301 145.692" stroke="#397575" stroke-miterlimit="10"/>
</g>
<mask id="mask3_69_6401" style="mask-type:luminance" maskUnits="userSpaceOnUse" x="146" y="91" width="11" height="63">
<path d="M154.208 152.682C154.208 152.682 157.225 142.09 155.549 134.18C153.873 126.269 155.012 123.186 155.549 115.208C156.085 107.23 157.024 108.169 155.549 101.465C154.074 94.7612 151.996 88.1248 148.443 94.3592C144.89 100.594 146.834 116.683 148.443 122.783C150.052 128.884 146.432 135.118 148.644 142.693C150.856 150.268 152.063 153.352 152.063 153.352L154.208 152.682Z" fill="white"/>
</mask>
<g mask="url(#mask3_69_6401)">
<path d="M151.919 133.771C151.919 133.771 151.54 129.562 154.672 126.232" stroke="#397575" stroke-miterlimit="10"/>
</g>
<mask id="mask4_69_6401" style="mask-type:luminance" maskUnits="userSpaceOnUse" x="146" y="91" width="11" height="63">
<path d="M154.208 152.682C154.208 152.682 157.225 142.09 155.549 134.18C153.873 126.269 155.012 123.186 155.549 115.208C156.085 107.23 157.024 108.169 155.549 101.465C154.074 94.7612 151.996 88.1248 148.443 94.3592C144.89 100.594 146.834 116.683 148.443 122.783C150.052 128.884 146.432 135.118 148.644 142.693C150.856 150.268 152.063 153.352 152.063 153.352L154.208 152.682Z" fill="white"/>
</mask>
<g mask="url(#mask4_69_6401)">
<path d="M146.598 110.282C146.598 110.282 147.402 112.675 149.214 113.961C151.025 115.246 151.428 117.218 151.428 117.218" stroke="#397575" stroke-miterlimit="10"/>
</g>
<mask id="mask5_69_6401" style="mask-type:luminance" maskUnits="userSpaceOnUse" x="146" y="91" width="11" height="63">
<path d="M154.208 152.682C154.208 152.682 157.225 142.09 155.549 134.18C153.873 126.269 155.012 123.186 155.549 115.208C156.085 107.23 157.024 108.169 155.549 101.465C154.074 94.7612 151.996 88.1248 148.443 94.3592C144.89 100.594 146.834 116.683 148.443 122.783C150.052 128.884 146.432 135.118 148.644 142.693C150.856 150.268 152.063 153.352 152.063 153.352L154.208 152.682Z" fill="white"/>
</mask>
<g mask="url(#mask5_69_6401)">
<path d="M152.164 112.21C152.18 112.075 153.304 109.594 154.941 108.037C156.577 106.48 156.264 105.489 156.264 105.489" stroke="#397575" stroke-miterlimit="10"/>
</g>
<path d="M150.118 152.682C150.118 152.682 149.47 146.716 146.442 144.772C143.415 142.828 142.488 144.973 143.756 147.654C145.024 150.336 147.169 152.343 147.236 152.343C147.303 152.343 148.845 153.352 148.845 153.352L150.118 152.682Z" fill="#4D9E9D"/>
<path d="M155.549 152.682C155.549 152.682 157.761 148.258 157.225 143.163C156.688 138.068 158.163 136.66 160.577 132.906C162.99 129.152 164.564 127.409 165.956 128.884C167.347 130.358 163.996 134.649 163.325 138.135C162.655 141.621 163.124 143.699 161.783 146.984C160.442 150.268 158.566 152.342 158.566 152.342L155.549 152.682Z" fill="#4D9E9D"/>
<path d="M164.1 154.03C164.238 153.144 163.552 152.343 162.655 152.343H142.163L143.296 158.742H163.366L164.1 154.03Z" fill="#FFA8A7"/>
<path d="M143.296 158.742L143.471 159.733H163.211L163.366 158.742H143.296Z" fill="white"/>
<path d="M163.211 159.733H143.471L144.682 166.57H162.146L163.211 159.733Z" fill="#7C50CC"/>
<path d="M144.682 166.57L145.473 171.042C145.698 172.314 146.805 173.242 148.098 173.242H158.825C160.138 173.242 161.256 172.285 161.458 170.987L162.146 166.57H144.682Z" fill="#FFA8A7"/>
<path d="M192.205 168.205C192.526 166.879 192.652 165.478 192.55 164.031C192.076 157.362 186.664 151.968 179.993 151.52C172.099 150.989 165.53 157.235 165.53 165.015C165.53 166.136 165.667 167.224 165.924 168.264C166.321 169.87 167.789 170.982 169.443 170.982H188.671C190.348 170.982 191.81 169.835 192.205 168.205Z" fill="#2D2A52"/>
<path d="M192.205 168.205C192.526 166.879 192.652 165.478 192.55 164.031C192.076 157.362 186.664 151.968 179.993 151.52C172.099 150.989 165.53 157.235 165.53 165.015C165.53 166.136 165.667 167.224 165.924 168.264C166.321 169.87 167.789 170.982 169.443 170.982H188.671C190.348 170.982 191.81 169.835 192.205 168.205Z" fill="#2D2A52"/>
<path d="M179.058 161.46C175.629 161.46 172.84 158.671 172.84 155.242V144.739C172.84 141.311 175.629 138.521 179.058 138.521C182.486 138.521 185.276 141.311 185.276 144.739V155.242C185.275 158.671 182.486 161.46 179.058 161.46ZM179.058 142.522C177.835 142.522 176.84 143.516 176.84 144.74V155.243C176.84 156.466 177.835 157.46 179.058 157.46C180.281 157.46 181.276 156.466 181.276 155.243V144.74C181.275 143.516 180.28 142.522 179.058 142.522Z" fill="#2D2A52"/>
<path d="M187.025 164.142C187.026 163.978 187.022 163.814 187.013 163.648C186.794 159.626 183.494 156.338 179.472 156.134C174.883 155.901 171.089 159.553 171.089 164.091C171.089 164.104 171.089 164.116 171.089 164.129C171.098 166.066 172.732 167.606 174.67 167.606H183.445C185.378 167.606 187.013 166.074 187.025 164.142Z" fill="#464180"/>
<path d="M22.9236 177.347H21.9688C21.1256 177.347 20.442 176.664 20.442 175.82V155.064C20.442 154.221 21.1256 153.538 21.9688 153.538H22.9236C24.404 153.538 25.6044 154.738 25.6044 156.218V174.666C25.6048 176.147 24.4044 177.347 22.9236 177.347Z" fill="#464180"/>
<path d="M27.4656 174.371H25.6048V156.514H27.4656C28.576 156.514 29.4764 157.414 29.4764 158.525V172.361C29.4764 173.471 28.576 174.371 27.4656 174.371Z" fill="#635CB5"/>
<path d="M51.4228 153.538H52.3776C53.2208 153.538 53.9044 154.222 53.9044 155.065V175.821C53.9044 176.664 53.2208 177.348 52.3776 177.348H51.4228C49.9424 177.348 48.742 176.147 48.742 174.667V156.219C48.742 154.738 49.9424 153.538 51.4228 153.538Z" fill="#464180"/>
<path d="M46.8812 156.514H48.742V174.371H46.8812C45.7708 174.371 44.8704 173.471 44.8704 172.36V158.524C44.8704 157.414 45.7708 156.514 46.8812 156.514Z" fill="#635CB5"/>
<path d="M44.8708 163.425H29.4764V168.247H44.8708V163.425Z" fill="#464180"/>
<path d="M158.589 77.5835H130.935C129.648 77.5835 128.605 76.5403 128.605 75.2535V70.0783C128.605 68.7915 129.648 67.7483 130.935 67.7483H158.589C159.876 67.7483 160.919 68.7915 160.919 70.0783V75.2535C160.92 76.5399 159.876 77.5835 158.589 77.5835Z" fill="#464180"/>
<path d="M137.078 83.9577C136.112 83.9577 135.256 83.7345 134.508 83.288C133.771 82.8415 133.19 82.1925 132.764 81.3411C132.348 80.4896 132.141 79.4616 132.141 78.2571C132.141 77.0527 132.348 76.0247 132.764 75.1732C133.19 74.3218 133.771 73.6728 134.508 73.2263C135.256 72.7798 136.112 72.5566 137.078 72.5566C138.044 72.5566 138.895 72.7798 139.632 73.2263C140.38 73.6728 140.962 74.3218 141.377 75.1732C141.803 76.0247 142.016 77.0527 142.016 78.2571C142.016 79.4616 141.803 80.4896 141.377 81.3411C140.962 82.1925 140.38 82.8415 139.632 83.288C138.895 83.7345 138.044 83.9577 137.078 83.9577ZM137.078 81.014C137.317 81.014 137.53 80.9309 137.717 80.7648C137.904 80.5986 138.049 80.3131 138.153 79.9081C138.267 79.5032 138.324 78.9528 138.324 78.2571C138.324 77.5511 138.267 77.0007 138.153 76.6062C138.049 76.2012 137.904 75.9157 137.717 75.7495C137.53 75.5834 137.317 75.5003 137.078 75.5003C136.839 75.5003 136.626 75.5834 136.44 75.7495C136.253 75.9157 136.102 76.2012 135.988 76.6062C135.884 77.0007 135.832 77.5511 135.832 78.2571C135.832 78.9528 135.884 79.5032 135.988 79.9081C136.102 80.3131 136.253 80.5986 136.44 80.7648C136.626 80.9309 136.839 81.014 137.078 81.014ZM147.862 83.9577C146.897 83.9577 146.04 83.7345 145.292 83.288C144.555 82.8415 143.974 82.1925 143.548 81.3411C143.133 80.4896 142.925 79.4616 142.925 78.2571C142.925 77.0527 143.133 76.0247 143.548 75.1732C143.974 74.3218 144.555 73.6728 145.292 73.2263C146.04 72.7798 146.897 72.5566 147.862 72.5566C148.828 72.5566 149.679 72.7798 150.417 73.2263C151.164 73.6728 151.746 74.3218 152.161 75.1732C152.587 76.0247 152.8 77.0527 152.8 78.2571C152.8 79.4616 152.587 80.4896 152.161 81.3411C151.746 82.1925 151.164 82.8415 150.417 83.288C149.679 83.7345 148.828 83.9577 147.862 83.9577ZM147.862 81.014C148.101 81.014 148.314 80.9309 148.501 80.7648C148.688 80.5986 148.833 80.3131 148.937 79.9081C149.051 79.5032 149.108 78.9528 149.108 78.2571C149.108 77.5511 149.051 77.0007 148.937 76.6062C148.833 76.2012 148.688 75.9157 148.501 75.7495C148.314 75.5834 148.101 75.5003 147.862 75.5003C147.623 75.5003 147.411 75.5834 147.224 75.7495C147.037 75.9157 146.886 76.2012 146.772 76.6062C146.668 77.0007 146.616 77.5511 146.616 78.2571C146.616 78.9528 146.668 79.5032 146.772 79.9081C146.886 80.3131 147.037 80.5986 147.224 80.7648C147.411 80.9309 147.623 81.014 147.862 81.014ZM155.397 83.8642C154.815 83.8642 154.327 83.6773 153.932 83.3035C153.538 82.9193 153.341 82.4313 153.341 81.8395C153.341 81.2372 153.538 80.7544 153.932 80.391C154.327 80.0275 154.815 79.8458 155.397 79.8458C155.978 79.8458 156.466 80.0275 156.861 80.391C157.255 80.7544 157.452 81.2372 157.452 81.8395C157.452 82.4313 157.255 82.9193 156.861 83.3035C156.466 83.6773 155.978 83.8642 155.397 83.8642ZM159.402 83.7085V74.083L160.975 75.5782H157.533V72.8058H163.078V83.7085H159.402ZM132.125 102.708V100.45L136.066 96.8055C136.315 96.5666 136.497 96.359 136.611 96.1824C136.735 96.0059 136.819 95.8502 136.86 95.7152C136.902 95.5698 136.922 95.4348 136.922 95.3102C136.922 95.0403 136.834 94.8326 136.658 94.6872C136.481 94.5315 136.216 94.4536 135.863 94.4536C135.541 94.4536 135.235 94.5418 134.944 94.7184C134.654 94.8845 134.425 95.1337 134.259 95.466L131.487 94.0798C131.881 93.3322 132.473 92.7247 133.262 92.2575C134.051 91.7902 135.033 91.5566 136.206 91.5566C137.068 91.5566 137.831 91.6968 138.495 91.9771C139.16 92.2575 139.679 92.652 140.053 93.1608C140.427 93.6696 140.614 94.2719 140.614 94.9676C140.614 95.3206 140.567 95.6737 140.474 96.0267C140.39 96.3797 140.214 96.7535 139.944 97.1481C139.674 97.5323 139.274 97.9632 138.745 98.4409L135.785 101.135L135.209 99.8582H140.863V102.708H132.125ZM143.685 102.864C143.103 102.864 142.615 102.677 142.221 102.304C141.826 101.919 141.629 101.431 141.629 100.839C141.629 100.237 141.826 99.7544 142.221 99.391C142.615 99.0275 143.103 98.8458 143.685 98.8458C144.266 98.8458 144.754 99.0275 145.149 99.391C145.543 99.7544 145.741 100.237 145.741 100.839C145.741 101.431 145.543 101.919 145.149 102.304C144.754 102.677 144.266 102.864 143.685 102.864ZM151.208 102.958C150.243 102.958 149.386 102.734 148.639 102.288C147.901 101.841 147.32 101.193 146.894 100.341C146.479 99.4896 146.271 98.4616 146.271 97.2571C146.271 96.0527 146.479 95.0247 146.894 94.1732C147.32 93.3218 147.901 92.6728 148.639 92.2263C149.386 91.7798 150.243 91.5566 151.208 91.5566C152.174 91.5566 153.026 91.7798 153.763 92.2263C154.51 92.6728 155.092 93.3218 155.507 94.1732C155.933 95.0247 156.146 96.0527 156.146 97.2571C156.146 98.4616 155.933 99.4896 155.507 100.341C155.092 101.193 154.51 101.841 153.763 102.288C153.026 102.734 152.174 102.958 151.208 102.958ZM151.208 100.014C151.447 100.014 151.66 99.9309 151.847 99.7648C152.034 99.5986 152.179 99.3131 152.283 98.9081C152.397 98.5032 152.454 97.9528 152.454 97.2571C152.454 96.5511 152.397 96.0007 152.283 95.6062C152.179 95.2012 152.034 94.9157 151.847 94.7495C151.66 94.5834 151.447 94.5003 151.208 94.5003C150.97 94.5003 150.757 94.5834 150.57 94.7495C150.383 94.9157 150.232 95.2012 150.118 95.6062C150.014 96.0007 149.962 96.5511 149.962 97.2571C149.962 97.9528 150.014 98.5032 150.118 98.9081C150.232 99.3131 150.383 99.5986 150.57 99.7648C150.757 99.9309 150.97 100.014 151.208 100.014ZM161.993 102.958C161.027 102.958 160.17 102.734 159.423 102.288C158.685 101.841 158.104 101.193 157.678 100.341C157.263 99.4896 157.055 98.4616 157.055 97.2571C157.055 96.0527 157.263 95.0247 157.678 94.1732C158.104 93.3218 158.685 92.6728 159.423 92.2263C160.17 91.7798 161.027 91.5566 161.993 91.5566C162.958 91.5566 163.81 91.7798 164.547 92.2263C165.295 92.6728 165.876 93.3218 166.291 94.1732C166.717 95.0247 166.93 96.0527 166.93 97.2571C166.93 98.4616 166.717 99.4896 166.291 100.341C165.876 101.193 165.295 101.841 164.547 102.288C163.81 102.734 162.958 102.958 161.993 102.958ZM161.993 100.014C162.231 100.014 162.444 99.9309 162.631 99.7648C162.818 99.5986 162.963 99.3131 163.067 98.9081C163.181 98.5032 163.239 97.9528 163.239 97.2571C163.239 96.5511 163.181 96.0007 163.067 95.6062C162.963 95.2012 162.818 94.9157 162.631 94.7495C162.444 94.5834 162.231 94.5003 161.993 94.5003C161.754 94.5003 161.541 94.5834 161.354 94.7495C161.167 94.9157 161.016 95.2012 160.902 95.6062C160.798 96.0007 160.747 96.5511 160.747 97.2571C160.747 97.9528 160.798 98.5032 160.902 98.9081C161.016 99.3131 161.167 99.5986 161.354 99.7648C161.541 99.9309 161.754 100.014 161.993 100.014Z" fill="white"/>
<path d="M150.198 86.4789H131.748C130.012 86.4789 128.604 85.0716 128.604 83.3352C128.604 81.5992 130.012 80.1917 131.748 80.1917H150.198C151.934 80.1917 153.341 81.5988 153.341 83.3352C153.341 85.0716 151.934 86.4789 150.198 86.4789Z" fill="#FFA8A7"/>
<path d="M128.605 83.3352V90.9236L133.238 84.9216L128.605 83.3352Z" fill="#FFA8A7"/>
<path d="M137.053 91.4272V82.8458H139.667V91.4272H137.053ZM140.825 91.4272V85.101H143.439V91.4272H140.825ZM142.132 84.5922C141.654 84.5922 141.272 84.4649 140.987 84.2105C140.702 83.9561 140.559 83.6399 140.559 83.2621C140.559 82.8843 140.702 82.5682 140.987 82.3138C141.272 82.0594 141.654 81.9321 142.132 81.9321C142.61 81.9321 142.992 82.0516 143.277 82.2907C143.562 82.5297 143.705 82.8381 143.705 83.2159C143.705 83.6168 143.562 83.9484 143.277 84.2105C142.992 84.4649 142.61 84.5922 142.132 84.5922ZM146.39 91.4272L143.846 85.101H146.529L148.46 90.236H147.107L149.166 85.101H151.641L149.096 91.4272H146.39ZM155.364 91.5429C154.593 91.5429 153.918 91.4003 153.34 91.115C152.769 90.8297 152.326 90.4403 152.01 89.9469C151.694 89.4457 151.536 88.8829 151.536 88.2584C151.536 87.6184 151.69 87.0517 151.998 86.5583C152.314 86.0648 152.742 85.6793 153.282 85.4017C153.829 85.1242 154.442 84.9854 155.121 84.9854C155.745 84.9854 156.32 85.1087 156.844 85.3555C157.376 85.6022 157.8 85.9684 158.116 86.4542C158.44 86.9399 158.602 87.5413 158.602 88.2584C158.602 88.3509 158.598 88.455 158.59 88.5706C158.583 88.6786 158.575 88.7788 158.567 88.8713H153.698V87.6107H157.18L156.196 87.9461C156.196 87.6994 156.15 87.4912 156.058 87.3216C155.973 87.1442 155.853 87.0093 155.699 86.9168C155.545 86.8165 155.36 86.7664 155.144 86.7664C154.928 86.7664 154.739 86.8165 154.577 86.9168C154.423 87.0093 154.304 87.1442 154.219 87.3216C154.134 87.4912 154.092 87.6994 154.092 87.9461V88.3393C154.092 88.6092 154.146 88.8405 154.253 89.0332C154.361 89.226 154.516 89.3725 154.716 89.4727C154.917 89.5652 155.159 89.6115 155.445 89.6115C155.738 89.6115 155.977 89.5729 156.162 89.4958C156.355 89.4187 156.555 89.3031 156.763 89.1489L158.128 90.5252C157.819 90.8567 157.438 91.1111 156.983 91.2885C156.536 91.4581 155.996 91.5429 155.364 91.5429Z" fill="white"/>
<path d="M128.605 99.59C128.605 100.102 129.02 100.518 129.532 100.518H134.926V98.6624H129.532C129.02 98.6624 128.605 99.0776 128.605 99.59Z" fill="#FFA8A7"/>
<path d="M143.754 98.6624H134.926V100.518H143.754C144.266 100.518 144.681 100.102 144.681 99.59C144.682 99.0776 144.266 98.6624 143.754 98.6624Z" fill="white"/>
<path d="M128.605 105.952C128.605 106.464 129.02 106.88 129.532 106.88H141.015V105.024H129.532C129.02 105.024 128.605 105.44 128.605 105.952Z" fill="white"/>
<path d="M143.754 105.024H141.015V106.879H143.754C144.266 106.879 144.681 106.464 144.681 105.952C144.682 105.44 144.266 105.024 143.754 105.024Z" fill="#FFA8A7"/>
<path d="M128.605 112.314C128.605 112.826 129.02 113.241 129.532 113.241H132.294V111.386H129.532C129.02 111.386 128.605 111.801 128.605 112.314Z" fill="white"/>
<path d="M143.754 111.386H132.294V113.241H143.754C144.266 113.241 144.681 112.826 144.681 112.314C144.682 111.801 144.266 111.386 143.754 111.386Z" fill="#FFA8A7"/>
<path d="M152.904 57.5001C153.259 56.8733 153.422 56.1233 153.302 55.3277C153.089 53.9225 151.974 52.7769 150.574 52.5353C149.452 52.3417 148.415 52.7081 147.682 53.3953C147 52.7561 146.055 52.3949 145.024 52.5025C143.482 52.6641 142.222 53.9085 142.045 55.4493C141.892 56.7873 142.526 57.9893 143.542 58.6569L147.16 62.5637C147.457 62.8837 147.963 62.8837 148.259 62.5637L151.986 58.5393C152.317 58.2925 152.6 57.9877 152.821 57.6385L152.948 57.5005H152.904V57.5001Z" fill="#FFA8A7"/>
<path d="M148.172 56.6085C148.94 56.6085 149.611 56.7582 150.187 57.0577C150.771 57.3495 151.224 57.7873 151.547 58.3709C151.877 58.9545 152.042 59.6879 152.042 60.571C152.042 61.5155 151.854 62.3218 151.478 62.9899C151.101 63.6503 150.579 64.1571 149.911 64.5104C149.243 64.8636 148.463 65.0403 147.573 65.0403C147.097 65.0403 146.636 64.9827 146.19 64.8675C145.753 64.76 145.38 64.6064 145.073 64.4067L146.052 62.5061C146.29 62.6751 146.528 62.7903 146.766 62.8517C147.012 62.9054 147.262 62.9323 147.515 62.9323C148.06 62.9323 148.494 62.7711 148.817 62.4485C149.147 62.1183 149.312 61.6422 149.312 61.0202C149.312 60.905 149.312 60.7937 149.312 60.6862C149.312 60.571 149.312 60.4558 149.312 60.3406L149.934 60.7898C149.788 61.0509 149.608 61.2736 149.393 61.4579C149.185 61.6345 148.94 61.7728 148.655 61.8726C148.371 61.9647 148.041 62.0108 147.665 62.0108C147.173 62.0108 146.716 61.9071 146.294 61.6998C145.879 61.4848 145.542 61.1853 145.28 60.8013C145.027 60.4097 144.9 59.9528 144.9 59.4306C144.9 58.8547 145.046 58.3555 145.338 57.9332C145.63 57.5108 146.021 57.1844 146.513 56.9541C147.012 56.7237 147.565 56.6085 148.172 56.6085ZM148.356 58.4861C148.195 58.4861 148.053 58.5206 147.93 58.5897C147.807 58.6512 147.707 58.7433 147.63 58.8662C147.561 58.989 147.527 59.135 147.527 59.3039C147.527 59.5573 147.603 59.7608 147.757 59.9144C147.918 60.0603 148.118 60.1332 148.356 60.1332C148.517 60.1332 148.659 60.0987 148.782 60.0296C148.913 59.9605 149.013 59.8645 149.082 59.7416C149.151 59.6187 149.185 59.4728 149.185 59.3039C149.185 59.135 149.151 58.989 149.082 58.8662C149.013 58.7433 148.913 58.6512 148.782 58.5897C148.659 58.5206 148.517 58.4861 148.356 58.4861ZM156.363 65.0403C155.649 65.0403 155.015 64.8752 154.462 64.5449C153.917 64.2147 153.487 63.7348 153.172 63.1051C152.865 62.4754 152.712 61.7152 152.712 60.8244C152.712 59.9336 152.865 59.1733 153.172 58.5437C153.487 57.914 153.917 57.434 154.462 57.1038C155.015 56.7736 155.649 56.6085 156.363 56.6085C157.077 56.6085 157.707 56.7736 158.252 57.1038C158.805 57.434 159.235 57.914 159.542 58.5437C159.857 59.1733 160.015 59.9336 160.015 60.8244C160.015 61.7152 159.857 62.4754 159.542 63.1051C159.235 63.7348 158.805 64.2147 158.252 64.5449C157.707 64.8752 157.077 65.0403 156.363 65.0403ZM156.363 62.8632C156.54 62.8632 156.697 62.8018 156.835 62.6789C156.974 62.556 157.081 62.3449 157.158 62.0454C157.242 61.7459 157.285 61.3389 157.285 60.8244C157.285 60.3022 157.242 59.8952 157.158 59.6034C157.081 59.3039 156.974 59.0927 156.835 58.9698C156.697 58.847 156.54 58.7855 156.363 58.7855C156.186 58.7855 156.029 58.847 155.891 58.9698C155.753 59.0927 155.641 59.3039 155.557 59.6034C155.48 59.8952 155.442 60.3022 155.442 60.8244C155.442 61.3389 155.48 61.7459 155.557 62.0454C155.641 62.3449 155.753 62.556 155.891 62.6789C156.029 62.8018 156.186 62.8632 156.363 62.8632Z" fill="white"/>
<path d="M172.772 114.586C178.994 114.586 184.038 109.542 184.038 103.32C184.038 97.0974 178.994 92.0532 172.772 92.0532C166.55 92.0532 161.506 97.0974 161.506 103.32C161.506 109.542 166.55 114.586 172.772 114.586Z" fill="#464180"/>
<path d="M172.772 112.787C178.001 112.787 182.24 108.548 182.24 103.32C182.24 98.0908 178.001 93.8521 172.772 93.8521C167.543 93.8521 163.304 98.0908 163.304 103.32C163.304 108.548 167.543 112.787 172.772 112.787Z" fill="white"/>
<path d="M175.39 89.4953H170.154C169.735 89.4953 169.392 89.1521 169.392 88.7329C169.392 88.3137 169.735 87.9705 170.154 87.9705H175.39C175.809 87.9705 176.152 88.3137 176.152 88.7329C176.152 89.1521 175.809 89.4953 175.39 89.4953Z" fill="#464180"/>
<path d="M172.772 93.2057C172.255 93.2057 171.832 92.7825 171.832 92.2653V89.3681C171.832 88.8509 172.255 88.4277 172.772 88.4277C173.289 88.4277 173.712 88.8509 173.712 89.3681V92.2653C173.712 92.7825 173.289 93.2057 172.772 93.2057Z" fill="#464180"/>
<path d="M172.772 104.744C172.512 104.744 172.302 104.534 172.302 104.274V96.3701C172.302 96.1105 172.512 95.9001 172.772 95.9001C173.032 95.9001 173.242 96.1105 173.242 96.3701V104.274C173.242 104.534 173.032 104.744 172.772 104.744Z" fill="#464180"/>
<path d="M177.838 104.274C177.838 104.014 177.628 103.804 177.368 103.804H172.772C172.512 103.804 172.302 104.014 172.302 104.274C172.302 104.534 172.512 104.744 172.772 104.744H177.368C177.628 104.744 177.838 104.534 177.838 104.274Z" fill="#464180"/>
<path d="M71.0692 85.0535H42.2752C40.8592 85.0535 40.4096 83.1279 41.6872 82.5175C42.858 81.9579 44.47 81.5443 46.6564 81.6035C52.8432 81.7707 51.6728 78.6775 55.7692 77.0887C59.866 75.5003 62.0396 77.0887 64.1296 80.0147C66.22 82.9407 70.3168 81.0627 71.0692 85.0535Z" fill="white"/>
<path d="M11.9344 68.9787H61.756C62.6832 68.9787 63.33 68.0591 63.0124 67.1883C61.9244 64.2051 58.9188 58.5711 51.7996 58.8727C44.8188 59.1687 43.7304 62.6667 40.3024 58.1731C36.8744 53.6795 30.27 54.5987 24.8356 60.2839C19.4012 65.9691 18.816 63.3291 14.9704 63.4787C12.6324 63.5695 11.3448 65.5831 10.6948 67.1475C10.332 68.0199 10.9896 68.9787 11.9344 68.9787Z" fill="white"/>
<path d="M177.551 70.9536H165.99C165.437 70.9536 164.989 70.5052 164.989 69.9524C164.989 69.3992 165.438 68.9512 165.99 68.9512H177.551C178.104 68.9512 178.552 69.3996 178.552 69.9524C178.552 70.5052 178.104 70.9536 177.551 70.9536Z" fill="white"/>
<path d="M52.978 89.0729H37.8472C37.2928 89.0729 36.8436 88.6237 36.8436 88.0693C36.8436 87.5149 37.2928 87.0657 37.8472 87.0657H52.978C53.5324 87.0657 53.9816 87.5149 53.9816 88.0693C53.9816 88.6233 53.5324 89.0729 52.978 89.0729Z" fill="white"/>
<path d="M64.8216 72.9352H49.1776C48.5528 72.9352 48.0468 72.4288 48.0468 71.8044C48.0468 71.1796 48.5532 70.6736 49.1776 70.6736H64.8216C65.4464 70.6736 65.9524 71.18 65.9524 71.8044C65.9524 72.4288 65.446 72.9352 64.8216 72.9352Z" fill="white"/>
</g>
<defs>
<clipPath id="clip0_69_6401">
<rect width="200" height="200" fill="white"/>
</clipPath>
</defs>
</svg>
