<svg width="200" height="200" viewBox="0 0 200 200" fill="none" xmlns="http://www.w3.org/2000/svg">
<path d="M200 152.959H0V153.059H200V152.959Z" fill="#EBEBEB"/>
<path d="M179.96 159.397H166.712V159.497H179.96V159.397Z" fill="#EBEBEB"/>
<path d="M132.488 160.483H129.011V160.583H132.488V160.483Z" fill="#EBEBEB"/>
<path d="M166.311 155.683H158.634V155.783H166.311V155.683Z" fill="#EBEBEB"/>
<path d="M38.2608 156.355H20.9836V156.455H38.2608V156.355Z" fill="#EBEBEB"/>
<path d="M44.3556 156.355H41.8224V156.455H44.3556V156.355Z" fill="#EBEBEB"/>
<path d="M90.0588 158.044H52.5884V158.144H90.0588V158.044Z" fill="#EBEBEB"/>
<path d="M94.8056 135.12H17.566C16.3072 135.12 15.2828 134.096 15.2828 132.837V24.2639C15.2828 23.0051 16.3072 21.9807 17.566 21.9807H94.8056C96.064 21.9807 97.0884 23.0051 97.0884 24.2639V132.837C97.0884 134.096 96.064 135.12 94.8056 135.12ZM17.566 22.0811C16.362 22.0811 15.3828 23.0603 15.3828 24.2643V132.837C15.3828 134.041 16.362 135.02 17.566 135.02H94.8056C96.0092 135.02 96.9884 134.041 96.9884 132.837V24.2639C96.9884 23.0603 96.0092 22.0807 94.8056 22.0807L17.566 22.0811Z" fill="#EBEBEB"/>
<path d="M181.324 135.12H104.085C102.826 135.12 101.802 134.096 101.802 132.837V24.2639C101.802 23.0051 102.826 21.9807 104.085 21.9807H181.324C182.583 21.9807 183.607 23.0051 183.607 24.2639V132.837C183.608 134.096 182.583 135.12 181.324 135.12ZM104.085 22.0811C102.881 22.0811 101.902 23.0603 101.902 24.2643V132.837C101.902 134.041 102.881 135.02 104.085 135.02H181.324C182.528 135.02 183.507 134.041 183.507 132.837V24.2639C183.507 23.0603 182.528 22.0807 181.324 22.0807L104.085 22.0811Z" fill="#EBEBEB"/>
<path d="M65.1364 90.0974H56.2176V93.8918H65.1364V90.0974Z" fill="#FAFAFA"/>
<path d="M75.9296 90.0974H67.0104V93.8918H75.9296V90.0974Z" fill="#FAFAFA"/>
<path d="M86.722 90.0974H77.8032V93.8918H86.722V90.0974Z" fill="#FAFAFA"/>
<path d="M59.7408 95.3801H50.8216V99.1745H59.7408V95.3801Z" fill="#FAFAFA"/>
<path d="M70.5328 95.3801H61.614V99.1745H70.5328V95.3801Z" fill="#FAFAFA"/>
<path d="M81.3256 95.3801H72.4068V99.1745H81.3256V95.3801Z" fill="#FAFAFA"/>
<path d="M92.1184 95.3801H83.1992V99.1745H92.1184V95.3801Z" fill="#FAFAFA"/>
<path d="M42.3432 100.663H33.4244V104.457H42.3432V100.663Z" fill="#FAFAFA"/>
<path d="M53.1364 100.663H44.2172V104.457H53.1364V100.663Z" fill="#FAFAFA"/>
<path d="M75.9296 100.663H67.0104V104.457H75.9296V100.663Z" fill="#FAFAFA"/>
<path d="M86.722 100.663H77.8032V104.457H86.722V100.663Z" fill="#FAFAFA"/>
<path d="M97.5144 100.663H88.5956V104.457H97.5144V100.663Z" fill="#FAFAFA"/>
<path d="M47.7396 105.945H38.8208V109.74H47.7396V105.945Z" fill="#FAFAFA"/>
<path d="M70.5328 105.945H61.614V109.74H70.5328V105.945Z" fill="#FAFAFA"/>
<path d="M81.3256 105.945H72.4068V109.74H81.3256V105.945Z" fill="#FAFAFA"/>
<path d="M92.1184 105.945H83.1992V109.74H92.1184V105.945Z" fill="#FAFAFA"/>
<path d="M134.216 36.2766H125.297V40.071H134.216V36.2766Z" fill="#FAFAFA"/>
<path d="M145.009 36.2766H136.09V40.071H145.009V36.2766Z" fill="#FAFAFA"/>
<path d="M128.82 41.5591H119.901V45.3535H128.82V41.5591Z" fill="#FAFAFA"/>
<path d="M139.612 41.5591H130.694V45.3535H139.612V41.5591Z" fill="#FAFAFA"/>
<path d="M161.198 41.5591H152.279V45.3535H161.198V41.5591Z" fill="#FAFAFA"/>
<path d="M171.99 41.5591H163.071V45.3535H171.99V41.5591Z" fill="#FAFAFA"/>
<path d="M145.009 46.8418H136.09V50.6362H145.009V46.8418Z" fill="#FAFAFA"/>
<path d="M46.7632 67.197H37.844V70.9914H46.7632V67.197Z" fill="#FAFAFA"/>
<path d="M65.5564 67.197H56.6372V70.9914H65.5564V67.197Z" fill="#FAFAFA"/>
<path d="M41.3668 72.4795H32.448V76.2739H41.3668V72.4795Z" fill="#FAFAFA"/>
<path d="M52.1592 72.4795H43.2404V76.2739H52.1592V72.4795Z" fill="#FAFAFA"/>
<path d="M144.247 61.8657H135.328V65.6601H144.247V61.8657Z" fill="#FAFAFA"/>
<path d="M167.043 61.8657H158.124V65.6601H167.043V61.8657Z" fill="#FAFAFA"/>
<path d="M138.851 67.1487H129.932V70.9431H138.851V67.1487Z" fill="#FAFAFA"/>
<path d="M153.646 67.1487H144.727V70.9431H153.646V67.1487Z" fill="#FAFAFA"/>
<path d="M46.7632 77.7622H37.844V81.5566H46.7632V77.7622Z" fill="#FAFAFA"/>
<path d="M65.5564 77.7622H56.6372V81.5566H65.5564V77.7622Z" fill="#FAFAFA"/>
<path d="M166.594 46.8418H157.675V50.6362H166.594V46.8418Z" fill="#FAFAFA"/>
<path d="M40.226 36.4189H31.3072V40.2133H40.226V36.4189Z" fill="#FAFAFA"/>
<path d="M51.0184 36.4189H42.0996V40.2133H51.0184V36.4189Z" fill="#FAFAFA"/>
<path d="M45.622 41.7014H36.7032V45.4958H45.622V41.7014Z" fill="#FAFAFA"/>
<path d="M88.5736 36.5027H79.6544V40.2971H88.5736V36.5027Z" fill="#FAFAFA"/>
<path d="M99.366 36.5027H90.4472V40.2971H99.366V36.5027Z" fill="#FAFAFA"/>
<path d="M83.1772 41.7854H74.258V45.5798H83.1772V41.7854Z" fill="#FAFAFA"/>
<path d="M93.9696 41.7854H85.0508V45.5798H93.9696V41.7854Z" fill="#FAFAFA"/>
<path d="M104.762 41.7854H95.8436V45.5798H104.762V41.7854Z" fill="#FAFAFA"/>
<path d="M77.7808 47.0681H68.862V50.8625H77.7808V47.0681Z" fill="#FAFAFA"/>
<path d="M88.5736 47.0681H79.6544V50.8625H88.5736V47.0681Z" fill="#FAFAFA"/>
<path d="M99.366 47.0681H90.4472V50.8625H99.366V47.0681Z" fill="#FAFAFA"/>
<path d="M83.1772 52.3506H74.258V56.145H83.1772V52.3506Z" fill="#FAFAFA"/>
<path d="M93.9696 52.3506H85.0508V56.145H93.9696V52.3506Z" fill="#FAFAFA"/>
<path d="M155.719 88.6626H146.8V92.457H155.719V88.6626Z" fill="#FAFAFA"/>
<path d="M166.512 88.6626H157.593V92.457H166.512V88.6626Z" fill="#FAFAFA"/>
<path d="M124.735 89.145H115.816V92.9394H124.735V89.145Z" fill="#FAFAFA"/>
<path d="M150.322 93.9451H141.404V97.7395H150.322V93.9451Z" fill="#FAFAFA"/>
<path d="M161.115 93.9451H152.196V97.7395H161.115V93.9451Z" fill="#FAFAFA"/>
<path d="M119.338 94.4275H110.42V98.2219H119.338V94.4275Z" fill="#FAFAFA"/>
<path d="M130.131 94.4275H121.212V98.2219H130.131V94.4275Z" fill="#FAFAFA"/>
<path d="M101.492 77.3486H92.5728V81.143H101.492V77.3486Z" fill="#FAFAFA"/>
<path d="M157.45 74.8337H148.53V78.6281H157.45V74.8337Z" fill="#FAFAFA"/>
<path d="M113.656 58.6143H104.737V62.4087H113.656V58.6143Z" fill="#FAFAFA"/>
<path d="M106.888 72.0659H97.9692V75.8603H106.888V72.0659Z" fill="#FAFAFA"/>
<path d="M96.0952 72.0659H87.1764V75.8603H96.0952V72.0659Z" fill="#FAFAFA"/>
<path d="M55.5796 144.185H46.6604V147.979H55.5796V144.185Z" fill="#FAFAFA"/>
<path d="M50.1832 138.902H41.2644V142.697H50.1832V138.902Z" fill="#FAFAFA"/>
<path d="M155.719 99.2278H146.8V103.022H155.719V99.2278Z" fill="#FAFAFA"/>
<path d="M166.512 99.2278H157.593V103.022H166.512V99.2278Z" fill="#FAFAFA"/>
<path d="M150.322 104.51H141.404V108.305H150.322V104.51Z" fill="#FAFAFA"/>
<path d="M161.115 104.51H152.196V108.305H161.115V104.51Z" fill="#FAFAFA"/>
<path d="M138.782 119.124H129.863V122.919H138.782V119.124Z" fill="#FAFAFA"/>
<path d="M149.574 119.124H140.656V122.919H149.574V119.124Z" fill="#FAFAFA"/>
<path d="M160.367 119.124H151.448V122.919H160.367V119.124Z" fill="#FAFAFA"/>
<path d="M171.16 119.124H162.241V122.919H171.16V119.124Z" fill="#FAFAFA"/>
<path d="M133.386 124.406H124.467V128.201H133.386V124.406Z" fill="#FAFAFA"/>
<path d="M144.178 124.406H135.259V128.201H144.178V124.406Z" fill="#FAFAFA"/>
<path d="M165.764 124.406H156.845V128.201H165.764V124.406Z" fill="#FAFAFA"/>
<path d="M127.989 129.689H119.07V133.484H127.989V129.689Z" fill="#FAFAFA"/>
<path d="M138.782 129.689H129.863V133.484H138.782V129.689Z" fill="#FAFAFA"/>
<path d="M149.574 129.689H140.656V133.484H149.574V129.689Z" fill="#FAFAFA"/>
<path d="M133.386 134.972H124.467V138.766H133.386V134.972Z" fill="#FAFAFA"/>
<path d="M144.178 134.972H135.259V138.766H144.178V134.972Z" fill="#FAFAFA"/>
<path d="M154.971 134.972H146.052V138.766H154.971V134.972Z" fill="#FAFAFA"/>
<path d="M65.7672 118.88H56.8484V122.675H65.7672V118.88Z" fill="#FAFAFA"/>
<path d="M88.5608 118.88H79.642V122.675H88.5608V118.88Z" fill="#FAFAFA"/>
<path d="M99.3532 118.88H90.4344V122.675H99.3532V118.88Z" fill="#FAFAFA"/>
<path d="M60.3712 124.163H51.452V127.957H60.3712V124.163Z" fill="#FAFAFA"/>
<path d="M83.1644 124.163H74.2456V127.957H83.1644V124.163Z" fill="#FAFAFA"/>
<path d="M93.9572 124.163H85.038V127.957H93.9572V124.163Z" fill="#FAFAFA"/>
<path d="M104.75 124.163H95.8308V127.957H104.75V124.163Z" fill="#FAFAFA"/>
<path d="M54.9748 129.445H46.056V133.24H54.9748V129.445Z" fill="#FAFAFA"/>
<path d="M65.7672 129.445H56.8484V133.24H65.7672V129.445Z" fill="#FAFAFA"/>
<path d="M88.5608 129.445H79.642V133.24H88.5608V129.445Z" fill="#FAFAFA"/>
<path d="M99.3532 129.445H90.4344V133.24H99.3532V129.445Z" fill="#FAFAFA"/>
<path d="M72.372 134.728H63.4528V138.522H72.372V134.728Z" fill="#FAFAFA"/>
<path d="M83.1644 134.728H74.2456V138.522H83.1644V134.728Z" fill="#FAFAFA"/>
<path d="M93.9572 134.728H85.038V138.522H93.9572V134.728Z" fill="#FAFAFA"/>
<path d="M104.75 134.728H95.8308V138.522H104.75V134.728Z" fill="#FAFAFA"/>
<path d="M78.2104 57.1367H39.6836V101.207H78.2104V57.1367Z" fill="#E0E0E0"/>
<path d="M78.1384 57.1367H41.0932V101.207H78.1384V57.1367Z" fill="#E0E0E0"/>
<path d="M79.4112 57.1367H40.8844V101.207H79.4112V57.1367Z" fill="#F0F0F0"/>
<path d="M77.6624 58.5422H42.5664V99.1818H77.6624V58.5422Z" fill="white"/>
<path d="M77.6628 58.5422H76.5668V99.1818H77.6628V58.5422Z" fill="#E0E0E0"/>
<path d="M42.4694 87.7663V88.8623H76.6838V87.7663H42.4694Z" fill="#E0E0E0"/>
<path d="M77.6628 85.9268H41.9788V87.7668H77.6628V85.9268Z" fill="#F0F0F0"/>
<path d="M159.462 57.1367H120.935V101.207H159.462V57.1367Z" fill="#E0E0E0"/>
<path d="M159.39 57.1367H122.344V101.207H159.39V57.1367Z" fill="#E0E0E0"/>
<path d="M160.662 57.1367H122.136V101.207H160.662V57.1367Z" fill="#F0F0F0"/>
<path d="M158.914 58.5422H123.818V99.1818H158.914V58.5422Z" fill="white"/>
<path d="M158.914 58.5422H157.818V99.1818H158.914V58.5422Z" fill="#E0E0E0"/>
<path d="M123.72 87.7663V88.8623H157.935V87.7663H123.72Z" fill="#E0E0E0"/>
<path d="M158.914 85.9268H123.23V87.7668H158.914V85.9268Z" fill="#F0F0F0"/>
<path d="M100 171.024C142.833 171.024 177.556 168.997 177.556 166.495C177.556 163.994 142.833 161.966 100 161.966C57.1672 161.966 22.4444 163.994 22.4444 166.495C22.4444 168.997 57.1672 171.024 100 171.024Z" fill="#F5F5F5"/>
<path d="M35.1936 117.29V119.128H37.6204V117.29H37.588C37.2368 117.29 36.924 117.069 36.8072 116.738C36.7472 116.568 36.5868 116.455 36.4072 116.455C36.2272 116.455 36.0668 116.568 36.0068 116.738C35.89 117.069 35.5772 117.29 35.226 117.29H35.1936ZM36.1396 116.942C36.1396 116.794 36.2592 116.675 36.4068 116.675C36.5544 116.675 36.674 116.794 36.674 116.942C36.674 117.09 36.5544 117.209 36.4068 117.209C36.2592 117.209 36.1396 117.09 36.1396 116.942Z" fill="#263238"/>
<path d="M34.1772 122.718V119.585C34.1772 119.239 34.4572 118.959 34.8028 118.959H38.0108C38.3564 118.959 38.6364 119.239 38.6364 119.585V122.718C38.6364 122.895 38.4928 123.038 38.316 123.038H34.4976C34.3208 123.038 34.1772 122.895 34.1772 122.718Z" fill="#000F83"/>
<path d="M38.6364 124.466V131.58C38.6364 131.925 38.3564 132.205 38.0108 132.205H34.8028C34.4572 132.205 34.1772 131.925 34.1772 131.58V124.466C34.1772 124.29 34.3208 124.146 34.4976 124.146H38.316C38.4932 124.146 38.6364 124.29 38.6364 124.466Z" fill="#000F83"/>
<path d="M34.5475 124.476H38.2663V122.564H34.5475V124.476Z" fill="#000F83"/>
<path d="M40.938 127.948H54.9468C55.8928 127.948 56.6596 128.715 56.6596 129.661V130.429C56.6596 131.375 55.8928 132.142 54.9468 132.142H37.9864C37.0404 132.142 36.2736 131.375 36.2736 130.429C36.2736 129.483 37.0404 128.716 37.9864 128.716H40.6872V128.198C40.6872 128.06 40.7996 127.948 40.938 127.948Z" fill="#000F83"/>
<path opacity="0.7" d="M40.938 127.948H54.9468C55.8928 127.948 56.6596 128.715 56.6596 129.661V130.429C56.6596 131.375 55.8928 132.142 54.9468 132.142H37.9864C37.0404 132.142 36.2736 131.375 36.2736 130.429C36.2736 129.483 37.0404 128.716 37.9864 128.716H40.6872V128.198C40.6872 128.06 40.7996 127.948 40.938 127.948Z" fill="white"/>
<path opacity="0.5" d="M51.738 127.948H54.9468C55.8928 127.948 56.6596 128.715 56.6596 129.661V130.429C56.6596 131.375 55.8928 132.142 54.9468 132.142H48.7864C47.8404 132.142 47.0736 131.375 47.0736 130.429C47.0736 129.483 47.8404 128.716 48.7864 128.716H51.4872V128.198C51.4872 128.06 51.5996 127.948 51.738 127.948Z" fill="white"/>
<path opacity="0.2" d="M51.4872 128.716L53.3172 128.663L54.232 128.641C54.386 128.638 54.532 128.629 54.698 128.637C54.8596 128.652 55.0192 128.691 55.1692 128.756C55.7784 129.012 56.1548 129.718 56.03 130.378C55.9256 131.041 55.3268 131.594 54.6416 131.631C53.4032 131.664 52.1964 131.653 50.9724 131.664L49.1424 131.673C48.9888 131.67 48.8468 131.686 48.6548 131.659C48.4756 131.63 48.3016 131.562 48.1536 131.457C47.8548 131.25 47.6556 130.902 47.6376 130.536C47.614 130.172 47.7708 129.8 48.046 129.563C48.182 129.442 48.3452 129.352 48.5212 129.305C48.698 129.253 48.8872 129.26 49.0276 129.261L50.8576 129.27C52.0776 129.28 53.2976 129.274 54.5176 129.298C54.6836 129.284 54.92 129.364 55.0384 129.522C55.168 129.678 55.2092 129.897 55.1484 130.087C55.0892 130.278 54.9312 130.432 54.7404 130.484C54.6424 130.512 54.5436 130.506 54.476 130.505L54.2472 130.501L52.4172 130.473C51.1972 130.44 49.9772 130.42 48.7572 130.375C49.9772 130.33 51.1972 130.31 52.4172 130.277L54.2472 130.248C54.3888 130.241 54.5804 130.256 54.6652 130.228C54.7688 130.196 54.8524 130.108 54.88 130.006C54.9408 129.792 54.7632 129.57 54.5172 129.606C53.2972 129.63 52.0772 129.624 50.8572 129.634L49.0272 129.643C48.8636 129.643 48.7432 129.641 48.626 129.677C48.5072 129.71 48.3972 129.772 48.306 129.855C48.12 130.019 48.0196 130.268 48.0364 130.513C48.0452 130.759 48.1768 130.994 48.3784 131.138C48.478 131.211 48.5956 131.257 48.7168 131.278C48.8268 131.297 48.9916 131.289 49.1424 131.292L50.9724 131.301L54.6232 131.325C55.1708 131.314 55.6788 130.881 55.7828 130.332C55.904 129.785 55.6076 129.176 55.0872 128.934C54.96 128.871 54.8224 128.829 54.6808 128.809C54.5424 128.795 54.3828 128.796 54.232 128.791L53.3172 128.769L51.4872 128.716Z" fill="black"/>
<path opacity="0.2" d="M40.6872 128.716H51.4872L40.6872 128.317V128.716Z" fill="black"/>
<path d="M56.744 132.044V165.356H54.728V135.912H33.392V165.356H31.376V132.044H56.744Z" fill="#263238"/>
<path opacity="0.5" d="M56.744 132.044V165.356H54.728V135.912H33.392V165.356H31.376V132.044H56.744Z" fill="white"/>
<path d="M62.3476 132.044V165.356H60.3316V135.912H38.9956V165.356H36.9796V132.044H62.3476Z" fill="#263238"/>
<path opacity="0.7" d="M62.3476 132.044V165.356H60.3316V135.912H38.9956V165.356H36.9796V132.044H62.3476Z" fill="white"/>
<path d="M156.438 117.793C157.529 118.495 157.476 134.571 157.16 134.671C156.844 134.771 156.685 133.845 155.841 134.214C154.997 134.583 154.734 133.951 152.729 133.951C150.725 133.951 150.936 135.48 150.725 133.951C150.514 132.421 150.725 118.445 150.725 118.445L156.438 117.793Z" fill="#000F83"/>
<path opacity="0.3" d="M156.438 117.793C157.529 118.495 157.476 134.571 157.16 134.671C156.844 134.771 156.685 133.845 155.841 134.214C154.997 134.583 154.734 133.951 152.729 133.951C150.725 133.951 150.936 135.48 150.725 133.951C150.514 132.421 150.725 118.445 150.725 118.445L156.438 117.793Z" fill="white"/>
<path d="M140.872 124.905C140.476 124.905 140.449 124.905 140.053 124.905C137.46 124.905 135.358 127.562 135.358 130.838C135.358 134.115 137.46 136.772 140.053 136.772C140.449 136.772 140.476 136.772 140.872 136.772C143.465 136.772 145.567 134.115 145.567 130.838C145.567 127.562 143.465 124.905 140.872 124.905Z" fill="#263238"/>
<path opacity="0.2" d="M145.567 130.838C145.567 134.115 143.465 136.772 140.872 136.772C138.28 136.772 136.178 134.115 136.178 130.838C136.178 127.562 138.28 124.905 140.872 124.905C143.465 124.905 145.567 127.562 145.567 130.838Z" fill="white"/>
<path d="M141.652 126.443C141.359 126.443 141.339 126.443 141.045 126.443C139.125 126.443 137.568 128.411 137.568 130.839C137.568 133.266 139.125 135.234 141.045 135.234C141.339 135.234 141.359 135.234 141.652 135.234C143.573 135.234 145.13 133.266 145.13 130.839C145.13 128.411 143.573 126.443 141.652 126.443Z" fill="#263238"/>
<path opacity="0.1" d="M145.13 130.839C145.13 133.266 143.573 135.234 141.652 135.234C139.732 135.234 138.175 133.266 138.175 130.839C138.175 128.411 139.732 126.443 141.652 126.443C143.573 126.443 145.13 128.411 145.13 130.839Z" fill="white"/>
<path d="M142.432 129.491C142.342 129.491 142.336 129.491 142.246 129.491C141.657 129.491 141.18 130.094 141.18 130.839C141.18 131.583 141.657 132.186 142.246 132.186C142.336 132.186 142.342 132.186 142.432 132.186C143.021 132.186 143.498 131.583 143.498 130.839C143.498 130.095 143.021 129.491 142.432 129.491Z" fill="#263238"/>
<path opacity="0.2" d="M143.498 130.839C143.498 131.583 143.021 132.186 142.432 132.186C141.843 132.186 141.366 131.583 141.366 130.839C141.366 130.095 141.843 129.491 142.432 129.491C143.021 129.491 143.498 130.095 143.498 130.839Z" fill="white"/>
<path d="M141.36 114.006C141.062 114.006 141.042 114.006 140.745 114.006C138.8 114.006 137.224 115.999 137.224 118.456C137.224 120.914 138.8 122.906 140.745 122.906C141.042 122.906 141.062 122.906 141.36 122.906C143.304 122.906 144.88 120.914 144.88 118.456C144.88 115.998 143.304 114.006 141.36 114.006Z" fill="#263238"/>
<path opacity="0.2" d="M144.88 118.456C144.88 120.914 143.304 122.906 141.36 122.906C139.415 122.906 137.839 120.914 137.839 118.456C137.839 115.999 139.415 114.006 141.36 114.006C143.304 114.007 144.88 115.999 144.88 118.456Z" fill="white"/>
<path d="M141.945 115.16C141.725 115.16 141.71 115.16 141.49 115.16C140.049 115.16 138.881 116.636 138.881 118.456C138.881 120.276 140.049 121.752 141.49 121.752C141.71 121.752 141.725 121.752 141.945 121.752C143.385 121.752 144.553 120.276 144.553 118.456C144.553 116.636 143.385 115.16 141.945 115.16Z" fill="#263238"/>
<path opacity="0.1" d="M144.553 118.456C144.553 120.276 143.385 121.752 141.944 121.752C140.504 121.752 139.336 120.276 139.336 118.456C139.336 116.636 140.504 115.16 141.944 115.16C143.385 115.16 144.553 116.636 144.553 118.456Z" fill="white"/>
<path d="M142.529 117.446C142.462 117.446 142.457 117.446 142.39 117.446C141.948 117.446 141.59 117.898 141.59 118.456C141.59 119.014 141.948 119.467 142.39 119.467C142.457 119.467 142.462 119.467 142.529 119.467C142.971 119.467 143.329 119.014 143.329 118.456C143.329 117.898 142.971 117.446 142.529 117.446Z" fill="#263238"/>
<path opacity="0.2" d="M143.329 118.456C143.329 119.014 142.971 119.467 142.529 119.467C142.088 119.467 141.73 119.014 141.73 118.456C141.73 117.898 142.088 117.446 142.529 117.446C142.971 117.446 143.329 117.898 143.329 118.456Z" fill="white"/>
<path d="M140.66 138.46C140.184 138.46 140.152 138.46 139.676 138.46C136.565 138.46 134.042 141.647 134.042 145.579C134.042 149.511 136.565 152.699 139.676 152.699C140.152 152.699 140.184 152.699 140.66 152.699C143.771 152.699 146.293 149.511 146.293 145.579C146.293 141.647 143.771 138.46 140.66 138.46Z" fill="#263238"/>
<path opacity="0.2" d="M140.66 152.699C143.771 152.699 146.293 149.511 146.293 145.579C146.293 141.647 143.771 138.46 140.66 138.46C137.548 138.46 135.026 141.647 135.026 145.579C135.026 149.511 137.548 152.699 140.66 152.699Z" fill="white"/>
<path d="M141.596 140.305C141.243 140.305 141.219 140.305 140.867 140.305C138.562 140.305 136.694 142.667 136.694 145.58C136.694 148.493 138.562 150.854 140.867 150.854C141.219 150.854 141.244 150.854 141.596 150.854C143.9 150.854 145.769 148.493 145.769 145.58C145.769 142.667 143.9 140.305 141.596 140.305Z" fill="#263238"/>
<path opacity="0.1" d="M141.596 150.853C143.9 150.853 145.769 148.492 145.769 145.579C145.769 142.667 143.9 140.305 141.596 140.305C139.291 140.305 137.422 142.667 137.422 145.579C137.422 148.492 139.291 150.853 141.596 150.853Z" fill="white"/>
<path d="M142.531 143.962C142.423 143.962 142.416 143.962 142.308 143.962C141.601 143.962 141.028 144.686 141.028 145.579C141.028 146.472 141.601 147.196 142.308 147.196C142.416 147.196 142.423 147.196 142.531 147.196C143.238 147.196 143.81 146.472 143.81 145.579C143.81 144.686 143.238 143.962 142.531 143.962Z" fill="#263238"/>
<path opacity="0.2" d="M143.81 145.579C143.81 146.472 143.238 147.196 142.531 147.196C141.824 147.196 141.252 146.472 141.252 145.579C141.252 144.686 141.824 143.962 142.531 143.962C143.238 143.962 143.81 144.686 143.81 145.579Z" fill="white"/>
<path d="M162.629 163.727L161.765 163.848L161.029 163.727L155.332 164.527V165.356H156.932H165.882H167.482V164.527L162.629 163.727Z" fill="#263238"/>
<path opacity="0.2" d="M162.629 163.727L161.765 163.848L161.029 163.727L155.332 164.527V165.356H156.932H165.882H167.482V164.527L162.629 163.727Z" fill="white"/>
<path opacity="0.2" d="M161.767 163.847L156.931 164.527V165.355H155.331V164.527L161.031 163.727L161.767 163.847Z" fill="white"/>
<path d="M162.948 115.381H160.952V163.82H162.948V115.381Z" fill="#263238"/>
<path opacity="0.2" d="M162.948 115.381H160.952V163.82H162.948V115.381Z" fill="white"/>
<path opacity="0.2" d="M161.95 115.381H160.952V163.82H161.95V115.381Z" fill="white"/>
<path d="M145.445 163.727L144.581 163.848L143.845 163.727L138.148 164.527V165.356H139.748H148.698H150.298V164.527L145.445 163.727Z" fill="#263238"/>
<path opacity="0.2" d="M145.445 163.727L144.581 163.848L143.845 163.727L138.148 164.527V165.356H139.748H148.698H150.298V164.527L145.445 163.727Z" fill="white"/>
<path opacity="0.2" d="M144.583 163.847L139.747 164.527V165.355H138.147V164.527L143.847 163.727L144.583 163.847Z" fill="white"/>
<path d="M145.765 115.381H143.769V163.82H145.765V115.381Z" fill="#263238"/>
<path opacity="0.2" d="M145.765 115.381H143.769V163.82H145.765V115.381Z" fill="white"/>
<path opacity="0.2" d="M144.767 115.381H143.769V163.82H144.767V115.381Z" fill="white"/>
<path d="M160.932 145.579C160.932 145.762 160.879 145.93 160.792 146.048C160.718 146.151 160.622 146.219 160.514 146.237C160.495 146.24 160.476 146.243 160.454 146.243H142.715C142.452 146.243 142.239 145.948 142.239 145.58C142.239 145.397 142.292 145.232 142.379 145.111C142.464 144.99 142.583 144.917 142.714 144.917H160.454C160.475 144.917 160.494 144.919 160.514 144.923C160.75 144.963 160.932 145.243 160.932 145.579Z" fill="#263238"/>
<path opacity="0.5" d="M160.932 145.579C160.932 145.762 160.879 145.93 160.792 146.048C160.718 146.151 160.622 146.219 160.514 146.237C160.495 146.24 160.476 146.243 160.454 146.243H142.715C142.452 146.243 142.239 145.948 142.239 145.58C142.239 145.397 142.292 145.232 142.379 145.111C142.464 144.99 142.583 144.917 142.714 144.917H160.454C160.475 144.917 160.494 144.919 160.514 144.923C160.75 144.963 160.932 145.243 160.932 145.579Z" fill="white"/>
<path d="M163.055 138.46C162.58 138.46 162.547 138.46 162.072 138.46C158.96 138.46 156.438 141.647 156.438 145.579C156.438 149.511 158.96 152.699 162.072 152.699C162.547 152.699 162.58 152.699 163.055 152.699C166.167 152.699 168.689 149.511 168.689 145.579C168.688 141.647 166.166 138.46 163.055 138.46Z" fill="#263238"/>
<path opacity="0.2" d="M163.055 152.699C166.166 152.699 168.688 149.511 168.688 145.579C168.688 141.647 166.166 138.46 163.055 138.46C159.944 138.46 157.422 141.647 157.422 145.579C157.422 149.511 159.944 152.699 163.055 152.699Z" fill="white"/>
<path d="M163.991 140.305C163.639 140.305 163.615 140.305 163.263 140.305C160.958 140.305 159.09 142.667 159.09 145.58C159.09 148.493 160.958 150.854 163.263 150.854C163.615 150.854 163.639 150.854 163.991 150.854C166.296 150.854 168.164 148.493 168.164 145.58C168.164 142.667 166.296 140.305 163.991 140.305Z" fill="#263238"/>
<path opacity="0.1" d="M163.991 150.853C166.296 150.853 168.164 148.492 168.164 145.579C168.164 142.667 166.296 140.305 163.991 140.305C161.686 140.305 159.818 142.667 159.818 145.579C159.818 148.492 161.686 150.853 163.991 150.853Z" fill="white"/>
<path d="M164.926 143.962C164.818 143.962 164.811 143.962 164.703 143.962C163.997 143.962 163.424 144.686 163.424 145.579C163.424 146.472 163.997 147.196 164.703 147.196C164.811 147.196 164.818 147.196 164.926 147.196C165.633 147.196 166.206 146.472 166.206 145.579C166.206 144.686 165.633 143.962 164.926 143.962Z" fill="#263238"/>
<path opacity="0.2" d="M164.926 147.196C165.633 147.196 166.206 146.472 166.206 145.579C166.206 144.686 165.633 143.962 164.926 143.962C164.22 143.962 163.647 144.686 163.647 145.579C163.647 146.472 164.22 147.196 164.926 147.196Z" fill="white"/>
<path d="M166.534 145.579C166.534 145.762 166.481 145.93 166.394 146.048C166.319 146.151 166.224 146.219 166.115 146.237C166.096 146.24 166.077 146.243 166.056 146.243H165.11C164.847 146.243 164.634 145.948 164.634 145.58C164.634 145.397 164.688 145.232 164.774 145.111C164.859 144.99 164.978 144.917 165.11 144.917H166.056C166.077 144.917 166.096 144.919 166.115 144.923C166.351 144.963 166.534 145.243 166.534 145.579Z" fill="#263238"/>
<path opacity="0.2" d="M166.534 145.579C166.534 145.762 166.481 145.93 166.394 146.048C166.319 146.151 166.224 146.219 166.115 146.237C165.877 146.198 165.697 145.918 165.697 145.579C165.697 145.396 165.75 145.231 165.837 145.11C165.909 145.007 166.005 144.939 166.115 144.922C166.351 144.963 166.534 145.243 166.534 145.579Z" fill="white"/>
<path d="M160.932 130.839C160.932 131.021 160.879 131.189 160.792 131.307C160.718 131.411 160.622 131.478 160.514 131.496C160.495 131.499 160.476 131.502 160.454 131.502H142.715C142.452 131.502 142.239 131.207 142.239 130.839C142.239 130.656 142.292 130.491 142.379 130.37C142.464 130.249 142.583 130.176 142.714 130.176H160.454C160.475 130.176 160.494 130.179 160.514 130.182C160.75 130.223 160.932 130.503 160.932 130.839Z" fill="#263238"/>
<path opacity="0.5" d="M160.932 130.839C160.932 131.021 160.879 131.189 160.792 131.307C160.718 131.411 160.622 131.478 160.514 131.496C160.495 131.499 160.476 131.502 160.454 131.502H142.715C142.452 131.502 142.239 131.207 142.239 130.839C142.239 130.656 142.292 130.491 142.379 130.37C142.464 130.249 142.583 130.176 142.714 130.176H160.454C160.475 130.176 160.494 130.179 160.514 130.182C160.75 130.223 160.932 130.503 160.932 130.839Z" fill="white"/>
<path d="M163.268 124.905C162.872 124.905 162.845 124.905 162.448 124.905C159.856 124.905 157.754 127.562 157.754 130.838C157.754 134.115 159.856 136.772 162.448 136.772C162.845 136.772 162.872 136.772 163.268 136.772C165.861 136.772 167.963 134.115 167.963 130.838C167.962 127.562 165.861 124.905 163.268 124.905Z" fill="#263238"/>
<path opacity="0.2" d="M167.962 130.838C167.962 134.115 165.861 136.772 163.268 136.772C160.675 136.772 158.574 134.115 158.574 130.838C158.574 127.562 160.675 124.905 163.268 124.905C165.861 124.905 167.962 127.562 167.962 130.838Z" fill="white"/>
<path d="M164.048 126.443C163.754 126.443 163.734 126.443 163.441 126.443C161.52 126.443 159.963 128.411 159.963 130.839C159.963 133.266 161.52 135.234 163.441 135.234C163.734 135.234 163.754 135.234 164.048 135.234C165.969 135.234 167.526 133.266 167.526 130.839C167.526 128.411 165.969 126.443 164.048 126.443Z" fill="#263238"/>
<path opacity="0.1" d="M164.048 135.234C165.969 135.234 167.526 133.266 167.526 130.839C167.526 128.411 165.969 126.443 164.048 126.443C162.127 126.443 160.57 128.411 160.57 130.839C160.57 133.266 162.127 135.234 164.048 135.234Z" fill="white"/>
<path d="M164.828 129.491C164.738 129.491 164.732 129.491 164.642 129.491C164.053 129.491 163.576 130.094 163.576 130.839C163.576 131.583 164.053 132.186 164.642 132.186C164.732 132.186 164.738 132.186 164.828 132.186C165.416 132.186 165.894 131.583 165.894 130.839C165.894 130.095 165.416 129.491 164.828 129.491Z" fill="#263238"/>
<path opacity="0.2" d="M164.828 132.186C165.416 132.186 165.894 131.583 165.894 130.839C165.894 130.094 165.416 129.491 164.828 129.491C164.239 129.491 163.762 130.094 163.762 130.839C163.762 131.583 164.239 132.186 164.828 132.186Z" fill="white"/>
<path d="M166.534 130.839C166.534 131.021 166.481 131.189 166.394 131.307C166.319 131.411 166.224 131.478 166.115 131.496C166.096 131.499 166.077 131.502 166.056 131.502H165.11C164.847 131.502 164.634 131.207 164.634 130.839C164.634 130.656 164.688 130.491 164.774 130.37C164.859 130.249 164.978 130.176 165.11 130.176H166.056C166.077 130.176 166.096 130.179 166.115 130.182C166.351 130.223 166.534 130.503 166.534 130.839Z" fill="#263238"/>
<path opacity="0.2" d="M166.534 130.839C166.534 131.021 166.481 131.189 166.394 131.307C166.319 131.411 166.224 131.478 166.115 131.496C165.877 131.458 165.697 131.178 165.697 130.839C165.697 130.656 165.75 130.491 165.837 130.37C165.909 130.267 166.005 130.199 166.115 130.181C166.351 130.223 166.534 130.503 166.534 130.839Z" fill="white"/>
<path d="M160.932 118.456C160.932 118.639 160.879 118.807 160.792 118.925C160.718 119.028 160.622 119.096 160.514 119.114C160.495 119.116 160.476 119.12 160.454 119.12H142.715C142.452 119.12 142.239 118.825 142.239 118.456C142.239 118.274 142.292 118.108 142.379 117.988C142.464 117.867 142.583 117.793 142.714 117.793H160.454C160.475 117.793 160.494 117.796 160.514 117.799C160.75 117.84 160.932 118.12 160.932 118.456Z" fill="#263238"/>
<path opacity="0.5" d="M160.932 118.456C160.932 118.639 160.879 118.807 160.792 118.925C160.718 119.028 160.622 119.096 160.514 119.114C160.495 119.116 160.476 119.12 160.454 119.12H142.715C142.452 119.12 142.239 118.825 142.239 118.456C142.239 118.274 142.292 118.108 142.379 117.988C142.464 117.867 142.583 117.793 142.714 117.793H160.454C160.475 117.793 160.494 117.796 160.514 117.799C160.75 117.84 160.932 118.12 160.932 118.456Z" fill="white"/>
<path d="M163.755 114.006C163.458 114.006 163.438 114.006 163.14 114.006C161.196 114.006 159.62 115.999 159.62 118.456C159.62 120.914 161.196 122.906 163.14 122.906C163.438 122.906 163.458 122.906 163.755 122.906C165.7 122.906 167.276 120.914 167.276 118.456C167.276 115.998 165.7 114.006 163.755 114.006Z" fill="#263238"/>
<path opacity="0.2" d="M167.276 118.456C167.276 120.914 165.7 122.906 163.755 122.906C161.811 122.906 160.234 120.914 160.234 118.456C160.234 115.999 161.811 114.006 163.755 114.006C165.7 114.007 167.276 115.999 167.276 118.456Z" fill="white"/>
<path d="M164.34 115.16C164.12 115.16 164.105 115.16 163.885 115.16C162.445 115.16 161.277 116.636 161.277 118.456C161.277 120.276 162.444 121.752 163.885 121.752C164.105 121.752 164.12 121.752 164.34 121.752C165.781 121.752 166.949 120.276 166.949 118.456C166.949 116.636 165.781 115.16 164.34 115.16Z" fill="#263238"/>
<path opacity="0.1" d="M166.948 118.456C166.948 120.276 165.781 121.752 164.34 121.752C162.9 121.752 161.732 120.276 161.732 118.456C161.732 116.636 162.9 115.16 164.34 115.16C165.781 115.16 166.948 116.636 166.948 118.456Z" fill="white"/>
<path d="M164.925 117.446C164.857 117.446 164.853 117.446 164.785 117.446C164.344 117.446 163.986 117.898 163.986 118.456C163.986 119.014 164.344 119.467 164.785 119.467C164.853 119.467 164.857 119.467 164.925 119.467C165.366 119.467 165.724 119.014 165.724 118.456C165.724 117.898 165.366 117.446 164.925 117.446Z" fill="#263238"/>
<path opacity="0.2" d="M165.724 118.456C165.724 119.014 165.366 119.467 164.925 119.467C164.483 119.467 164.125 119.014 164.125 118.456C164.125 117.898 164.483 117.446 164.925 117.446C165.366 117.446 165.724 117.898 165.724 118.456Z" fill="white"/>
<path d="M166.534 118.456C166.534 118.639 166.481 118.807 166.394 118.925C166.319 119.028 166.224 119.096 166.115 119.114C166.096 119.116 166.077 119.12 166.056 119.12H165.11C164.847 119.12 164.634 118.825 164.634 118.456C164.634 118.274 164.688 118.108 164.774 117.988C164.859 117.867 164.978 117.793 165.11 117.793H166.056C166.077 117.793 166.096 117.796 166.115 117.799C166.351 117.84 166.534 118.12 166.534 118.456Z" fill="#263238"/>
<path opacity="0.2" d="M166.534 118.456C166.534 118.639 166.481 118.807 166.394 118.925C166.319 119.028 166.224 119.096 166.115 119.114C165.877 119.075 165.697 118.795 165.697 118.456C165.697 118.274 165.75 118.108 165.837 117.988C165.909 117.884 166.005 117.817 166.115 117.799C166.351 117.84 166.534 118.12 166.534 118.456Z" fill="white"/>
<path d="M144.266 119.337V121.109H143.958L142.91 119.145L143.086 118.445H143.386C143.386 119.245 144.266 119.337 144.266 119.337Z" fill="#263238"/>
<path opacity="0.2" d="M144.266 119.337V121.109H143.958L142.91 119.145L143.086 118.445H143.386C143.386 119.245 144.266 119.337 144.266 119.337Z" fill="white"/>
<path d="M144.266 119.337V121.109H144.214L143.166 119.145L143.342 118.445H143.386C143.386 119.245 144.266 119.337 144.266 119.337Z" fill="#263238"/>
<path d="M144.266 131.735V133.507H143.958L142.91 131.543L143.086 130.843H143.386C143.386 131.643 144.266 131.735 144.266 131.735Z" fill="#263238"/>
<path opacity="0.2" d="M144.266 131.735V133.507H143.958L142.91 131.543L143.086 130.843H143.386C143.386 131.643 144.266 131.735 144.266 131.735Z" fill="white"/>
<path d="M144.266 131.735V133.507H144.214L143.166 131.543L143.342 130.843H143.386C143.386 131.643 144.266 131.735 144.266 131.735Z" fill="#263238"/>
<path d="M144.266 146.533V148.305H143.958L142.91 146.341L143.086 145.641H143.386C143.386 146.441 144.266 146.533 144.266 146.533Z" fill="#263238"/>
<path opacity="0.2" d="M144.266 146.533V148.305H143.958L142.91 146.341L143.086 145.641H143.386C143.386 146.441 144.266 146.533 144.266 146.533Z" fill="white"/>
<path d="M144.266 146.533V148.305H144.214L143.166 146.341L143.342 145.641H143.386C143.386 146.441 144.266 146.533 144.266 146.533Z" fill="#263238"/>
<path d="M156.438 117.793C154.76 117.793 155.63 125.752 155.393 127.689C155.156 129.625 155.459 136.116 155.105 136.391C154.75 136.667 153.801 135.797 153.01 136.034C152.218 136.271 151.883 136.192 150.785 135.955C149.686 135.717 148.579 135.48 148.104 135.638C147.629 135.797 147.876 118.081 148.272 117.642C148.667 117.203 150.566 117.278 150.566 117.278C150.566 117.278 154.285 117.53 154.997 117.445C155.71 117.361 156.438 117.793 156.438 117.793Z" fill="#000F83"/>
<path opacity="0.5" d="M156.438 117.793C154.76 117.793 155.63 125.752 155.393 127.689C155.156 129.625 155.459 136.116 155.105 136.391C154.75 136.667 153.801 135.797 153.01 136.034C152.218 136.271 151.883 136.192 150.785 135.955C149.686 135.717 148.579 135.48 148.104 135.638C147.629 135.797 147.876 118.081 148.272 117.642C148.667 117.203 150.566 117.278 150.566 117.278C150.566 117.278 154.285 117.53 154.997 117.445C155.71 117.361 156.438 117.793 156.438 117.793Z" fill="white"/>
<path d="M151.869 88.566C150.798 89.9632 147.47 90.09 144.219 87.7944C143.401 87.2148 142.584 86.4816 141.812 85.576C141.49 85.2 141.175 84.7928 140.868 84.3516C137.164 79.024 142.91 75.512 142.91 75.512C145.946 77.2468 145.439 79.1356 146.249 80.7244C147.059 82.3096 148.276 84.0752 148.678 84.3516C149.082 84.624 149.388 75.512 149.388 75.512L152.728 75.5656C152.729 75.5656 154.348 85.3264 151.869 88.566Z" fill="#B55B52"/>
<path opacity="0.2" d="M144.219 87.7943C143.401 87.2147 142.584 86.4815 141.812 85.5759C141.85 84.3475 142.077 83.0503 142.591 81.9255C142.591 81.9255 144.426 84.7007 144.219 87.7943Z" fill="black"/>
<path d="M143.062 165.077L146.009 164.723L145.456 157.85L142.508 158.204L143.062 165.077Z" fill="#FF8B7B"/>
<path opacity="0.2" d="M145.455 157.852L145.741 161.394L142.793 161.748L142.507 158.206L145.455 157.852Z" fill="black"/>
<path d="M137.084 128.734C131.906 114.024 127.806 107.834 128.383 100.209L138.815 99.2468C138.815 99.2468 145.063 119.34 145.112 128.28C145.164 137.575 146.066 159.129 146.066 159.129L141.316 159.693C141.316 159.693 136.38 139.196 137.084 128.734Z" fill="#000F83"/>
<path opacity="0.2" d="M136.332 126.64C133.604 119.149 131.239 113.991 129.803 109.611C136.836 111.338 137.136 119.823 136.332 126.64Z" fill="black"/>
<path d="M146.682 157.997L146.499 160.077L141.275 160.716L140.864 158.812L146.682 157.997Z" fill="#263238"/>
<path d="M120.515 165.29L123.488 165.243L124.469 158.35L121.496 158.396L120.515 165.29Z" fill="#FF8B7B"/>
<path opacity="0.2" d="M124.468 158.352L123.963 161.905L120.989 161.951L121.494 158.398L124.468 158.352Z" fill="black"/>
<path d="M124.468 128.602C122.841 113.434 120.926 106.684 123.282 99.1604L134.203 99.4536C134.203 99.4536 134.5 120.086 132.45 128.983C130.319 138.234 125.341 159.766 125.341 159.766L120.549 159.834C120.549 159.834 121.322 138.935 124.468 128.602Z" fill="#000F83"/>
<path d="M126.04 158.703L125.726 160.753L120.354 160.847L120.051 158.91L126.04 158.703Z" fill="#263238"/>
<path d="M145.73 163.716L142.416 163.627C142.292 163.623 142.182 163.706 142.151 163.826L141.455 166.494C141.383 166.77 141.586 167.04 141.872 167.043C143.068 167.055 144.797 167.031 146.3 167.072C148.056 167.119 149.173 167.033 151.233 167.089C152.478 167.122 152.869 165.878 152.352 165.751C149.997 165.17 148.458 165.285 146.452 163.971C146.234 163.828 145.991 163.723 145.73 163.716Z" fill="#263238"/>
<path d="M145.968 164.082C145.964 164.052 145.981 164.023 146.008 164.01C146.149 163.942 147.389 163.356 147.752 163.574C147.821 163.616 147.86 163.682 147.863 163.768C147.869 163.911 147.82 164.026 147.716 164.112C147.373 164.396 146.508 164.254 146.022 164.144C146.019 164.143 146.016 164.142 146.013 164.141C145.988 164.132 145.97 164.109 145.968 164.082ZM146.266 164.048C146.932 164.177 147.432 164.162 147.625 164.002C147.692 163.946 147.724 163.872 147.72 163.775C147.718 163.737 147.705 163.714 147.677 163.697C147.669 163.692 147.661 163.689 147.652 163.685C147.425 163.6 146.755 163.833 146.266 164.048Z" fill="#000F83"/>
<path d="M145.995 164.131C145.975 164.116 145.964 164.091 145.968 164.066C145.972 164.031 146.083 163.22 146.48 162.915C146.602 162.822 146.737 162.785 146.883 162.803C147.08 162.829 147.133 162.929 147.144 163.01C147.187 163.353 146.438 163.987 146.066 164.14C146.049 164.147 146.03 164.147 146.013 164.141C146.007 164.139 146 164.136 145.995 164.131ZM146.864 162.945C146.756 162.931 146.659 162.958 146.568 163.028C146.307 163.228 146.182 163.712 146.134 163.948C146.516 163.735 147.027 163.235 147.001 163.029C147 163.016 146.996 162.984 146.937 162.961C146.918 162.955 146.894 162.949 146.864 162.945Z" fill="#000F83"/>
<path d="M123.495 163.716L120.182 163.627C120.058 163.623 119.948 163.706 119.916 163.826L119.22 166.494C119.148 166.77 119.351 167.04 119.638 167.043C120.834 167.055 122.563 167.031 124.065 167.072C125.822 167.119 126.938 167.033 128.998 167.089C130.244 167.122 130.634 165.878 130.117 165.751C127.762 165.17 126.223 165.285 124.218 163.971C123.999 163.828 123.757 163.723 123.495 163.716Z" fill="#263238"/>
<path d="M123.733 164.082C123.73 164.052 123.746 164.023 123.774 164.01C123.914 163.942 125.155 163.356 125.517 163.574C125.587 163.616 125.626 163.682 125.629 163.768C125.635 163.911 125.585 164.026 125.482 164.112C125.139 164.396 124.274 164.254 123.788 164.144C123.785 164.143 123.782 164.142 123.779 164.141C123.754 164.132 123.736 164.109 123.733 164.082ZM124.032 164.048C124.698 164.177 125.198 164.162 125.39 164.002C125.458 163.946 125.489 163.872 125.485 163.775C125.484 163.737 125.471 163.714 125.443 163.697C125.435 163.692 125.426 163.689 125.417 163.685C125.191 163.6 124.521 163.833 124.032 164.048Z" fill="#000F83"/>
<path d="M123.761 164.131C123.74 164.116 123.73 164.091 123.734 164.066C123.738 164.031 123.849 163.22 124.246 162.915C124.368 162.822 124.503 162.785 124.649 162.803C124.846 162.829 124.899 162.929 124.91 163.01C124.953 163.353 124.204 163.987 123.832 164.14C123.815 164.147 123.796 164.147 123.779 164.141C123.772 164.139 123.766 164.136 123.761 164.131ZM124.63 162.945C124.521 162.931 124.424 162.958 124.334 163.028C124.073 163.228 123.947 163.712 123.9 163.948C124.281 163.735 124.793 163.235 124.767 163.029C124.765 163.016 124.761 162.984 124.702 162.961C124.684 162.955 124.66 162.949 124.63 162.945Z" fill="#000F83"/>
<path d="M126.402 72.6925C126.593 76.0769 126.448 79.4525 126.151 82.5953C125.931 84.8945 125.625 87.0685 125.301 89.0305C124.541 93.6285 123.678 97.0749 123.555 98.2777C125.857 98.5961 134.532 99.7937 139.263 100.445C144.991 84.4289 142.833 75.1065 142.833 75.1065C142.833 75.1065 141.196 74.4069 139.231 73.8737C138.972 73.8021 138.708 73.7369 138.438 73.6749C136.694 73.2709 133.779 72.9345 131.759 72.7533C131.335 72.7157 130.903 72.6885 130.481 72.6685C128.336 72.5709 126.402 72.6925 126.402 72.6925Z" fill="#000F83"/>
<path opacity="0.7" d="M139.26 100.442C134.531 99.7933 125.856 98.5997 123.553 98.2813C123.68 97.0761 124.54 93.6293 125.304 89.0309C125.507 87.7873 125.706 86.4593 125.879 85.0657C125.879 85.0617 125.879 85.0617 125.879 85.0617C125.956 84.4513 126.029 83.8297 126.094 83.1961C126.106 83.0617 126.121 82.9197 126.136 82.7817C126.14 82.7205 126.148 82.6589 126.151 82.5973C126.193 82.1521 126.236 81.7029 126.266 81.2501C126.358 80.1293 126.424 78.9857 126.458 77.8301C126.512 76.1413 126.497 74.4141 126.405 72.6905C126.405 72.6905 126.888 72.6597 127.645 72.6405C128.397 72.6213 129.41 72.6173 130.481 72.6673C130.9 72.6901 131.337 72.7173 131.763 72.7517C133.782 72.9321 136.696 73.2737 138.438 73.6769C138.711 73.7385 138.976 73.7997 139.229 73.8725C141.198 74.4061 142.834 75.1045 142.834 75.1045C142.834 75.1045 144.99 84.4285 139.26 100.442Z" fill="white"/>
<path d="M134.81 65.4856C134.695 67.6856 134.14 71.6332 132.312 72.6788C132.312 72.6788 135.919 75.5224 137.003 75.5108C137.764 75.5024 138.865 74.2584 138.865 74.2584C136.655 73.1324 137.152 71.4096 137.972 69.8764L134.81 65.4856Z" fill="#B55B52"/>
<path opacity="0.2" d="M136.099 67.2769L137.971 69.8741C137.775 70.2365 137.6 70.6097 137.477 70.9841C136.612 70.6385 135.624 69.3589 135.765 68.3989C135.835 67.9205 135.968 67.4761 136.099 67.2769Z" fill="black"/>
<path d="M141.032 58.988C141.032 58.988 142.392 59.178 142.84 60.5064C143.289 61.8352 141.94 64.098 140.868 63.6308C139.796 63.1636 141.032 58.988 141.032 58.988Z" fill="#263238"/>
<path d="M134.728 62.3265C134.302 65.2317 133.904 66.9117 135.048 68.6753C136.77 71.3285 140.601 70.7253 141.891 67.9981C143.052 65.5437 143.554 61.2053 140.976 59.4993C138.436 57.8189 135.155 59.4213 134.728 62.3265Z" fill="#B55B52"/>
<path d="M138.928 64.002C138.879 64.2356 138.963 64.45 139.116 64.4804C139.27 64.5112 139.434 64.3464 139.483 64.1128C139.532 63.8792 139.448 63.6648 139.294 63.634C139.141 63.6036 138.977 63.7684 138.928 64.002Z" fill="#263238"/>
<path d="M141.578 64.5321C141.529 64.7657 141.614 64.9801 141.767 65.0109C141.92 65.0417 142.084 64.8769 142.133 64.6433C142.182 64.4097 142.098 64.1953 141.945 64.1645C141.792 64.1341 141.628 64.2985 141.578 64.5321Z" fill="#263238"/>
<path d="M140.711 64.4797C140.711 64.4797 140.985 65.8869 141.444 66.6353C140.958 66.9185 140.29 66.6005 140.29 66.6005L140.711 64.4797Z" fill="#A02724"/>
<path d="M138.82 67.2625C138.911 67.2993 139.01 67.3321 139.116 67.3589C139.154 67.3685 139.192 67.3457 139.202 67.3085C139.212 67.2709 139.188 67.2329 139.152 67.2233C138.134 66.9641 137.846 66.1373 137.844 66.1289C137.832 66.0925 137.792 66.0729 137.755 66.0853C137.718 66.0977 137.698 66.1377 137.71 66.1741C137.721 66.2073 137.969 66.9205 138.82 67.2625Z" fill="#263238"/>
<path d="M138.614 62.2035C138.638 62.2463 138.684 62.2751 138.737 62.2755C139.366 62.2815 139.652 62.7119 139.655 62.7163C139.697 62.7811 139.784 62.8003 139.85 62.7587C139.915 62.7171 139.934 62.6307 139.892 62.5659C139.877 62.5431 139.518 62.0035 138.738 61.9963C138.66 61.9955 138.597 62.0575 138.596 62.1347C138.596 62.1595 138.603 62.1831 138.614 62.2035Z" fill="#263238"/>
<path d="M143.242 62.7236C143.263 62.7072 143.28 62.6844 143.289 62.6572C143.314 62.5832 143.274 62.5032 143.202 62.4784C142.468 62.23 141.963 62.6312 141.938 62.6464C141.877 62.6948 141.867 62.7836 141.915 62.8444C141.962 62.9052 142.05 62.9156 142.11 62.868C142.13 62.8504 142.524 62.5464 143.112 62.746C143.158 62.7616 143.207 62.7516 143.242 62.7236Z" fill="#263238"/>
<path d="M138.456 59.102C138.456 59.102 141.397 61.4764 141.564 59.9856C141.732 58.4948 140.526 57.5076 139.914 57.356C139.303 57.204 138.24 57.8876 138.24 57.8876C138.24 57.8876 135.469 57.622 134.899 58.0396C134.33 58.4572 133.988 60.0896 133.988 60.0896C133.988 60.0896 133.054 60.5204 132.849 61.1144C132.546 61.9972 133.112 63.2404 133.112 63.2404C133.112 63.2404 133.419 65.1844 133.912 65.6168C134.406 66.0492 137.002 64.0004 136.861 61.4756C136.861 61.4756 136.216 60.3932 136.861 59.596C137.507 58.798 138.456 59.102 138.456 59.102Z" fill="#263238"/>
<path d="M133.119 64.4841C133.193 65.2709 133.626 65.9469 134.135 66.3489C134.901 66.9541 135.669 66.3581 135.778 65.4373C135.876 64.6085 135.595 63.2953 134.671 63.0501C133.76 62.8089 133.034 63.5849 133.119 64.4841Z" fill="#B55B52"/>
<path d="M139.204 66.3904C139.204 66.3904 138.518 65.3464 137.971 65.1756C137.423 65.0048 135.638 66.8948 135.43 67.9088C135.223 68.9228 136.734 70.43 137.971 70.498C139.208 70.566 140.745 68.7028 140.802 67.8312C140.859 66.9596 139.398 66.594 139.398 66.594L139.256 66.7524C139.256 66.7524 140.439 67.2824 140.431 67.6428C140.423 68.0036 139.089 69.9776 138.456 69.8448C137.822 69.712 137.479 69.202 138.316 68.2124L137.706 67.7C137.706 67.7 137.025 68.63 136.588 68.4784C136.152 68.3264 136.094 67.928 136.094 67.6432C136.094 67.3584 137.442 65.6412 137.841 65.674C138.24 65.7068 138.914 66.4852 138.914 66.4852L139.204 66.3904Z" fill="#263238"/>
<path d="M153.688 74.894V78.0068C153.688 78.0068 149.439 78.36 148.222 77.5768L148.806 74.8284L148.814 74.794L148.906 74.364L150.959 74.5904L152.433 74.7556L153.688 74.894Z" fill="#000F83"/>
<path d="M153.588 66.1424L152.433 74.7556L152.376 75.174L149.178 74.8324L148.814 74.794C148.814 74.794 148.023 72.4908 148.223 71.1168C148.25 70.9516 148.288 70.756 148.342 70.5372C148.726 68.9636 149.785 66.296 150.453 66.1424C151.209 65.966 153.588 66.1424 153.588 66.1424Z" fill="#000F83"/>
<path d="M150.959 74.5908C150.955 74.656 150.955 74.6904 150.955 74.6904C150.955 74.6904 150.007 74.8208 149.178 74.8324C149.051 74.8364 148.925 74.8364 148.806 74.8284L148.813 74.794C148.813 74.794 148.022 72.4908 148.222 71.1168C148.249 70.9516 148.287 70.756 148.341 70.5372C148.921 70.426 149.992 70.2532 150.475 70.3836C151.094 70.5528 150.986 73.9572 150.959 74.5908Z" fill="#263238"/>
<path d="M155.753 70.4988C155.753 70.4988 155.665 75.6076 155.158 76.2256C154.936 76.502 154.291 76.7016 153.588 76.7976C152.709 76.9204 151.75 76.8704 151.412 76.5904C150.806 76.0836 149.892 74.5908 150.095 70.9824C150.187 69.3548 152.425 65.72 153.438 65.486C154.448 65.252 156.321 65.34 156.928 66.0808C157.024 66.196 157.077 66.3648 157.1 66.5684C157.223 67.674 156.383 69.8424 155.753 70.4988Z" fill="#263238"/>
<path opacity="0.2" d="M155.753 70.4988C155.753 70.4988 155.665 75.6076 155.158 76.2256C154.936 76.502 154.291 76.7016 153.588 76.7976C152.709 76.9204 151.75 76.8704 151.412 76.5904C150.806 76.0836 149.892 74.5908 150.095 70.9824C150.187 69.3548 152.425 65.72 153.438 65.486C154.448 65.252 156.321 65.34 156.928 66.0808C157.024 66.196 157.077 66.3648 157.1 66.5684C157.223 67.674 156.383 69.8424 155.753 70.4988Z" fill="white"/>
<path opacity="0.3" d="M155.753 70.4988C155.753 70.4988 155.665 75.6076 155.158 76.2256C154.936 76.502 154.291 76.7016 153.588 76.7976C151.113 76.2448 151.462 72.9976 151.412 71.8808C151.362 70.7676 152.525 67.1252 153.247 66.722C153.961 66.3228 156.69 65.724 157.1 66.5684C157.223 67.674 156.383 69.8424 155.753 70.4988Z" fill="black"/>
<path d="M142.59 75.0061C142.59 75.0061 142.909 74.2145 143.922 75.1741C144.934 76.1341 144.086 83.4313 143.02 84.3509C143.02 84.3509 143.588 76.5097 142.59 75.0061Z" fill="#000F83"/>
<path opacity="0.6" d="M142.59 75.0061C142.59 75.0061 142.909 74.2145 143.922 75.1741C144.934 76.1341 144.086 83.4313 143.02 84.3509C143.02 84.3509 143.588 76.5097 142.59 75.0061Z" fill="white"/>
<path d="M126.244 82.8912C126.244 82.8912 128.454 81.7016 129 77.6524C129.546 73.6032 128.357 72.4392 126.244 72.3376C124.13 72.236 121.777 78.5132 126.244 82.8912Z" fill="#000F83"/>
<path opacity="0.6" d="M129 77.6537C128.758 79.4425 128.19 80.6785 127.634 81.4921C127.634 81.4921 127.634 81.4961 127.63 81.4997C126.928 82.5245 126.244 82.8929 126.244 82.8929C126.206 82.8545 126.172 82.8201 126.137 82.7817C125.676 82.3213 125.296 81.8373 124.982 81.3461C122.306 77.1737 124.368 72.2493 126.244 72.3373C126.774 72.3641 127.246 72.4565 127.645 72.6405C128.842 73.2013 129.407 74.6177 129 77.6537Z" fill="white"/>
<path opacity="0.2" d="M127.65 80.2141C127.65 80.2141 127.65 83.5941 125.879 85.0617C125.956 84.4513 126.029 83.8297 126.094 83.1961C126.106 83.0617 126.121 82.9197 126.136 82.7817C125.676 82.3213 125.295 81.8373 124.981 81.3461C125.388 81.2617 127.65 80.2141 127.65 80.2141Z" fill="black"/>
<path d="M127 73.2997C124.738 73.0465 121.853 75.9893 121.701 78.0865C121.549 80.1837 116.943 84.4861 117.095 87.3709C117.247 90.2561 121.653 91.0537 125.7 90.3065C129.961 89.5201 131.097 88.6321 131.097 88.6321L130.306 85.7057C130.306 85.7057 124.708 85.7021 124.202 85.3217C124.202 85.3217 126.275 83.0057 127 81.9993C127.725 80.9929 128.231 77.3173 128.13 75.5109C128.028 73.7045 127 73.2997 127 73.2997Z" fill="#B55B52"/>
<path d="M123.132 99.6618V97.4434L139.624 100.192L139.368 101.08L123.132 99.6618Z" fill="#000F83"/>
<path d="M133.95 102.416C133.95 102.416 133.925 101.15 134.494 100.354M134.494 100.354C134.494 100.354 133.456 101.96 132.811 101.429C132.166 100.898 133.204 100.126 134.494 100.354ZM134.494 100.354C135.785 100.581 136.19 101.429 135.658 101.695C135.126 101.961 134.494 100.354 134.494 100.354ZM134.494 100.354C134.494 100.354 134.584 102.151 134.95 102.644" stroke="white" stroke-width="0.4798" stroke-miterlimit="10" stroke-linecap="round" stroke-linejoin="round"/>
<g opacity="0.2">
<path d="M129.088 83.3464C129.135 83.204 129.183 83.0616 129.23 82.9192C129.353 83.1616 129.56 83.3672 129.772 83.4228C130.038 83.4936 130.164 83.3444 130.18 83.1084C130.228 82.4252 129.178 82.6032 129.26 81.4204C129.294 80.9076 129.545 80.5344 130.016 80.6548C130.221 80.708 130.43 80.8612 130.567 81.08C130.523 81.2252 130.479 81.37 130.435 81.5148C130.292 81.3084 130.129 81.184 129.979 81.1452C129.714 81.0764 129.593 81.238 129.577 81.4788C129.53 82.1592 130.576 81.9796 130.496 83.146C130.462 83.6556 130.208 84.0384 129.738 83.9128C129.47 83.8416 129.214 83.6132 129.088 83.3464Z" fill="black"/>
<path d="M132.33 82.3871C132.281 83.0915 131.972 83.4703 131.521 83.3695C131.392 83.3407 131.262 83.3111 131.133 83.2811C131.112 83.5883 131.091 83.8951 131.07 84.2023C130.963 84.1771 130.857 84.1519 130.751 84.1259C130.824 83.0631 130.898 81.9999 130.972 80.9355C131.207 80.9907 131.442 81.0435 131.678 81.0947C132.13 81.1919 132.379 81.6767 132.33 82.3871ZM132.009 82.3203C132.036 81.9179 131.908 81.6547 131.628 81.5939C131.504 81.5667 131.38 81.5387 131.256 81.5103C131.226 81.9331 131.197 82.3559 131.168 82.7787C131.292 82.8075 131.416 82.8359 131.541 82.8635C131.82 82.9255 131.981 82.7231 132.009 82.3203Z" fill="black"/>
<path d="M133.586 83.9671C133.3 83.9171 133.014 83.8639 132.728 83.8083C132.655 84.0447 132.581 84.2807 132.508 84.5163C132.398 84.4943 132.288 84.4715 132.179 84.4487C132.51 83.4355 132.841 82.4167 133.173 81.3923C133.278 81.4115 133.382 81.4299 133.487 81.4483C133.672 82.5651 133.856 83.6819 134.04 84.7975C133.929 84.7791 133.818 84.7603 133.707 84.7411C133.667 84.4835 133.626 84.2251 133.586 83.9671ZM133.513 83.4803C133.438 82.9927 133.362 82.5051 133.286 82.0171C133.147 82.4663 133.007 82.9143 132.868 83.3615C133.083 83.4027 133.298 83.4423 133.513 83.4803Z" fill="black"/>
<path d="M135.382 84.9992C135.287 84.668 135.192 84.3368 135.096 84.0052C135.074 84.0068 135.052 84.0036 135.03 84.0004C134.901 83.982 134.772 83.9636 134.642 83.944C134.621 84.2572 134.6 84.5708 134.578 84.884C134.472 84.8676 134.366 84.8512 134.259 84.834C134.333 83.76 134.406 82.6856 134.48 81.6104C134.715 81.646 134.95 81.6796 135.186 81.7112C135.636 81.7716 135.885 82.2376 135.837 82.9552C135.804 83.4456 135.647 83.7903 135.403 83.9307C135.51 84.3019 135.617 84.6732 135.724 85.044C135.61 85.0292 135.496 85.0144 135.382 84.9992ZM135.137 82.2168C135.013 82.2 134.888 82.1823 134.764 82.1643C134.735 82.5931 134.706 83.022 134.676 83.4504C134.8 83.4688 134.925 83.4868 135.049 83.5044C135.328 83.5432 135.489 83.3211 135.516 82.9143C135.544 82.5079 135.416 82.2548 135.137 82.2168Z" fill="black"/>
<path d="M137.171 85.2013C137.076 84.8733 136.981 84.5453 136.886 84.2173C136.864 84.2197 136.842 84.2177 136.82 84.2157C136.691 84.2029 136.562 84.1893 136.434 84.1753C136.412 84.4905 136.391 84.8053 136.37 85.1201C136.264 85.1085 136.158 85.0965 136.052 85.0841C136.125 84.0045 136.198 82.9241 136.272 81.8433C136.506 81.8689 136.741 81.8925 136.976 81.9137C137.425 81.9549 137.674 82.4117 137.625 83.1329C137.593 83.6257 137.435 83.9785 137.192 84.1293C137.299 84.4969 137.406 84.8645 137.513 85.2317C137.399 85.2221 137.285 85.2121 137.171 85.2013ZM136.926 82.4229C136.802 82.4113 136.678 82.3993 136.554 82.3865C136.525 82.8177 136.496 83.2485 136.467 83.6793C136.591 83.6925 136.714 83.7053 136.838 83.7177C137.118 83.7445 137.277 83.5153 137.305 83.1065C137.332 82.6981 137.205 82.4493 136.926 82.4229Z" fill="black"/>
<path d="M138.057 82.0005C138.162 82.0073 138.268 82.0141 138.374 82.0201C138.301 83.1077 138.228 84.1945 138.155 85.2809C138.05 85.2737 137.944 85.2661 137.838 85.2581C137.911 84.1729 137.984 83.0869 138.057 82.0005Z" fill="black"/>
<path d="M140.344 82.0904C140.272 83.1844 140.2 84.2776 140.128 85.37C140.041 85.368 139.954 85.3656 139.868 85.3632C139.604 84.6152 139.341 83.8656 139.078 83.114C139.028 83.852 138.979 84.5896 138.93 85.3268C138.826 85.3216 138.721 85.316 138.616 85.3096C138.689 84.222 138.762 83.1336 138.834 82.0444C138.921 82.0484 139.008 82.0524 139.095 82.056C139.358 82.8072 139.622 83.5564 139.885 84.3044C139.934 83.5648 139.983 82.8252 140.032 82.0852C140.135 82.0876 140.239 82.0892 140.344 82.0904Z" fill="black"/>
<path d="M141.848 83.6893C141.947 83.6869 142.045 83.6845 142.144 83.6817C142.116 84.1197 142.087 84.5581 142.058 84.9957C141.864 85.2781 141.61 85.4241 141.371 85.4257C140.847 85.4297 140.506 84.7149 140.57 83.7353C140.634 82.7553 141.068 82.0497 141.596 82.0397C141.879 82.0341 142.102 82.2109 142.238 82.5589C142.164 82.6869 142.09 82.8145 142.016 82.9421C141.9 82.6869 141.756 82.5729 141.576 82.5761C141.217 82.5825 140.931 83.0565 140.887 83.7369C140.842 84.4033 141.066 84.8933 141.422 84.8897C141.542 84.8889 141.664 84.8397 141.781 84.7157C141.803 84.3733 141.826 84.0313 141.848 83.6893Z" fill="black"/>
</g>
<path d="M132.615 88.6098C132.502 89.7534 128.23 90.281 128.23 90.281C128.23 90.281 126.58 88.383 126.58 85.1178L128.975 85.0766L129 85.0522L129.316 84.7458L130.514 86.4586L131.648 87.4142C131.648 87.4142 132.646 88.2958 132.615 88.6098Z" fill="#000F83"/>
<path d="M137.391 80.8919L131.648 87.4139L131.368 87.7299L129.282 85.2863L129 85.0519C129 85.0519 129.238 83.0815 130.166 82.0495C130.28 81.9271 130.421 81.7855 130.587 81.6335C131.78 80.5379 134.142 78.9072 134.783 79.1504C135.51 79.4236 137.391 80.8919 137.391 80.8919Z" fill="#000F83"/>
<path d="M130.514 86.4583C130.474 86.5103 130.455 86.5391 130.455 86.5391C130.455 86.5391 129.978 85.7371 129.282 85.2863C129.175 85.2191 129.07 85.1487 128.975 85.0763L129 85.0519C129 85.0519 129.238 83.0815 130.166 82.0495C130.28 81.9271 130.421 81.7855 130.587 81.6335C131.131 81.8627 132.118 82.3135 132.447 82.6907C132.868 83.1747 130.888 85.9463 130.514 86.4583Z" fill="#263238"/>
<path d="M136.773 85.7171C136.773 85.7171 133.863 89.9171 133.098 90.1495C132.76 90.2559 132.112 90.064 131.475 89.7536C130.676 89.3675 129.905 88.7932 129.78 88.3728C129.557 87.6148 129.626 85.8655 131.799 82.9775C132.779 81.6751 136.658 79.8948 137.631 80.2624C138.601 80.6284 140.11 81.7415 140.203 82.6943C140.219 82.8435 140.17 83.0135 140.076 83.1955C139.564 84.1839 137.661 85.5207 136.773 85.7171Z" fill="#263238"/>
<path opacity="0.2" d="M136.773 85.7171C136.773 85.7171 133.863 89.9171 133.098 90.1495C132.76 90.2559 132.112 90.064 131.475 89.7536C130.676 89.3675 129.905 88.7932 129.78 88.3728C129.557 87.6148 129.626 85.8655 131.799 82.9775C132.779 81.6751 136.658 79.8948 137.631 80.2624C138.601 80.6284 140.11 81.7415 140.203 82.6943C140.219 82.8435 140.17 83.0135 140.076 83.1955C139.564 84.1839 137.661 85.5207 136.773 85.7171Z" fill="white"/>
<path opacity="0.3" d="M136.773 85.7171C136.773 85.7171 133.863 89.9171 133.098 90.1495C132.76 90.2559 132.112 90.0639 131.475 89.7535C129.723 87.9191 131.816 85.4123 132.395 84.4559C132.971 83.5023 135.961 81.1187 136.785 81.1839C137.601 81.2483 140.203 82.2655 140.076 83.1959C139.564 84.1839 137.661 85.5207 136.773 85.7171Z" fill="black"/>
<path d="M59.5124 80.655C60.2648 80.655 61.4096 81.7958 62.9708 81.6714C64.532 81.547 67.5348 80.265 68.0524 81.0686" stroke="#263238" stroke-width="0.9395" stroke-miterlimit="10" stroke-linecap="round" stroke-linejoin="round"/>
<path d="M49.6976 90.6387C49.6976 90.6387 50.356 85.9635 51.0856 84.3331L49.1996 83.7771C49.1996 83.7771 47.2744 87.9367 46.922 90.0399C46.6988 91.3743 49.6976 90.6387 49.6976 90.6387Z" fill="#E4897B"/>
<path d="M57.67 88.6091C57.67 88.6091 57.08 89.3455 56.1556 90.3039C55.6332 90.8527 55.002 91.4727 54.3064 92.0739C53.4456 92.8143 52.4912 93.5283 51.5328 94.0319C51.5292 94.0319 51.5252 94.0355 51.5252 94.0355C50.8148 94.4075 50.1008 94.6631 49.4244 94.7307C49.4244 94.7307 49.4208 94.7307 49.4168 94.7307C48.9772 94.7759 48.5524 94.7383 48.154 94.6067C44.4372 93.3663 47.2596 87.4699 47.2596 87.4699L50.2512 88.3495L50.4692 89.0559C50.4692 89.0559 50.8488 88.3943 51.45 87.4623C52.7352 85.4591 55.0352 82.2119 56.7264 81.6707L57.67 88.6091Z" fill="#000F83"/>
<path d="M50.316 88.5315L50.3708 87.3067L47.3776 86.5271L46.9708 87.9275L50.316 88.5315Z" fill="#000F83"/>
<path opacity="0.6" d="M50.3708 87.3067L47.378 86.5271L46.9708 87.9275L50.316 88.5315L50.3708 87.3067Z" fill="white"/>
<path opacity="0.2" d="M51.0892 91.5178C51.1944 90.409 50.4692 89.0562 50.4692 89.0562C50.4692 89.0562 50.8488 88.3946 51.45 87.4626C51.5592 88.7178 51.1384 91.2398 51.0892 91.5178Z" fill="black"/>
<path opacity="0.6" d="M56.4036 89.2591C56.3812 89.2855 56.306 89.3831 56.182 89.5335C55.8512 89.9355 55.186 90.7175 54.3404 91.5779C53.5248 92.4159 52.5404 93.3255 51.5332 94.0319C51.5296 94.0319 51.5256 94.0355 51.5256 94.0355C50.8152 94.4075 50.1012 94.6631 49.4248 94.7307C51.1048 94.1859 53.0816 92.3555 54.4496 90.9163C55.4268 89.8827 56.088 89.0483 56.1068 89.0259L56.1708 89.0747L56.4036 89.2591Z" fill="white"/>
<path opacity="0.2" d="M56.1816 89.5335C56.1816 89.7927 56.174 90.0483 56.1552 90.3039C55.6328 90.8527 55.0016 91.4727 54.306 92.0739C54.306 91.9087 54.3212 91.7431 54.34 91.5779C54.3624 91.3563 54.404 91.1343 54.4492 90.9163C54.8476 89.1123 55.9072 87.5303 55.9072 87.5303C56.0576 87.9963 56.1404 88.5263 56.1664 89.0747H56.17C56.178 89.2255 56.1816 89.3795 56.1816 89.5335Z" fill="black"/>
<path d="M55.274 102.44L55.4848 100.664H68.4892L68.9644 102.215L55.274 102.44Z" fill="#263238"/>
<path d="M43.4016 167.087C45.8692 167.087 46.1952 167.049 47.5816 167.002C48.7688 166.96 49.0528 167.108 50.0068 167.087C50.804 167.07 50.7744 166.307 50.5284 165.429C50.4056 164.988 50.216 164.056 50.0464 163.344L46.4312 163.082C45.9224 164.053 44.7748 165.438 43.384 165.625C42.0568 165.802 42.418 167.087 43.4016 167.087Z" fill="#000F83"/>
<path d="M61.2784 167.087C63.746 167.087 64.072 167.049 65.4584 167.002C66.6456 166.96 66.9296 167.108 67.8836 167.087C68.6808 167.07 68.6512 166.307 68.4052 165.429C68.2824 164.988 68.0928 164.056 67.9232 163.344L64.308 163.082C63.7992 164.053 62.6512 165.438 61.2608 165.625C59.934 165.802 60.2948 167.087 61.2784 167.087Z" fill="#000F83"/>
<path opacity="0.4" d="M43.4016 167.087C45.8692 167.087 46.1952 167.049 47.5816 167.002C48.7688 166.96 49.0528 167.108 50.0068 167.087C50.804 167.07 50.7744 166.307 50.5284 165.429C50.4056 164.988 50.216 164.056 50.0464 163.344L46.4312 163.082C45.9224 164.053 44.7748 165.438 43.384 165.625C42.0568 165.802 42.418 167.087 43.4016 167.087Z" fill="white"/>
<path opacity="0.4" d="M61.2784 167.087C63.746 167.087 64.072 167.049 65.4584 167.002C66.6456 166.96 66.9296 167.108 67.8836 167.087C68.6808 167.07 68.6512 166.307 68.4052 165.429C68.2824 164.988 68.0928 164.056 67.9232 163.344L64.308 163.082C63.7992 164.053 62.6512 165.438 61.2608 165.625C59.934 165.802 60.2948 167.087 61.2784 167.087Z" fill="white"/>
<path d="M64.6844 101.184H55.4764C54.922 104.596 52.3316 120.86 51.8616 129.714C51.3076 140.14 47.9656 156.837 46.1984 163.361C46.6956 163.808 49.0328 163.994 50.1376 163.443C50.1376 163.443 59.7824 144.186 58.528 132.147C65.8228 111.606 64.9224 102.696 64.6844 101.184Z" fill="#263238"/>
<path opacity="0.2" d="M60.9156 124.922C62.0628 121.14 62.8896 117.864 63.4736 115.055C62.894 112.858 62.0712 110.977 60.9524 109.846C60.9524 109.846 59.3428 115.967 60.9156 124.922Z" fill="black"/>
<path d="M68.4544 101.184H58.8732C59.5316 106.232 61.5568 121.638 62.8092 129.777C64.3972 140.096 64.5988 156.653 64.2016 163.4C64.7796 163.736 66.8864 164.142 68.0252 163.786C68.0252 163.786 73.406 142.918 69.832 130.796C72.8372 108.752 69.052 102.077 68.4544 101.184Z" fill="#263238"/>
<path d="M54.8384 103.925L54.4472 105.645C54.4472 105.645 55.4268 106.205 59.546 106.303C63.6652 106.401 69.9408 105.114 69.9408 105.114L69.5128 103.328L54.8384 103.925Z" fill="#000F83"/>
<path opacity="0.6" d="M54.8384 103.925L54.4472 105.645C54.4472 105.645 55.4268 106.205 59.546 106.303C63.6652 106.401 69.9408 105.114 69.9408 105.114L69.5128 103.328L54.8384 103.925Z" fill="white"/>
<path d="M67.7624 68.6124C67.7624 68.6124 69.5316 68.1676 70.3772 69.0032C71.2228 69.8388 70.4808 71.4732 71.4652 72.44C72.4492 73.4068 70.8884 73.4124 71.1856 74.6176C71.4828 75.8228 72.6352 75.4512 72.5236 76.678C72.412 77.9044 71.1128 78.1488 71.4652 78.8072C71.8176 79.4656 70.9444 80.448 70.3772 80.2168C70.3772 80.2168 71.074 80.0604 70.628 79.54C70.182 79.0196 69.3644 78.8708 69.736 77.7932C70.1076 76.7152 69.1016 76.934 68.4896 75.8956C67.8776 74.8572 68.5068 73.6548 68.4896 73.2152C68.4724 72.7756 67.766 72.3676 67.2084 71.3824C66.6508 70.3964 67.7624 68.6124 67.7624 68.6124Z" fill="#263238"/>
<path d="M55.2028 69.5075C55.2028 69.5075 55.982 70.7227 58.2848 70.4235C59.7004 70.2395 59.0192 68.4407 59.0192 68.4407L55.2028 69.5075Z" fill="#000F83"/>
<path opacity="0.2" d="M55.2028 69.5075C55.2028 69.5075 55.982 70.7227 58.2848 70.4235C59.7004 70.2395 59.0192 68.4407 59.0192 68.4407L55.2028 69.5075Z" fill="black"/>
<path d="M66.8076 69.96C66.8644 73.1172 66.9548 74.4488 65.5216 76.2648C63.366 78.9964 59.5424 78.5768 58.5596 75.5492C57.6752 72.824 57.7308 68.1188 60.6552 66.4684C63.5364 64.8424 66.7508 66.8032 66.8076 69.96Z" fill="#E4897B"/>
<path d="M63.7408 68.3044C65.8652 70.122 62.9348 73.3224 66.3496 72.4664C69.7644 71.6104 67.36 67.0356 65.0864 66.3524C62.8128 65.67 63.7408 68.3044 63.7408 68.3044Z" fill="#263238"/>
<path d="M62.098 71.4612C62.114 71.726 61.992 71.9584 61.8248 71.9804C61.6576 72.0024 61.5088 71.8052 61.4928 71.5404C61.4764 71.2756 61.5988 71.0432 61.766 71.0212C61.9332 70.9996 62.0816 71.1964 62.098 71.4612Z" fill="#263238"/>
<path d="M58.956 71.9195C58.9724 72.1843 58.85 72.4168 58.6828 72.4388C58.5156 72.4608 58.3668 72.264 58.3508 71.9992C58.3344 71.7344 58.4568 71.502 58.624 71.48C58.7912 71.458 58.9396 71.6547 58.956 71.9195Z" fill="#263238"/>
<path d="M58.6988 71.4846L58.0732 71.3818C58.0732 71.3818 58.4188 71.837 58.6988 71.4846Z" fill="#263238"/>
<path d="M59.8592 72.2393C59.8592 72.2393 59.4952 73.4361 59.0512 74.0485C59.4088 74.3305 59.9736 74.1065 59.9736 74.1065L59.8592 72.2393Z" fill="#DE5753"/>
<path d="M67.7084 72.8299C67.526 73.5175 67.0944 74.0071 66.65 74.2287C65.9816 74.5623 65.5072 73.8151 65.5752 72.9567C65.6364 72.1839 66.0584 71.0791 66.7856 71.1123C67.5024 71.1455 67.9172 72.0435 67.7084 72.8299Z" fill="#E4897B"/>
<path d="M61.8792 69.9472C61.8496 69.9748 61.81 69.9896 61.768 69.9848C61.112 69.9124 60.7672 70.3636 60.7632 70.3688C60.7124 70.436 60.6192 70.4476 60.5552 70.3924C60.4916 70.3372 60.4812 70.2372 60.5324 70.1684C60.5504 70.1448 60.9824 69.578 61.7968 69.6676C61.878 69.6764 61.9376 69.7548 61.9296 69.8424C61.9256 69.8848 61.9072 69.9216 61.8792 69.9472Z" fill="#263238"/>
<path d="M59.1916 70.4207C59.176 70.3995 58.7992 69.9159 58.1568 70.0751C58.0928 70.0911 58.05 70.1687 58.0612 70.2491C58.0668 70.2879 58.084 70.3203 58.1076 70.3415C58.1328 70.3639 58.1648 70.3739 58.198 70.3659C58.7088 70.2395 59.0052 70.6091 59.02 70.6279C59.0648 70.6859 59.1392 70.6871 59.1864 70.6303C59.2336 70.5731 59.236 70.4795 59.1916 70.4207Z" fill="#263238"/>
<path d="M61.8408 71.0264L61.2152 70.9236C61.2152 70.9236 61.5608 71.3792 61.8408 71.0264Z" fill="#263238"/>
<path d="M68.1692 70.9515C68.1692 70.9515 66.872 69.5303 64.57 69.0035C62.2716 68.4803 58.3288 68.1035 58.3288 68.1035C58.3288 68.1035 59.2948 65.2903 59.7356 64.9331C60.1536 64.5939 63.6876 64.2911 65.0108 64.5251C65.078 64.5351 65.138 64.5483 65.1936 64.5615C66.3376 64.8643 67.9836 66.9667 68.2872 67.7555C68.5908 68.5479 68.1692 70.9515 68.1692 70.9515Z" fill="#000F83"/>
<path opacity="0.2" d="M65.1244 66.4651C65.1076 66.9571 64.5704 69.0031 64.5704 69.0031C62.272 68.4799 58.3292 68.1031 58.3292 68.1031C58.3292 68.1031 58.5172 67.5567 58.7652 66.9147C58.8024 66.8183 58.8396 66.7219 58.8808 66.6215C58.9924 66.3359 59.1152 66.0467 59.2332 65.7875C59.274 65.6951 59.3148 65.6059 59.3552 65.5247H59.3588C59.5004 65.2363 59.632 65.0151 59.7364 64.9323C60.1544 64.5931 63.6884 64.2903 65.0116 64.5243C65.0616 65.1207 65.1396 66.1275 65.1244 66.4651Z" fill="white"/>
<path d="M64.5704 69.0042C64.5704 69.0042 62.286 67.327 59.2168 67.7038L55.2028 69.5074C55.2028 69.5074 59.8712 70.813 64.5704 69.0042Z" fill="#000F83"/>
<path d="M59.5808 65.9428C59.6316 65.8844 59.6824 65.8296 59.7332 65.7712C59.6636 65.6072 59.5276 65.5196 59.358 65.5252H59.3544C59.314 65.6064 59.2732 65.6952 59.2324 65.788C59.2628 65.774 59.2932 65.7676 59.3272 65.7688C59.4364 65.7648 59.5208 65.8244 59.5808 65.9428ZM59.1516 66.8232C59.02 66.826 58.9208 66.7512 58.8804 66.622C58.8396 66.722 58.802 66.8188 58.7648 66.9152C58.848 67.016 58.9624 67.0724 59.1016 67.0696C59.2748 67.0644 59.4356 66.976 59.5616 66.8148C59.5296 66.7572 59.494 66.6996 59.4624 66.642C59.3644 66.7628 59.2608 66.8232 59.1516 66.8232Z" fill="white"/>
<path d="M60.4296 65.5395C60.1068 65.5247 59.8096 65.8491 59.738 66.2939C59.6624 66.7387 59.8504 67.0687 60.1768 67.0875C60.4996 67.1023 60.796 66.8008 60.8676 66.3556C60.9432 65.9108 60.756 65.5583 60.4296 65.5395ZM60.6728 66.3379C60.6208 66.6444 60.4292 66.8523 60.2156 66.8411C60.0052 66.8303 59.8852 66.604 59.9336 66.2976C59.9856 65.9912 60.1812 65.7759 60.3912 65.7867C60.6012 65.7975 60.7244 66.0311 60.6728 66.3379Z" fill="white"/>
<path d="M61.6916 65.6888C61.6316 65.6792 61.568 65.6732 61.5044 65.6636C61.266 66.1444 61.0276 66.6248 60.7852 67.1128C60.8528 67.1188 60.92 67.1248 60.9876 67.1312C61.0404 67.0204 61.0928 66.9092 61.1456 66.7984C61.318 66.8192 61.494 66.8404 61.666 66.8688C61.6808 66.9896 61.6952 67.1104 61.71 67.2312C61.7772 67.2448 61.8444 67.2548 61.9116 67.2684C61.8396 66.7392 61.7672 66.214 61.6916 65.6888ZM61.2468 66.5872L61.5508 65.9548C61.5804 66.1816 61.61 66.412 61.6364 66.6384C61.5092 66.6188 61.378 66.6028 61.2468 66.5872Z" fill="white"/>
<path d="M62.5504 67.1659C62.3376 67.1171 62.2184 66.8687 62.2704 66.5619C62.3224 66.2515 62.5096 66.0627 62.722 66.1111C62.8304 66.1335 62.91 66.2155 62.9656 66.3527C63.016 66.3055 63.0664 66.2583 63.1168 66.2151C63.0484 66.0247 62.9208 65.9039 62.7528 65.8639C62.4392 65.7927 62.1512 66.0763 62.0756 66.5247C62.0036 66.9735 62.1828 67.3367 62.4964 67.4079C62.6644 67.4475 62.8204 67.3927 62.9416 67.2539C62.91 67.1887 62.8824 67.1203 62.8508 67.0515C62.758 67.1543 62.6548 67.1923 62.5504 67.1659Z" fill="white"/>
<path d="M64.0376 66.2436C64.004 66.4528 63.9708 66.6588 63.9372 66.8644C63.7624 66.8096 63.5912 66.7548 63.4164 66.7036C63.4536 66.498 63.4868 66.2924 63.5204 66.0828C63.4568 66.0656 63.3976 66.0485 63.334 66.0312C63.2492 66.5321 63.1676 67.0332 63.0864 67.5344C63.146 67.5516 63.2092 67.5688 63.2728 67.586C63.3064 67.3728 63.344 67.156 63.3776 66.9428C63.5524 66.994 63.7236 67.0452 63.8948 67.1036C63.8612 67.3168 63.8236 67.5337 63.7896 67.7469C63.8528 67.7681 63.9124 67.7888 63.9756 67.8096C64.0568 67.3084 64.138 66.8077 64.2232 66.3065C64.1604 66.2857 64.1008 66.2644 64.0376 66.2436Z" fill="white"/>
<path d="M60.228 74.8644C60.5852 75.1964 61.0884 75.888 61.0884 75.888C61.1592 75.8536 61.23 75.8196 61.2992 75.7816C62.2484 75.2928 62.5272 74.7524 62.5484 74.3016C62.5592 74.0548 62.4892 73.8336 62.4104 73.6648C62.3212 73.4684 62.2128 73.3484 62.2128 73.3484C61.8644 73.9084 61.0148 74.432 60.5492 74.6928C60.3548 74.804 60.228 74.8644 60.228 74.8644Z" fill="#263238"/>
<path d="M60.5488 74.6925L60.8104 74.9877C61.7032 74.5249 62.2696 74.0793 62.41 73.6641C62.3208 73.4677 62.2124 73.3477 62.2124 73.3477C61.864 73.9077 61.0144 74.4317 60.5488 74.6925Z" fill="white"/>
<path d="M61.2988 75.7813C62.248 75.2925 62.5268 74.7521 62.548 74.3013C62.2308 74.4805 61.8688 74.7317 61.6016 75.0529C61.3964 75.2981 61.3192 75.5529 61.2988 75.7813Z" fill="#DE5753"/>
<path d="M69.2864 90.8977L68.3168 98.8649C68.3168 98.8649 70.1056 102.439 69.5568 103.721C69.5568 103.721 56.0576 105.239 55.0012 104.179C54.1404 103.318 55.3508 99.331 55.3508 99.331C55.3508 99.331 54.2384 85.2677 56.7264 81.6713C56.7264 81.6713 63.4384 78.6198 70.376 81.9682L69.7484 87.1169L69.286 90.8937V90.8977H69.2864Z" fill="#000F83"/>
<path opacity="0.6" d="M70.696 82.9062C69.2436 81.923 66.8128 81.3142 66.7884 81.3082L66.8788 80.9434C66.9812 80.9686 69.398 81.5738 70.9068 82.595L70.696 82.9062Z" fill="white"/>
<path opacity="0.6" d="M69.396 104.094L69.0228 104.05C69.304 101.658 67.6892 98.4523 67.6728 98.4203L67.6432 98.3619L67.656 98.2979C68.6196 93.5091 69.098 86.8779 69.1024 86.8115L69.4772 86.8383C69.4724 86.9047 68.9968 93.5011 68.0372 98.3087C68.2676 98.7767 69.672 101.742 69.396 104.094Z" fill="white"/>
<path d="M62.0996 82.439L66.266 81.3434C65.0168 80.061 65.6552 76.5394 66.1752 74.6174L62.2752 77.7482C62.5372 79.2414 62.474 80.8314 60.2928 81.3434C60.2928 81.3434 62.1044 82.427 62.0996 82.439Z" fill="#E4897B"/>
<path opacity="0.2" d="M64.5852 75.895L62.2768 77.7466C62.34 78.1002 62.3832 78.4586 62.382 78.807C63.2096 78.6886 64.4012 77.7898 64.552 76.9326C64.6272 76.505 64.64 76.0942 64.5852 75.895Z" fill="black"/>
<path d="M62.2768 82.1913C62.2768 82.1913 62.704 80.0357 63.6552 79.6389C64.6064 79.2425 66.5824 78.8177 66.8336 78.8069C67.0844 78.7965 67.5304 80.9769 67.5304 80.9769C67.5304 80.9769 64.074 83.0585 62.0604 82.7113C60.0468 82.3645 59.9736 80.7785 59.9736 80.7785L61.2468 79.2421C61.2468 79.2421 62.0784 79.3777 62.2768 79.6817C62.4756 79.9857 62.2768 82.1913 62.2768 82.1913Z" fill="#000F83"/>
<path opacity="0.6" d="M62.2768 82.1913C62.2768 82.1913 62.704 80.0357 63.6552 79.6389C64.6064 79.2425 66.5824 78.8177 66.8336 78.8069C67.0844 78.7965 67.5304 80.9769 67.5304 80.9769C67.5304 80.9769 64.074 83.0585 62.0604 82.7113C60.0468 82.3645 59.9736 80.7785 59.9736 80.7785L61.2468 79.2421C61.2468 79.2421 62.0784 79.3777 62.2768 79.6817C62.4756 79.9857 62.2768 82.1913 62.2768 82.1913Z" fill="white"/>
<path d="M59.9736 106.402C59.9724 106.402 59.9708 106.402 59.9692 106.402C59.9172 106.4 59.8772 106.356 59.8796 106.304L59.9608 104.512C59.3916 102.74 60.0744 99.2411 60.1308 98.9607C59.3016 88.2027 61.938 83.0255 62.1004 82.7187C62.13 82.5639 62.3932 81.2391 62.9244 80.2079C62.9484 80.1615 63.0048 80.1431 63.0508 80.1675C63.0972 80.1911 63.1152 80.2479 63.0912 80.2943C62.542 81.3599 62.2848 82.7535 62.282 82.7675C62.28 82.7775 62.2768 82.7871 62.2716 82.7963C62.2436 82.8467 59.4696 87.9723 60.3184 98.9591C60.3192 98.9679 60.3188 98.9767 60.3168 98.9851C60.3092 99.0223 59.5692 102.716 60.144 104.47C60.1476 104.481 60.1488 104.492 60.1484 104.504L60.066 106.312C60.0652 106.363 60.0236 106.402 59.9736 106.402Z" fill="#263238"/>
<g opacity="0.4">
<path d="M59.9736 106.402C59.9724 106.402 59.9708 106.402 59.9692 106.402C59.9172 106.4 59.8772 106.356 59.8796 106.304L59.9608 104.512C59.3916 102.74 60.0744 99.2411 60.1308 98.9607C59.3016 88.2027 61.938 83.0255 62.1004 82.7187C62.13 82.5639 62.3932 81.2391 62.9244 80.2079C62.9484 80.1615 63.0048 80.1431 63.0508 80.1675C63.0972 80.1911 63.1152 80.2479 63.0912 80.2943C62.542 81.3599 62.2848 82.7535 62.282 82.7675C62.28 82.7775 62.2768 82.7871 62.2716 82.7963C62.2436 82.8467 59.4696 87.9723 60.3184 98.9591C60.3192 98.9679 60.3188 98.9767 60.3168 98.9851C60.3092 99.0223 59.5692 102.716 60.144 104.47C60.1476 104.481 60.1488 104.492 60.1484 104.504L60.066 106.312C60.0652 106.363 60.0236 106.402 59.9736 106.402Z" fill="white"/>
</g>
<path opacity="0.6" d="M56.9496 98.1243L57.4452 98.6695C57.4452 98.6695 55.6552 100.429 55.274 102.634L55.0664 102.039C55.0664 102.039 55.562 99.6607 56.9496 98.1243Z" fill="white"/>
<path opacity="0.2" d="M69.7488 87.117L69.2864 90.8938C68.4372 89.0938 68.6436 86.5266 68.6436 86.5266C69.0272 86.6322 69.3992 86.8386 69.7488 87.117Z" fill="black"/>
<path d="M71.5772 95.8447C71.5772 95.8447 67.9508 98.8679 66.3152 99.5863L67.53 101.552C72.5828 99.2643 72.3876 99.0471 73.7248 98.3227C74.9144 97.6783 71.5772 95.8447 71.5772 95.8447Z" fill="#E4897B"/>
<path d="M71.4328 99.8163L71.4176 99.7899L71.2072 99.4743L69.79 97.1327C69.79 97.1327 70.7408 94.9039 72.5296 94.1111C72.5296 94.1111 70.658 91.2963 69.6132 89.6127C67.6064 86.3883 69.2112 83.5283 70.0004 82.4383C70.0908 82.3143 70.1696 82.2127 70.2336 82.1375C70.32 82.0283 70.3764 81.9683 70.3764 81.9683C72.5372 83.0095 76.4008 89.6991 76.848 94.1111C77.2952 98.5191 71.4328 99.8163 71.4328 99.8163Z" fill="#000F83"/>
<path d="M65.5232 97.9014C65.5232 97.9014 67.1196 99.4878 68.3796 101.837L67.8772 102.535C67.8772 102.535 66.4896 100.028 64.9776 98.5366L65.5232 97.9014Z" fill="#000F83"/>
<path opacity="0.6" d="M65.5232 97.9014C65.5232 97.9014 67.1196 99.4878 68.3796 101.837L67.8772 102.535C67.8772 102.535 66.4896 100.028 64.9776 98.5366L65.5232 97.9014Z" fill="white"/>
<path opacity="0.6" d="M76.502 95.4562L76.4984 95.5202L76.4608 95.569C76.4044 95.6366 75.4424 97.971 71.4176 99.7898L71.2072 99.4742C74.8112 97.847 75.8784 95.6442 76.13 95.3734C76.3404 89.8226 71.3684 83.9446 70.0004 82.4378C70.0908 82.3138 70.1696 82.2122 70.2336 82.137C71.5676 83.603 76.7616 89.6874 76.502 95.4562Z" fill="white"/>
<path d="M69.8892 96.9255L68.9644 97.7031L70.5332 100.487L71.7936 99.7723L69.8892 96.9255Z" fill="#000F83"/>
<path opacity="0.6" d="M69.8892 96.9255L68.9644 97.7031L70.5332 100.487L71.7936 99.7723L69.8892 96.9255Z" fill="white"/>
<path opacity="0.6" d="M63.2792 88.1135L65.7212 88.2103C65.7212 88.2103 65.7212 90.1207 64.1104 90.6411C64.1104 90.6411 62.872 89.8023 63.2792 88.1135Z" fill="white"/>
<path d="M50.9252 82.6819L51.4296 83.8039L52.2924 83.6615L52.4384 82.4319L50.9252 82.6819Z" stroke="#263238" stroke-width="0.9395" stroke-miterlimit="10" stroke-linecap="round" stroke-linejoin="round"/>
<path d="M53.2556 80.7715C53.4528 81.9663 52.7916 83.0707 51.7792 83.2379C50.7664 83.4051 49.7856 82.5719 49.5884 81.3767C49.3912 80.1819 50.0524 79.0775 51.0648 78.9103C52.0772 78.7431 53.0584 79.5763 53.2556 80.7715Z" fill="#263238"/>
<path d="M51.2848 78.0889L50.5882 78.2039L50.682 78.7722L51.3786 78.6573L51.2848 78.0889Z" fill="#263238"/>
<path d="M51.2321 78.4913L50.7739 78.5669L50.8707 79.1538L51.329 79.0782L51.2321 78.4913Z" fill="#263238"/>
<path d="M52.6866 78.3494L51.9965 78.1987L51.8736 78.7615L52.5638 78.9122L52.6866 78.3494Z" fill="#263238"/>
<path d="M52.4878 78.7039L52.0337 78.6047L51.9068 79.1859L52.3609 79.285L52.4878 78.7039Z" fill="#263238"/>
<path d="M49.7005 79.4216L50.3056 79.0571L50.0084 78.5637L49.4033 78.9282L49.7005 79.4216Z" fill="#263238"/>
<path d="M50.0074 79.713L50.4056 79.4731L50.0987 78.9636L49.7005 79.2035L50.0074 79.713Z" fill="#263238"/>
<path opacity="0.2" d="M52.8532 80.8379C53.0504 82.0331 52.4796 83.1223 51.578 83.2711C50.6764 83.4199 49.7856 82.5719 49.5884 81.3767C49.3912 80.1819 49.9624 79.0923 50.8636 78.9435C51.7652 78.7947 52.656 79.6427 52.8532 80.8379Z" fill="white"/>
<path d="M49.8584 80.2775L49.0952 80.8943C48.808 81.1263 48.6508 81.4827 48.6732 81.8511L48.7772 83.5731C48.8188 84.2615 49.1912 84.8871 49.7764 85.2519L50.1388 85.4779C51.4748 84.5411 52.2284 82.5447 52.2284 82.5447L52.5064 81.9995C52.7536 81.5139 52.5852 80.9503 52.1192 80.7047L51.046 80.1399C50.6744 79.9447 50.2024 79.9995 49.8584 80.2775Z" fill="#E4897B"/>
<path d="M68.0524 81.0682C69.168 82.7998 64.7548 87.271 59.736 87.309C54.7172 87.347 51.9516 83.517 51.9516 83.517C51.9516 83.517 54.8384 84.1494 56.4032 83.6782C58.2628 83.1182 58.59 80.655 59.5124 80.655" stroke="#263238" stroke-width="0.9395" stroke-miterlimit="10" stroke-linecap="round" stroke-linejoin="round"/>
<path d="M80.4504 157.922L85.9124 158.065L85.4028 164.506L80.8384 164.395L80.4504 157.922Z" fill="#EBB376"/>
<path opacity="0.2" d="M80.4515 157.925L85.9155 158.067L85.6291 161.674L80.6679 161.549L80.4515 157.925Z" fill="black"/>
<path d="M89.222 135.017C92.88 127.381 102.306 115.996 100.767 107.521L82.1072 107.76C82.1072 107.76 79.0156 125.655 77.7556 133.206C76.4444 141.057 80.0736 160.43 80.0736 160.43L86.3284 160.548C86.3284 160.548 88.5284 143.965 89.222 135.017Z" fill="#000F83"/>
<path d="M86.1748 166.52L84.7324 166.496L84.4292 166.009L83.7864 166.486L81.0064 166.975C79.9876 167.154 78.9428 167.123 77.9372 166.882L75.8688 166.386C75.914 165.664 76.5856 164.868 76.5856 164.868C76.5856 164.868 78.6648 164.998 80.0912 163.584C80.2484 163.428 80.5064 163.415 80.7404 163.465C81.6988 163.67 84.2388 164.129 85.6848 163.608C85.8224 163.558 85.9808 163.675 85.9764 163.826C85.9424 165.07 86.1748 166.52 86.1748 166.52Z" fill="#263238"/>
<path opacity="0.6" d="M97.748 120.045C95.9016 123.703 93.564 127.349 91.622 130.635C90.7008 132.189 89.8716 133.659 89.2232 135.014C88.5284 143.966 86.3292 160.547 86.3292 160.547L80.0728 160.428C80.0728 160.428 76.4456 141.056 77.7584 133.206C79.0176 125.652 82.1072 107.758 82.1072 107.758L100.769 107.52C101.456 111.313 99.9512 115.684 97.748 120.045Z" fill="white"/>
<path opacity="0.2" d="M97.748 120.045C95.9016 123.703 93.564 127.349 91.622 130.635C92.0864 122.974 94.2244 114.161 97.748 120.045Z" fill="black"/>
<path d="M104.426 158.586L109.895 158.638L110.134 165.088L105.566 165.051L104.426 158.586Z" fill="#EBB376"/>
<path opacity="0.2" d="M104.427 158.588L109.898 158.64L110.031 162.252L105.064 162.209L104.427 158.588Z" fill="black"/>
<path d="M110.375 133.475C110.816 125.198 111.416 112.816 108.642 109.01L91.6108 108.628C91.6108 108.628 96.3464 126.75 98.1148 134.386C99.9524 142.327 104.456 161.099 104.456 161.099L110.368 161.115C110.368 161.115 112.597 142.921 110.375 133.475Z" fill="#000F83"/>
<path d="M110.908 167.084H109.72L109.398 166.602L108.774 167.089H101.6C101.459 166.376 101.906 165.446 101.906 165.446C101.906 165.446 104.051 165.251 104.876 164.182C104.94 164.099 105.04 164.054 105.141 164.076C105.856 164.225 108.693 164.762 110.256 164.2C110.425 164.139 110.604 164.254 110.606 164.434C110.626 165.669 110.908 167.084 110.908 167.084Z" fill="#263238"/>
<path opacity="0.6" d="M110.375 133.475C110.816 125.198 111.416 112.816 108.642 109.01L91.6108 108.628C91.6108 108.628 96.3464 126.75 98.1148 134.386C99.9524 142.327 104.456 161.099 104.456 161.099L110.368 161.115C110.368 161.115 112.597 142.921 110.375 133.475Z" fill="white"/>
<path d="M88.6424 84.1852C87.26 85.416 85.7512 86.67 84.3564 87.8796C83.6616 88.492 82.9716 89.0928 82.3688 89.672C82.0756 89.96 81.7952 90.2408 81.5868 90.4576L81.452 90.6C81.4164 90.6368 81.392 90.6624 81.37 90.6764C81.332 90.7208 81.4164 90.4796 81.4052 90.4088C81.4056 90.2232 81.3276 90.3116 81.3212 90.5184C81.3096 90.7248 81.3488 91.0372 81.4292 91.3776C81.578 92.0712 81.8692 92.8788 82.2064 93.6956C82.886 95.328 83.7904 97.0728 84.6344 98.7476L84.6836 98.8452C85.184 99.8376 84.7848 101.048 83.7924 101.548C83.0772 101.908 82.2472 101.8 81.6532 101.341C80.7644 100.652 80.0124 99.9536 79.246 99.1892C78.8732 98.8056 78.5052 98.412 78.1432 98.0052C77.7896 97.5924 77.4416 97.1672 77.1012 96.7228C76.4264 95.8272 75.7904 94.8648 75.2372 93.6952C74.9688 93.1044 74.7188 92.46 74.5372 91.6856C74.3628 90.9148 74.232 89.9892 74.4532 88.8296C74.5476 88.272 74.8284 87.5688 75.0312 87.178C75.1336 86.9772 75.236 86.788 75.3356 86.6164C75.43 86.46 75.5336 86.2816 75.6252 86.1452C76.002 85.5572 76.3644 85.0764 76.7336 84.6224C77.4628 83.7232 78.1844 82.9192 78.9336 82.1624C79.6724 81.3956 80.4356 80.6844 81.2064 79.9868C81.9916 79.2932 82.7532 78.6396 83.6224 77.986C85.3844 76.6616 87.8864 77.0164 89.2108 78.7784C90.4648 80.4468 90.2132 82.7788 88.6872 84.146L88.6424 84.1852Z" fill="#E9B376"/>
<path d="M89.334 85.8261C88.2592 87.1273 86.5896 88.3289 85.1348 89.2309C84.344 89.7185 83.6224 90.1213 83.0852 90.4053C82.5288 90.7009 82.1756 90.8661 82.1756 90.8661C81.7112 90.3941 81.2312 89.7721 80.7668 89.0773C78.9856 86.4057 77.4504 82.5905 77.8572 81.4697C77.8572 81.4697 78.1412 81.2585 78.6248 80.9133C80.882 79.3013 87.526 74.7681 90.566 74.9445C90.5736 74.9445 90.5776 74.9445 90.5852 74.9485C91.4068 74.9985 91.9324 75.3785 92.232 75.9773C93.3604 78.2109 91.284 83.4769 89.334 85.8261Z" fill="#263238"/>
<path opacity="0.2" d="M85.6608 85.1963C85.6456 86.6895 85.4496 88.0443 85.1348 89.2303C84.344 89.7179 83.6224 90.1207 83.0852 90.4047C82.5288 90.7003 82.1756 90.8655 82.1756 90.8655C81.7112 90.3935 81.2312 89.7715 80.7668 89.0767C82.3752 86.6395 85.6608 85.1963 85.6608 85.1963Z" fill="black"/>
<g opacity="0.2">
<path d="M89.334 85.8261C88.2592 87.1273 86.5896 88.3289 85.1348 89.2309C84.344 89.7185 83.6224 90.1213 83.0852 90.4053C82.5288 90.7009 82.1756 90.8661 82.1756 90.8661C81.7112 90.3941 81.2312 89.7721 80.7668 89.0773C78.9856 86.4057 77.4504 82.5905 77.8572 81.4697C77.8572 81.4697 78.1412 81.2585 78.6248 80.9133C80.882 79.3013 87.526 74.7681 90.566 74.9445C90.5736 74.9445 90.5776 74.9445 90.5852 74.9485C91.4068 74.9985 91.9324 75.3785 92.232 75.9773C93.3604 78.2109 91.284 83.4769 89.334 85.8261Z" fill="white"/>
</g>
<path d="M110.768 81.1701C110.357 83.2429 110.073 85.3541 109.873 87.4457C109.685 89.4185 109.57 91.3725 109.505 93.2533C109.224 100.838 109.654 107.248 108.641 109.01C108.641 109.01 91.7868 109.305 81.9644 108.626C80.4596 101.406 81.45 95.7517 83.0852 90.4049C84.3712 86.1905 86.0524 82.1677 87.2268 77.7229C87.292 77.4809 87.3804 77.2545 87.4992 77.0437C88.0864 75.9421 89.3032 75.2357 90.5852 74.9481C90.8232 74.8905 91.0648 74.8521 91.3068 74.8253C92.2012 74.7333 93.1532 74.6601 94.1472 74.6105C98.1468 74.3993 102.757 74.5413 106.499 75.0673C109.416 75.4741 111.34 78.2837 110.768 81.1701Z" fill="#263238"/>
<path opacity="0.2" d="M110.768 81.1701C110.357 83.2429 110.073 85.3541 109.873 87.4457C109.685 89.4185 109.57 91.3725 109.505 93.2533C109.224 100.838 109.654 107.248 108.641 109.01C108.641 109.01 91.7868 109.305 81.9644 108.626C80.4596 101.406 81.45 95.7517 83.0852 90.4049C84.3712 86.1905 86.0524 82.1677 87.2268 77.7229C87.292 77.4809 87.3804 77.2545 87.4992 77.0437C88.0864 75.9421 89.3032 75.2357 90.5852 74.9481C90.8232 74.8905 91.0648 74.8521 91.3068 74.8253C92.2012 74.7333 93.1532 74.6601 94.1472 74.6105C98.1468 74.3993 102.757 74.5413 106.499 75.0673C109.416 75.4741 111.34 78.2837 110.768 81.1701Z" fill="white"/>
<path opacity="0.2" d="M109.873 87.4455C109.685 89.4183 109.57 91.3723 109.505 93.2531C107.424 91.3875 106.845 86.5283 106.845 86.5283C108 86.6167 109.014 86.9543 109.873 87.4455Z" fill="black"/>
<path d="M109.755 76.3568L110.267 76.7476L110.727 77.112C111.029 77.3556 111.319 77.6064 111.609 77.8576C112.191 78.3584 112.744 78.8876 113.295 79.4272C114.384 80.5164 115.434 81.6736 116.397 82.97C117.364 84.2632 118.268 85.6768 118.978 87.3624C119.328 88.208 119.647 89.118 119.826 90.1364C120.008 91.1496 120.072 92.272 119.9 93.4324L119.862 93.684C119.849 93.7708 119.826 93.864 119.801 93.9452C119.525 94.8056 119.173 95.4864 118.79 96.08C118.409 96.6724 118.009 97.1844 117.603 97.6576C116.792 98.5936 115.925 99.3544 115.059 100.061C114.179 100.754 113.284 101.378 112.361 101.942C111.427 102.508 110.517 103.011 109.477 103.474C108.46 103.925 107.27 103.467 106.818 102.45C106.495 101.724 106.637 100.908 107.116 100.337L107.186 100.254L109.048 98.0404C109.662 97.3012 110.258 96.5656 110.801 95.83C111.071 95.4628 111.339 95.1044 111.578 94.742C111.815 94.38 112.034 94.0224 112.233 93.684C112.613 93.0204 112.862 92.3216 112.845 92.0788L112.747 92.5916C112.732 92.1436 112.516 91.3988 112.059 90.5356C111.83 90.1076 111.55 89.6604 111.228 89.2112C110.914 88.7572 110.562 88.3 110.181 87.8476C109.415 86.9456 108.569 86.0404 107.662 85.1728C107.214 84.7336 106.744 84.3104 106.279 83.8852L105.573 83.2624L105.224 82.9592L104.916 82.698L104.763 82.5692C103.082 81.148 102.871 78.6328 104.292 76.9516C105.668 75.3248 108.078 75.082 109.755 76.3568Z" fill="#E9B376"/>
<path d="M119.626 87.4612L111.846 91.8792C111.846 91.8792 109.021 89.9064 106.541 87.968C106.541 87.968 104.872 82.5444 101.31 77.612L102.668 75.5084L103.344 74.4604C108.119 75.3968 111.497 74.6025 118.498 85.6341C118.867 86.2101 119.239 86.8164 119.626 87.4612Z" fill="#263238"/>
<path opacity="0.2" d="M119.626 87.4612L111.846 91.8792C111.846 91.8792 109.021 89.9064 106.541 87.968C106.541 87.968 104.872 82.5444 101.31 77.612L102.668 75.5084L103.344 74.4604C108.119 75.3968 111.497 74.6025 118.498 85.6341C118.867 86.2101 119.239 86.8164 119.626 87.4612Z" fill="white"/>
<path opacity="0.5" d="M118.498 85.6341L116.36 86.8125C116.36 86.8125 112.995 80.148 108.515 77.6148C107.163 76.85 103.183 75.616 102.668 75.5084L103.344 74.4604C108.119 75.3972 111.497 74.6025 118.498 85.6341Z" fill="white"/>
<path opacity="0.5" d="M94.1476 74.6104L93.0116 75.8964C93.0116 75.8964 92.7044 75.9308 92.2324 75.9768C91.4724 76.0536 90.29 76.1647 89.3076 76.2263C88.9696 76.2491 88.3172 76.5604 87.4996 77.044C84.4788 78.8248 79.2088 82.9052 79.2088 82.9052C78.7136 82.1988 78.6216 81.4276 78.6252 80.9132C80.8824 79.3012 87.5264 74.7679 90.5664 74.9443C90.574 74.9443 90.578 74.9444 90.5856 74.9484C90.8236 74.8908 91.0652 74.8523 91.3072 74.8255C92.2012 74.7331 93.1532 74.66 94.1476 74.6104Z" fill="white"/>
<path d="M93.6976 75.7008C93.9908 75.2676 94.5612 74.4976 95.2308 74.2496C95.4684 73.6664 95.5004 73.0148 95.2824 72.2512L102.77 69.8672C102.164 72.342 101.691 74.2976 102.611 75.4996C100.961 77.9872 94.4444 80.3264 94.4444 80.3264C94.4444 80.3264 92.04 78.1496 93.6976 75.7008Z" fill="#EBB376"/>
<path opacity="0.2" d="M95.342 72.4824L100.961 72.1528C99.2032 74.03 96.5412 74.736 95.3264 73.9728C95.4536 73.522 95.4656 73.0328 95.342 72.4824Z" fill="black"/>
<path d="M98.0772 77.6768L98.038 78.6812C98.038 78.6812 100.364 78.3128 98.0772 77.6768Z" fill="#263238"/>
<path d="M93.5652 77.0712L93.0728 78.3016C93.0728 78.3016 92.1768 78.0232 92.5512 77.3148C92.9256 76.6056 93.5652 77.0712 93.5652 77.0712Z" fill="#263238"/>
<path d="M92.85 76.7468C92.85 76.7468 93.402 78.5992 94.4168 79.8296C94.4168 79.8296 98.3672 78.37 100.038 76.83L100.961 77.8208C100.961 77.8208 96.844 80.656 94.4168 81.086C94.4168 81.086 92.7488 80.1856 92.0404 77.1812L92.85 76.7468Z" fill="#263238"/>
<path opacity="0.5" d="M92.85 76.7468C92.85 76.7468 93.402 78.5992 94.4168 79.8296C94.4168 79.8296 98.3672 78.37 100.038 76.83L100.961 77.8208C100.961 77.8208 96.844 80.656 94.4168 81.086C94.4168 81.086 92.7488 80.1856 92.0404 77.1812L92.85 76.7468Z" fill="white"/>
<path d="M102.097 73.8308C102.097 73.8308 100.271 76.83 98.0772 77.6768C99.9076 78.544 100.216 79.8296 100.216 79.8296C100.216 79.8296 102.602 78.6344 103.343 74.4616C102.875 73.7916 102.097 73.8308 102.097 73.8308Z" fill="#263238"/>
<path d="M95.2308 74.2495C95.2308 74.2495 93.6232 76.0499 93.5656 77.0711C92.0944 77.4871 91.0028 79.2575 91.0028 79.2575C91.0028 79.2575 91.5024 76.1763 93.81 74.5151C94.37 74.1459 95.2308 74.2495 95.2308 74.2495Z" fill="#263238"/>
<path d="M99.464 62.1281C99.464 62.1281 97.244 66.3641 95.624 67.0681C95.22 67.2441 94.852 67.2001 94.564 66.8161C93.824 65.8241 93.512 64.3601 93.648 63.0121C93.776 61.7441 94.3 60.5761 95.232 59.9881C97.156 58.7801 99.372 59.8321 99.464 62.1281Z" fill="#263238"/>
<path opacity="0.5" d="M95.912 66.7921C95.82 66.9081 95.724 67.0001 95.624 67.0681C95.22 67.2441 94.852 67.2001 94.564 66.8161C93.824 65.8241 93.512 64.3601 93.648 63.0121C93.988 62.6281 94.416 62.7201 94.416 62.7201C94.024 62.9681 93.848 63.5641 93.828 63.6361C94.148 62.9041 95.472 62.8521 95.472 62.8521C96.588 63.2201 97.104 65.3321 95.912 66.7921Z" fill="white"/>
<path d="M104.229 66.0779C103.336 69.2995 102.654 71.4707 100.328 72.5063C95.7056 74.5643 93.6396 72.3815 93.4764 68.9803C93.3292 65.9191 94.8144 61.1647 98.5264 60.4715C102.184 59.7891 105.122 62.8563 104.229 66.0779Z" fill="#EBB376"/>
<path d="M101.669 64.4012C100.672 65.3512 100.276 69.5364 101.781 69.468C103.286 69.3996 104.836 69.074 104.836 69.074C104.836 69.074 106.752 68.3508 105.703 65.478C104.654 62.6044 101.669 64.4012 101.669 64.4012Z" fill="#263238"/>
<path d="M99.1644 65.9001C99.1108 66.1869 98.9156 66.3901 98.728 66.3533C98.5404 66.3165 98.432 66.0541 98.4856 65.7673C98.5392 65.4805 98.7344 65.2773 98.922 65.3141C99.1092 65.3509 99.218 65.6133 99.1644 65.9001Z" fill="#263238"/>
<path d="M95.57 65.5024C95.5164 65.7892 95.3212 65.992 95.1336 65.9556C94.946 65.9188 94.8376 65.6564 94.8908 65.3696C94.9444 65.0828 95.1396 64.8796 95.3272 64.9164C95.5148 64.9532 95.6236 65.2152 95.57 65.5024Z" fill="#263238"/>
<path d="M95.912 65.5852L95.4816 68.0012C95.4816 68.0012 95.0528 68.0208 94.6284 67.8812C94.3844 67.8008 94.3412 67.466 94.552 67.3192C95.2884 66.8052 95.912 65.5852 95.912 65.5852Z" fill="#D58745"/>
<path d="M99.628 65.1181C99.6564 65.1197 99.6856 65.1145 99.7132 65.1009C99.798 65.0593 99.8324 64.9565 99.79 64.8713C99.3664 64.0177 98.5816 63.9113 98.5484 63.9073C98.4544 63.8957 98.3692 63.9625 98.3588 64.0565C98.348 64.1505 98.4152 64.2357 98.5088 64.2481C98.5348 64.2517 99.1456 64.3409 99.4836 65.0221C99.512 65.0797 99.5684 65.1145 99.628 65.1181Z" fill="#263238"/>
<path d="M93.9692 64.1772C94.024 64.1868 94.082 64.1696 94.1228 64.126C94.6384 63.576 95.2484 63.674 95.274 63.6784C95.3672 63.6944 95.4552 63.6324 95.4712 63.5392C95.4868 63.446 95.4252 63.3572 95.332 63.3404C95.298 63.3352 94.518 63.2004 93.872 63.8896C93.8076 63.9584 93.8112 64.0672 93.8804 64.1324C93.906 64.1568 93.9368 64.1716 93.9692 64.1772Z" fill="#263238"/>
<path d="M95.0152 69.0448C95.0152 69.0448 96.2368 68.7748 99.6608 68.8048C99.2504 69.8304 98.4948 70.664 96.7412 70.632C94.9876 70.6004 95.0152 69.0448 95.0152 69.0448Z" fill="#263238"/>
<path d="M97.5616 69.8305C96.7156 69.8149 96.1024 70.0025 95.6472 70.3113C95.8948 70.4945 96.25 70.6217 96.74 70.6305C97.586 70.6457 98.1956 70.4629 98.6504 70.1497C98.4024 69.9669 98.0516 69.8393 97.5616 69.8305Z" fill="#A02724"/>
<path d="M95.1708 69.0168C95.266 69.2372 95.3604 69.4576 95.7028 69.532C96.416 69.5868 98.2436 69.4 98.7348 69.302C99.0492 69.2532 99.318 69.1484 99.5128 68.8036C96.876 68.7872 95.5868 68.95 95.1708 69.0168Z" fill="white"/>
<path opacity="0.5" d="M101.669 64.4012C100.672 65.3512 100.276 69.5364 101.781 69.468C103.286 69.3996 104.836 69.074 104.836 69.074C104.836 69.074 106.752 68.3508 105.703 65.478C104.654 62.6044 101.669 64.4012 101.669 64.4012Z" fill="white"/>
<path d="M104.892 69.852C104.242 70.5656 103.322 70.9092 102.527 70.9292C101.331 70.9592 101.014 69.8164 101.582 68.8384C102.094 67.958 103.332 66.8812 104.419 67.3176C105.49 67.7472 105.634 69.036 104.892 69.852Z" fill="#EBB376"/>
<path d="M105.879 61.5272C104.716 58.7396 101.553 59.9196 98.9284 57.8332C97.804 56.9392 96.1692 58.326 96.4604 59.8992L96.4588 59.898C96.4604 59.9036 96.462 59.9088 96.4636 59.9144C96.4892 60.0464 96.5272 60.1796 96.5816 60.3132C97.0808 61.8904 97.6676 62.3132 98.2168 62.7796C97.9484 62.3844 97.7492 61.9356 97.6084 61.5512C97.7756 61.6736 97.9608 61.792 98.1696 61.9052C102.608 64.3072 102.074 68.1848 107.812 67.0504C105.355 65.3284 106.918 64.0172 105.879 61.5272Z" fill="#263238"/>
<g opacity="0.5">
<path d="M85.156 90.8647C85.3492 89.9003 86.2328 89.0891 87.2316 88.9855C87.7612 88.9303 88.1784 89.0819 88.4096 89.4087C88.2556 89.5395 88.1012 89.6711 87.9468 89.8031C87.7612 89.5699 87.4932 89.4723 87.154 89.5079C86.48 89.5779 85.8976 90.1159 85.7648 90.7795C85.6308 91.4447 86.0252 91.8467 86.6992 91.7743C87.0388 91.7379 87.356 91.5859 87.6448 91.3079C87.7504 91.4195 87.8552 91.5315 87.9608 91.6439C87.5884 92.0163 87.0952 92.2447 86.5616 92.3031C85.5664 92.4115 84.9632 91.8315 85.156 90.8647Z" fill="white"/>
<path d="M88.466 90.5059C88.6572 89.5551 89.5416 88.7951 90.5456 88.7683C91.5504 88.7415 92.1464 89.4543 91.9548 90.4047C91.7628 91.3575 90.886 92.0395 89.8808 92.0711C88.8756 92.1027 88.274 91.4591 88.466 90.5059ZM91.3504 90.4019C91.482 89.7475 91.0924 89.2735 90.4404 89.2911C89.7876 89.3087 89.206 89.8111 89.0736 90.4679C88.9416 91.1255 89.3336 91.5683 89.986 91.5483C90.6388 91.5279 91.218 91.0571 91.3504 90.4019Z" fill="white"/>
<path d="M94.4552 91.3808C93.922 91.3404 93.3872 91.3104 92.8512 91.2908C92.6956 91.534 92.5404 91.7772 92.3848 92.0216C92.1796 92.0156 91.9736 92.0116 91.7676 92.0084C92.4668 90.9472 93.1648 89.8964 93.8612 88.856C94.0568 88.8664 94.2524 88.8776 94.4476 88.8908C94.7148 89.9876 94.9812 91.0912 95.246 92.2008C95.0396 92.1808 94.8328 92.162 94.626 92.1452C94.5688 91.8904 94.512 91.6356 94.4552 91.3808ZM94.3524 90.9016C94.2452 90.422 94.1376 89.9432 94.03 89.4656C93.736 89.9196 93.4416 90.3756 93.1472 90.8332C93.5496 90.85 93.9512 90.8728 94.3524 90.9016Z" fill="white"/>
<path d="M95.7016 90.6203C95.8936 89.6695 96.7596 89.0523 97.7304 89.1967C98.2444 89.2731 98.646 89.5351 98.868 89.9319C98.7184 90.0287 98.5688 90.1263 98.4192 90.2243C98.2404 89.9359 97.982 89.7671 97.6532 89.7183C96.9988 89.6211 96.4284 90.0311 96.2968 90.6859C96.1644 91.3419 96.548 91.8591 97.202 91.9539C97.5308 92.0015 97.8396 91.9243 98.1196 91.7087C98.2208 91.8507 98.322 91.9935 98.4232 92.1367C98.0624 92.4299 97.5844 92.5423 97.066 92.4675C96.0992 92.3287 95.5092 91.5735 95.7016 90.6203Z" fill="white"/>
<path d="M102.275 90.1927C102.062 91.2459 101.85 92.2995 101.638 93.3535C101.448 93.3031 101.258 93.2539 101.067 93.2063C101.158 92.7543 101.249 92.3023 101.34 91.8507C100.81 91.7167 100.276 91.5935 99.7392 91.4815C99.648 91.9343 99.5564 92.3875 99.4648 92.8403C99.272 92.8007 99.0788 92.7623 98.8852 92.7255C99.0984 91.6679 99.312 90.6103 99.5252 89.5527C99.7184 89.5903 99.9116 89.6295 100.104 89.6703C100.016 90.1067 99.928 90.5431 99.84 90.9795C100.377 91.0919 100.91 91.2151 101.441 91.3491C101.529 90.9139 101.617 90.4783 101.704 90.0431C101.895 90.0911 102.085 90.1411 102.275 90.1927Z" fill="white"/>
</g>
<path opacity="0.2" d="M86.3208 83.1224L89.406 83.0176C89.406 83.0176 88.9608 86.3468 86.7676 87.1056C86.7676 87.1056 85.7132 85.4412 86.3208 83.1224Z" fill="black"/>
<path opacity="0.2" d="M103.902 85.1205C103.902 86.0549 103.144 86.8125 102.21 86.8125C101.276 86.8125 100.518 86.0549 100.518 85.1205C100.518 84.1861 101.276 83.4285 102.21 83.4285C103.144 83.4281 103.902 84.1857 103.902 85.1205Z" fill="black"/>
<path d="M109.789 116.444L95.1244 110.324C94.7604 110.172 94.5884 109.754 94.7404 109.39L99.084 98.9808C99.236 98.6168 99.6544 98.4448 100.018 98.5968L114.683 104.717C115.047 104.869 115.219 105.287 115.067 105.651L110.724 116.06C110.572 116.424 110.153 116.596 109.789 116.444Z" fill="#000F83"/>
<path d="M96.6088 107.103L95.768 106.752C95.626 106.693 95.5592 106.53 95.6184 106.388L97.5676 101.717C97.6268 101.575 97.79 101.508 97.9316 101.567L98.7724 101.918C98.9144 101.977 98.9812 102.14 98.922 102.282L96.9728 106.953C96.9136 107.095 96.7508 107.162 96.6088 107.103Z" fill="#263238"/>
<path d="M114.118 105.523L99.8548 99.5713L95.7036 109.52L109.967 115.471L114.118 105.523Z" fill="white"/>
<path d="M97.5444 106.734L96.7268 106.392C96.472 106.286 96.3512 105.992 96.4576 105.737L96.6348 105.811C96.5692 105.968 96.6436 106.15 96.8008 106.215L97.6184 106.556C97.7756 106.622 97.9572 106.548 98.0224 106.39L99.2604 103.424C99.326 103.267 99.2512 103.086 99.094 103.02L98.2764 102.679C98.1192 102.613 97.938 102.688 97.8724 102.845L97.6952 102.771C97.8016 102.516 98.0956 102.395 98.35 102.502L99.1676 102.843C99.4224 102.949 99.5436 103.243 99.4372 103.498L98.1992 106.464C98.0932 106.719 97.7996 106.84 97.5444 106.734Z" fill="#263238"/>
<g opacity="0.5">
<path d="M97.5444 106.734L96.7268 106.392C96.472 106.286 96.3512 105.992 96.4576 105.737L96.6348 105.811C96.5692 105.968 96.6436 106.15 96.8008 106.215L97.6184 106.556C97.7756 106.622 97.9572 106.548 98.0224 106.39L99.2604 103.424C99.326 103.267 99.2512 103.086 99.094 103.02L98.2764 102.679C98.1192 102.613 97.938 102.688 97.8724 102.845L97.6952 102.771C97.8016 102.516 98.0956 102.395 98.35 102.502L99.1676 102.843C99.4224 102.949 99.5436 103.243 99.4372 103.498L98.1992 106.464C98.0932 106.719 97.7996 106.84 97.5444 106.734Z" fill="white"/>
</g>
<path d="M107.251 100.159L109.352 101.099C111.068 102.806 108.492 104.631 108.492 104.631L107.608 106.009C107.308 106.477 106.658 106.63 106.07 106.373L104.596 105.727C103.924 105.432 103.578 104.71 103.829 104.126L104.394 102.814C104.558 102.432 104.814 102.097 105.14 101.838L107.251 100.159Z" fill="#EBB376"/>
</svg>
