<svg width="200" height="200" viewBox="0 0 200 200" fill="none" xmlns="http://www.w3.org/2000/svg">
<path d="M100.45 182.772C153.144 182.772 195.861 157.677 195.861 126.72C195.861 95.7638 153.144 70.6685 100.45 70.6685C47.7554 70.6685 5.03839 95.7638 5.03839 126.72C5.03839 157.677 47.7554 182.772 100.45 182.772Z" fill="#F5F5F5"/>
<path d="M37.3828 148.501C39.7428 148.966 42.2188 148.844 44.5896 149.319C46.2176 149.645 47.7752 150.248 49.3216 150.852C50.7064 151.393 52.09 151.937 53.4724 152.484C53.748 152.593 57.0592 153.735 57.0592 153.893C62.6632 155.98 68.3496 158.983 74.514 158.622C75.9676 158.538 77.376 157.847 78.3336 156.75C79.2912 155.654 79.7852 154.165 79.6736 152.713C79.5832 151.538 79.116 150.379 79.288 149.214C79.7492 146.085 82.6196 146.408 84.9276 146.943C86.2748 147.255 87.6052 147.635 88.9208 148.059C92.384 149.174 96.0328 150.214 98.7868 152.72C100.56 154.332 102.267 154.972 104.663 155.241C106.334 155.429 107.979 155.533 109.58 156.088C111.158 156.635 112.53 157.688 113.991 158.496C117.949 160.686 123.153 160.39 126.836 157.766C127.455 157.325 128.091 156.678 127.97 155.928C127.677 154.12 124.648 153.752 123.366 152.991C121.046 151.614 118.719 150.253 116.374 148.922C111.684 146.259 106.937 143.697 102.137 141.239C97.0064 138.611 91.804 136.096 86.3848 134.132C83.7144 133.164 80.6708 132.35 78.1184 133.596C76.06 134.601 75.248 136.508 73.9116 138.204C72.6692 139.78 71.0568 141.41 69.2292 142.296C67.7732 143.002 66.1192 143.166 64.5028 143.239C59.1404 143.48 53.772 142.833 48.494 141.855C46.2588 141.441 44.0036 140.965 41.7348 141.104C39.3028 141.252 35.318 141.878 33.99 144.225C33.78 144.596 33.5832 144.987 33.538 145.411C33.4644 146.102 33.8168 146.79 34.3316 147.256C34.8464 147.723 35.506 147.999 36.1708 148.201C36.5704 148.322 36.9748 148.42 37.3828 148.501Z" fill="#E0E0E0"/>
<path d="M158.571 128.686C163.341 128.686 167.207 126.453 167.207 123.7C167.207 120.946 163.341 118.714 158.571 118.714C153.801 118.714 149.934 120.946 149.934 123.7C149.934 126.453 153.801 128.686 158.571 128.686Z" fill="#E0E0E0"/>
<path d="M151.884 155.419L150.473 154.605C149.516 154.052 149.517 153.157 150.473 152.605L153.616 150.79L142.242 144.224L139.099 146.038C138.143 146.59 136.592 146.59 135.635 146.038L134.225 145.224C133.268 144.671 133.268 143.776 134.225 143.224L143.759 137.719C144.715 137.166 146.266 137.166 147.223 137.719L148.633 138.533C149.59 139.086 149.59 139.981 148.633 140.533L145.163 142.537L156.537 149.104L160.007 147.1C160.963 146.548 162.514 146.548 163.471 147.1L164.882 147.914C165.838 148.467 165.838 149.362 164.882 149.914L155.347 155.419C154.391 155.972 152.84 155.972 151.884 155.419Z" fill="#E0E0E0"/>
<path d="M176.027 99.6911L172.216 97.4911C172.216 97.4911 171.283 89.3303 171.904 83.0103C172.777 74.1295 178.512 63.4435 185.354 65.9531C192.196 68.4627 182.217 77.5071 179.996 85.0399C177.774 92.5723 176.027 99.6911 176.027 99.6911Z" fill="#000F83"/>
<path opacity="0.15" d="M176.027 99.6911L172.216 97.4911C172.216 97.4911 171.283 89.3303 171.904 83.0103C172.777 74.1295 178.512 63.4435 185.354 65.9531C192.196 68.4627 182.217 77.5071 179.996 85.0399C177.774 92.5723 176.027 99.6911 176.027 99.6911Z" fill="black"/>
<path d="M174.023 98.7647C174.025 98.7647 174.028 98.7647 174.031 98.7647C174.158 98.7603 174.258 98.6539 174.254 98.5263C173.584 78.7931 183.408 68.8667 183.507 68.7691C183.598 68.6795 183.599 68.5335 183.509 68.4431C183.419 68.3523 183.273 68.3511 183.183 68.4407C183.082 68.5403 173.116 78.6091 173.792 98.5427C173.796 98.6667 173.899 98.7647 174.023 98.7647Z" fill="white"/>
<path d="M178.422 101.063L175.711 99.4974C175.711 99.4974 175.25 93.8974 177.995 87.0946C180.385 81.1722 186.316 76.259 189.299 77.2914C192.282 78.3238 192.208 80.439 190.753 82.6578C189.299 84.8762 180.452 90.165 178.422 101.063Z" fill="#000F83"/>
<path d="M176.992 100.468H176.994C177.121 100.467 177.224 100.364 177.223 100.236C177.17 87.7593 188.885 79.3265 189.003 79.2425C189.107 79.1689 189.132 79.0253 189.058 78.9209C188.985 78.8173 188.842 78.7913 188.736 78.8661C188.616 78.9513 176.707 87.5237 176.762 100.238C176.762 100.365 176.865 100.468 176.992 100.468Z" fill="white"/>
<path d="M30.4828 96.1646L33.696 94.3082C33.696 94.3082 35.6084 86.3626 34.8464 79.213C33.7748 69.161 27.1584 65.3786 24.642 66.2454C22.126 67.1122 21.3972 70.0374 25.5604 76.0242C28.0168 79.5566 31.034 86.9138 30.4828 96.1646Z" fill="#000F83"/>
<g opacity="0.15">
<path d="M30.4828 96.1646L33.696 94.3082C33.696 94.3082 35.6084 86.3626 34.8464 79.213C33.7748 69.161 27.1584 65.3786 24.642 66.2454C22.126 67.1122 21.3972 70.0374 25.5604 76.0242C28.0168 79.5566 31.034 86.9138 30.4828 96.1646Z" fill="black"/>
</g>
<path d="M31.8144 92.2614C31.804 92.261 31.794 92.2594 31.7836 92.2578C31.6628 92.2346 31.5832 92.1182 31.6064 91.9974C33.3676 82.7258 30.1288 72.3074 26.118 67.9722C26.0344 67.8822 26.04 67.7406 26.1304 67.6574C26.2208 67.575 26.362 67.5794 26.4452 67.6698C30.5292 72.0842 33.8312 82.6726 32.044 92.0806C32.0232 92.1906 31.9236 92.2666 31.8144 92.2614Z" fill="white"/>
<path d="M22.0664 101.025C21.5588 101.284 20.2092 100.128 19.8328 99.8473C19.1888 99.3665 18.6804 98.7057 18.3576 97.9713C17.982 97.1165 17.922 96.2177 18.0992 95.3021C18.1912 94.8273 18.3484 94.3677 18.5052 93.9101C18.6592 93.4609 18.8132 93.0117 18.9672 92.5625C19.1192 92.1193 19.2732 91.6605 19.2372 91.1933C19.1648 90.2521 18.3676 89.5549 17.6412 88.9517C16.838 88.2845 16.0104 87.4157 16.072 86.2901C16.1196 85.4217 16.61 84.6373 17.1828 83.9825C17.7556 83.3277 18.4248 82.7577 18.9476 82.0625C19.324 81.5621 19.628 80.9673 19.6024 80.3413C19.5864 79.9525 19.4444 79.5797 19.2764 79.2289C18.9156 78.4757 18.4252 77.7777 18.1904 76.9761C17.956 76.1745 18.0444 75.1969 18.6876 74.6645C19.2156 74.2273 19.9684 74.2005 20.6492 74.2801C21.2792 74.3537 21.882 74.6701 22.4192 75.0053C24.1568 76.0893 25.07 78.2581 26.9284 79.1185C27.6452 79.4505 28.4436 79.5553 29.196 79.7953C29.9484 80.0353 30.7064 80.4641 31.024 81.1873C31.6504 82.6133 30.2716 84.2621 30.6864 85.7629C31.0536 87.0913 32.298 87.6553 32.9516 88.8685C33.2376 89.3993 33.2792 89.9981 33.1988 90.5957C33.0624 91.6069 32.876 92.3445 32.332 93.4493C31.8824 94.3621 30.6156 96.0877 30.6156 96.0877C30.6156 96.0877 22.144 100.986 22.0664 101.025Z" fill="#000F83"/>
<path d="M26.9844 98.4622C26.9816 98.4622 26.9784 98.4618 26.9784 98.4618C26.8528 98.4502 26.7628 98.3414 26.7736 98.219C27.5872 89.4006 23.9152 79.4342 21.0304 76.447C20.9452 76.3586 20.9472 76.2174 21.036 76.1318C21.1248 76.0466 21.2656 76.0494 21.3512 76.1374C24.294 79.1846 28.0424 89.317 27.218 98.2598C27.2064 98.3798 27.1028 98.4682 26.9844 98.4622Z" fill="white"/>
<path d="M26.1084 87.5888C26.0868 87.5876 26.0648 87.5836 26.0432 87.5756C23.2484 86.5548 19.7172 86.2216 19.6824 86.2184C19.5596 86.2068 19.4696 86.0984 19.4808 85.976C19.492 85.8536 19.59 85.7616 19.7232 85.7744C19.7592 85.778 23.346 86.116 26.196 87.1572C26.3116 87.1992 26.3712 87.3272 26.3288 87.4428C26.2944 87.5364 26.2036 87.5932 26.1084 87.5888Z" fill="white"/>
<path d="M146.087 132.53C145.337 130.08 142.275 128.052 139.411 128.854L139.412 128.855C139 128.966 138.568 129.148 138.122 129.405C135.345 131.007 133.094 134.906 133.094 138.114C133.094 138.713 133.173 139.246 133.319 139.705L133.318 139.705C134.068 142.156 137.131 144.171 139.994 143.369L139.993 143.368C140.404 143.256 140.835 143.075 141.28 142.818C144.057 141.215 146.308 137.316 146.308 134.11C146.308 133.516 146.231 132.987 146.087 132.53Z" fill="#455A64"/>
<path d="M141.28 142.819C144.057 141.216 146.308 137.316 146.308 134.11C146.308 130.904 144.057 129.603 141.28 131.204C138.503 132.806 136.252 136.706 136.252 139.913C136.252 143.121 138.503 144.422 141.28 142.819Z" fill="#37474F"/>
<path d="M141.28 134.762C142.348 134.145 143.214 134.645 143.214 135.878C143.214 137.111 142.348 138.611 141.28 139.228C140.212 139.845 139.346 139.345 139.346 138.111C139.346 136.878 140.212 135.379 141.28 134.762Z" fill="#455A64"/>
<path d="M141.942 136.612C141.942 137.034 141.647 137.547 141.281 137.76C141.11 137.86 140.953 137.875 140.836 137.819C140.818 137.811 140.803 137.801 140.788 137.791C140.681 137.714 140.617 137.572 140.617 137.377C140.617 136.955 140.914 136.442 141.28 136.228C141.451 136.129 141.606 136.114 141.722 136.17L141.771 136.198C141.878 136.272 141.942 136.414 141.942 136.612Z" fill="#37474F"/>
<path d="M152.564 142.745C152.564 143.167 152.27 143.68 151.904 143.891C151.797 143.955 151.703 143.98 151.616 143.98C151.538 143.98 151.466 143.957 151.395 143.916L140.836 137.819C140.818 137.811 140.803 137.801 140.788 137.791C140.681 137.714 140.618 137.572 140.618 137.377C140.618 136.955 140.915 136.442 141.281 136.228C141.451 136.129 141.606 136.114 141.723 136.17L141.771 136.198L152.33 142.293C152.48 142.379 152.564 142.509 152.564 142.745Z" fill="#FAFAFA"/>
<path d="M162.929 142.251C162.18 139.801 159.117 137.773 156.253 138.575L156.254 138.576C155.843 138.688 155.411 138.869 154.965 139.126C152.188 140.728 149.937 144.627 149.937 147.835C149.937 148.434 150.016 148.967 150.162 149.426L150.161 149.426C150.91 151.877 153.973 153.892 156.837 153.09L156.836 153.09C157.246 152.978 157.678 152.797 158.122 152.54C160.9 150.937 163.15 147.038 163.15 143.831C163.15 143.237 163.073 142.708 162.929 142.251Z" fill="#455A64"/>
<path d="M158.122 152.54C160.899 150.937 163.15 147.038 163.15 143.831C163.15 140.625 160.899 139.324 158.122 140.926C155.346 142.528 153.094 146.427 153.094 149.634C153.094 152.842 155.345 154.143 158.122 152.54Z" fill="#37474F"/>
<path d="M158.122 144.483C159.19 143.866 160.056 144.366 160.056 145.599C160.056 146.833 159.19 148.332 158.122 148.949C157.054 149.566 156.188 149.066 156.188 147.833C156.188 146.599 157.054 145.099 158.122 144.483Z" fill="#455A64"/>
<path d="M158.784 146.333C158.784 146.755 158.489 147.269 158.123 147.482C157.953 147.581 157.795 147.596 157.678 147.54C157.66 147.533 157.645 147.523 157.63 147.512C157.523 147.436 157.46 147.294 157.46 147.098C157.46 146.676 157.757 146.163 158.123 145.949C158.293 145.85 158.448 145.835 158.565 145.891L158.613 145.919C158.72 145.993 158.784 146.135 158.784 146.333Z" fill="#37474F"/>
<path d="M160.385 147.258C160.385 147.68 160.09 148.193 159.724 148.404C159.617 148.468 159.523 148.493 159.437 148.493C159.358 148.493 159.287 148.47 159.216 148.429L157.678 147.54C157.66 147.532 157.645 147.522 157.63 147.512C157.523 147.435 157.46 147.293 157.46 147.098C157.46 146.676 157.757 146.162 158.123 145.949C158.293 145.85 158.448 145.834 158.565 145.89L158.613 145.918L160.15 146.805C160.301 146.892 160.385 147.022 160.385 147.258Z" fill="#FAFAFA"/>
<path d="M160.385 147.254C160.385 147.676 160.09 148.189 159.724 148.402C159.554 148.502 159.396 148.517 159.279 148.461C159.262 148.453 159.246 148.443 159.231 148.433C159.124 148.356 159.06 148.214 159.06 148.019C159.06 147.597 159.358 147.084 159.724 146.87C159.894 146.771 160.049 146.756 160.166 146.812L160.214 146.84C160.321 146.914 160.385 147.056 160.385 147.254Z" fill="#E0E0E0"/>
<path d="M164.65 113.043C164.455 112.174 164.009 111.246 163.639 110.435C163.596 110.34 163.55 110.245 163.502 110.15C162.694 108.555 162.699 106.669 163.574 105.111C163.604 105.057 163.634 105.004 163.663 104.951C164.208 103.961 164.443 103.111 164.444 101.984C164.447 101.125 163.884 99.839 162.751 99.1798C162.505 99.0346 162.241 98.9074 161.965 98.7982C161.455 98.5918 161.111 98.1066 161.113 97.5538L161.119 96.0182L156.202 95.999L156.196 97.5346C156.194 98.0874 155.847 98.5702 155.335 98.7726C155.058 98.8798 154.793 99.005 154.546 99.1482C153.408 99.799 152.834 101.08 152.831 101.939C152.824 103.067 153.052 103.918 153.589 104.912C153.616 104.962 153.644 105.012 153.671 105.062C154.538 106.629 154.532 108.52 153.712 110.113C153.664 110.207 153.617 110.302 153.573 110.396C153.198 111.205 152.74 112.129 152.542 112.997C152.351 113.839 152.306 114.742 152.302 115.643L152.274 122.796C152.271 123.726 152.88 124.655 154.101 125.366C155.1 125.946 156.356 126.295 157.654 126.403C158.244 126.454 158.843 126.457 159.43 126.41C160.726 126.305 161.971 125.97 162.968 125.4C164.196 124.699 164.811 123.775 164.815 122.848L164.835 117.674C164.837 117.029 164.863 116.355 164.865 115.681C164.87 114.784 164.834 113.883 164.65 113.043Z" fill="#000F83"/>
<path opacity="0.3" d="M164.65 113.043C164.455 112.174 164.009 111.246 163.639 110.435C163.596 110.34 163.55 110.245 163.502 110.15C162.694 108.555 162.699 106.669 163.574 105.111C163.604 105.057 163.634 105.004 163.663 104.951C164.208 103.961 164.443 103.111 164.444 101.984C164.447 101.125 163.884 99.839 162.751 99.1798C162.505 99.0346 162.241 98.9074 161.965 98.7982C161.455 98.5918 161.111 98.1066 161.113 97.5538L161.119 96.0182L156.202 95.999L156.196 97.5346C156.194 98.0874 155.847 98.5702 155.335 98.7726C155.058 98.8798 154.793 99.005 154.546 99.1482C153.408 99.799 152.834 101.08 152.831 101.939C152.824 103.067 153.052 103.918 153.589 104.912C153.616 104.962 153.644 105.012 153.671 105.062C154.538 106.629 154.532 108.52 153.712 110.113C153.664 110.207 153.617 110.302 153.573 110.396C153.198 111.205 152.74 112.129 152.542 112.997C152.351 113.839 152.306 114.742 152.302 115.643L152.274 122.796C152.271 123.726 152.88 124.655 154.101 125.366C155.1 125.946 156.356 126.295 157.654 126.403C158.244 126.454 158.843 126.457 159.43 126.41C160.726 126.305 161.971 125.97 162.968 125.4C164.196 124.699 164.811 123.775 164.815 122.848L164.835 117.674C164.837 117.029 164.863 116.355 164.865 115.681C164.87 114.784 164.834 113.883 164.65 113.043Z" fill="black"/>
<path opacity="0.1" d="M163.574 105.111C163.604 105.057 163.634 105.004 163.663 104.951C164.132 104.099 164.37 103.35 164.428 102.44C164.315 102.796 164.157 103.141 163.962 103.456C163.398 104.369 162.577 105.089 161.746 105.768C160.904 106.455 159.968 107.237 159.863 108.319C159.762 109.367 160.5 110.319 161.341 110.952C162.182 111.585 163.165 112.031 163.921 112.763C164.25 113.083 164.524 113.45 164.778 113.833C164.746 113.566 164.707 113.301 164.65 113.043C164.456 112.174 164.009 111.246 163.64 110.434C163.596 110.339 163.55 110.245 163.502 110.15C162.694 108.556 162.699 106.669 163.574 105.111Z" fill="black"/>
<path d="M155.372 97.713L155.369 98.5394C155.364 99.0322 155.689 99.5294 156.342 99.911C157.642 100.668 159.756 100.676 161.065 99.9294C161.39 99.7426 161.637 99.5262 161.8 99.2938C161.964 99.0642 162.045 98.8182 162.046 98.5718L162.05 97.7322C162.05 97.6578 162.044 97.583 162.024 97.5082C161.945 97.0898 161.629 96.6834 161.079 96.3634C161.063 96.3538 161.047 96.3438 161.031 96.3374C159.724 95.6062 157.646 95.6078 156.356 96.345C155.804 96.6606 155.482 97.0646 155.399 97.479C155.379 97.5574 155.372 97.6354 155.372 97.713Z" fill="#000F83"/>
<path opacity="0.1" d="M155.372 97.713L155.369 98.5394C155.364 99.0322 155.689 99.5294 156.342 99.911C157.642 100.668 159.756 100.676 161.065 99.9294C161.39 99.7426 161.637 99.5262 161.8 99.2938C161.964 99.0642 162.045 98.8182 162.046 98.5718L162.05 97.7322C162.05 97.6578 162.044 97.583 162.024 97.5082C161.945 97.0898 161.629 96.6834 161.079 96.3634C161.063 96.3538 161.047 96.3438 161.031 96.3374C159.724 95.6062 157.646 95.6078 156.356 96.345C155.804 96.6606 155.482 97.0646 155.399 97.479C155.379 97.5574 155.372 97.6354 155.372 97.713Z" fill="black"/>
<path opacity="0.2" d="M161.067 99.0909C162.374 98.3433 162.378 97.1225 161.078 96.3649C159.776 95.6069 157.662 95.5989 156.356 96.3465C155.049 97.0941 155.044 98.3149 156.345 99.0725C157.646 99.8305 159.76 99.8385 161.067 99.0909Z" fill="black"/>
<path d="M155.376 96.749L155.374 97.2462C155.373 97.3242 155.38 97.4018 155.399 97.4798C155.478 97.895 155.798 98.3014 156.347 98.6214C156.929 98.961 157.674 99.1486 158.432 99.1838C159.376 99.2326 160.346 99.0518 161.07 98.6366C161.395 98.4498 161.639 98.237 161.805 98.0042C161.919 97.8458 161.991 97.6774 162.024 97.509C162.044 97.4346 162.05 97.3566 162.051 97.2822L162.053 96.7686C162.055 96.2726 161.732 95.7786 161.082 95.4002C161.024 95.3678 160.966 95.335 160.904 95.3054C159.594 94.6422 157.607 94.667 156.36 95.3818C155.704 95.7582 155.374 96.253 155.376 96.749Z" fill="#000F83"/>
<path opacity="0.1" d="M155.376 96.749L155.374 97.2462C155.373 97.3242 155.38 97.4018 155.399 97.4798C155.478 97.895 155.798 98.3014 156.347 98.6214C156.929 98.961 157.674 99.1486 158.432 99.1838C159.376 99.2326 160.346 99.0518 161.07 98.6366C161.395 98.4498 161.639 98.237 161.805 98.0042C161.919 97.8458 161.991 97.6774 162.024 97.509C162.044 97.4346 162.05 97.3566 162.051 97.2822L162.053 96.7686C162.055 96.2726 161.732 95.7786 161.082 95.4002C161.024 95.3678 160.966 95.335 160.904 95.3054C159.594 94.6422 157.607 94.667 156.36 95.3818C155.704 95.7582 155.374 96.253 155.376 96.749Z" fill="black"/>
<path d="M155.376 96.7321C155.372 97.7921 156.863 98.6573 158.707 98.6645C160.551 98.6717 162.049 97.8181 162.053 96.7581C162.057 95.6981 160.566 94.8329 158.722 94.8257C156.878 94.8185 155.38 95.6721 155.376 96.7321Z" fill="#000F83"/>
<path d="M157.565 94.7632L157.558 96.4924C157.558 96.5192 157.56 96.5464 157.567 96.5732C157.595 96.7172 157.705 96.858 157.896 96.9688C158.098 97.0864 158.356 97.1516 158.619 97.1636C158.946 97.1804 159.282 97.118 159.533 96.974C159.645 96.9092 159.73 96.8356 159.788 96.7548C159.827 96.7 159.852 96.6416 159.864 96.5832C159.87 96.5576 159.873 96.5304 159.873 96.5044L159.88 94.7696C159.88 94.5976 159.769 94.4264 159.543 94.2952C159.523 94.284 159.503 94.2728 159.482 94.2624C159.028 94.0328 158.339 94.0412 157.906 94.2888C157.679 94.4196 157.564 94.5912 157.565 94.7632Z" fill="#000F83"/>
<path opacity="0.1" d="M157.565 94.7632L157.558 96.4924C157.558 96.5192 157.56 96.5464 157.567 96.5732C157.595 96.7172 157.705 96.858 157.896 96.9688C158.098 97.0864 158.356 97.1516 158.619 97.1636C158.946 97.1804 159.282 97.118 159.533 96.974C159.645 96.9092 159.73 96.8356 159.788 96.7548C159.827 96.7 159.852 96.6416 159.864 96.5832C159.87 96.5576 159.873 96.5304 159.873 96.5044L159.88 94.7696C159.88 94.5976 159.769 94.4264 159.543 94.2952C159.523 94.284 159.503 94.2728 159.482 94.2624C159.028 94.0328 158.339 94.0412 157.906 94.2888C157.679 94.4196 157.564 94.5912 157.565 94.7632Z" fill="black"/>
<path d="M157.565 94.7573C157.564 95.1245 158.081 95.4245 158.72 95.4269C159.359 95.4293 159.878 95.1336 159.879 94.766C159.881 94.3988 159.364 94.0989 158.725 94.0965C158.086 94.0941 157.566 94.3901 157.565 94.7573Z" fill="#000F83"/>
<path opacity="0.5" d="M158.311 94.76C158.311 94.8904 158.494 94.9968 158.721 94.9976C158.948 94.9984 159.132 94.8936 159.132 94.7632C159.133 94.6328 158.95 94.5264 158.722 94.5256C158.495 94.5248 158.312 94.6296 158.311 94.76Z" fill="#000F83"/>
<path opacity="0.3" d="M158.311 94.76C158.311 94.8904 158.494 94.9968 158.721 94.9976C158.948 94.9984 159.132 94.8936 159.132 94.7632C159.133 94.6328 158.95 94.5264 158.722 94.5256C158.495 94.5248 158.312 94.6296 158.311 94.76Z" fill="black"/>
<path d="M135.914 27.4392L106.897 44.1964C106.65 44.3392 106.449 44.6864 106.449 44.9716V57.0376C106.449 57.3232 106.651 57.6684 106.899 57.8084L108.503 58.7072C108.752 58.8476 109.154 58.8456 109.4 58.7028L138.417 41.9456C138.664 41.8028 138.865 41.4556 138.865 41.1704V29.1044C138.865 28.8188 138.663 28.4736 138.415 28.3336L136.811 27.4348C136.563 27.2944 136.161 27.2964 135.914 27.4392Z" fill="#000F83"/>
<path d="M108.953 58.4448V46.3788C108.953 46.0932 109.154 45.7464 109.401 45.6036L138.418 28.8464C138.665 28.7036 138.865 28.8192 138.865 29.1048V41.1708C138.865 41.4564 138.665 41.8036 138.418 41.946L109.401 58.7032C109.154 58.846 108.953 58.7304 108.953 58.4448Z" fill="#000F83"/>
<path opacity="0.2" d="M109.401 58.7032C109.162 58.8416 108.727 58.8464 108.502 58.7084L106.9 57.8076C106.652 57.6692 106.449 57.324 106.449 57.0384V44.9712C106.449 44.8224 106.505 44.6588 106.592 44.5144L109.085 45.938C109.002 46.0764 108.953 46.2356 108.953 46.3784V58.4436C108.953 58.7052 109.137 58.856 109.401 58.7032Z" fill="black"/>
<path opacity="0.4" d="M138.859 29.0236C138.824 28.7984 138.64 28.7176 138.417 28.8456L109.402 45.6036C109.278 45.676 109.166 45.798 109.085 45.9384L106.589 44.5148C106.67 44.3804 106.777 44.2648 106.897 44.1964L135.914 27.4384C136.16 27.2956 136.562 27.2936 136.812 27.4344L138.414 28.3332C138.64 28.4612 138.828 28.7568 138.859 29.0236Z" fill="white"/>
<path d="M105.222 54.3793C104.941 54.2117 102.836 53.0269 102.768 52.9873C102.562 52.8613 102.487 52.5553 102.68 52.3485L106.488 49.1965L108.953 50.5977L105.146 53.7517C104.96 53.9501 105.034 54.2429 105.222 54.3793Z" fill="#000F83"/>
<path opacity="0.1" d="M105.222 54.3793C104.941 54.2117 102.836 53.0269 102.768 52.9873C102.562 52.8613 102.487 52.5553 102.68 52.3485L106.488 49.1965L108.953 50.5977L105.146 53.7517C104.96 53.9501 105.034 54.2429 105.222 54.3793Z" fill="black"/>
<path d="M108.953 50.5986L105.146 53.751C104.888 54.0278 105.077 54.4074 105.402 54.4374L108.953 54.0222V50.5986Z" fill="#000F83"/>
<path d="M111.232 49.4781C111.207 49.4365 111.199 49.3801 111.206 49.3081C111.213 49.2365 111.232 49.1701 111.263 49.1089L112.38 46.9409C112.407 46.8877 112.441 46.8253 112.481 46.7529C112.521 46.6809 112.567 46.6297 112.619 46.5997L113.252 46.2341C113.291 46.2121 113.324 46.2177 113.351 46.2509C113.379 46.2841 113.393 46.3345 113.393 46.4021V52.3665C113.393 52.4341 113.379 52.5005 113.351 52.5661C113.324 52.6313 113.291 52.6749 113.252 52.6969L112.572 53.0897C112.534 53.1117 112.501 53.1061 112.474 53.0729C112.446 53.0397 112.432 52.9889 112.432 52.9213V48.8865L111.814 50.0741C111.783 50.1353 111.748 50.1725 111.71 50.1849C111.672 50.1981 111.641 50.1837 111.617 50.1421L111.232 49.4781Z" fill="#FAFAFA"/>
<path d="M115.22 51.3116C115.22 51.3792 115.206 51.4456 115.179 51.5112C115.151 51.5764 115.118 51.62 115.08 51.642L114.4 52.0348C114.362 52.0568 114.329 52.0512 114.301 52.018C114.274 51.9848 114.26 51.934 114.26 51.8668V50.6576C114.26 50.5896 114.273 50.5236 114.301 50.458C114.329 50.3932 114.362 50.3492 114.4 50.3272L115.08 49.934C115.118 49.912 115.151 49.9184 115.179 49.9512C115.206 49.9848 115.22 50.0352 115.22 50.1028V51.3116Z" fill="#FAFAFA"/>
<path d="M116.97 50.3014C116.97 50.369 116.956 50.4354 116.929 50.501C116.901 50.5662 116.868 50.6098 116.83 50.6318L116.15 51.0246C116.112 51.0466 116.079 51.0406 116.051 51.0074C116.024 50.9742 116.01 50.9238 116.01 50.8562V49.647C116.01 49.579 116.023 49.5126 116.051 49.447C116.079 49.3822 116.112 49.3382 116.15 49.3162L116.83 48.9234C116.868 48.9014 116.901 48.9074 116.929 48.9402C116.956 48.9738 116.97 49.0242 116.97 49.0918V50.3014Z" fill="#FAFAFA"/>
<path d="M118.72 49.2909C118.72 49.3585 118.706 49.4249 118.679 49.4901C118.651 49.5553 118.618 49.5989 118.58 49.6209L117.9 50.0137C117.862 50.0357 117.829 50.0301 117.802 49.9965C117.774 49.9633 117.76 49.9129 117.76 49.8453V48.6361C117.76 48.5681 117.774 48.5021 117.802 48.4365C117.829 48.3717 117.862 48.3277 117.9 48.3057L118.58 47.9129C118.618 47.8909 118.651 47.8969 118.679 47.9301C118.706 47.9637 118.72 48.0137 118.72 48.0817V49.2909Z" fill="#FAFAFA"/>
<path d="M122.392 43.0345C122.392 43.2129 122.382 43.3913 122.361 43.5697C122.34 43.7477 122.304 43.9297 122.254 44.1153C122.204 44.3013 122.138 44.4949 122.057 44.6957C121.976 44.8965 121.876 45.1081 121.758 45.3297L121.032 46.7281L122.335 45.9753C122.373 45.9533 122.406 45.9589 122.434 45.9921C122.461 46.0257 122.475 46.0761 122.475 46.1433V47.1221C122.475 47.1897 122.461 47.2561 122.434 47.3217C122.406 47.3869 122.373 47.4305 122.335 47.4525L119.593 49.0357C119.555 49.0577 119.522 49.0521 119.494 49.0189C119.467 48.9857 119.453 48.9349 119.453 48.8677V48.0737C119.453 47.9753 119.464 47.8705 119.487 47.7589C119.509 47.6477 119.548 47.5417 119.603 47.4425L121.156 44.5701C121.278 44.3401 121.354 44.1501 121.385 43.9997C121.416 43.8493 121.431 43.7125 121.431 43.5897C121.431 43.5469 121.427 43.4893 121.418 43.4169C121.41 43.3449 121.39 43.2797 121.359 43.2205C121.328 43.1617 121.284 43.1209 121.227 43.0985C121.17 43.0761 121.092 43.0929 120.996 43.1485C120.898 43.2045 120.82 43.2793 120.759 43.3729C120.699 43.4665 120.652 43.5593 120.619 43.6521C120.586 43.7449 120.562 43.8345 120.546 43.9201C120.53 44.0061 120.519 44.0697 120.512 44.1105C120.495 44.2069 120.468 44.2793 120.432 44.3281C120.396 44.3769 120.353 44.4149 120.305 44.4429L119.666 44.8117C119.634 44.8301 119.608 44.8253 119.585 44.7981C119.562 44.7713 119.552 44.7301 119.552 44.6745C119.555 44.4141 119.586 44.1389 119.645 43.8493C119.704 43.5601 119.793 43.2761 119.912 42.9981C120.032 42.7197 120.181 42.4649 120.359 42.2325C120.537 42.0001 120.748 41.8145 120.99 41.6745C121.218 41.5425 121.42 41.4857 121.595 41.5049C121.77 41.5241 121.916 41.6001 122.034 41.7321C122.152 41.8641 122.241 42.0433 122.302 42.2697C122.362 42.4965 122.392 42.7513 122.392 43.0345Z" fill="#FAFAFA"/>
<path d="M124.189 46.1334C124.189 46.201 124.175 46.2678 124.147 46.333C124.12 46.3982 124.087 46.4418 124.049 46.4638L123.368 46.8566C123.33 46.8786 123.297 46.873 123.27 46.8398C123.242 46.8066 123.228 46.7558 123.228 46.6886V45.4794C123.228 45.4114 123.242 45.3454 123.27 45.2794C123.297 45.2146 123.33 45.1706 123.368 45.1486L124.049 44.7558C124.087 44.7338 124.12 44.7402 124.147 44.773C124.175 44.8066 124.189 44.8566 124.189 44.9246V46.1334Z" fill="#FAFAFA"/>
<path d="M125.939 45.1233C125.939 45.1909 125.925 45.2573 125.897 45.3225C125.87 45.3877 125.837 45.4313 125.799 45.4533L125.118 45.8461C125.08 45.8681 125.047 45.8625 125.02 45.8293C124.992 45.7961 124.978 45.7453 124.978 45.6781V44.4689C124.978 44.4009 124.992 44.3349 125.02 44.2693C125.047 44.2045 125.08 44.1605 125.118 44.1385L125.799 43.7457C125.837 43.7237 125.87 43.7297 125.897 43.7625C125.925 43.7961 125.939 43.8461 125.939 43.9141V45.1233Z" fill="#FAFAFA"/>
<path d="M127.689 44.1125C127.689 44.1801 127.675 44.2465 127.647 44.3121C127.62 44.3773 127.587 44.4209 127.549 44.4429L126.868 44.8357C126.83 44.8577 126.798 44.8521 126.77 44.8189C126.742 44.7857 126.728 44.7353 126.728 44.6677V43.4585C126.728 43.3905 126.742 43.3241 126.77 43.2585C126.798 43.1937 126.83 43.1497 126.868 43.1277L127.549 42.7349C127.587 42.7129 127.62 42.7189 127.647 42.7521C127.675 42.7857 127.689 42.8357 127.689 42.9037V44.1125Z" fill="#FAFAFA"/>
<path d="M131.174 35.8869C131.212 35.8649 131.245 35.8705 131.272 35.9037C131.3 35.9369 131.314 35.9877 131.314 36.0549V37.0337C131.314 37.1013 131.302 37.1697 131.278 37.2389C131.254 37.3085 131.231 37.3673 131.21 37.4165L130.582 38.9053C130.852 38.8729 131.072 38.9537 131.241 39.1481C131.411 39.3421 131.496 39.6797 131.496 40.1597C131.496 40.8553 131.361 41.4565 131.091 41.9633C130.821 42.4701 130.443 42.8633 129.958 43.1433C129.709 43.2873 129.488 43.3621 129.296 43.3689C129.105 43.3753 128.942 43.3301 128.811 43.2337C128.679 43.1373 128.578 43.0005 128.507 42.8229C128.436 42.6453 128.399 42.4441 128.395 42.2177C128.395 42.1625 128.406 42.1085 128.429 42.0553C128.452 42.0025 128.478 41.9665 128.51 41.9485L129.164 41.5709C129.237 41.5289 129.292 41.5261 129.33 41.5625C129.368 41.5993 129.411 41.6377 129.458 41.6785C129.504 41.7193 129.565 41.7473 129.639 41.7625C129.714 41.7781 129.82 41.7461 129.958 41.6661C130.125 41.5701 130.262 41.4413 130.372 41.2797C130.48 41.1189 130.535 40.9305 130.535 40.7145C130.535 40.4993 130.48 40.3737 130.372 40.3381C130.262 40.3029 130.125 40.3325 129.958 40.4285L129.528 40.6773C129.489 40.6993 129.456 40.6941 129.429 40.6605C129.401 40.6273 129.387 40.5769 129.387 40.5089V39.7161C129.387 39.6481 129.399 39.5801 129.424 39.5105C129.448 39.4409 129.472 39.3777 129.496 39.3209L130.047 38.0153L128.691 38.7981C128.653 38.8201 128.62 38.8141 128.593 38.7809C128.565 38.7477 128.551 38.6973 128.551 38.6297V37.6509C128.551 37.5833 128.565 37.5169 128.593 37.4517C128.62 37.3865 128.653 37.3429 128.691 37.3209L131.174 35.8869Z" fill="#FAFAFA"/>
<path d="M133.21 40.9254C133.21 40.993 133.196 41.0598 133.168 41.125C133.141 41.1902 133.108 41.2338 133.07 41.2558L132.39 41.6486C132.352 41.6706 132.319 41.665 132.291 41.6318C132.264 41.5986 132.25 41.5478 132.25 41.4806V40.2714C132.25 40.2034 132.264 40.1374 132.291 40.0714C132.319 40.0066 132.352 39.9626 132.39 39.9406L133.07 39.5478C133.108 39.5258 133.141 39.5322 133.168 39.565C133.196 39.5986 133.21 39.6486 133.21 39.7166V40.9254Z" fill="#FAFAFA"/>
<path d="M134.96 39.915C134.96 39.9826 134.946 40.049 134.918 40.1142C134.891 40.1794 134.858 40.223 134.82 40.245L134.14 40.6378C134.102 40.6598 134.069 40.6538 134.041 40.6206C134.014 40.5874 134 40.5366 134 40.4694V39.2602C134 39.1922 134.014 39.1262 134.041 39.0606C134.069 38.9958 134.102 38.9518 134.14 38.9298L134.82 38.5366C134.858 38.5146 134.891 38.521 134.918 38.5538C134.946 38.5874 134.96 38.6374 134.96 38.7054V39.915Z" fill="#FAFAFA"/>
<path d="M136.71 38.9045C136.71 38.9721 136.696 39.0385 136.668 39.1041C136.641 39.1693 136.608 39.2129 136.57 39.2349L135.889 39.6277C135.851 39.6497 135.818 39.6441 135.791 39.6109C135.763 39.5777 135.75 39.5273 135.75 39.4597V38.2505C135.75 38.1825 135.763 38.1161 135.791 38.0505C135.818 37.9857 135.851 37.9417 135.889 37.9197L136.57 37.5269C136.608 37.5049 136.641 37.5109 136.668 37.5441C136.696 37.5777 136.71 37.6277 136.71 37.6957V38.9045Z" fill="#FAFAFA"/>
<g opacity="0.3">
<path d="M59.9244 111.084C59.9048 111.082 59.8856 111.079 59.8664 111.073L57.5768 110.425C57.4088 110.378 57.3112 110.203 57.3592 110.036C57.4064 109.868 57.5856 109.772 57.7488 109.818L60.0384 110.466C60.2064 110.513 60.304 110.688 60.256 110.856C60.2148 111.004 60.0728 111.097 59.9244 111.084Z" fill="black"/>
<path d="M57.5756 112.858C57.446 112.847 57.3316 112.755 57.2984 112.621C57.2552 112.452 57.358 112.28 57.5268 112.237L59.8336 111.654C60.0032 111.612 60.1744 111.714 60.2168 111.883C60.26 112.052 60.1572 112.224 59.9884 112.267L57.6816 112.85C57.646 112.859 57.6104 112.861 57.5756 112.858Z" fill="black"/>
<path d="M58.7357 114.986C58.6629 114.979 58.5925 114.948 58.5381 114.892C58.4165 114.767 58.4192 114.567 58.5444 114.445L60.2509 112.787C60.3753 112.665 60.5761 112.669 60.6969 112.793C60.8185 112.919 60.8157 113.118 60.6905 113.24L58.9841 114.898C58.9157 114.965 58.8241 114.994 58.7357 114.986Z" fill="black"/>
<path d="M60.8044 116.249C60.7848 116.247 60.7656 116.244 60.7464 116.238C60.5784 116.191 60.4812 116.016 60.5288 115.849L61.1768 113.559C61.224 113.391 61.4008 113.294 61.5664 113.341C61.7344 113.389 61.8316 113.563 61.784 113.731L61.136 116.021C61.0944 116.169 60.9528 116.262 60.8044 116.249Z" fill="black"/>
</g>
<path d="M123.292 80.7267C123.359 80.6879 117.575 84.0279 117.575 84.0279L105.02 85.8427C105.02 85.8427 95.8436 72.0755 94.4392 69.9107C93.0348 67.7455 91.3948 66.3607 87.59 66.3635L88.3088 77.3471C88.4276 77.7019 96.0176 87.0507 101.022 92.1395C102.788 93.9363 103.874 94.3935 106.64 93.6271C113.694 91.6723 122.232 85.8771 122.93 84.4235C123.833 82.5419 123.224 80.7655 123.292 80.7267Z" fill="#FFA8A7"/>
<path d="M120.938 73.7647C121.687 71.3139 124.75 69.2867 127.614 70.0887L127.612 70.0895C128.024 70.2011 128.456 70.3823 128.902 70.6395C131.679 72.2415 133.93 76.1407 133.93 79.3483C133.93 79.9479 133.851 80.4803 133.705 80.9399L133.706 80.9395C132.956 83.3903 129.894 85.4059 127.03 84.6039L127.031 84.6035C126.62 84.4915 126.189 84.3103 125.744 84.0535C122.967 82.4503 120.716 78.5511 120.716 75.3447C120.716 74.7503 120.794 74.2219 120.938 73.7647Z" fill="#455A64"/>
<path d="M125.745 84.0535C122.968 82.4503 120.717 78.5511 120.717 75.3447C120.717 72.1383 122.968 70.8375 125.745 72.4391C128.522 74.0411 130.773 77.9403 130.773 81.1479C130.773 84.3559 128.522 85.6567 125.745 84.0535Z" fill="#37474F"/>
<path d="M125.745 75.9964C124.677 75.3796 123.811 75.8796 123.811 77.1128C123.811 78.346 124.677 79.8456 125.745 80.4624C126.813 81.0792 127.679 80.5792 127.679 79.346C127.679 78.1128 126.813 76.6132 125.745 75.9964Z" fill="#455A64"/>
<path d="M125.083 77.8466C125.083 78.2686 125.378 78.7818 125.744 78.995C125.914 79.0942 126.072 79.1094 126.188 79.0534C126.206 79.0458 126.222 79.0358 126.237 79.0254C126.344 78.9494 126.407 78.807 126.407 78.6114C126.407 78.1894 126.11 77.6762 125.744 77.463C125.574 77.3638 125.419 77.3486 125.302 77.4046L125.254 77.4326C125.146 77.5062 125.083 77.6486 125.083 77.8466Z" fill="#37474F"/>
<path d="M114.46 83.9798C114.46 84.4018 114.755 84.915 115.121 85.1258C115.228 85.1894 115.322 85.2146 115.408 85.2146C115.487 85.2146 115.558 85.1918 115.63 85.151L126.188 79.0534C126.206 79.0458 126.222 79.0358 126.237 79.0254C126.344 78.9494 126.407 78.807 126.407 78.6114C126.407 78.1894 126.11 77.6762 125.744 77.463C125.574 77.3638 125.419 77.3486 125.302 77.4046L125.254 77.4326L114.694 83.5278C114.544 83.6138 114.46 83.7434 114.46 83.9798Z" fill="#FAFAFA"/>
<path d="M104.096 83.4859C104.845 81.0351 107.908 79.0079 110.772 79.8099L110.77 79.8107C111.182 79.9223 111.614 80.1035 112.06 80.3607C114.837 81.9627 117.088 85.8619 117.088 89.0695C117.088 89.6691 117.009 90.2015 116.863 90.6611L116.864 90.6607C116.114 93.1115 113.052 95.1271 110.188 94.3251L110.189 94.3247C109.778 94.2127 109.347 94.0315 108.902 93.7747C106.126 92.1715 103.874 88.2723 103.874 85.0659C103.874 84.4715 103.952 83.9427 104.096 83.4859Z" fill="#455A64"/>
<path d="M108.902 93.7747C106.126 92.1715 103.874 88.2723 103.874 85.0659C103.874 81.8595 106.126 80.5587 108.902 82.1603C111.68 83.7623 113.93 87.6615 113.93 90.8691C113.931 94.0771 111.679 95.3779 108.902 93.7747Z" fill="#37474F"/>
<path d="M108.902 85.7176C107.834 85.1008 106.968 85.6008 106.968 86.834C106.968 88.0672 107.834 89.5668 108.902 90.1836C109.97 90.8004 110.836 90.3004 110.836 89.0672C110.836 87.834 109.97 86.334 108.902 85.7176Z" fill="#455A64"/>
<path d="M108.241 87.568C108.241 87.9896 108.536 88.5032 108.902 88.7164C109.072 88.8156 109.23 88.8308 109.346 88.7748C109.364 88.7672 109.38 88.7572 109.395 88.7468C109.502 88.6704 109.565 88.5284 109.565 88.3324C109.565 87.9104 109.268 87.3972 108.902 87.184C108.732 87.0848 108.577 87.0696 108.46 87.1256L108.412 87.1536C108.304 87.2276 108.241 87.3696 108.241 87.568Z" fill="#37474F"/>
<path d="M106.64 88.4928C106.64 88.9148 106.934 89.428 107.3 89.6388C107.407 89.7024 107.501 89.7276 107.588 89.7276C107.666 89.7276 107.738 89.7048 107.809 89.664L109.346 88.7748C109.364 88.7672 109.379 88.7572 109.394 88.7468C109.501 88.6704 109.565 88.5284 109.565 88.3324C109.565 87.9104 109.268 87.3972 108.902 87.184C108.731 87.0848 108.576 87.0696 108.46 87.1256L108.411 87.1536L106.874 88.0404C106.724 88.1272 106.64 88.2568 106.64 88.4928Z" fill="#FAFAFA"/>
<path d="M106.64 88.4887C106.64 88.9107 106.934 89.4239 107.3 89.6371C107.471 89.7363 107.628 89.7515 107.745 89.6955C107.763 89.6879 107.778 89.6779 107.794 89.6675C107.9 89.5915 107.964 89.4491 107.964 89.2535C107.964 88.8315 107.667 88.3183 107.301 88.1051C107.13 88.0059 106.976 87.9907 106.859 88.0467L106.81 88.0747C106.703 88.1483 106.64 88.2903 106.64 88.4887Z" fill="#E0E0E0"/>
<path d="M119.63 87.2527C122.057 85.3979 124.385 85.4131 123.965 80.8819C123.609 78.8647 123.114 78.7395 121.158 77.9803C120.301 77.6475 119.169 77.3971 118.474 78.1807C118.392 78.2735 118.32 78.3763 118.223 78.4535C118.037 78.6015 117.788 78.6347 117.552 78.6695C117.104 78.7359 116.626 78.8455 116.328 79.1863C116.101 79.4455 116.013 79.8027 115.79 80.0647C115.598 80.2903 115.322 80.4263 115.098 80.6199C114.746 80.9235 114.527 81.3795 114.525 81.8443C114.523 82.4375 114.861 82.8167 115.263 83.1995L116.485 82.4939C116.986 82.1491 118.018 83.3775 117.575 84.0279C116.872 85.0583 119.63 87.2527 119.63 87.2527Z" fill="#FFA8A7"/>
<path d="M91.3497 96.3573C92.1257 93.2177 92.3497 85.3821 92.3497 85.3821L69.6353 86.0629C69.6353 86.0629 70.5845 89.8565 70.8737 91.0129C71.1629 92.1693 71.1985 94.3925 71.1985 94.3925C71.1985 94.3925 73.4025 98.4749 79.9365 99.1961C86.4709 99.9173 91.3497 96.3573 91.3497 96.3573Z" fill="#FFA8A7"/>
<path d="M92.3496 85.3821C92.3752 85.6305 92.2185 88.0037 92.2185 88.0037C89.3133 90.4481 79.996 91.6853 70.2276 88.4313L68.1548 80.4345C68.1548 80.4345 75.1888 77.3473 70.4384 66.9881L75.5444 66.5921L84.6112 66.3633C86.8116 66.3633 87.5896 66.3633 87.5896 66.3633C88.9736 67.6685 91.6304 70.5733 93.7208 74.4757C94.9088 76.6925 96.4224 79.9381 92.3496 85.3821Z" fill="#455A64"/>
<path d="M79.5096 85.4534C75.4188 84.4094 74.3916 81.8494 74.1008 79.9734C74.1008 79.9734 73.328 85.4534 79.178 86.7306C85.3448 88.0766 87.8808 83.1934 87.8808 83.1934C87.8808 83.1934 84.4464 86.7134 79.5096 85.4534Z" fill="#37474F"/>
<path d="M44.6764 146.436C43.484 147.313 40.7112 147.522 38.266 146.379C35.8208 145.235 34.8112 141.996 35.2672 139.464C35.8192 136.396 37.3356 134.718 37.722 132.872C38.1088 131.027 37.708 128.465 38.3036 126.823C38.87 125.263 40.1064 124.469 41.1044 124.07C41.9224 123.744 42.85 123.843 43.6084 124.291L44.33 124.717L44.6764 146.436Z" fill="#263238"/>
<path d="M47.538 134.737L45.642 140.422C45.642 140.422 46.8396 144.481 46.1664 145.558C45.1692 147.153 43.4144 147.439 40.458 146.537C37.078 145.507 36.2792 142.449 36.446 140.071C36.6836 136.685 39.8148 134.135 39.4572 130.879C39.2824 129.288 39.5008 127.49 40.3752 126.117C41.3556 124.579 42.9656 124.29 44.6348 124.794C46.0648 125.225 47.3216 126.125 48.5316 126.97C48.87 127.206 49.2136 127.447 49.4692 127.771C49.6928 128.054 49.8412 128.39 49.9496 128.734C50.1692 129.43 50.2328 130.174 50.1392 130.898C50.0512 131.577 49.6188 131.974 49.2144 132.511C48.6556 133.252 48.0968 133.995 47.538 134.737Z" fill="#37474F"/>
<path d="M55.7104 132.042C55.5928 131.997 49.8008 128.293 49.1752 128.015C48.5496 127.737 47.0184 127.338 45.5324 130.773C44.4736 133.221 45.9976 134.124 45.9976 134.124L52.7752 138.162L55.7104 132.042Z" fill="#FFA8A7"/>
<path d="M45.6424 140.422C44.8308 140.001 43.1148 139.428 41.6908 139.539C41.242 139.575 40.894 139.159 41.0336 138.731L41.0372 138.72C41.1152 138.481 41.3284 138.314 41.5788 138.294C42.4956 138.223 44.7204 138.197 46.1972 139.412C46.584 140.223 45.6424 140.422 45.6424 140.422Z" fill="#000F83"/>
<path d="M46.3368 137.824C45.548 137.361 43.8636 136.7 42.436 136.738C41.986 136.75 41.66 136.318 41.8216 135.897L41.826 135.886C41.9164 135.651 42.138 135.495 42.3892 135.488C43.3084 135.464 45.5316 135.553 46.9436 136.843C47.2872 137.674 46.3368 137.824 46.3368 137.824Z" fill="#000F83"/>
<path opacity="0.3" d="M45.6424 140.422C44.8308 140.001 43.1148 139.428 41.6908 139.539C41.242 139.575 40.894 139.159 41.0336 138.731L41.0372 138.72C41.1152 138.481 41.3284 138.314 41.5788 138.294C42.4956 138.223 44.7204 138.197 46.1972 139.412C46.584 140.223 45.6424 140.422 45.6424 140.422Z" fill="black"/>
<path opacity="0.3" d="M46.3368 137.824C45.548 137.361 43.8636 136.7 42.436 136.738C41.986 136.75 41.66 136.318 41.8216 135.897L41.826 135.886C41.9164 135.651 42.138 135.495 42.3892 135.488C43.3084 135.464 45.5316 135.553 46.9436 136.843C47.2872 137.674 46.3368 137.824 46.3368 137.824Z" fill="black"/>
<path d="M105.367 147.051L112.888 144.067C112.762 142.129 112.283 139.542 112.78 134.451L104.247 132.826V141.371L105.367 147.051Z" fill="#FFA8A7"/>
<path d="M126.832 153.658C127.049 154.112 126.986 154.963 126.728 155.503C126.471 156.043 123.651 157.633 119.848 157.376C116.044 157.12 113.432 155.587 111.982 154.627C110.532 153.667 109.022 153.487 107.139 153.38C105.255 153.272 102.782 152.333 102.369 151.452C101.956 150.571 102.431 149.054 102.431 149.054L126.832 153.658Z" fill="#263238"/>
<path d="M111.483 141.787C111.582 141.766 111.682 141.745 111.784 141.725C111.95 141.692 112.122 141.659 112.286 141.697C112.472 141.742 112.625 141.873 112.755 142.014C113.164 142.459 113.411 143.025 113.727 143.54C114.524 144.841 116.198 145.917 118.026 146.9C119.268 147.568 120.486 148.086 121.768 148.663C123.077 149.252 124.814 149.611 125.838 150.302C127.33 151.308 127.523 153.835 125.822 154.833C124.356 155.694 120.496 156.627 116.447 155.481C114.242 154.856 111.794 152.5 108.9 152.273C107.059 152.129 103.578 151.612 102.393 150.214C101.955 149.594 102.54 147.629 103.02 145.933C103.544 144.081 103.738 140.816 104.352 140.979C104.352 140.979 104.186 141.441 104.425 141.687C104.652 141.922 105.51 142.43 105.757 142.641C106.212 143.029 106.492 143.579 106.775 144.106C106.898 144.334 107.044 144.577 107.298 144.672C107.608 144.789 107.84 144.593 108.112 144.468C108.453 144.311 108.852 144.283 109.212 144.39C109.176 144.023 109.111 143.659 109.018 143.303C108.987 143.188 108.954 143.066 108.99 142.953C109.027 142.838 109.128 142.757 109.226 142.688C109.936 142.19 110.669 141.963 111.483 141.787Z" fill="#37474F"/>
<path d="M116.306 145.899C116.306 145.899 116.042 145.193 114.947 144.989C114.11 144.833 112.63 145.451 111.711 146.208C111.334 146.518 111.383 147.107 111.81 147.343C112.064 147.483 112.375 147.447 112.594 147.256C113.197 146.731 114.549 145.778 116.306 145.899Z" fill="#000F83"/>
<path d="M118.902 147.353C118.902 147.353 118.361 146.507 117.292 146.523C117.292 146.523 115.104 146.586 113.751 147.848C113.406 148.17 113.429 148.718 113.843 148.945C114.089 149.08 114.389 149.044 114.598 148.857C115.208 148.313 116.431 147.168 118.902 147.353Z" fill="#000F83"/>
<path d="M121.768 148.663C121.768 148.663 121.165 147.897 120.096 147.914C120.096 147.914 118.058 147.99 116.704 149.252C116.359 149.574 116.383 150.121 116.797 150.349C117.043 150.484 117.343 150.448 117.552 150.261C118.162 149.717 119.297 148.479 121.768 148.663Z" fill="#000F83"/>
<path opacity="0.3" d="M116.306 145.899C116.306 145.899 116.042 145.193 114.947 144.989C114.11 144.833 112.63 145.451 111.711 146.208C111.334 146.518 111.383 147.107 111.81 147.343C112.064 147.483 112.375 147.447 112.594 147.256C113.197 146.731 114.549 145.778 116.306 145.899Z" fill="black"/>
<path opacity="0.3" d="M118.902 147.353C118.902 147.353 118.361 146.507 117.292 146.523C117.292 146.523 115.104 146.586 113.751 147.848C113.406 148.17 113.429 148.718 113.843 148.945C114.089 149.08 114.389 149.044 114.598 148.857C115.208 148.313 116.431 147.168 118.902 147.353Z" fill="black"/>
<path opacity="0.3" d="M121.768 148.663C121.768 148.663 121.165 147.897 120.096 147.914C120.096 147.914 118.058 147.99 116.704 149.252C116.359 149.574 116.383 150.121 116.797 150.349C117.043 150.484 117.343 150.448 117.552 150.261C118.162 149.717 119.297 148.479 121.768 148.663Z" fill="black"/>
<path d="M110.508 104.143C104.79 102.86 91.1284 100.004 91.1284 100.004L91.3496 96.3571C86.4072 98.9163 75.9956 98.1931 71.1984 94.3923L70.4404 98.2595C70.4404 98.2595 67.7536 101.354 65.7424 105.333C64.6456 107.503 62.8116 110.89 64.6364 118.782C65.708 123.417 67.138 135.622 67.138 135.622L53.1528 130.464C53.1528 130.464 51.9416 130.668 50.9348 133.29C50.338 134.844 50.1164 136.336 50.7448 137.108C55.8636 141.15 64.16 147.756 72.5432 151.46C78.1396 153.605 81.1196 148.895 81.3936 147.152C82.4432 140.472 83.6584 119.009 83.6584 119.009L102.344 118.412C101.726 121.956 104.247 135.804 104.247 135.804C104.247 135.804 108.852 137.8 112.669 135.756C112.669 135.756 115.221 119.818 115.465 114.505C115.737 108.577 116.042 105.386 110.508 104.143Z" fill="#000F83"/>
<path opacity="0.15" d="M102.344 118.412C102.344 117.456 102.979 114.114 105.143 112.336C105.143 112.336 102.177 112.867 100.819 118.46L102.344 118.412Z" fill="black"/>
<path opacity="0.15" d="M67.138 135.621C67.138 135.621 67.5188 140.892 68.5456 143.458C68.5456 143.458 66.0192 138.897 65.7304 135.102L67.138 135.621Z" fill="black"/>
<path opacity="0.15" d="M91.1252 100.004L91.3464 96.3587C86.4036 98.9155 75.9988 98.1923 71.2012 94.3943C71.2 94.3939 71.1992 94.3935 71.198 94.3931L70.4404 98.2595L70.4388 98.2615C70.476 98.3003 73.5564 101.482 81.5644 101.897C89.622 102.315 91.1252 100.004 91.1252 100.004Z" fill="black"/>
<path opacity="0.15" d="M83.6588 119.009C83.6588 119.009 83.786 112.99 78.76 108.577C78.76 108.577 83.0656 110.559 84.5036 116.906C84.5036 116.906 87.7128 115.417 89.3752 110.943C89.3752 110.943 88.8636 115.417 86.288 117.957L94.0544 118.677L83.6588 119.009Z" fill="black"/>
<path d="M81.1404 38.1072C74.2356 38.1072 68.6384 43.7044 68.6384 50.6092C68.6384 57.514 74.2356 63.1112 81.1404 63.1112C88.0452 63.1112 93.6424 57.514 93.6424 50.6092C93.6424 43.7044 88.0452 38.1072 81.1404 38.1072Z" fill="#263238"/>
<path d="M68.1016 45.7235C68.5524 45.7035 69.0052 45.7283 69.4516 45.7995C69.6028 45.8239 69.7664 45.8607 69.8612 45.9811C69.9288 46.0671 69.9484 46.1803 69.962 46.2887C70.0456 46.9539 70.0168 47.7215 69.7744 48.3547C69.5972 48.8171 69.0472 49.0547 68.6992 49.3915C67.3472 50.7011 67.24 52.8743 67.7712 54.6799C68.3024 56.4855 69.3548 58.0899 70.0652 59.8331C70.7864 61.6023 71.1228 63.6783 70.1448 65.4171C69.7656 66.0915 69.0732 66.6015 69.1556 67.4291C69.2532 68.4095 70.1072 69.3475 70.4772 70.2411C70.9048 71.2739 71.0036 72.4227 70.89 73.5347C70.7504 74.9051 70.2796 76.2659 69.394 77.3203C68.0952 78.8671 65.9144 79.6159 63.9392 79.1935C63.5268 79.1051 63.1152 78.9655 62.7852 78.7023C62.1948 78.2315 61.9616 77.4579 61.6424 76.7735C60.6116 74.5639 58.4388 72.9547 57.78 70.6071C57.0836 68.1239 58.2772 65.5075 59.7412 63.3839C60.4252 62.3919 61.1892 61.4167 61.5236 60.2591C61.9752 58.6939 61.5812 57.0291 61.4776 55.4035C61.3768 53.8171 61.56 52.2135 62.0156 50.6907C62.346 49.5867 62.8536 48.3147 63.7144 47.5239C64.9036 46.4323 66.4912 45.7947 68.1016 45.7235Z" fill="#263238"/>
<path d="M88.9764 43.8291C90.3464 44.6463 92.0296 48.1075 91.832 55.3483C91.6648 61.4851 89.6692 62.9927 88.6684 63.4259C87.668 63.8587 85.7428 63.5851 83.8708 63.2651L83.8556 66.9483C83.8556 66.9483 86.4316 69.9651 86.2616 71.6539C86.092 73.3423 82.5152 73.7267 80.1 72.0667C77.6848 70.4067 75.6576 67.1823 75.6576 67.1823L75.7348 58.7131C75.7348 58.7131 74.628 59.7791 72.766 58.1375C71.2288 56.7823 70.7184 54.5051 71.9256 53.2895C73.1328 52.0739 75.354 52.4155 76.1988 54.1595C76.1988 54.1595 79.1852 54.2811 83.1716 52.1123C87.1584 49.9431 88.702 46.2075 88.9764 43.8291Z" fill="#FFA8A7"/>
<path d="M84.9864 53.778C85.0068 54.2204 84.6784 54.594 84.2524 54.6124C83.8264 54.6308 83.4648 54.2871 83.4444 53.8447C83.424 53.4023 83.7524 53.0291 84.1784 53.0107C84.6044 52.9919 84.966 53.336 84.9864 53.778Z" fill="#263238"/>
<g opacity="0.5">
<path d="M85.1708 58.9814L86.9608 59.5606C86.8096 60.073 86.2868 60.3586 85.7924 60.199C85.298 60.0386 85.02 59.4938 85.1708 58.9814Z" fill="#F28F8F"/>
</g>
<path d="M91.324 51.4343L89.7672 50.3455C90.054 49.9007 90.6352 49.7839 91.0652 50.0847C91.4944 50.3855 91.6108 50.9899 91.324 51.4343Z" fill="#263238"/>
<path d="M90.9564 53.2446C90.9768 53.687 90.648 54.0602 90.2224 54.079C89.7964 54.0974 89.4348 53.7538 89.4148 53.3114C89.3944 52.869 89.7228 52.4954 90.1484 52.477C90.5744 52.4586 90.936 52.8022 90.9564 53.2446Z" fill="#263238"/>
<g opacity="0.5">
<path d="M87.3172 52.7876L87.4212 57.434L89.8692 56.6868L87.3172 52.7876Z" fill="#F28F8F"/>
</g>
<g opacity="0.5">
<path d="M83.8712 63.2647C81.8988 62.9975 77.8432 61.8143 77.2168 60.2063C77.2168 60.2063 77.4236 61.2159 78.632 62.2607C79.8408 63.3051 83.8664 64.4931 83.8664 64.4931L83.8712 63.2647Z" fill="#F28F8F"/>
</g>
<path d="M70.4388 66.988C66.5664 67.262 64.9688 67.756 62.8132 72.5384C60.874 76.8408 56.2336 87.9652 55.0724 90.4476C53.9116 92.93 53.6936 93.9248 54.6624 96.5192C55.4524 98.6348 61.9968 110.791 62.7116 112.563C63.4264 114.335 63.744 116.127 64.9636 118.192C66.1828 120.257 68.1116 122.271 69.6348 122.748C71.8948 123.456 74.8196 122.47 74.9216 121.109C75.0236 119.747 71.6056 117.466 70.6808 114.439C70.6808 114.439 71.696 115.115 72.6152 115.49C73.534 115.866 74.5552 115.785 74.8612 115.264C75.1676 114.743 74.2488 114.426 73.4316 113.614C72.944 113.13 72.0796 112.045 70.976 111.084C70.23 110.435 69.0024 110.243 68.4536 109.532C68.1544 109.152 66.8108 105.858 65.802 102.925C64.5524 99.292 62.9088 94.4524 62.9088 94.4524L69.6348 80.434C69.6348 80.434 74.924 75.1884 70.4388 66.988Z" fill="#FFA8A7"/>
<path d="M62.7117 112.563C62.7117 112.563 64.2616 109.431 68.454 109.532L67.3464 107.067C67.3464 107.067 63.2536 107.356 61.5276 110.126L62.7117 112.563Z" fill="#37474F"/>
<path d="M62.2609 109.902L63.1729 111.18C63.4521 111.571 63.9897 111.654 64.3741 111.365L65.9833 110.155C66.3673 109.866 66.4601 109.309 66.1901 108.911L65.3541 107.678C65.0841 107.28 64.5489 107.186 64.1589 107.466L62.4621 108.686C62.0717 108.966 61.9817 109.511 62.2609 109.902Z" fill="#263238"/>
<path d="M61.9588 109.871L62.8708 111.149C63.15 111.54 63.6876 111.623 64.072 111.334L65.6812 110.124C66.0652 109.835 66.158 109.278 65.888 108.88L65.052 107.647C64.782 107.249 64.2468 107.154 63.8568 107.435L62.1604 108.654C61.7696 108.936 61.6796 109.48 61.9588 109.871Z" fill="#455A64"/>
<path d="M65.7112 109.451C65.6944 109.616 65.6112 109.765 65.4832 109.861L63.8744 111.072C63.76 111.158 63.6208 111.193 63.4816 111.172C63.3432 111.151 63.2212 111.075 63.1376 110.959L62.2256 109.681C62.1488 109.573 62.114 109.441 62.1276 109.309C62.1436 109.154 62.2252 109.013 62.3516 108.922L64.0484 107.702C64.164 107.619 64.3032 107.587 64.4408 107.611C64.5788 107.635 64.6992 107.714 64.78 107.833L65.616 109.065C65.6916 109.176 65.7252 109.313 65.7112 109.451Z" fill="#000F83"/>
</svg>
