<svg width="73" height="81" viewBox="0 0 73 81" fill="none" xmlns="http://www.w3.org/2000/svg">
<path d="M66.6523 60.9805L66.567 61.0955L66.5555 61.2383C66.4064 63.0964 66.2795 65.2975 66.3061 67.2072C66.3193 68.1612 66.371 69.0546 66.4806 69.8016C66.5872 70.5276 66.7579 71.1916 67.0571 71.626C67.8872 72.8313 69.3653 73.9395 70.5442 74.8233L70.5848 74.8538C71.1421 75.2716 71.6287 75.637 71.9876 75.9559C72.1665 76.1149 72.2992 76.2499 72.3881 76.3623C72.475 76.4722 72.4922 76.5261 72.4941 76.532C72.4943 76.5326 72.4944 76.5327 72.4943 76.5324C72.5246 76.7142 72.4411 77.0732 71.5832 77.6464C70.7589 78.1972 69.3852 78.8296 67.2995 79.5804C65.2422 80.321 64.0338 80.3582 62.9914 79.71C62.447 79.3714 61.9087 78.8227 61.317 77.994C60.7257 77.166 60.0997 76.0854 59.3696 74.7087C58.6601 73.3707 58.3011 71.5697 58.1771 69.5922L58.1244 68.7532L57.4123 69.2C51.6941 72.7873 44.9305 74.8617 37.6808 74.8617C17.1464 74.8617 0.5 58.2152 0.5 37.6808C0.5 17.1464 17.1464 0.5 37.6808 0.5C47.9457 0.5 57.2382 4.65906 63.9668 11.3852C65.2699 12.6877 65.3715 14.2984 64.7078 15.5967C64.037 16.9091 62.5693 17.9217 60.6847 17.9217C59.3493 17.9217 58.0685 17.3485 57.0499 16.42C51.9392 11.7614 45.1412 8.92021 37.6808 8.92021C21.7968 8.92021 8.92021 21.7968 8.92021 37.6808C8.92021 53.5649 21.7968 66.4415 37.6808 66.4415C46.2267 66.4415 53.9024 62.7136 59.1695 56.797C60.1882 55.6527 61.5871 54.9279 63.0698 54.9279C64.7827 54.9279 66.1657 55.806 66.8743 56.996C67.5778 58.1774 67.6238 59.6704 66.6523 60.9805ZM64.7352 37.2857C64.7345 37.2864 64.7339 37.287 64.7332 37.2877L64.7352 37.2857ZM52.7461 25.9984L64.4682 37.7204L41.1197 61.0689C40.6262 61.5625 39.826 61.5625 39.3324 61.0689C38.8388 60.5753 38.8388 59.7751 39.3324 59.2816L58.7637 39.8503C59.94 38.674 59.94 36.7669 58.7637 35.5906L51.8773 28.7042C50.5048 27.3317 48.2796 27.3317 46.9071 28.7042L28.3241 47.2872C26.9516 48.6597 26.9516 50.8849 28.3241 52.2574L35.3232 59.2565C35.8168 59.7501 35.8168 60.5503 35.3232 61.0438C34.8297 61.5374 34.0295 61.5374 33.5359 61.0438L25.6155 53.1235C24.7518 52.2598 23.3515 52.2598 22.4878 53.1235C22.0147 53.5966 21.2475 53.5966 20.7744 53.1235L20.7005 53.0496C20.2273 52.5764 20.2273 51.8093 20.7005 51.3361C21.5642 50.4724 21.5642 49.0721 20.7005 48.2085L11.0859 38.5938C10.5923 38.1003 10.5923 37.3 11.0859 36.8065L12.1953 35.697C12.264 35.6716 12.3285 35.6313 12.3837 35.5761L33.692 14.2678C34.1855 13.7742 34.9858 13.7742 35.4793 14.2678C35.9729 14.7614 35.9729 15.5616 35.4793 16.0551L15.9304 35.604C14.7542 36.7803 14.7542 38.6874 15.9304 39.8637L21.5666 45.4998C22.9391 46.8723 25.1643 46.8723 26.5368 45.4998L45.1197 26.9169C46.4922 25.5444 46.4922 23.3192 45.1198 21.9467L39.2533 16.0802C38.7597 15.5867 38.7597 14.7864 39.2533 14.2929C39.7468 13.7993 40.5471 13.7993 41.0406 14.2929L47.8256 21.0778C48.6908 21.943 50.0936 21.943 50.9588 21.0778C51.4335 20.6032 52.2031 20.6032 52.6778 21.0778L52.7461 21.1462C53.2208 21.6209 53.2208 22.3905 52.7461 22.8652C51.8809 23.7304 51.8809 25.1332 52.7461 25.9984Z" fill="url(#paint0_linear_66_46)" stroke="#000F83"/>
<defs>
<linearGradient id="paint0_linear_66_46" x1="65.146" y1="37.6808" x2="10.2157" y2="13.3976" gradientUnits="userSpaceOnUse">
<stop stop-color="#000F83"/>
<stop offset="0.5" stop-color="#0145CE"/>
<stop offset="1" stop-color="#ACD5FF"/>
</linearGradient>
</defs>
</svg>
